<svg xmlns="http://www.w3.org/2000/svg" xmlns:xlink="http://www.w3.org/1999/xlink" contentStyleType="text/css" data-diagram-type="STATE" height="1353px" preserveAspectRatio="none" style="width:1404px;height:1353px;background:#FFFFFF;" version="1.1" viewBox="0 0 1404 1353" width="1404px" zoomAndPan="magnify"><defs/><g><g id="Opened"><rect fill="#F1F1F1" height="78.2031" rx="12.5" ry="12.5" style="stroke:#181818;stroke-width:0.5;" width="89.7969" x="571.97" y="198"/><line style="stroke:#181818;stroke-width:0.5;" x1="571.97" x2="661.7669" y1="224.2969" y2="224.2969"/><text fill="#000000" font-family="sans-serif" font-size="14" font-weight="bold" lengthAdjust="spacing" textLength="60.9014" x="586.4178" y="215.9951">Opened</text><ellipse cx="582.47" cy="235.7656" fill="#000000" rx="2.5" ry="2.5"/><text fill="#000000" font-family="monospace" font-size="12" lengthAdjust="spacing" textLength="43.3477" x="588.97" y="240.4355">Amount</text><ellipse cx="582.47" cy="249.7344" fill="#000000" rx="2.5" ry="2.5"/><text fill="#000000" font-family="monospace" font-size="12" lengthAdjust="spacing" textLength="57.7969" x="588.97" y="254.4043">Snapshot</text><ellipse cx="582.47" cy="263.7031" fill="#000000" rx="2.5" ry="2.5"/><text fill="#000000" font-family="monospace" font-size="12" lengthAdjust="spacing" textLength="43.3477" x="588.97" y="268.373">Period</text></g><g id="Closed"><rect fill="#F1F1F1" height="92.1719" rx="12.5" ry="12.5" style="stroke:#181818;stroke-width:0.5;" width="82.5723" x="575.58" y="479.2"/><line style="stroke:#181818;stroke-width:0.5;" x1="575.58" x2="658.1523" y1="505.4969" y2="505.4969"/><text fill="#000000" font-family="sans-serif" font-size="14" font-weight="bold" lengthAdjust="spacing" textLength="52.541" x="590.5956" y="497.1951">Closed</text><ellipse cx="586.08" cy="516.9656" fill="#000000" rx="2.5" ry="2.5"/><text fill="#000000" font-family="monospace" font-size="12" lengthAdjust="spacing" textLength="43.3477" x="592.58" y="521.6355">Amount</text><ellipse cx="586.08" cy="530.9344" fill="#000000" rx="2.5" ry="2.5"/><text fill="#000000" font-family="monospace" font-size="12" lengthAdjust="spacing" textLength="43.3477" x="592.58" y="535.6043">Squash</text><ellipse cx="586.08" cy="544.9031" fill="#000000" rx="2.5" ry="2.5"/><text fill="#000000" font-family="monospace" font-size="12" lengthAdjust="spacing" textLength="50.5723" x="592.58" y="549.573">Timeout</text><ellipse cx="586.08" cy="558.8719" fill="#000000" rx="2.5" ry="2.5"/><text fill="#000000" font-family="monospace" font-size="12" lengthAdjust="spacing" textLength="28.8984" x="592.58" y="563.5418">Pend</text></g><g id="Responded"><rect fill="#F1F1F1" height="78.2031" rx="12.5" ry="12.5" style="stroke:#181818;stroke-width:0.5;" width="107.7529" x="912.99" y="836.37"/><line style="stroke:#181818;stroke-width:0.5;" x1="912.99" x2="1020.7429" y1="862.6669" y2="862.6669"/><text fill="#000000" font-family="sans-serif" font-size="14" font-weight="bold" lengthAdjust="spacing" textLength="87.7529" x="922.99" y="854.3651">Responded</text><ellipse cx="923.49" cy="874.1356" fill="#000000" rx="2.5" ry="2.5"/><text fill="#000000" font-family="monospace" font-size="12" lengthAdjust="spacing" textLength="43.3477" x="929.99" y="878.8055">Amount</text><ellipse cx="923.49" cy="888.1044" fill="#000000" rx="2.5" ry="2.5"/><text fill="#000000" font-family="monospace" font-size="12" lengthAdjust="spacing" textLength="28.8984" x="929.99" y="892.7743">Pend</text><ellipse cx="923.49" cy="902.0731" fill="#000000" rx="2.5" ry="2.5"/><text fill="#000000" font-family="monospace" font-size="12" lengthAdjust="spacing" textLength="28.8984" x="929.99" y="906.743">Pend</text></g><g id="Elapsed"><rect fill="#F1F1F1" height="50.2656" rx="12.5" ry="12.5" style="stroke:#181818;stroke-width:0.5;" width="81.6807" x="226.03" y="850.34"/><line style="stroke:#181818;stroke-width:0.5;" x1="226.03" x2="307.7107" y1="876.6369" y2="876.6369"/><text fill="#000000" font-family="sans-serif" font-size="14" font-weight="bold" lengthAdjust="spacing" textLength="61.6807" x="236.03" y="868.3351">Elapsed</text><ellipse cx="236.53" cy="888.1056" fill="#000000" rx="2.5" ry="2.5"/><text fill="#000000" font-family="monospace" font-size="12" lengthAdjust="spacing" textLength="28.8984" x="243.03" y="892.7755">Pend</text></g><g id="Resolved"><rect fill="#F1F1F1" height="64.2344" rx="12.5" ry="12.5" style="stroke:#181818;stroke-width:0.5;" width="91.668" x="571.04" y="1184.58"/><line style="stroke:#181818;stroke-width:0.5;" x1="571.04" x2="662.708" y1="1210.8769" y2="1210.8769"/><text fill="#000000" font-family="sans-serif" font-size="14" font-weight="bold" lengthAdjust="spacing" textLength="71.668" x="581.04" y="1202.5751">Resolved</text><ellipse cx="581.54" cy="1222.3456" fill="#000000" rx="2.5" ry="2.5"/><text fill="#000000" font-family="monospace" font-size="12" lengthAdjust="spacing" textLength="28.8984" x="588.04" y="1227.0155">Pend</text><ellipse cx="581.54" cy="1236.3144" fill="#000000" rx="2.5" ry="2.5"/><text fill="#000000" font-family="monospace" font-size="12" lengthAdjust="spacing" textLength="28.8984" x="588.04" y="1240.9843">Pend</text></g><ellipse cx="616.87" cy="16" fill="#222222" rx="10" ry="10" style="stroke:#222222;stroke-width:1;"/><ellipse cx="616.87" cy="1336.81" fill="none" rx="11" ry="11" style="stroke:#222222;stroke-width:1;"/><ellipse cx="616.87" cy="1336.81" fill="#222222" rx="6" ry="6" style="stroke:#222222;stroke-width:1;"/><!--link *start* to Opened--><g class="link" data-entity-1=".start." data-entity-2="Opened" data-source-line="25" data-uid="lnk3" id="link_.start._Opened"><path d="M616.87,26.41 C616.87,55.57 616.87,139.56 616.87,191.68" fill="none" id="*start*-to-Opened" style="stroke:#181818;stroke-width:1;"/><polygon fill="#181818" points="616.87,197.68,620.87,188.68,616.87,192.68,612.87,188.68,616.87,197.68" style="stroke:#181818;stroke-width:1;"/><text fill="#000000" font-family="sans-serif" font-size="13" font-weight="bold" lengthAdjust="spacing" textLength="36.3086" x="784.5946" y="69.0669">open</text><text fill="#000000" font-family="sans-serif" font-size="13" lengthAdjust="spacing" textLength="65.8633" x="769.8173" y="84.1997">by opener</text><path d="M621.87,93.2656 L621.87,163.2656 L982.87,163.2656 L982.87,103.2656 L972.87,93.2656 L621.87,93.2656" fill="#FEFFDD" style="stroke:#181818;stroke-width:0.5;"/><path d="M972.87,93.2656 L972.87,103.2656 L982.87,103.2656 L972.87,93.2656" fill="#FEFFDD" style="stroke:#181818;stroke-width:0.5;"/><ellipse cx="633.37" cy="105.8984" fill="#000000" rx="2.5" ry="2.5"/><text fill="#000000" font-family="sans-serif" font-size="13" lengthAdjust="spacing" textLength="318.3921" x="639.87" y="110.3325">In all stages we keep a tuple of verification keys.</text><ellipse cx="633.37" cy="121.0313" fill="#000000" rx="2.5" ry="2.5"/><text fill="#000000" font-family="sans-serif" font-size="13" lengthAdjust="spacing" textLength="328.7578" x="639.87" y="125.4653">The initial order of keys is `(opener, non-opener)`.</text><ellipse cx="633.37" cy="136.1641" fill="#000000" rx="2.5" ry="2.5"/><text fill="#000000" font-family="sans-serif" font-size="13" lengthAdjust="spacing" textLength="309.0293" x="639.87" y="140.5981">The `Amount` reflects the non-opener balance.</text><ellipse cx="633.37" cy="151.2969" fill="#000000" rx="2.5" ry="2.5"/><text fill="#000000" font-family="sans-serif" font-size="13" lengthAdjust="spacing" textLength="287.2695" x="639.87" y="155.731">The `Total - Amount` is the opener balance.</text></g><!--reverse link Opened to Opened--><g class="link" data-entity-1="Opened" data-entity-2="Opened" data-source-line="32" data-uid="lnk5" id="link_Opened_Opened"><path d="M668.0284,213.3409 C686.8184,211.7409 696.77,220 696.77,237.1 C696.77,254.2 680.84,261.95 662.05,260.35" fill="none" id="Opened-backto-Opened" style="stroke:#181818;stroke-width:1;"/><polygon fill="#181818" points="662.05,213.85,671.3569,217.072,667.032,213.4258,670.6782,209.1008,662.05,213.85" style="stroke:#181818;stroke-width:1;"/><text fill="#000000" font-family="monospace" font-size="13" font-weight="bold" lengthAdjust="spacing" textLength="23.48" x="702.77" y="241.6669">add</text></g><!--link Opened to Closed--><g class="link" data-entity-1="Opened" data-entity-2="Closed" data-source-line="33" data-uid="lnk6" id="link_Opened_Closed"><path d="M616.87,276.7 C616.87,329.18 616.87,416.91 616.87,472.76" fill="none" id="Opened-to-Closed" style="stroke:#181818;stroke-width:1;"/><polygon fill="#181818" points="616.87,478.76,620.87,469.76,616.87,473.76,612.87,469.76,616.87,478.76" style="stroke:#181818;stroke-width:1;"/><text fill="#000000" font-family="sans-serif" font-size="13" font-weight="bold" lengthAdjust="spacing" textLength="37.6479" x="839.8844" y="319.2669">close</text><text fill="#000000" font-family="sans-serif" font-size="13" lengthAdjust="spacing" textLength="58.9063" x="829.2553" y="334.3997">by closer</text><path d="M621.87,343.4656 L621.87,443.4656 L1094.87,443.4656 L1094.87,353.4656 L1084.87,343.4656 L621.87,343.4656" fill="#FEFFDD" style="stroke:#181818;stroke-width:0.5;"/><path d="M1084.87,343.4656 L1084.87,353.4656 L1094.87,353.4656 L1084.87,343.4656" fill="#FEFFDD" style="stroke:#181818;stroke-width:0.5;"/><ellipse cx="633.37" cy="356.0984" fill="#000000" rx="2.5" ry="2.5"/><text fill="#000000" font-family="sans-serif" font-size="13" lengthAdjust="spacing" textLength="151.1123" x="639.87" y="360.5325">Doesn't release assets.</text><ellipse cx="633.37" cy="371.2313" fill="#000000" rx="2.5" ry="2.5"/><text fill="#000000" font-family="sans-serif" font-size="13" lengthAdjust="spacing" textLength="336.375" x="639.87" y="375.6653">The order of keys changes to `(closer, non-closer)`.</text><ellipse cx="633.37" cy="386.3641" fill="#000000" rx="2.5" ry="2.5"/><text fill="#000000" font-family="sans-serif" font-size="13" lengthAdjust="spacing" textLength="265.5796" x="639.87" y="390.7981">Optionally delivers the newest snapshot.</text><ellipse cx="633.37" cy="401.4969" fill="#000000" rx="2.5" ry="2.5"/><text fill="#000000" font-family="sans-serif" font-size="13" lengthAdjust="spacing" textLength="308.312" x="639.87" y="405.931">The `Amount` reflects the closer balance after:</text><text fill="#000000" font-family="sans-serif" font-size="13" lengthAdjust="spacing" textLength="371.541" x="644.3993" y="421.0638">- incorporating differences from the snapshot's squashes</text><text fill="#000000" font-family="sans-serif" font-size="13" lengthAdjust="spacing" textLength="436.1475" x="644.3993" y="436.1966">- adding up all the reduced cheques provided in this step's Receipt</text></g><!--reverse link Closed to Closed--><g class="link" data-entity-1="Closed" data-entity-2="Closed" data-source-line="42" data-uid="lnk8" id="link_Closed_Closed"><path d="M664.4443,510.7157 C683.0443,509.3657 693.16,514.52 693.16,525.29 C693.16,536.06 677.06,540.77 658.46,539.42" fill="none" id="Closed-backto-Closed" style="stroke:#181818;stroke-width:1;"/><polygon fill="#181818" points="658.46,511.15,667.7259,514.488,663.4469,510.788,667.1468,506.509,658.46,511.15" style="stroke:#181818;stroke-width:1;"/><text fill="#000000" font-family="sans-serif" font-size="13" font-weight="bold" lengthAdjust="spacing" textLength="29.7007" x="713.7628" y="522.3569">free</text><text fill="#000000" font-family="sans-serif" font-size="13" lengthAdjust="spacing" textLength="58.9063" x="699.16" y="537.4897">by closer</text></g><!--link Closed to Responded--><g class="link" data-entity-1="Closed" data-entity-2="Responded" data-source-line="43" data-uid="lnk9" id="link_Closed_Responded"><path d="M658.57,552.35 C689.2,572.42 731.03,601.83 763.87,632.37 C833.76,697.36 898.8737,781.0175 935.6837,831.0375" fill="none" id="Closed-to-Responded" style="stroke:#181818;stroke-width:1;"/><polygon fill="#181818" points="939.24,835.87,937.1273,826.2504,936.2764,831.8429,930.6839,830.9921,939.24,835.87" style="stroke:#181818;stroke-width:1;"/><text fill="#000000" font-family="sans-serif" font-size="13" font-weight="bold" lengthAdjust="spacing" textLength="59.7632" x="1076.8854" y="653.4369">respond</text><text fill="#000000" font-family="sans-serif" font-size="13" lengthAdjust="spacing" textLength="88.0293" x="1062.7523" y="668.5697">by non-closer</text><path d="M897.86,677.6356 L897.86,762.6356 L1314.86,762.6356 L1314.86,687.6356 L1304.86,677.6356 L897.86,677.6356" fill="#FEFFDD" style="stroke:#181818;stroke-width:0.5;"/><path d="M1304.86,677.6356 L1304.86,687.6356 L1314.86,687.6356 L1304.86,677.6356" fill="#FEFFDD" style="stroke:#181818;stroke-width:0.5;"/><ellipse cx="909.36" cy="690.2684" fill="#000000" rx="2.5" ry="2.5"/><text fill="#000000" font-family="sans-serif" font-size="13" lengthAdjust="spacing" textLength="235.8027" x="915.86" y="694.7025">Releases non-closer account assets.</text><ellipse cx="909.36" cy="705.4012" fill="#000000" rx="2.5" ry="2.5"/><text fill="#000000" font-family="sans-serif" font-size="13" lengthAdjust="spacing" textLength="294.5376" x="915.86" y="709.8353">The left over should cover the closer account</text><text fill="#000000" font-family="sans-serif" font-size="13" lengthAdjust="spacing" textLength="304.5225" x="903.86" y="724.9681">and potential liabilities of the non-closer which</text><text fill="#000000" font-family="sans-serif" font-size="13" lengthAdjust="spacing" textLength="170.8599" x="903.86" y="740.101">are stored in their `Pend`.</text><ellipse cx="909.36" cy="750.7997" fill="#000000" rx="2.5" ry="2.5"/><text fill="#000000" font-family="sans-serif" font-size="13" lengthAdjust="spacing" textLength="384.814" x="915.86" y="755.2338">The `Pend`s are stored in order corresponding to the keys.</text></g><!--link Closed to Elapsed--><g class="link" data-entity-1="Closed" data-entity-2="Elapsed" data-source-line="52" data-uid="lnk10" id="link_Closed_Elapsed"><path d="M575.34,539.36 C529.85,555.35 456.84,586.15 407.87,632.37 C339.25,697.14 295.7974,797.1736 277.7374,844.5436" fill="none" id="Closed-to-Elapsed" style="stroke:#181818;stroke-width:1;"/><polygon fill="#181818" points="275.6,850.15,282.5437,843.1654,277.3812,845.478,275.0686,840.3155,275.6,850.15" style="stroke:#181818;stroke-width:1;"/><text fill="#000000" font-family="sans-serif" font-size="13" font-weight="bold" lengthAdjust="spacing" textLength="47.9058" x="557.9862" y="645.4369">elapse</text><text fill="#000000" font-family="sans-serif" font-size="13" lengthAdjust="spacing" textLength="58.9063" x="552.486" y="660.5697">by closer</text><path d="M412.87,669.6356 L412.87,769.6356 L750.87,769.6356 L750.87,679.6356 L740.87,669.6356 L412.87,669.6356" fill="#FEFFDD" style="stroke:#181818;stroke-width:0.5;"/><path d="M740.87,669.6356 L740.87,679.6356 L750.87,679.6356 L740.87,669.6356" fill="#FEFFDD" style="stroke:#181818;stroke-width:0.5;"/><ellipse cx="424.37" cy="682.2684" fill="#000000" rx="2.5" ry="2.5"/><text fill="#000000" font-family="sans-serif" font-size="13" lengthAdjust="spacing" textLength="163.7188" x="430.87" y="686.7025">Releases account assets.</text><ellipse cx="424.37" cy="697.4012" fill="#000000" rx="2.5" ry="2.5"/><text fill="#000000" font-family="sans-serif" font-size="13" lengthAdjust="spacing" textLength="305.1382" x="430.87" y="701.8353">For simplicity we disallow the closer to provide</text><text fill="#000000" font-family="sans-serif" font-size="13" lengthAdjust="spacing" textLength="223.6152" x="418.87" y="716.9681">cheques owned by the non-closer.</text><ellipse cx="424.37" cy="727.6669" fill="#000000" rx="2.5" ry="2.5"/><text fill="#000000" font-family="sans-serif" font-size="13" lengthAdjust="spacing" textLength="223.5073" x="430.87" y="732.101">The left over should cover just the</text><text fill="#000000" font-family="sans-serif" font-size="13" lengthAdjust="spacing" textLength="270.8989" x="418.87" y="747.2338">non-closer account as any extra liabilities</text><text fill="#000000" font-family="sans-serif" font-size="13" lengthAdjust="spacing" textLength="174.9795" x="418.87" y="762.3666">of the closer were ignored.</text></g><!--reverse link Responded to Responded--><g class="link" data-entity-1="Responded" data-entity-2="Responded" data-source-line="62" data-uid="lnk12" id="link_Responded_Responded"><path d="M1027.1096,862.3641 C1046.2296,862.1541 1055.75,866.57 1055.75,875.47 C1055.75,884.38 1040.23,888.73 1021.11,888.52" fill="none" id="Responded-backto-Responded" style="stroke:#181818;stroke-width:1;"/><polygon fill="#181818" points="1021.11,862.43,1030.1534,866.3309,1026.1097,862.3751,1030.0655,858.3314,1021.11,862.43" style="stroke:#181818;stroke-width:1;"/><text fill="#000000" font-family="sans-serif" font-size="13" font-weight="bold" lengthAdjust="spacing" textLength="29.7007" x="1090.9143" y="872.5369">free</text><text fill="#000000" font-family="sans-serif" font-size="13" lengthAdjust="spacing" textLength="88.0293" x="1061.75" y="887.6697">by non-closer</text></g><!--link Responded to Resolved--><g class="link" data-entity-1="Responded" data-entity-2="Resolved" data-source-line="63" data-uid="lnk13" id="link_Responded_Resolved"><path d="M962.01,914.76 C955.24,954.42 939.63,1016.25 904.87,1057.58 C839.7,1135.06 732.1461,1179.2248 668.8161,1200.1848" fill="none" id="Responded-to-Resolved" style="stroke:#181818;stroke-width:1;"/><polygon fill="#181818" points="663.12,1202.07,672.921,1203.0396,667.8668,1200.499,670.4074,1195.4447,663.12,1202.07" style="stroke:#181818;stroke-width:1;"/><text fill="#000000" font-family="sans-serif" font-size="13" font-weight="bold" lengthAdjust="spacing" textLength="53.644" x="1123.5512" y="996.1469">resolve</text><text fill="#000000" font-family="sans-serif" font-size="13" lengthAdjust="spacing" textLength="58.9063" x="1120.9201" y="1011.2797">by closer</text><path d="M952.07,1020.3456 L952.07,1045.3456 L1348.07,1045.3456 L1348.07,1030.3456 L1338.07,1020.3456 L952.07,1020.3456" fill="#FEFFDD" style="stroke:#181818;stroke-width:0.5;"/><path d="M1338.07,1020.3456 L1338.07,1030.3456 L1348.07,1030.3456 L1338.07,1020.3456" fill="#FEFFDD" style="stroke:#181818;stroke-width:0.5;"/><ellipse cx="963.57" cy="1032.9784" fill="#000000" rx="2.5" ry="2.5"/><text fill="#000000" font-family="sans-serif" font-size="13" lengthAdjust="spacing" textLength="363.6064" x="970.07" y="1037.4125">Releases account assets leaving coverage for liabilities.</text></g><!--link Responded to *end*--><g class="link" data-entity-1="Responded" data-entity-2=".end." data-source-line="67" data-uid="lnk15" id="link_Responded_.end."><path d="M1021.01,881.99 C1118.95,893.21 1319.29,922.24 1360.87,975.58 C1383.28,1004.32 1381.64,1027.63 1360.87,1057.58 C1176.55,1323.29 711.63,1335.6546 633.83,1335.8546" fill="none" id="Responded-to-*end*" style="stroke:#181818;stroke-width:1;"/><polygon fill="#181818" points="627.83,1335.87,636.8403,1339.8469,632.83,1335.8571,636.8197,1331.8469,627.83,1335.87" style="stroke:#181818;stroke-width:1;"/><text fill="#000000" font-family="sans-serif" font-size="13" font-weight="bold" lengthAdjust="spacing" textLength="27.3774" x="1352.9544" y="1118.1469">end</text><text fill="#000000" font-family="sans-serif" font-size="13" lengthAdjust="spacing" textLength="58.9063" x="1337.19" y="1133.2797">by closer</text></g><!--reverse link Elapsed to Elapsed--><g class="link" data-entity-1="Elapsed" data-entity-2="Elapsed" data-source-line="69" data-uid="lnk17" id="link_Elapsed_Elapsed"><path d="M313.8153,862.2298 C332.4753,860.9198 342.71,865.62 342.71,875.47 C342.71,885.33 326.49,889.6 307.83,888.29" fill="none" id="Elapsed-backto-Elapsed" style="stroke:#181818;stroke-width:1;"/><polygon fill="#181818" points="307.83,862.65,317.088,866.0099,312.8177,862.2998,316.5278,858.0295,307.83,862.65" style="stroke:#181818;stroke-width:1;"/><text fill="#000000" font-family="sans-serif" font-size="13" font-weight="bold" lengthAdjust="spacing" textLength="29.7007" x="363.3128" y="872.5369">free</text><text fill="#000000" font-family="sans-serif" font-size="13" lengthAdjust="spacing" textLength="58.9063" x="348.71" y="887.6697">by closer</text></g><!--link Elapsed to Resolved--><g class="link" data-entity-1="Elapsed" data-entity-2="Resolved" data-source-line="70" data-uid="lnk18" id="link_Elapsed_Resolved"><path d="M259.09,901.07 C248.93,938.25 235.84,1009.5 266.87,1057.58 C334.95,1163.03 486.2245,1198.0124 564.6745,1209.6124" fill="none" id="Elapsed-to-Resolved" style="stroke:#181818;stroke-width:1;"/><polygon fill="#181818" points="570.61,1210.49,562.2919,1205.2166,565.6638,1209.7586,561.1217,1213.1305,570.61,1210.49" style="stroke:#181818;stroke-width:1;"/><text fill="#000000" font-family="sans-serif" font-size="13" font-weight="bold" lengthAdjust="spacing" textLength="53.644" x="555.3048" y="988.6469">resolve</text><text fill="#000000" font-family="sans-serif" font-size="13" lengthAdjust="spacing" textLength="88.0293" x="538.1122" y="1003.7797">by non-closer</text><path d="M271.87,1012.8456 L271.87,1052.8456 L891.87,1052.8456 L891.87,1022.8456 L881.87,1012.8456 L271.87,1012.8456" fill="#FEFFDD" style="stroke:#181818;stroke-width:0.5;"/><path d="M881.87,1012.8456 L881.87,1022.8456 L891.87,1022.8456 L881.87,1012.8456" fill="#FEFFDD" style="stroke:#181818;stroke-width:0.5;"/><ellipse cx="283.37" cy="1025.4784" fill="#000000" rx="2.5" ry="2.5"/><text fill="#000000" font-family="sans-serif" font-size="13" lengthAdjust="spacing" textLength="408.5986" x="289.87" y="1029.9125">Releases account assets but still covering remaining liabilities.</text><ellipse cx="283.37" cy="1040.6113" fill="#000000" rx="2.5" ry="2.5"/><text fill="#000000" font-family="sans-serif" font-size="13" lengthAdjust="spacing" textLength="587.5137" x="289.87" y="1045.0453">Non-closer `Pend` is empty - it was discarded (as "penalty") during the previous `elapse`.</text></g><!--link Elapsed to *end*--><g class="link" data-entity-1="Elapsed" data-entity-2=".end." data-source-line="75" data-uid="lnk19" id="link_Elapsed_.end."><path d="M226.78,901.02 C152.31,949.71 6,1061.81 72.87,1154.58 C207.05,1340.71 534.6236,1338.789 599.7536,1336.519" fill="none" id="Elapsed-to-*end*" style="stroke:#181818;stroke-width:1;"/><polygon fill="#181818" points="605.75,1336.31,596.6161,1332.6259,600.753,1336.4842,596.8948,1340.6211,605.75,1336.31" style="stroke:#181818;stroke-width:1;"/><text fill="#000000" font-family="sans-serif" font-size="13" font-weight="bold" lengthAdjust="spacing" textLength="27.3774" x="164.1942" y="1100.6469">end</text><path d="M77.87,1109.7128 L77.87,1149.7128 L277.87,1149.7128 L277.87,1119.7128 L267.87,1109.7128 L77.87,1109.7128" fill="#FEFFDD" style="stroke:#181818;stroke-width:0.5;"/><path d="M267.87,1109.7128 L267.87,1119.7128 L277.87,1119.7128 L267.87,1109.7128" fill="#FEFFDD" style="stroke:#181818;stroke-width:0.5;"/><ellipse cx="89.37" cy="1122.3456" fill="#000000" rx="2.5" ry="2.5"/><text fill="#000000" font-family="sans-serif" font-size="13" lengthAdjust="spacing" textLength="167.0259" x="95.87" y="1126.7797">Possibly releases account</text><text fill="#000000" font-family="sans-serif" font-size="13" lengthAdjust="spacing" textLength="134.7798" x="83.87" y="1141.9125">assets to non-closer.</text></g><!--reverse link Resolved to Resolved--><g class="link" data-entity-1="Resolved" data-entity-2="Resolved" data-source-line="81" data-uid="lnk21" id="link_Resolved_Resolved"><path d="M668.9743,1203.2891 C687.8143,1202.4691 697.7,1207.11 697.7,1216.69 C697.7,1226.28 681.82,1230.66 662.98,1229.84" fill="none" id="Resolved-backto-Resolved" style="stroke:#181818;stroke-width:1;"/><polygon fill="#181818" points="662.98,1203.55,672.1454,1207.1549,667.9753,1203.3326,671.7976,1199.1624,662.98,1203.55" style="stroke:#181818;stroke-width:1;"/><text fill="#000000" font-family="sans-serif" font-size="13" font-weight="bold" lengthAdjust="spacing" textLength="29.7007" x="703.7" y="1221.2569">free</text></g><!--link Resolved to *end*--><g class="link" data-entity-1="Resolved" data-entity-2=".end." data-source-line="82" data-uid="lnk22" id="link_Resolved_.end."><path d="M616.87,1249.04 C616.87,1274.32 616.87,1302.38 616.87,1319.32" fill="none" id="Resolved-to-*end*" style="stroke:#181818;stroke-width:1;"/><polygon fill="#181818" points="616.87,1325.32,620.87,1316.32,616.87,1320.32,612.87,1316.32,616.87,1325.32" style="stroke:#181818;stroke-width:1;"/><text fill="#000000" font-family="sans-serif" font-size="13" font-weight="bold" lengthAdjust="spacing" textLength="27.3774" x="617.87" y="1291.8769">end</text></g><!--SRC=[dPNDRjim48JlUeg5BacAkhq7WO6YFq0lJP3arXOmBQrYDZIfa9HTlts78YLJij4KpSKYiylLVZDBEIyyKtcpNjwshBc-URzUbYGSnMKHVwxf3PNbXwtfj2_BoUQ35gtRcFds7LjfQcmMRgpmKHcNLOZB8lxCAkIR3o-TS9lPvgFSikdceNUiPpNlsRL6rrdPSQSOdsR5P_lfqFExMQdF2YIoGcbTfD-_lA5Hk-aBzXl5y31_ZTFDulkRdxHOB9DgT4qusE0v7Ff3hmyK5cmBRL3LQ59IFnU48xvg4aeHNkU97UsPdfbR4kIxLY6oeHs4R6Gbl4JQCn_SkpxlSSCajVHIA3AsPXjYmxz9EbfTnd9lIHkzYCzNgsFYAg9UaUL6SUKTUUmUOsajbD0LPncFngFIWePC6NFcyS11eSVaHJ3fSYfb02xgoBey1YsJ6IEuAZoFvFhL6NAV33jzuT63Ok4OoZds6PqfbMeZT23i3UZ48oET-3pGkMq3PoXoe9gL1Fp4XlViFBaqRA-XZ8SEM4WqdkqrSiBV0hfLnhR6GbFzHBLi6hQCE4UDDTl-WA7GXIFNZn-xCHtyGbxNziu9qPRhhWAzQiCl7OvfhTb9J0eguV-GodbkBuApAvQjFwgKg4ULSWaQooSAZC4rWiTfZF4sBiUK8zbJuUwZO2uB8b5L0UE9Y8eRJmOo46Xq2YtsYunnoaI6G5SjYkb-A9GKQwam82W44mm6JrdxZQms8SU2jJTsOCNIqYeCTJuj_ThDOgEz86HgFKW2SuKwSKf7o5DmwJQAsBXVl6hraTWvJ5yCuCXjgsGb_I5S8RLqS8RPvvZmQiaLI1fyOlPX_51uIkTL_Bywp09o47TMGqXn8FxjhSXbG7GIOX01jYVvf0FIdDVHMz6OCwzDl9aPBKzB5krlwj6XOVM_h852x8B6FG5SrjI0UzPTra3-8aiAduOeTZOVgVhmRKgDJhnnRWIFuQyt-4yZE6jotU6EynBNIjzcwDVoLk13WwT9i-6KRqVjuuo4hm9lMxWGbvodFPm0BrR21XQNM9Muy8NoX_AAwgu_FjYXjRoJfiDtAyx3AcCvxNZEyhIpE-ESNEFwjhCMmx379Z4AkTSdleiyHzjbU0SvygWpB_G7]--></g></svg>