<svg xmlns="http://www.w3.org/2000/svg" xmlns:xlink="http://www.w3.org/1999/xlink" contentStyleType="text/css" data-diagram-type="STATE" height="1368px" preserveAspectRatio="none" style="width:1409px;height:1368px;background:#FFFFFF;" version="1.1" viewBox="0 0 1409 1368" width="1409px" zoomAndPan="magnify"><defs/><g><g id="Opened"><rect fill="#F1F1F1" height="78.2031" rx="12.5" ry="12.5" style="stroke:#181818;stroke-width:0.5;" width="89.7969" x="577.4" y="198"/><line style="stroke:#181818;stroke-width:0.5;" x1="577.4" x2="667.1969" y1="224.2969" y2="224.2969"/><text fill="#000000" font-family="sans-serif" font-size="14" font-weight="bold" lengthAdjust="spacing" textLength="60.9014" x="591.8478" y="215.9951">Opened</text><ellipse cx="587.9" cy="235.7656" fill="#000000" rx="2.5" ry="2.5"/><text fill="#000000" font-family="monospace" font-size="12" lengthAdjust="spacing" textLength="43.3477" x="594.4" y="240.4355">Amount</text><ellipse cx="587.9" cy="249.7344" fill="#000000" rx="2.5" ry="2.5"/><text fill="#000000" font-family="monospace" font-size="12" lengthAdjust="spacing" textLength="57.7969" x="594.4" y="254.4043">Snapshot</text><ellipse cx="587.9" cy="263.7031" fill="#000000" rx="2.5" ry="2.5"/><text fill="#000000" font-family="monospace" font-size="12" lengthAdjust="spacing" textLength="43.3477" x="594.4" y="268.373">Period</text></g><g id="Closed"><rect fill="#F1F1F1" height="92.1719" rx="12.5" ry="12.5" style="stroke:#181818;stroke-width:0.5;" width="82.5723" x="581.02" y="479.2"/><line style="stroke:#181818;stroke-width:0.5;" x1="581.02" x2="663.5923" y1="505.4969" y2="505.4969"/><text fill="#000000" font-family="sans-serif" font-size="14" font-weight="bold" lengthAdjust="spacing" textLength="52.541" x="596.0356" y="497.1951">Closed</text><ellipse cx="591.52" cy="516.9656" fill="#000000" rx="2.5" ry="2.5"/><text fill="#000000" font-family="monospace" font-size="12" lengthAdjust="spacing" textLength="43.3477" x="598.02" y="521.6355">Amount</text><ellipse cx="591.52" cy="530.9344" fill="#000000" rx="2.5" ry="2.5"/><text fill="#000000" font-family="monospace" font-size="12" lengthAdjust="spacing" textLength="43.3477" x="598.02" y="535.6043">Squash</text><ellipse cx="591.52" cy="544.9031" fill="#000000" rx="2.5" ry="2.5"/><text fill="#000000" font-family="monospace" font-size="12" lengthAdjust="spacing" textLength="50.5723" x="598.02" y="549.573">Timeout</text><ellipse cx="591.52" cy="558.8719" fill="#000000" rx="2.5" ry="2.5"/><text fill="#000000" font-family="monospace" font-size="12" lengthAdjust="spacing" textLength="28.8984" x="598.02" y="563.5418">Pend</text></g><g id="Responded"><rect fill="#F1F1F1" height="78.2031" rx="12.5" ry="12.5" style="stroke:#181818;stroke-width:0.5;" width="107.7529" x="918.43" y="836.37"/><line style="stroke:#181818;stroke-width:0.5;" x1="918.43" x2="1026.1829" y1="862.6669" y2="862.6669"/><text fill="#000000" font-family="sans-serif" font-size="14" font-weight="bold" lengthAdjust="spacing" textLength="87.7529" x="928.43" y="854.3651">Responded</text><ellipse cx="928.93" cy="874.1356" fill="#000000" rx="2.5" ry="2.5"/><text fill="#000000" font-family="monospace" font-size="12" lengthAdjust="spacing" textLength="43.3477" x="935.43" y="878.8055">Amount</text><ellipse cx="928.93" cy="888.1044" fill="#000000" rx="2.5" ry="2.5"/><text fill="#000000" font-family="monospace" font-size="12" lengthAdjust="spacing" textLength="28.8984" x="935.43" y="892.7743">Pend</text><ellipse cx="928.93" cy="902.0731" fill="#000000" rx="2.5" ry="2.5"/><text fill="#000000" font-family="monospace" font-size="12" lengthAdjust="spacing" textLength="28.8984" x="935.43" y="906.743">Pend</text></g><g id="Elapsed"><rect fill="#F1F1F1" height="50.2656" rx="12.5" ry="12.5" style="stroke:#181818;stroke-width:0.5;" width="81.6807" x="231.46" y="850.34"/><line style="stroke:#181818;stroke-width:0.5;" x1="231.46" x2="313.1407" y1="876.6369" y2="876.6369"/><text fill="#000000" font-family="sans-serif" font-size="14" font-weight="bold" lengthAdjust="spacing" textLength="61.6807" x="241.46" y="868.3351">Elapsed</text><ellipse cx="241.96" cy="888.1056" fill="#000000" rx="2.5" ry="2.5"/><text fill="#000000" font-family="monospace" font-size="12" lengthAdjust="spacing" textLength="28.8984" x="248.46" y="892.7755">Pend</text></g><g id="Resolved"><rect fill="#F1F1F1" height="64.2344" rx="12.5" ry="12.5" style="stroke:#181818;stroke-width:0.5;" width="91.668" x="576.47" y="1199.58"/><line style="stroke:#181818;stroke-width:0.5;" x1="576.47" x2="668.138" y1="1225.8769" y2="1225.8769"/><text fill="#000000" font-family="sans-serif" font-size="14" font-weight="bold" lengthAdjust="spacing" textLength="71.668" x="586.47" y="1217.5751">Resolved</text><ellipse cx="586.97" cy="1237.3456" fill="#000000" rx="2.5" ry="2.5"/><text fill="#000000" font-family="monospace" font-size="12" lengthAdjust="spacing" textLength="28.8984" x="593.47" y="1242.0155">Pend</text><ellipse cx="586.97" cy="1251.3144" fill="#000000" rx="2.5" ry="2.5"/><text fill="#000000" font-family="monospace" font-size="12" lengthAdjust="spacing" textLength="28.8984" x="593.47" y="1255.9843">Pend</text></g><ellipse cx="622.3" cy="16" fill="#222222" rx="10" ry="10" style="stroke:#222222;stroke-width:1;"/><ellipse cx="622.3" cy="1351.81" fill="none" rx="11" ry="11" style="stroke:#222222;stroke-width:1;"/><ellipse cx="622.3" cy="1351.81" fill="#222222" rx="6" ry="6" style="stroke:#222222;stroke-width:1;"/><!--link *start* to Opened--><g class="link" data-entity-1=".start." data-entity-2="Opened" data-source-line="25" data-uid="lnk3" id="link_.start._Opened"><path d="M622.3,26.41 C622.3,55.57 622.3,139.56 622.3,191.68" fill="none" id="*start*-to-Opened" style="stroke:#181818;stroke-width:1;"/><polygon fill="#181818" points="622.3,197.68,626.3,188.68,622.3,192.68,618.3,188.68,622.3,197.68" style="stroke:#181818;stroke-width:1;"/><text fill="#000000" font-family="sans-serif" font-size="13" font-weight="bold" lengthAdjust="spacing" textLength="36.3086" x="790.0246" y="69.0669">open</text><text fill="#000000" font-family="sans-serif" font-size="13" lengthAdjust="spacing" textLength="65.8633" x="775.2473" y="84.1997">by opener</text><path d="M627.3,93.2656 L627.3,163.2656 L988.3,163.2656 L988.3,103.2656 L978.3,93.2656 L627.3,93.2656" fill="#FEFFDD" style="stroke:#181818;stroke-width:0.5;"/><path d="M978.3,93.2656 L978.3,103.2656 L988.3,103.2656 L978.3,93.2656" fill="#FEFFDD" style="stroke:#181818;stroke-width:0.5;"/><ellipse cx="638.8" cy="105.8984" fill="#000000" rx="2.5" ry="2.5"/><text fill="#000000" font-family="sans-serif" font-size="13" lengthAdjust="spacing" textLength="318.3921" x="645.3" y="110.3325">In all stages we keep a tuple of verification keys.</text><ellipse cx="638.8" cy="121.0313" fill="#000000" rx="2.5" ry="2.5"/><text fill="#000000" font-family="sans-serif" font-size="13" lengthAdjust="spacing" textLength="328.7578" x="645.3" y="125.4653">The initial order of keys is `(opener, non-opener)`.</text><ellipse cx="638.8" cy="136.1641" fill="#000000" rx="2.5" ry="2.5"/><text fill="#000000" font-family="sans-serif" font-size="13" lengthAdjust="spacing" textLength="309.0293" x="645.3" y="140.5981">The `Amount` reflects the non-opener balance.</text><ellipse cx="638.8" cy="151.2969" fill="#000000" rx="2.5" ry="2.5"/><text fill="#000000" font-family="sans-serif" font-size="13" lengthAdjust="spacing" textLength="287.2695" x="645.3" y="155.731">The `Total - Amount` is the opener balance.</text></g><!--reverse link Opened to Opened--><g class="link" data-entity-1="Opened" data-entity-2="Opened" data-source-line="32" data-uid="lnk5" id="link_Opened_Opened"><path d="M673.4584,213.3409 C692.2484,211.7409 702.2,220 702.2,237.1 C702.2,254.2 686.27,261.95 667.48,260.35" fill="none" id="Opened-backto-Opened" style="stroke:#181818;stroke-width:1;"/><polygon fill="#181818" points="667.48,213.85,676.7869,217.072,672.462,213.4258,676.1082,209.1008,667.48,213.85" style="stroke:#181818;stroke-width:1;"/><text fill="#000000" font-family="monospace" font-size="13" font-weight="bold" lengthAdjust="spacing" textLength="23.48" x="708.2" y="241.6669">add</text></g><!--link Opened to Closed--><g class="link" data-entity-1="Opened" data-entity-2="Closed" data-source-line="33" data-uid="lnk6" id="link_Opened_Closed"><path d="M622.3,276.7 C622.3,329.18 622.3,416.91 622.3,472.76" fill="none" id="Opened-to-Closed" style="stroke:#181818;stroke-width:1;"/><polygon fill="#181818" points="622.3,478.76,626.3,469.76,622.3,473.76,618.3,469.76,622.3,478.76" style="stroke:#181818;stroke-width:1;"/><text fill="#000000" font-family="sans-serif" font-size="13" font-weight="bold" lengthAdjust="spacing" textLength="37.6479" x="845.3144" y="319.2669">close</text><text fill="#000000" font-family="sans-serif" font-size="13" lengthAdjust="spacing" textLength="58.9063" x="834.6853" y="334.3997">by closer</text><path d="M627.3,343.4656 L627.3,443.4656 L1100.3,443.4656 L1100.3,353.4656 L1090.3,343.4656 L627.3,343.4656" fill="#FEFFDD" style="stroke:#181818;stroke-width:0.5;"/><path d="M1090.3,343.4656 L1090.3,353.4656 L1100.3,353.4656 L1090.3,343.4656" fill="#FEFFDD" style="stroke:#181818;stroke-width:0.5;"/><ellipse cx="638.8" cy="356.0984" fill="#000000" rx="2.5" ry="2.5"/><text fill="#000000" font-family="sans-serif" font-size="13" lengthAdjust="spacing" textLength="151.1123" x="645.3" y="360.5325">Doesn't release assets.</text><ellipse cx="638.8" cy="371.2313" fill="#000000" rx="2.5" ry="2.5"/><text fill="#000000" font-family="sans-serif" font-size="13" lengthAdjust="spacing" textLength="336.375" x="645.3" y="375.6653">The order of keys changes to `(closer, non-closer)`.</text><ellipse cx="638.8" cy="386.3641" fill="#000000" rx="2.5" ry="2.5"/><text fill="#000000" font-family="sans-serif" font-size="13" lengthAdjust="spacing" textLength="265.5796" x="645.3" y="390.7981">Optionally delivers the newest snapshot.</text><ellipse cx="638.8" cy="401.4969" fill="#000000" rx="2.5" ry="2.5"/><text fill="#000000" font-family="sans-serif" font-size="13" lengthAdjust="spacing" textLength="308.312" x="645.3" y="405.931">The `Amount` reflects the closer balance after:</text><text fill="#000000" font-family="sans-serif" font-size="13" lengthAdjust="spacing" textLength="371.541" x="649.8293" y="421.0638">- incorporating differences from the snapshot's squashes</text><text fill="#000000" font-family="sans-serif" font-size="13" lengthAdjust="spacing" textLength="436.1475" x="649.8293" y="436.1966">- adding up all the reduced cheques provided in this step's Receipt</text></g><!--reverse link Closed to Closed--><g class="link" data-entity-1="Closed" data-entity-2="Closed" data-source-line="42" data-uid="lnk8" id="link_Closed_Closed"><path d="M669.8743,510.7159 C688.4843,509.3659 698.59,514.52 698.59,525.29 C698.59,536.06 682.5,540.77 663.89,539.42" fill="none" id="Closed-backto-Closed" style="stroke:#181818;stroke-width:1;"/><polygon fill="#181818" points="663.89,511.15,673.1558,514.4884,668.8769,510.7882,672.577,506.5093,663.89,511.15" style="stroke:#181818;stroke-width:1;"/><text fill="#000000" font-family="sans-serif" font-size="13" font-weight="bold" lengthAdjust="spacing" textLength="29.7007" x="719.1928" y="522.3569">free</text><text fill="#000000" font-family="sans-serif" font-size="13" lengthAdjust="spacing" textLength="58.9063" x="704.59" y="537.4897">by closer</text></g><!--link Closed to Responded--><g class="link" data-entity-1="Closed" data-entity-2="Responded" data-source-line="43" data-uid="lnk9" id="link_Closed_Responded"><path d="M664,552.35 C694.63,572.42 736.46,601.83 769.3,632.37 C839.2,697.36 904.3031,781.018 941.1231,831.038" fill="none" id="Closed-to-Responded" style="stroke:#181818;stroke-width:1;"/><polygon fill="#181818" points="944.68,835.87,942.566,826.2507,941.7159,831.8433,936.1233,830.9932,944.68,835.87" style="stroke:#181818;stroke-width:1;"/><text fill="#000000" font-family="sans-serif" font-size="13" font-weight="bold" lengthAdjust="spacing" textLength="59.7632" x="1082.3154" y="653.4369">respond</text><text fill="#000000" font-family="sans-serif" font-size="13" lengthAdjust="spacing" textLength="88.0293" x="1068.1823" y="668.5697">by non-closer</text><path d="M903.29,677.6356 L903.29,762.6356 L1320.29,762.6356 L1320.29,687.6356 L1310.29,677.6356 L903.29,677.6356" fill="#FEFFDD" style="stroke:#181818;stroke-width:0.5;"/><path d="M1310.29,677.6356 L1310.29,687.6356 L1320.29,687.6356 L1310.29,677.6356" fill="#FEFFDD" style="stroke:#181818;stroke-width:0.5;"/><ellipse cx="914.79" cy="690.2684" fill="#000000" rx="2.5" ry="2.5"/><text fill="#000000" font-family="sans-serif" font-size="13" lengthAdjust="spacing" textLength="235.8027" x="921.29" y="694.7025">Releases non-closer account assets.</text><ellipse cx="914.79" cy="705.4012" fill="#000000" rx="2.5" ry="2.5"/><text fill="#000000" font-family="sans-serif" font-size="13" lengthAdjust="spacing" textLength="294.5376" x="921.29" y="709.8353">The left over should cover the closer account</text><text fill="#000000" font-family="sans-serif" font-size="13" lengthAdjust="spacing" textLength="304.5225" x="909.29" y="724.9681">and potential liabilities of the non-closer which</text><text fill="#000000" font-family="sans-serif" font-size="13" lengthAdjust="spacing" textLength="170.8599" x="909.29" y="740.101">are stored in their `Pend`.</text><ellipse cx="914.79" cy="750.7997" fill="#000000" rx="2.5" ry="2.5"/><text fill="#000000" font-family="sans-serif" font-size="13" lengthAdjust="spacing" textLength="384.814" x="921.29" y="755.2338">The `Pend`s are stored in order corresponding to the keys.</text></g><!--link Closed to Elapsed--><g class="link" data-entity-1="Closed" data-entity-2="Elapsed" data-source-line="52" data-uid="lnk10" id="link_Closed_Elapsed"><path d="M580.77,539.36 C535.28,555.35 462.28,586.15 413.3,632.37 C344.68,697.14 301.2274,797.1736 283.1674,844.5436" fill="none" id="Closed-to-Elapsed" style="stroke:#181818;stroke-width:1;"/><polygon fill="#181818" points="281.03,850.15,287.9737,843.1654,282.8112,845.478,280.4986,840.3155,281.03,850.15" style="stroke:#181818;stroke-width:1;"/><text fill="#000000" font-family="sans-serif" font-size="13" font-weight="bold" lengthAdjust="spacing" textLength="47.9058" x="563.4162" y="645.4369">elapse</text><text fill="#000000" font-family="sans-serif" font-size="13" lengthAdjust="spacing" textLength="58.9063" x="557.916" y="660.5697">by closer</text><path d="M418.3,669.6356 L418.3,769.6356 L756.3,769.6356 L756.3,679.6356 L746.3,669.6356 L418.3,669.6356" fill="#FEFFDD" style="stroke:#181818;stroke-width:0.5;"/><path d="M746.3,669.6356 L746.3,679.6356 L756.3,679.6356 L746.3,669.6356" fill="#FEFFDD" style="stroke:#181818;stroke-width:0.5;"/><ellipse cx="429.8" cy="682.2684" fill="#000000" rx="2.5" ry="2.5"/><text fill="#000000" font-family="sans-serif" font-size="13" lengthAdjust="spacing" textLength="163.7188" x="436.3" y="686.7025">Releases account assets.</text><ellipse cx="429.8" cy="697.4012" fill="#000000" rx="2.5" ry="2.5"/><text fill="#000000" font-family="sans-serif" font-size="13" lengthAdjust="spacing" textLength="305.1382" x="436.3" y="701.8353">For simplicity we disallow the closer to provide</text><text fill="#000000" font-family="sans-serif" font-size="13" lengthAdjust="spacing" textLength="223.6152" x="424.3" y="716.9681">cheques owned by the non-closer.</text><ellipse cx="429.8" cy="727.6669" fill="#000000" rx="2.5" ry="2.5"/><text fill="#000000" font-family="sans-serif" font-size="13" lengthAdjust="spacing" textLength="223.5073" x="436.3" y="732.101">The left over should cover just the</text><text fill="#000000" font-family="sans-serif" font-size="13" lengthAdjust="spacing" textLength="270.8989" x="424.3" y="747.2338">non-closer account as any extra liabilities</text><text fill="#000000" font-family="sans-serif" font-size="13" lengthAdjust="spacing" textLength="174.9795" x="424.3" y="762.3666">of the closer were ignored.</text></g><!--reverse link Responded to Responded--><g class="link" data-entity-1="Responded" data-entity-2="Responded" data-source-line="62" data-uid="lnk12" id="link_Responded_Responded"><path d="M1032.5396,862.3641 C1051.6596,862.1541 1061.18,866.57 1061.18,875.47 C1061.18,884.38 1045.66,888.73 1026.54,888.52" fill="none" id="Responded-backto-Responded" style="stroke:#181818;stroke-width:1;"/><polygon fill="#181818" points="1026.54,862.43,1035.5834,866.3309,1031.5397,862.3751,1035.4955,858.3314,1026.54,862.43" style="stroke:#181818;stroke-width:1;"/><text fill="#000000" font-family="sans-serif" font-size="13" font-weight="bold" lengthAdjust="spacing" textLength="29.7007" x="1096.3443" y="872.5369">free</text><text fill="#000000" font-family="sans-serif" font-size="13" lengthAdjust="spacing" textLength="88.0293" x="1067.18" y="887.6697">by non-closer</text></g><!--link Responded to Resolved--><g class="link" data-entity-1="Responded" data-entity-2="Resolved" data-source-line="63" data-uid="lnk13" id="link_Responded_Resolved"><path d="M967.05,914.86 C959.98,954.3 944.14,1015.7 910.3,1057.58 C845.21,1138.11 737.5301,1188.0361 674.1701,1212.4061" fill="none" id="Responded-to-Resolved" style="stroke:#181818;stroke-width:1;"/><polygon fill="#181818" points="668.57,1214.56,678.406,1215.0625,673.2367,1212.7651,675.5341,1207.5957,668.57,1214.56" style="stroke:#181818;stroke-width:1;"/><text fill="#000000" font-family="sans-serif" font-size="13" font-weight="bold" lengthAdjust="spacing" textLength="53.644" x="1128.4112" y="996.1469">resolve</text><text fill="#000000" font-family="sans-serif" font-size="13" lengthAdjust="spacing" textLength="58.9063" x="1125.7801" y="1011.2797">by closer</text><path d="M956.93,1020.3456 L956.93,1045.3456 L1352.93,1045.3456 L1352.93,1030.3456 L1342.93,1020.3456 L956.93,1020.3456" fill="#FEFFDD" style="stroke:#181818;stroke-width:0.5;"/><path d="M1342.93,1020.3456 L1342.93,1030.3456 L1352.93,1030.3456 L1342.93,1020.3456" fill="#FEFFDD" style="stroke:#181818;stroke-width:0.5;"/><ellipse cx="968.43" cy="1032.9784" fill="#000000" rx="2.5" ry="2.5"/><text fill="#000000" font-family="sans-serif" font-size="13" lengthAdjust="spacing" textLength="363.6064" x="974.93" y="1037.4125">Releases account assets leaving coverage for liabilities.</text></g><!--link Responded to *end*--><g class="link" data-entity-1="Responded" data-entity-2=".end." data-source-line="67" data-uid="lnk15" id="link_Responded_.end."><path d="M1026.44,881.99 C1124.38,893.21 1324.72,922.24 1366.3,975.58 C1388.71,1004.32 1386.81,1027.45 1366.3,1057.58 C1183.09,1326.71 717.2484,1348.69 639.2884,1350.51" fill="none" id="Responded-to-*end*" style="stroke:#181818;stroke-width:1;"/><polygon fill="#181818" points="633.29,1350.65,642.3809,1354.4389,638.2886,1350.5333,642.1942,1346.441,633.29,1350.65" style="stroke:#181818;stroke-width:1;"/><text fill="#000000" font-family="sans-serif" font-size="13" font-weight="bold" lengthAdjust="spacing" textLength="27.3774" x="1358.5144" y="1125.6469">end</text><text fill="#000000" font-family="sans-serif" font-size="13" lengthAdjust="spacing" textLength="58.9063" x="1342.75" y="1140.7797">by closer</text></g><!--reverse link Elapsed to Elapsed--><g class="link" data-entity-1="Elapsed" data-entity-2="Elapsed" data-source-line="69" data-uid="lnk17" id="link_Elapsed_Elapsed"><path d="M319.2453,862.2298 C337.9053,860.9198 348.14,865.62 348.14,875.47 C348.14,885.33 331.92,889.6 313.26,888.29" fill="none" id="Elapsed-backto-Elapsed" style="stroke:#181818;stroke-width:1;"/><polygon fill="#181818" points="313.26,862.65,322.518,866.0099,318.2477,862.2998,321.9578,858.0295,313.26,862.65" style="stroke:#181818;stroke-width:1;"/><text fill="#000000" font-family="sans-serif" font-size="13" font-weight="bold" lengthAdjust="spacing" textLength="29.7007" x="368.7428" y="872.5369">free</text><text fill="#000000" font-family="sans-serif" font-size="13" lengthAdjust="spacing" textLength="58.9063" x="354.14" y="887.6697">by closer</text></g><!--link Elapsed to Resolved--><g class="link" data-entity-1="Elapsed" data-entity-2="Resolved" data-source-line="70" data-uid="lnk18" id="link_Elapsed_Resolved"><path d="M264.73,900.94 C254.85,937.94 242.11,1008.96 272.3,1057.58 C339.72,1166.13 491.7249,1207.5629 570.3049,1222.4529" fill="none" id="Elapsed-to-Resolved" style="stroke:#181818;stroke-width:1;"/><polygon fill="#181818" points="576.2,1223.57,568.1021,1217.9644,571.2874,1222.6391,566.6126,1225.8245,576.2,1223.57" style="stroke:#181818;stroke-width:1;"/><text fill="#000000" font-family="sans-serif" font-size="13" font-weight="bold" lengthAdjust="spacing" textLength="53.644" x="560.7348" y="988.6469">resolve</text><text fill="#000000" font-family="sans-serif" font-size="13" lengthAdjust="spacing" textLength="88.0293" x="543.5422" y="1003.7797">by non-closer</text><path d="M277.3,1012.8456 L277.3,1052.8456 L897.3,1052.8456 L897.3,1022.8456 L887.3,1012.8456 L277.3,1012.8456" fill="#FEFFDD" style="stroke:#181818;stroke-width:0.5;"/><path d="M887.3,1012.8456 L887.3,1022.8456 L897.3,1022.8456 L887.3,1012.8456" fill="#FEFFDD" style="stroke:#181818;stroke-width:0.5;"/><ellipse cx="288.8" cy="1025.4784" fill="#000000" rx="2.5" ry="2.5"/><text fill="#000000" font-family="sans-serif" font-size="13" lengthAdjust="spacing" textLength="408.5986" x="295.3" y="1029.9125">Releases account assets but still covering remaining liabilities.</text><ellipse cx="288.8" cy="1040.6113" fill="#000000" rx="2.5" ry="2.5"/><text fill="#000000" font-family="sans-serif" font-size="13" lengthAdjust="spacing" textLength="587.5137" x="295.3" y="1045.0453">Non-closer `Pend` is empty - it was discarded (as "penalty") during the previous `elapse`.</text></g><!--link Elapsed to *end*--><g class="link" data-entity-1="Elapsed" data-entity-2=".end." data-source-line="75" data-uid="lnk19" id="link_Elapsed_.end."><path d="M233.77,901 C158.67,951.85 6,1072.16 76.3,1169.58 C144.4,1263.93 534.929,1335.6305 605.609,1347.9405" fill="none" id="Elapsed-to-*end*" style="stroke:#181818;stroke-width:1;"/><polygon fill="#181818" points="611.52,1348.97,603.3398,1343.4851,606.5942,1348.1121,601.9671,1351.3664,611.52,1348.97" style="stroke:#181818;stroke-width:1;"/><text fill="#000000" font-family="sans-serif" font-size="13" font-weight="bold" lengthAdjust="spacing" textLength="27.3774" x="167.6242" y="1100.6469">end</text><text fill="#000000" font-family="sans-serif" font-size="13" lengthAdjust="spacing" textLength="88.0293" x="137.2983" y="1115.7797">by non-closer</text><path d="M81.3,1124.8456 L81.3,1164.8456 L281.3,1164.8456 L281.3,1134.8456 L271.3,1124.8456 L81.3,1124.8456" fill="#FEFFDD" style="stroke:#181818;stroke-width:0.5;"/><path d="M271.3,1124.8456 L271.3,1134.8456 L281.3,1134.8456 L271.3,1124.8456" fill="#FEFFDD" style="stroke:#181818;stroke-width:0.5;"/><ellipse cx="92.8" cy="1137.4784" fill="#000000" rx="2.5" ry="2.5"/><text fill="#000000" font-family="sans-serif" font-size="13" lengthAdjust="spacing" textLength="167.0259" x="99.3" y="1141.9125">Possibly releases account</text><text fill="#000000" font-family="sans-serif" font-size="13" lengthAdjust="spacing" textLength="134.7798" x="87.3" y="1157.0453">assets to non-closer.</text></g><!--reverse link Resolved to Resolved--><g class="link" data-entity-1="Resolved" data-entity-2="Resolved" data-source-line="81" data-uid="lnk21" id="link_Resolved_Resolved"><path d="M674.4043,1218.2891 C693.2443,1217.4691 703.14,1222.11 703.14,1231.69 C703.14,1241.28 687.25,1245.66 668.41,1244.84" fill="none" id="Resolved-backto-Resolved" style="stroke:#181818;stroke-width:1;"/><polygon fill="#181818" points="668.41,1218.55,677.5754,1222.1549,673.4053,1218.3326,677.2276,1214.1624,668.41,1218.55" style="stroke:#181818;stroke-width:1;"/><text fill="#000000" font-family="sans-serif" font-size="13" font-weight="bold" lengthAdjust="spacing" textLength="29.7007" x="709.14" y="1236.2569">free</text></g><!--link Resolved to *end*--><g class="link" data-entity-1="Resolved" data-entity-2=".end." data-source-line="82" data-uid="lnk22" id="link_Resolved_.end."><path d="M622.3,1264.04 C622.3,1289.32 622.3,1317.38 622.3,1334.32" fill="none" id="Resolved-to-*end*" style="stroke:#181818;stroke-width:1;"/><polygon fill="#181818" points="622.3,1340.32,626.3,1331.32,622.3,1335.32,618.3,1331.32,622.3,1340.32" style="stroke:#181818;stroke-width:1;"/><text fill="#000000" font-family="sans-serif" font-size="13" font-weight="bold" lengthAdjust="spacing" textLength="27.3774" x="623.3" y="1306.8769">end</text></g><!--SRC=[dPNBRjim44Nt-eg1DdcWRlT1OQ3e0-Yc2TBisWAcfL7CXYOLahBhl- -bICcKR2H5ix78p70qvzwXd1UUgNo_NjwshBb-_swzB4auYiiY_jpGDPNbXwtfj2_BoUPtBLgtCVFjExRIrDWit5ZXep8kgn2NHVoPLSWtlpztmcrccmzoowQRXzwndjMyPzSQNMTbnvrYV9eLd-sdGy_lPgK-Av382gLraNvVU4EZTjCNx3UAuM7-6gURnO_hNxHOB9DgT4CusE0v7FfJhmyK5cmBRL3LQ59IFnM48xvg4aeHNkUH7UsPdfXR4kIxLY6oeHs4R6Gbl4JQ4n_SspxlOSCajVHIA3AsPXjYmxz9EbfTnd9lI1kzYCzNgsFYAg9UaUL6SUKTUUmUOsajbD0LPnaFngFIWePC6NFcyS11eSVaHJ3fSYfb02xgoBey1YsJ6IEuAZoFvFhL6NAV33jzuT63Ok4OoZds6PqfbMeZT23i3UZ48oET-3pGkMq3PoXoe9gL1Fp4XlViFBaqRA-XZ8SEM4WqdkqDSiBV0hfLnhR6GbFzIBLi6hQCE4UDDTl-WA7GXIFNZn-xCHtyGbxNziu9qPRhhWAzQiFF7OvfhTb9J0eguV-GodbkBuApAvQjFwgKg4ULSWaQooSAZC4rWiTfZF4sBiUK8zbJuUwZO2uB8b5L0UE9Y8eRJmOo46Xq2YtsYunnoaI6G5SjYkb-A9GKQwam82W44mm6JrdxZQms8SU2jJTsOCNIqYeCTJuj_ThDOgEz86HgFKW2SuKwSKf7o5DmwJQAsBXVl6hraTWvJ5yCuCXjgsGb_I5S8RLqS8RPvvZmQiaLI1fyOlPX_51uIkTL_Byxp09o47TMGqXn8FxZhSXbG7GIOX01jYVvg0FIdDVHMz6OCwzDl9aPBKzB5krlwj6XOVM_h852x8B6FG5SrjI0UzPTra3-8aiAduOeTZOVgVhmRKgDJhnnRWIFuQyt-4yZE6jotU6EynBNIjzcwDVoLk13WwT9i-6KRqVjuuo4hm9lMxWGbvodFPm0BrR21XQNM9Muy8NoX_AAwgu_FjYXjRoJfiDtAyx3AcCvxVWiovSQlJFEoJLkSplhECn-x1cJaLj_OiE8TtHXHdjG9uywVR_YBm00]--></g></svg>