<svg xmlns="http://www.w3.org/2000/svg" xmlns:xlink="http://www.w3.org/1999/xlink" contentStyleType="text/css" data-diagram-type="STATE" height="1731px" preserveAspectRatio="none" style="width:1227px;height:1731px;background:#FFFFFF;" version="1.1" viewBox="0 0 1227 1731" width="1227px" zoomAndPan="magnify"><defs/><g><g id="Opened"><rect fill="#F1F1F1" height="78.2031" rx="12.5" ry="12.5" style="stroke:#181818;stroke-width:0.5;" width="89.7969" x="484.62" y="198"/><line style="stroke:#181818;stroke-width:0.5;" x1="484.62" x2="574.4169" y1="224.2969" y2="224.2969"/><text fill="#000000" font-family="sans-serif" font-size="14" font-weight="bold" lengthAdjust="spacing" textLength="60.9014" x="499.0678" y="215.9951">Opened</text><ellipse cx="495.12" cy="235.7656" fill="#000000" rx="2.5" ry="2.5"/><text fill="#000000" font-family="monospace" font-size="12" lengthAdjust="spacing" textLength="43.3477" x="501.62" y="240.4355">Amount</text><ellipse cx="495.12" cy="249.7344" fill="#000000" rx="2.5" ry="2.5"/><text fill="#000000" font-family="monospace" font-size="12" lengthAdjust="spacing" textLength="57.7969" x="501.62" y="254.4043">Snapshot</text><ellipse cx="495.12" cy="263.7031" fill="#000000" rx="2.5" ry="2.5"/><text fill="#000000" font-family="monospace" font-size="12" lengthAdjust="spacing" textLength="43.3477" x="501.62" y="268.373">Period</text></g><g id="Closed"><rect fill="#F1F1F1" height="92.1719" rx="12.5" ry="12.5" style="stroke:#181818;stroke-width:0.5;" width="82.5723" x="488.23" y="857.2"/><line style="stroke:#181818;stroke-width:0.5;" x1="488.23" x2="570.8023" y1="883.4969" y2="883.4969"/><text fill="#000000" font-family="sans-serif" font-size="14" font-weight="bold" lengthAdjust="spacing" textLength="52.541" x="503.2456" y="875.1951">Closed</text><ellipse cx="498.73" cy="894.9656" fill="#000000" rx="2.5" ry="2.5"/><text fill="#000000" font-family="monospace" font-size="12" lengthAdjust="spacing" textLength="43.3477" x="505.23" y="899.6355">Amount</text><ellipse cx="498.73" cy="908.9344" fill="#000000" rx="2.5" ry="2.5"/><text fill="#000000" font-family="monospace" font-size="12" lengthAdjust="spacing" textLength="43.3477" x="505.23" y="913.6043">Squash</text><ellipse cx="498.73" cy="922.9031" fill="#000000" rx="2.5" ry="2.5"/><text fill="#000000" font-family="monospace" font-size="12" lengthAdjust="spacing" textLength="50.5723" x="505.23" y="927.573">Timeout</text><ellipse cx="498.73" cy="936.8719" fill="#000000" rx="2.5" ry="2.5"/><text fill="#000000" font-family="monospace" font-size="12" lengthAdjust="spacing" textLength="28.8984" x="505.23" y="941.5418">Pend</text></g><g id="Responded"><rect fill="#F1F1F1" height="78.2031" rx="12.5" ry="12.5" style="stroke:#181818;stroke-width:0.5;" width="107.7529" x="738.64" y="1214.37"/><line style="stroke:#181818;stroke-width:0.5;" x1="738.64" x2="846.3929" y1="1240.6669" y2="1240.6669"/><text fill="#000000" font-family="sans-serif" font-size="14" font-weight="bold" lengthAdjust="spacing" textLength="87.7529" x="748.64" y="1232.3651">Responded</text><ellipse cx="749.14" cy="1252.1356" fill="#000000" rx="2.5" ry="2.5"/><text fill="#000000" font-family="monospace" font-size="12" lengthAdjust="spacing" textLength="43.3477" x="755.64" y="1256.8055">Amount</text><ellipse cx="749.14" cy="1266.1044" fill="#000000" rx="2.5" ry="2.5"/><text fill="#000000" font-family="monospace" font-size="12" lengthAdjust="spacing" textLength="28.8984" x="755.64" y="1270.7743">Pend</text><ellipse cx="749.14" cy="1280.0731" fill="#000000" rx="2.5" ry="2.5"/><text fill="#000000" font-family="monospace" font-size="12" lengthAdjust="spacing" textLength="28.8984" x="755.64" y="1284.743">Pend</text></g><g id="Elapsed"><rect fill="#F1F1F1" height="50.2656" rx="12.5" ry="12.5" style="stroke:#181818;stroke-width:0.5;" width="81.6807" x="226.68" y="1228.34"/><line style="stroke:#181818;stroke-width:0.5;" x1="226.68" x2="308.3607" y1="1254.6369" y2="1254.6369"/><text fill="#000000" font-family="sans-serif" font-size="14" font-weight="bold" lengthAdjust="spacing" textLength="61.6807" x="236.68" y="1246.3351">Elapsed</text><ellipse cx="237.18" cy="1266.1056" fill="#000000" rx="2.5" ry="2.5"/><text fill="#000000" font-family="monospace" font-size="12" lengthAdjust="spacing" textLength="28.8984" x="243.68" y="1270.7755">Pend</text></g><g id="Resolved"><rect fill="#F1F1F1" height="64.2344" rx="12.5" ry="12.5" style="stroke:#181818;stroke-width:0.5;" width="91.668" x="484.68" y="1562.58"/><line style="stroke:#181818;stroke-width:0.5;" x1="484.68" x2="576.348" y1="1588.8769" y2="1588.8769"/><text fill="#000000" font-family="sans-serif" font-size="14" font-weight="bold" lengthAdjust="spacing" textLength="71.668" x="494.68" y="1580.5751">Resolved</text><ellipse cx="495.18" cy="1600.3456" fill="#000000" rx="2.5" ry="2.5"/><text fill="#000000" font-family="monospace" font-size="12" lengthAdjust="spacing" textLength="28.8984" x="501.68" y="1605.0155">Pend</text><ellipse cx="495.18" cy="1614.3144" fill="#000000" rx="2.5" ry="2.5"/><text fill="#000000" font-family="monospace" font-size="12" lengthAdjust="spacing" textLength="28.8984" x="501.68" y="1618.9843">Pend</text></g><ellipse cx="529.52" cy="16" fill="#222222" rx="10" ry="10" style="stroke:#222222;stroke-width:1;"/><ellipse cx="530.52" cy="1714.81" fill="transparent" rx="11" ry="11" style="stroke:#222222;stroke-width:1;"/><ellipse cx="530.52" cy="1714.81" fill="#222222" rx="6" ry="6" style="stroke:#222222;stroke-width:1;"/><!--link *start* to Opened--><g id="link_*start*_Opened"><path d="M529.52,26.41 C529.52,55.57 529.52,139.56 529.52,191.68 " fill="transparent" id="*start*-to-Opened" style="stroke:#181818;stroke-width:1;"/><polygon fill="#181818" points="529.52,197.68,533.52,188.68,529.52,192.68,525.52,188.68,529.52,197.68" style="stroke:#181818;stroke-width:1;"/><text fill="#000000" font-family="sans-serif" font-size="13" font-weight="bold" lengthAdjust="spacing" textLength="36.3086" x="697.2446" y="69.0669">open</text><text fill="#000000" font-family="sans-serif" font-size="13" lengthAdjust="spacing" textLength="65.8633" x="682.4673" y="84.1997">by opener</text><path d="M534.52,93.2656 L534.52,163.2656 L895.52,163.2656 L895.52,103.2656 L885.52,93.2656 L534.52,93.2656 " fill="#FEFFDD" style="stroke:#181818;stroke-width:0.5;"/><path d="M885.52,93.2656 L885.52,103.2656 L895.52,103.2656 L885.52,93.2656 " fill="#FEFFDD" style="stroke:#181818;stroke-width:0.5;"/><ellipse cx="546.02" cy="105.8984" fill="#000000" rx="2.5" ry="2.5"/><text fill="#000000" font-family="sans-serif" font-size="13" lengthAdjust="spacing" textLength="318.3921" x="552.52" y="110.3325">In all stages we keep a tuple of verification keys.</text><ellipse cx="546.02" cy="121.0313" fill="#000000" rx="2.5" ry="2.5"/><text fill="#000000" font-family="sans-serif" font-size="13" lengthAdjust="spacing" textLength="328.7578" x="552.52" y="125.4653">The initial order of keys is `(opener, non-opener)`.</text><ellipse cx="546.02" cy="136.1641" fill="#000000" rx="2.5" ry="2.5"/><text fill="#000000" font-family="sans-serif" font-size="13" lengthAdjust="spacing" textLength="309.0293" x="552.52" y="140.5981">The `Amount` reflects the non-opener balance.</text><ellipse cx="546.02" cy="151.2969" fill="#000000" rx="2.5" ry="2.5"/><text fill="#000000" font-family="sans-serif" font-size="13" lengthAdjust="spacing" textLength="287.2695" x="552.52" y="155.731">The `Total - Amount` is the opener balance.</text></g><!--reverse link Opened to Opened--><g id="link_Opened_Opened"><path d="M580.6684,213.3412 C599.4684,211.7412 609.42,220 609.42,237.1 C609.42,254.2 593.49,261.95 574.69,260.35 " fill="transparent" id="Opened-backto-Opened" style="stroke:#181818;stroke-width:1;"/><polygon fill="#181818" points="574.69,213.85,583.9968,217.0724,579.672,213.426,583.3184,209.1012,574.69,213.85" style="stroke:#181818;stroke-width:1;"/><text fill="#000000" font-family="monospace" font-size="13" font-weight="bold" lengthAdjust="spacing" textLength="23.48" x="615.42" y="241.6669">add</text></g><!--link Opened to Closed--><g id="link_Opened_Closed"><path d="M529.52,276.68 C529.52,391.99 529.52,727.69 529.52,851.15 " fill="transparent" id="Opened-to-Closed" style="stroke:#181818;stroke-width:1;"/><polygon fill="#181818" points="529.52,857.15,533.52,848.15,529.52,852.15,525.52,848.15,529.52,857.15" style="stroke:#181818;stroke-width:1;"/><text fill="#000000" font-family="sans-serif" font-size="13" font-weight="bold" lengthAdjust="spacing" textLength="37.6479" x="784.8662" y="319.2669">close</text><text fill="#000000" font-family="sans-serif" font-size="13" lengthAdjust="spacing" textLength="58.9063" x="774.237" y="334.3997">by closer</text><path d="M534.52,343.4656 L534.52,822.4656 L1072.52,822.4656 L1072.52,353.4656 L1062.52,343.4656 L534.52,343.4656 " fill="#FEFFDD" style="stroke:#181818;stroke-width:0.5;"/><path d="M1062.52,343.4656 L1062.52,353.4656 L1072.52,353.4656 L1062.52,343.4656 " fill="#FEFFDD" style="stroke:#181818;stroke-width:0.5;"/><ellipse cx="546.02" cy="356.0984" fill="#000000" rx="2.5" ry="2.5"/><text fill="#000000" font-family="sans-serif" font-size="13" lengthAdjust="spacing" textLength="134.9893" x="552.52" y="360.5325">Close.In : Input state</text><text fill="#000000" font-family="sans-serif" font-size="13" lengthAdjust="spacing" textLength="181.9556" x="548.7846" y="375.6653">- Close.In.0 : Keys `keys_in`</text><text fill="#000000" font-family="sans-serif" font-size="13" lengthAdjust="spacing" textLength="439.4863" x="548.7846" y="390.7981">- Close.In.1 : `Opened(amt1_in, snapshot_in, period_in) = stage_in`</text><text fill="#000000" font-family="sans-serif" font-size="13" lengthAdjust="spacing" textLength="190.2075" x="548.7846" y="405.931">- Close.In.2 : Amount `tot_in`</text><text fill="#000000" font-family="sans-serif" font-size="13" lengthAdjust="spacing" textLength="4.1323" x="540.52" y="421.0638">&#160;</text><ellipse cx="546.02" cy="431.7625" fill="#000000" rx="2.5" ry="2.5"/><text fill="#000000" font-family="sans-serif" font-size="13" lengthAdjust="spacing" textLength="157.9805" x="552.52" y="436.1966">Close.Out : Output state</text><text fill="#000000" font-family="sans-serif" font-size="13" lengthAdjust="spacing" textLength="202.8901" x="548.7846" y="451.3294">- Close.Out.0 : Keys `keys_out`</text><text fill="#000000" font-family="sans-serif" font-size="13" lengthAdjust="spacing" textLength="92.8535" x="548.7846" y="466.4622">- Close.Out.1 :</text><text fill="#000000" font-family="sans-serif" font-size="13" lengthAdjust="spacing" textLength="441.1685" x="557.0493" y="481.595">`Closed(amt_out, squash_out, timeout_out, pend_out) = stage_out`</text><text fill="#000000" font-family="sans-serif" font-size="13" lengthAdjust="spacing" textLength="211.1421" x="548.7846" y="496.7278">- Close.Out.2 : Amount `tot_out`</text><text fill="#000000" font-family="sans-serif" font-size="13" lengthAdjust="spacing" textLength="4.1323" x="540.52" y="511.8606">&#160;</text><ellipse cx="546.02" cy="522.5594" fill="#000000" rx="2.5" ry="2.5"/><text fill="#000000" font-family="sans-serif" font-size="13" lengthAdjust="spacing" textLength="151.6328" x="552.52" y="526.9935">Close.Con : Constraints</text><text fill="#000000" font-family="sans-serif" font-size="13" lengthAdjust="spacing" textLength="509.0757" x="548.7846" y="542.1263">- Close.Con.0 : If tx signed by `vk0` then `keys_in == keys_out` else keys are</text><text fill="#000000" font-family="sans-serif" font-size="13" lengthAdjust="spacing" textLength="49.8735" x="557.0493" y="557.2591">swaped</text><text fill="#000000" font-family="sans-serif" font-size="13" lengthAdjust="spacing" textLength="437.2329" x="548.7846" y="572.3919">- Close.Con.1 : If no snapshot provided then `snapshot_out` equals</text><text fill="#000000" font-family="sans-serif" font-size="13" lengthAdjust="spacing" textLength="90.6445" x="557.0493" y="587.5247">`snapshot_in`</text><text fill="#000000" font-family="sans-serif" font-size="13" lengthAdjust="spacing" textLength="4.1323" x="540.52" y="602.6575">&#160;</text><text fill="#000000" font-family="sans-serif" font-size="13" lengthAdjust="spacing" textLength="125.2837" x="548.7846" y="617.7903">- Close.Con.2 : Else</text><text fill="#000000" font-family="sans-serif" font-size="13" lengthAdjust="spacing" textLength="4.1323" x="540.52" y="632.9231">&#160;</text><text fill="#000000" font-family="sans-serif" font-size="13" lengthAdjust="spacing" textLength="305.3159" x="557.0493" y="648.056">- Close.Con.2.0 : Snapshot signed by other key</text><text fill="#000000" font-family="sans-serif" font-size="13" lengthAdjust="spacing" textLength="454.8286" x="557.0493" y="663.1888">- Close.Con.2.1 : `snapshot_out` equals provided union `snapshot_in`</text><text fill="#000000" font-family="sans-serif" font-size="13" lengthAdjust="spacing" textLength="4.1323" x="540.52" y="678.3216">&#160;</text><text fill="#000000" font-family="sans-serif" font-size="13" lengthAdjust="spacing" textLength="485.2529" x="548.7846" y="693.4544">- Close.Con.3 : `ReduceCheck` succeeds with `chqs_amt` for the provided</text><text fill="#000000" font-family="sans-serif" font-size="13" lengthAdjust="spacing" textLength="186.3672" x="557.0493" y="708.5872">cheques and the `pend_out`</text><text fill="#000000" font-family="sans-serif" font-size="13" lengthAdjust="spacing" textLength="427.1719" x="548.7846" y="723.72">- Close.Con.4 : `amt_in + chqs_amt + sq_diff == amt_out` where</text><text fill="#000000" font-family="sans-serif" font-size="13" lengthAdjust="spacing" textLength="409.6396" x="557.0493" y="738.8528">`amt_in = tot_in - amt1_in` if the closer is also the opener else</text><text fill="#000000" font-family="sans-serif" font-size="13" lengthAdjust="spacing" textLength="487.519" x="557.0493" y="753.9856">`amt_in = amt1_in` `sq_diff` is the difference of the squashes in the latest</text><text fill="#000000" font-family="sans-serif" font-size="13" lengthAdjust="spacing" textLength="59.2935" x="557.0493" y="769.1185">snapshot</text><text fill="#000000" font-family="sans-serif" font-size="13" lengthAdjust="spacing" textLength="234.1841" x="548.7846" y="784.2513">- Close.Con.5 : `sq_out == sq_sent`</text><text fill="#000000" font-family="sans-serif" font-size="13" lengthAdjust="spacing" textLength="345.668" x="548.7846" y="799.3841">- Close.Con.6 : `timeout_out &gt; ub + respond_period`</text><text fill="#000000" font-family="sans-serif" font-size="13" lengthAdjust="spacing" textLength="224.1738" x="548.7846" y="814.5169">- Close.Con.7 : `tot_out &gt;= tot_in`</text></g><!--reverse link Closed to Closed--><g id="link_Closed_Closed"><path d="M577.0943,888.7157 C595.6943,887.3657 605.8,892.52 605.8,903.29 C605.8,914.06 589.71,918.77 571.11,917.42 " fill="transparent" id="Closed-backto-Closed" style="stroke:#181818;stroke-width:1;"/><polygon fill="#181818" points="571.11,889.15,580.3759,892.488,576.0969,888.788,579.7968,884.509,571.11,889.15" style="stroke:#181818;stroke-width:1;"/><text fill="#000000" font-family="sans-serif" font-size="13" font-weight="bold" lengthAdjust="spacing" textLength="29.7007" x="626.4028" y="900.3569">free</text><text fill="#000000" font-family="sans-serif" font-size="13" lengthAdjust="spacing" textLength="58.9063" x="611.8" y="915.4897">by closer</text></g><!--link Closed to Responded--><g id="link_Closed_Responded"><path d="M570.97,915.82 C615.9,930.45 686.52,960.04 726.52,1010.37 C774.22,1070.4 787.1054,1156.335 790.7654,1207.925 " fill="transparent" id="Closed-to-Responded" style="stroke:#181818;stroke-width:1;"/><polygon fill="#181818" points="791.19,1213.91,794.5431,1204.6495,790.8362,1208.9225,786.5631,1205.2156,791.19,1213.91" style="stroke:#181818;stroke-width:1;"/><text fill="#000000" font-family="sans-serif" font-size="13" font-weight="bold" lengthAdjust="spacing" textLength="59.7632" x="967.7254" y="1031.4369">respond</text><text fill="#000000" font-family="sans-serif" font-size="13" lengthAdjust="spacing" textLength="88.0293" x="953.5923" y="1046.5697">by non-closer</text><path d="M788.7,1055.6356 L788.7,1140.6356 L1205.7,1140.6356 L1205.7,1065.6356 L1195.7,1055.6356 L788.7,1055.6356 " fill="#FEFFDD" style="stroke:#181818;stroke-width:0.5;"/><path d="M1195.7,1055.6356 L1195.7,1065.6356 L1205.7,1065.6356 L1195.7,1055.6356 " fill="#FEFFDD" style="stroke:#181818;stroke-width:0.5;"/><ellipse cx="800.2" cy="1068.2684" fill="#000000" rx="2.5" ry="2.5"/><text fill="#000000" font-family="sans-serif" font-size="13" lengthAdjust="spacing" textLength="235.8027" x="806.7" y="1072.7025">Releases non-closer account assets.</text><ellipse cx="800.2" cy="1083.4013" fill="#000000" rx="2.5" ry="2.5"/><text fill="#000000" font-family="sans-serif" font-size="13" lengthAdjust="spacing" textLength="294.5376" x="806.7" y="1087.8353">The left over should cover the closer account</text><text fill="#000000" font-family="sans-serif" font-size="13" lengthAdjust="spacing" textLength="304.5225" x="794.7" y="1102.9681">and potential liabilities of the non-closer which</text><text fill="#000000" font-family="sans-serif" font-size="13" lengthAdjust="spacing" textLength="170.8599" x="794.7" y="1118.101">are stored in their `Pend`.</text><ellipse cx="800.2" cy="1128.7997" fill="#000000" rx="2.5" ry="2.5"/><text fill="#000000" font-family="sans-serif" font-size="13" lengthAdjust="spacing" textLength="384.814" x="806.7" y="1133.2338">The `Pend`s are stored in order corresponding to the keys.</text></g><!--link Closed to Elapsed--><g id="link_Closed_Elapsed"><path d="M487.88,924.44 C453.62,942.8 405.78,972.75 374.52,1010.37 C317.83,1078.58 287.3363,1175.75 275.0063,1222.3 " fill="transparent" id="Closed-to-Elapsed" style="stroke:#181818;stroke-width:1;"/><polygon fill="#181818" points="273.47,1228.1,279.6411,1220.4242,274.7502,1223.2667,271.9078,1218.3758,273.47,1228.1" style="stroke:#181818;stroke-width:1;"/><text fill="#000000" font-family="sans-serif" font-size="13" font-weight="bold" lengthAdjust="spacing" textLength="47.9058" x="524.6362" y="1023.4369">elapse</text><text fill="#000000" font-family="sans-serif" font-size="13" lengthAdjust="spacing" textLength="58.9063" x="519.136" y="1038.5697">by closer</text><path d="M379.52,1047.6356 L379.52,1147.6356 L717.52,1147.6356 L717.52,1057.6356 L707.52,1047.6356 L379.52,1047.6356 " fill="#FEFFDD" style="stroke:#181818;stroke-width:0.5;"/><path d="M707.52,1047.6356 L707.52,1057.6356 L717.52,1057.6356 L707.52,1047.6356 " fill="#FEFFDD" style="stroke:#181818;stroke-width:0.5;"/><ellipse cx="391.02" cy="1060.2684" fill="#000000" rx="2.5" ry="2.5"/><text fill="#000000" font-family="sans-serif" font-size="13" lengthAdjust="spacing" textLength="163.7188" x="397.52" y="1064.7025">Releases account assets.</text><ellipse cx="391.02" cy="1075.4013" fill="#000000" rx="2.5" ry="2.5"/><text fill="#000000" font-family="sans-serif" font-size="13" lengthAdjust="spacing" textLength="305.1382" x="397.52" y="1079.8353">For simplicity we disallow the closer to provide</text><text fill="#000000" font-family="sans-serif" font-size="13" lengthAdjust="spacing" textLength="223.6152" x="385.52" y="1094.9681">cheques owned by the non-closer.</text><ellipse cx="391.02" cy="1105.6669" fill="#000000" rx="2.5" ry="2.5"/><text fill="#000000" font-family="sans-serif" font-size="13" lengthAdjust="spacing" textLength="223.5073" x="397.52" y="1110.101">The left over should cover just the</text><text fill="#000000" font-family="sans-serif" font-size="13" lengthAdjust="spacing" textLength="270.8989" x="385.52" y="1125.2338">non-closer account as any extra liabilities</text><text fill="#000000" font-family="sans-serif" font-size="13" lengthAdjust="spacing" textLength="174.9795" x="385.52" y="1140.3666">of the closer were ignored.</text></g><!--reverse link Responded to Responded--><g id="link_Responded_Responded"><path d="M852.7596,1240.3641 C871.8796,1240.1541 881.39,1244.57 881.39,1253.47 C881.39,1262.38 865.88,1266.73 846.76,1266.52 " fill="transparent" id="Responded-backto-Responded" style="stroke:#181818;stroke-width:1;"/><polygon fill="#181818" points="846.76,1240.43,855.8034,1244.3309,851.7597,1240.3751,855.7155,1236.3314,846.76,1240.43" style="stroke:#181818;stroke-width:1;"/><text fill="#000000" font-family="sans-serif" font-size="13" font-weight="bold" lengthAdjust="spacing" textLength="29.7007" x="916.5543" y="1250.5369">free</text><text fill="#000000" font-family="sans-serif" font-size="13" lengthAdjust="spacing" textLength="88.0293" x="887.39" y="1265.6697">by non-closer</text></g><!--link Responded to Resolved--><g id="link_Responded_Resolved"><path d="M786.01,1292.74 C777.98,1331.53 761.42,1391.9 730.52,1435.58 C689.61,1493.39 626.8425,1537.5923 581.6725,1564.9423 " fill="transparent" id="Responded-to-Resolved" style="stroke:#181818;stroke-width:1;"/><polygon fill="#181818" points="576.54,1568.05,586.3105,1566.8102,580.8171,1565.4603,582.1669,1559.9668,576.54,1568.05" style="stroke:#181818;stroke-width:1;"/><text fill="#000000" font-family="sans-serif" font-size="13" font-weight="bold" lengthAdjust="spacing" textLength="53.644" x="946.2712" y="1374.1469">resolve</text><text fill="#000000" font-family="sans-serif" font-size="13" lengthAdjust="spacing" textLength="58.9063" x="943.6401" y="1389.2797">by closer</text><path d="M774.79,1398.3456 L774.79,1423.3456 L1170.79,1423.3456 L1170.79,1408.3456 L1160.79,1398.3456 L774.79,1398.3456 " fill="#FEFFDD" style="stroke:#181818;stroke-width:0.5;"/><path d="M1160.79,1398.3456 L1160.79,1408.3456 L1170.79,1408.3456 L1160.79,1398.3456 " fill="#FEFFDD" style="stroke:#181818;stroke-width:0.5;"/><ellipse cx="786.29" cy="1410.9784" fill="#000000" rx="2.5" ry="2.5"/><text fill="#000000" font-family="sans-serif" font-size="13" lengthAdjust="spacing" textLength="363.6064" x="792.79" y="1415.4125">Releases account assets leaving coverage for liabilities.</text></g><!--link Responded to *end*--><g id="link_Responded_*end*"><path d="M846.63,1260.1 C943.97,1271.46 1142.34,1300.66 1183.52,1353.58 C1205.9,1382.34 1203.61,1405.17 1183.52,1435.58 C1025.21,1675.11 620.1301,1708.7551 547.5401,1712.9351 " fill="transparent" id="Responded-to-*end*" style="stroke:#181818;stroke-width:1;"/><polygon fill="#181818" points="541.55,1713.28,550.7651,1716.756,546.5417,1712.9926,550.3052,1708.7692,541.55,1713.28" style="stroke:#181818;stroke-width:1;"/><text fill="#000000" font-family="sans-serif" font-size="13" font-weight="bold" lengthAdjust="spacing" textLength="27.3774" x="1176.6244" y="1496.1469">end</text><text fill="#000000" font-family="sans-serif" font-size="13" lengthAdjust="spacing" textLength="58.9063" x="1160.86" y="1511.2797">by closer</text></g><!--reverse link Elapsed to Elapsed--><g id="link_Elapsed_Elapsed"><path d="M314.4653,1240.2298 C333.1253,1238.9198 343.36,1243.62 343.36,1253.47 C343.36,1263.33 327.14,1267.6 308.48,1266.29 " fill="transparent" id="Elapsed-backto-Elapsed" style="stroke:#181818;stroke-width:1;"/><polygon fill="#181818" points="308.48,1240.65,317.738,1244.0099,313.4677,1240.2998,317.1778,1236.0295,308.48,1240.65" style="stroke:#181818;stroke-width:1;"/><text fill="#000000" font-family="sans-serif" font-size="13" font-weight="bold" lengthAdjust="spacing" textLength="29.7007" x="363.9628" y="1250.5369">free</text><text fill="#000000" font-family="sans-serif" font-size="13" lengthAdjust="spacing" textLength="58.9063" x="349.36" y="1265.6697">by closer</text></g><!--link Elapsed to Resolved--><g id="link_Elapsed_Resolved"><path d="M260.38,1278.94 C251.17,1315.63 239.42,1385.9 267.52,1435.58 C314.01,1517.77 416.4724,1560.1627 478.6424,1579.5627 " fill="transparent" id="Elapsed-to-Resolved" style="stroke:#181818;stroke-width:1;"/><polygon fill="#181818" points="484.37,1581.35,476.9701,1574.8507,479.597,1579.8606,474.587,1582.4875,484.37,1581.35" style="stroke:#181818;stroke-width:1;"/><text fill="#000000" font-family="sans-serif" font-size="13" font-weight="bold" lengthAdjust="spacing" textLength="53.644" x="468.5412" y="1366.6469">resolve</text><text fill="#000000" font-family="sans-serif" font-size="13" lengthAdjust="spacing" textLength="88.0293" x="451.3486" y="1381.7797">by non-closer</text><path d="M272.52,1390.8456 L272.52,1430.8456 L717.52,1430.8456 L717.52,1400.8456 L707.52,1390.8456 L272.52,1390.8456 " fill="#FEFFDD" style="stroke:#181818;stroke-width:0.5;"/><path d="M707.52,1390.8456 L707.52,1400.8456 L717.52,1400.8456 L707.52,1390.8456 " fill="#FEFFDD" style="stroke:#181818;stroke-width:0.5;"/><ellipse cx="284.02" cy="1403.4784" fill="#000000" rx="2.5" ry="2.5"/><text fill="#000000" font-family="sans-serif" font-size="13" lengthAdjust="spacing" textLength="334.458" x="290.52" y="1407.9125">Releases account assets but covering his liabilities.</text><ellipse cx="284.02" cy="1418.6113" fill="#000000" rx="2.5" ry="2.5"/><text fill="#000000" font-family="sans-serif" font-size="13" lengthAdjust="spacing" textLength="412.6865" x="290.52" y="1423.0453">Non-closer `Pend` is empty - we ignored them during `elapse`.</text></g><!--link Elapsed to *end*--><g id="link_Elapsed_*end*"><path d="M226.79,1279 C151.98,1327.19 6,1437.82 70.52,1532.58 C180.66,1694.35 453.4929,1711.5321 513.1729,1713.4021 " fill="transparent" id="Elapsed-to-*end*" style="stroke:#181818;stroke-width:1;"/><polygon fill="#181818" points="519.17,1713.59,510.2997,1709.3101,514.1725,1713.4334,510.0491,1717.3062,519.17,1713.59" style="stroke:#181818;stroke-width:1;"/><text fill="#000000" font-family="sans-serif" font-size="13" font-weight="bold" lengthAdjust="spacing" textLength="27.3774" x="161.8442" y="1478.6469">end</text><path d="M75.52,1487.7128 L75.52,1527.7128 L275.52,1527.7128 L275.52,1497.7128 L265.52,1487.7128 L75.52,1487.7128 " fill="#FEFFDD" style="stroke:#181818;stroke-width:0.5;"/><path d="M265.52,1487.7128 L265.52,1497.7128 L275.52,1497.7128 L265.52,1487.7128 " fill="#FEFFDD" style="stroke:#181818;stroke-width:0.5;"/><ellipse cx="87.02" cy="1500.3456" fill="#000000" rx="2.5" ry="2.5"/><text fill="#000000" font-family="sans-serif" font-size="13" lengthAdjust="spacing" textLength="167.0259" x="93.52" y="1504.7797">Possibly releases account</text><text fill="#000000" font-family="sans-serif" font-size="13" lengthAdjust="spacing" textLength="134.7798" x="81.52" y="1519.9125">assets to non-closer.</text></g><!--reverse link Resolved to Resolved--><g id="link_Resolved_Resolved"><path d="M582.6243,1581.289 C601.4543,1580.469 611.35,1585.11 611.35,1594.69 C611.35,1604.28 595.46,1608.66 576.63,1607.84 " fill="transparent" id="Resolved-backto-Resolved" style="stroke:#181818;stroke-width:1;"/><polygon fill="#181818" points="576.63,1581.55,585.7955,1585.1547,581.6253,1581.3325,585.4475,1577.1622,576.63,1581.55" style="stroke:#181818;stroke-width:1;"/><text fill="#000000" font-family="sans-serif" font-size="13" font-weight="bold" lengthAdjust="spacing" textLength="29.7007" x="617.35" y="1599.2569">free</text></g><!--link Resolved to *end*--><g id="link_Resolved_*end*"><path d="M530.52,1627.04 C530.52,1652.32 530.52,1680.38 530.52,1697.32 " fill="transparent" id="Resolved-to-*end*" style="stroke:#181818;stroke-width:1;"/><polygon fill="#181818" points="530.52,1703.32,534.52,1694.32,530.52,1698.32,526.52,1694.32,530.52,1703.32" style="stroke:#181818;stroke-width:1;"/><text fill="#000000" font-family="sans-serif" font-size="13" font-weight="bold" lengthAdjust="spacing" textLength="27.3774" x="531.52" y="1669.8769">end</text></g><!--SRC=[dLPRRzis57xNhpZmKvlLMRDB1mIDWI7eW6B06gHvsugGbkYOYqmg8XKt_xxV8McPOeHqs4j2KkVodU_SxBpqYXRlrwjFdJAgUV_ZUhKWwIXUg_Zld4veiVXzPmVZ5ul9usSZExUrvVELwhLjy5YvqSDbQrtc8Lwh-A_ma3z-VXYasnQFDtgdx52ANYbJ-BnMhhEcoToEBzLuAfmNxyde_6lcwaCB9Z97wLwb_oyWjEtZ561ug0w74iRpn-hlao-qNAvIrkYSODZYp4R_CUiduelgAsFXrHfgjRcl22O-6f9jIu1pfnpj5TqhrP4aFtGj93VqY4HkT2szXjgzUdAdGUzcgqWRxRLioVQDwbcMFvDs95v5Ts_8MBECvzVYg2WYrO9wjMbLxHrvl1vbQIrRQMgLQTnO3qzBEcZgg5FAWmxY6AjKZ21bo6bPCEEoYMGlCgbLAiT8NStdaRjmAxWxYVAduEyS97Q3fv1I85wEdqxVukEVJ8fWQcwr4TFlP_Wk8ePNSkVF8F66NEgeSEb27-7ucYvYbfvR-GbM8YyaVD0JrGZm4v2T4_xEGSHpYH5D9Ge9eCGBaOWKCL8M0zBGcV7iOqF62o9g-7G4FMEsX1r4HjoNbfd5N-TxgOrtcJPU0-oF6_9VoUaxpY4I9Hxltmgk2pCIJXSNDCP5gdKgLgdiLOZ9xMM7LflQFeksZHrpGLrl7pMQFraVSnJDWeVMHOwox26QgLsE-0CWL45qyYN4SvYbMKWM_dg6FACIgcSEoH7jOBXjNmJrCrkvLirGgykjgky5kQ6kbMem3hJVagYt3-uMEHUqiNtekeFvWAdUmYbcXpI171A7v8l2qI_iY6i7MVc13bPnT0-tZTviE5Mfj0Jj4NRCq47bWc9jmsPg5Ko1JN0P6vHd0eAt-M3WX1TMHcMH_8x3X2_mYa72munVOe4ZE6ZolKNxE1yB9r5Q1FbhoCa31y7nuEIKUKR5EvRAEePMDAp1H1ztp6ti-bBhjw1bayQ13v4DlJJ3uj3B1zgcLy_csIZSG7ZSRb4-0HbLU3RFZK6UpzUgLTA1fACGoReEZIsTKpvR6QtQUBBOAGJkXhQXEboo92PDQ711TN1cmf9fjLph5Wi7Zb9sCd_xhQwthDCZQTxsY2EcJFSaU4dcsoVSNI4RbrXj-nIwDdSWEFY9Ms-6PIOkRVT8cmgN5nV7XB4vclv0apczwrfTQ__4AxdH3ZlQxdEQ02rrONLiGRjFKsFApdVf_tTmddKWDvj3fEA9r5SCuZmDaBQJ_jkZUGYJYodD-JhMLYpCejOcjPaLMgwMIZJyyXahb6__bsjG8Hyvnu41RAWmtBBeiW1o82lYdrensLb_9E-7ttefq4bjpBNWKVpx0Vwd5Yo2N6DGX00vqYt6t2H0rlphcE_O5pmCrQv3vIsvzb8wESqxQePWICGo5nb5qq1AYfu3lhBEwNNxX8atHSuz7B6ZmlCIdfHJf6cifeor0ykvr0oWRm00]--></g></svg>