<svg xmlns="http://www.w3.org/2000/svg" xmlns:xlink="http://www.w3.org/1999/xlink" contentStyleType="text/css" data-diagram-type="STATE" height="1337px" preserveAspectRatio="none" style="width:931px;height:1337px;background:#FFFFFF;" version="1.1" viewBox="0 0 931 1337" width="931px" zoomAndPan="magnify"><defs/><g><g id="Opened"><rect fill="#F1F1F1" height="78.2031" rx="12.5" ry="12.5" style="stroke:#181818;stroke-width:0.5;" width="89.7969" x="348.03" y="198"/><line style="stroke:#181818;stroke-width:0.5;" x1="348.03" x2="437.8269" y1="224.2969" y2="224.2969"/><text fill="#000000" font-family="sans-serif" font-size="14" font-weight="bold" lengthAdjust="spacing" textLength="60.9014" x="362.4778" y="215.9951">Opened</text><ellipse cx="358.53" cy="235.7656" fill="#000000" rx="2.5" ry="2.5"/><text fill="#000000" font-family="monospace" font-size="12" lengthAdjust="spacing" textLength="43.3477" x="365.03" y="240.4355">Amount</text><ellipse cx="358.53" cy="249.7344" fill="#000000" rx="2.5" ry="2.5"/><text fill="#000000" font-family="monospace" font-size="12" lengthAdjust="spacing" textLength="57.7969" x="365.03" y="254.4043">Snapshot</text><ellipse cx="358.53" cy="263.7031" fill="#000000" rx="2.5" ry="2.5"/><text fill="#000000" font-family="monospace" font-size="12" lengthAdjust="spacing" textLength="43.3477" x="365.03" y="268.373">Period</text></g><g id="Closed"><rect fill="#F1F1F1" height="92.1719" rx="12.5" ry="12.5" style="stroke:#181818;stroke-width:0.5;" width="82.5723" x="351.64" y="463.2"/><line style="stroke:#181818;stroke-width:0.5;" x1="351.64" x2="434.2123" y1="489.4969" y2="489.4969"/><text fill="#000000" font-family="sans-serif" font-size="14" font-weight="bold" lengthAdjust="spacing" textLength="52.541" x="366.6556" y="481.1951">Closed</text><ellipse cx="362.14" cy="500.9656" fill="#000000" rx="2.5" ry="2.5"/><text fill="#000000" font-family="monospace" font-size="12" lengthAdjust="spacing" textLength="43.3477" x="368.64" y="505.6355">Amount</text><ellipse cx="362.14" cy="514.9344" fill="#000000" rx="2.5" ry="2.5"/><text fill="#000000" font-family="monospace" font-size="12" lengthAdjust="spacing" textLength="43.3477" x="368.64" y="519.6043">Squash</text><ellipse cx="362.14" cy="528.9031" fill="#000000" rx="2.5" ry="2.5"/><text fill="#000000" font-family="monospace" font-size="12" lengthAdjust="spacing" textLength="50.5723" x="368.64" y="533.573">Timeout</text><ellipse cx="362.14" cy="542.8719" fill="#000000" rx="2.5" ry="2.5"/><text fill="#000000" font-family="monospace" font-size="12" lengthAdjust="spacing" textLength="28.8984" x="368.64" y="547.5418">Pend</text></g><g id="Responded"><rect fill="#F1F1F1" height="78.2031" rx="12.5" ry="12.5" style="stroke:#181818;stroke-width:0.5;" width="107.7529" x="548.05" y="820.37"/><line style="stroke:#181818;stroke-width:0.5;" x1="548.05" x2="655.8029" y1="846.6669" y2="846.6669"/><text fill="#000000" font-family="sans-serif" font-size="14" font-weight="bold" lengthAdjust="spacing" textLength="87.7529" x="558.05" y="838.3651">Responded</text><ellipse cx="558.55" cy="858.1356" fill="#000000" rx="2.5" ry="2.5"/><text fill="#000000" font-family="monospace" font-size="12" lengthAdjust="spacing" textLength="43.3477" x="565.05" y="862.8055">Amount</text><ellipse cx="558.55" cy="872.1044" fill="#000000" rx="2.5" ry="2.5"/><text fill="#000000" font-family="monospace" font-size="12" lengthAdjust="spacing" textLength="28.8984" x="565.05" y="876.7743">Pend</text><ellipse cx="558.55" cy="886.0731" fill="#000000" rx="2.5" ry="2.5"/><text fill="#000000" font-family="monospace" font-size="12" lengthAdjust="spacing" textLength="28.8984" x="565.05" y="890.743">Pend</text></g><g id="Elapsed"><rect fill="#F1F1F1" height="50.2656" rx="12.5" ry="12.5" style="stroke:#181818;stroke-width:0.5;" width="81.6807" x="143.08" y="834.34"/><line style="stroke:#181818;stroke-width:0.5;" x1="143.08" x2="224.7607" y1="860.6369" y2="860.6369"/><text fill="#000000" font-family="sans-serif" font-size="14" font-weight="bold" lengthAdjust="spacing" textLength="61.6807" x="153.08" y="852.3351">Elapsed</text><ellipse cx="153.58" cy="872.1056" fill="#000000" rx="2.5" ry="2.5"/><text fill="#000000" font-family="monospace" font-size="12" lengthAdjust="spacing" textLength="28.8984" x="160.08" y="876.7755">Pend</text></g><g id="Resolved"><rect fill="#F1F1F1" height="64.2344" rx="12.5" ry="12.5" style="stroke:#181818;stroke-width:0.5;" width="91.668" x="347.09" y="1168.58"/><line style="stroke:#181818;stroke-width:0.5;" x1="347.09" x2="438.758" y1="1194.8769" y2="1194.8769"/><text fill="#000000" font-family="sans-serif" font-size="14" font-weight="bold" lengthAdjust="spacing" textLength="71.668" x="357.09" y="1186.5751">Resolved</text><ellipse cx="357.59" cy="1206.3456" fill="#000000" rx="2.5" ry="2.5"/><text fill="#000000" font-family="monospace" font-size="12" lengthAdjust="spacing" textLength="28.8984" x="364.09" y="1211.0155">Pend</text><ellipse cx="357.59" cy="1220.3144" fill="#000000" rx="2.5" ry="2.5"/><text fill="#000000" font-family="monospace" font-size="12" lengthAdjust="spacing" textLength="28.8984" x="364.09" y="1224.9843">Pend</text></g><ellipse cx="392.92" cy="16" fill="#222222" rx="10" ry="10" style="stroke:#222222;stroke-width:1;"/><ellipse cx="392.92" cy="1320.81" fill="transparent" rx="11" ry="11" style="stroke:#222222;stroke-width:1;"/><ellipse cx="392.92" cy="1320.81" fill="#222222" rx="6" ry="6" style="stroke:#222222;stroke-width:1;"/><!--link *start* to Opened--><g id="link_*start*_Opened"><path d="M392.92,26.41 C392.92,55.57 392.92,139.56 392.92,191.68 " fill="transparent" id="*start*-to-Opened" style="stroke:#181818;stroke-width:1;"/><polygon fill="#181818" points="392.92,197.68,396.92,188.68,392.92,192.68,388.92,188.68,392.92,197.68" style="stroke:#181818;stroke-width:1;"/><text fill="#000000" font-family="sans-serif" font-size="13" font-weight="bold" lengthAdjust="spacing" textLength="36.3086" x="560.6446" y="69.0669">open</text><text fill="#000000" font-family="sans-serif" font-size="13" lengthAdjust="spacing" textLength="65.8633" x="545.8673" y="84.1997">by opener</text><path d="M397.92,93.2656 L397.92,163.2656 L758.92,163.2656 L758.92,103.2656 L748.92,93.2656 L397.92,93.2656 " fill="#FEFFDD" style="stroke:#181818;stroke-width:0.5;"/><path d="M748.92,93.2656 L748.92,103.2656 L758.92,103.2656 L748.92,93.2656 " fill="#FEFFDD" style="stroke:#181818;stroke-width:0.5;"/><ellipse cx="409.42" cy="105.8984" fill="#000000" rx="2.5" ry="2.5"/><text fill="#000000" font-family="sans-serif" font-size="13" lengthAdjust="spacing" textLength="318.3921" x="415.92" y="110.3325">In all stages we keep a tuple of verification keys.</text><ellipse cx="409.42" cy="121.0313" fill="#000000" rx="2.5" ry="2.5"/><text fill="#000000" font-family="sans-serif" font-size="13" lengthAdjust="spacing" textLength="328.7578" x="415.92" y="125.4653">The initial order of keys is `(opener, non-opener)`.</text><ellipse cx="409.42" cy="136.1641" fill="#000000" rx="2.5" ry="2.5"/><text fill="#000000" font-family="sans-serif" font-size="13" lengthAdjust="spacing" textLength="279.9063" x="415.92" y="140.5981">The `Amount` reflects the opener balance.</text><ellipse cx="409.42" cy="151.2969" fill="#000000" rx="2.5" ry="2.5"/><text fill="#000000" font-family="sans-serif" font-size="13" lengthAdjust="spacing" textLength="316.3926" x="415.92" y="155.731">The `Total - Amount` is the non-opener balance.</text></g><!--reverse link Opened to Opened--><g id="link_Opened_Opened"><path d="M444.0784,213.3409 C462.8684,211.7409 472.82,220 472.82,237.1 C472.82,254.2 456.89,261.95 438.1,260.35 " fill="transparent" id="Opened-backto-Opened" style="stroke:#181818;stroke-width:1;"/><polygon fill="#181818" points="438.1,213.85,447.4069,217.072,443.082,213.4258,446.7282,209.1008,438.1,213.85" style="stroke:#181818;stroke-width:1;"/><text fill="#000000" font-family="monospace" font-size="13" font-weight="bold" lengthAdjust="spacing" textLength="23.48" x="478.82" y="241.6669">add</text></g><!--link Opened to Closed--><g id="link_Opened_Closed"><path d="M392.92,276.52 C392.92,325.62 392.92,404.49 392.92,456.78 " fill="transparent" id="Opened-to-Closed" style="stroke:#181818;stroke-width:1;"/><polygon fill="#181818" points="392.92,462.78,396.92,453.78,392.92,457.78,388.92,453.78,392.92,462.78" style="stroke:#181818;stroke-width:1;"/><text fill="#000000" font-family="sans-serif" font-size="13" font-weight="bold" lengthAdjust="spacing" textLength="37.6479" x="573.0211" y="319.2669">close</text><text fill="#000000" font-family="sans-serif" font-size="13" lengthAdjust="spacing" textLength="58.9063" x="562.3919" y="334.3997">by closer</text><path d="M397.92,343.4656 L397.92,428.4656 L784.92,428.4656 L784.92,353.4656 L774.92,343.4656 L397.92,343.4656 " fill="#FEFFDD" style="stroke:#181818;stroke-width:0.5;"/><path d="M774.92,343.4656 L774.92,353.4656 L784.92,353.4656 L774.92,343.4656 " fill="#FEFFDD" style="stroke:#181818;stroke-width:0.5;"/><ellipse cx="409.42" cy="356.0984" fill="#000000" rx="2.5" ry="2.5"/><text fill="#000000" font-family="sans-serif" font-size="13" lengthAdjust="spacing" textLength="151.1123" x="415.92" y="360.5325">Doesn't release assets.</text><ellipse cx="409.42" cy="371.2313" fill="#000000" rx="2.5" ry="2.5"/><text fill="#000000" font-family="sans-serif" font-size="13" lengthAdjust="spacing" textLength="336.375" x="415.92" y="375.6653">The order of keys changes to `(closer, non-closer)`.</text><ellipse cx="409.42" cy="386.3641" fill="#000000" rx="2.5" ry="2.5"/><text fill="#000000" font-family="sans-serif" font-size="13" lengthAdjust="spacing" textLength="265.5796" x="415.92" y="390.7981">Optionally delivers the newest snapshot.</text><ellipse cx="409.42" cy="401.4969" fill="#000000" rx="2.5" ry="2.5"/><text fill="#000000" font-family="sans-serif" font-size="13" lengthAdjust="spacing" textLength="303.9321" x="415.92" y="405.931">The `Amount` reflects the closer balance after</text><text fill="#000000" font-family="sans-serif" font-size="13" lengthAdjust="spacing" textLength="366.8501" x="403.92" y="421.0638">incorporating differences from the snapshot's squashes.</text></g><!--reverse link Closed to Closed--><g id="link_Closed_Closed"><path d="M440.4943,494.7159 C459.1043,493.3659 469.21,498.52 469.21,509.29 C469.21,520.06 453.12,524.77 434.51,523.42 " fill="transparent" id="Closed-backto-Closed" style="stroke:#181818;stroke-width:1;"/><polygon fill="#181818" points="434.51,495.15,443.7758,498.4884,439.4969,494.7882,443.197,490.5093,434.51,495.15" style="stroke:#181818;stroke-width:1;"/><text fill="#000000" font-family="sans-serif" font-size="13" font-weight="bold" lengthAdjust="spacing" textLength="29.7007" x="489.8128" y="506.3569">free</text><text fill="#000000" font-family="sans-serif" font-size="13" lengthAdjust="spacing" textLength="58.9063" x="475.21" y="521.4897">by closer</text></g><!--link Closed to Responded--><g id="link_Closed_Responded"><path d="M434.66,530.08 C468.05,548.04 513.52,577.62 539.92,616.37 C582.68,679.12 595.4755,763.2296 599.5855,813.9596 " fill="transparent" id="Closed-to-Responded" style="stroke:#181818;stroke-width:1;"/><polygon fill="#181818" points="600.07,819.94,603.3302,810.6464,599.6662,814.9563,595.3563,811.2924,600.07,819.94" style="stroke:#181818;stroke-width:1;"/><text fill="#000000" font-family="sans-serif" font-size="13" font-weight="bold" lengthAdjust="spacing" textLength="59.7632" x="731.1772" y="652.4369">respond</text><text fill="#000000" font-family="sans-serif" font-size="13" lengthAdjust="spacing" textLength="88.0293" x="717.0442" y="667.5697">by non-closer</text><path d="M597.29,676.6356 L597.29,731.6356 L924.29,731.6356 L924.29,686.6356 L914.29,676.6356 L597.29,676.6356 " fill="#FEFFDD" style="stroke:#181818;stroke-width:0.5;"/><path d="M914.29,676.6356 L914.29,686.6356 L924.29,686.6356 L914.29,676.6356 " fill="#FEFFDD" style="stroke:#181818;stroke-width:0.5;"/><ellipse cx="608.79" cy="689.2684" fill="#000000" rx="2.5" ry="2.5"/><text fill="#000000" font-family="sans-serif" font-size="13" lengthAdjust="spacing" textLength="163.7188" x="615.29" y="693.7025">Releases account assets.</text><ellipse cx="608.79" cy="704.4012" fill="#000000" rx="2.5" ry="2.5"/><text fill="#000000" font-family="sans-serif" font-size="13" lengthAdjust="spacing" textLength="294.5376" x="615.29" y="708.8353">The left over should cover the closer account</text><text fill="#000000" font-family="sans-serif" font-size="13" lengthAdjust="spacing" textLength="262.52" x="603.29" y="723.9681">and potential liabilities of the non-closer</text></g><!--link Closed to Elapsed--><g id="link_Closed_Elapsed"><path d="M351.14,517.99 C301.35,529.66 220.33,557.07 183.92,616.37 C141.6,685.33 161.2915,781.6981 174.4715,828.1281 " fill="transparent" id="Closed-to-Elapsed" style="stroke:#181818;stroke-width:1;"/><polygon fill="#181818" points="176.11,833.9,177.5003,824.1498,174.7446,829.09,169.8043,826.3344,176.11,833.9" style="stroke:#181818;stroke-width:1;"/><text fill="#000000" font-family="sans-serif" font-size="13" font-weight="bold" lengthAdjust="spacing" textLength="47.9058" x="334.0362" y="629.4369">elapse</text><text fill="#000000" font-family="sans-serif" font-size="13" lengthAdjust="spacing" textLength="58.9063" x="328.536" y="644.5697">by closer</text><path d="M188.92,653.6356 L188.92,753.6356 L526.92,753.6356 L526.92,663.6356 L516.92,653.6356 L188.92,653.6356 " fill="#FEFFDD" style="stroke:#181818;stroke-width:0.5;"/><path d="M516.92,653.6356 L516.92,663.6356 L526.92,663.6356 L516.92,653.6356 " fill="#FEFFDD" style="stroke:#181818;stroke-width:0.5;"/><ellipse cx="200.42" cy="666.2684" fill="#000000" rx="2.5" ry="2.5"/><text fill="#000000" font-family="sans-serif" font-size="13" lengthAdjust="spacing" textLength="163.7188" x="206.92" y="670.7025">Releases account assets.</text><ellipse cx="200.42" cy="681.4012" fill="#000000" rx="2.5" ry="2.5"/><text fill="#000000" font-family="sans-serif" font-size="13" lengthAdjust="spacing" textLength="305.1382" x="206.92" y="685.8353">For simplicity we disallow the closer to provide</text><text fill="#000000" font-family="sans-serif" font-size="13" lengthAdjust="spacing" textLength="223.6152" x="194.92" y="700.9681">cheques owned by the non-closer.</text><ellipse cx="200.42" cy="711.6669" fill="#000000" rx="2.5" ry="2.5"/><text fill="#000000" font-family="sans-serif" font-size="13" lengthAdjust="spacing" textLength="223.5073" x="206.92" y="716.101">The left over should cover just the</text><text fill="#000000" font-family="sans-serif" font-size="13" lengthAdjust="spacing" textLength="270.8989" x="194.92" y="731.2338">non-closer account as any extra liabilities</text><text fill="#000000" font-family="sans-serif" font-size="13" lengthAdjust="spacing" textLength="174.9795" x="194.92" y="746.3666">of the closer were ignored.</text></g><!--reverse link Responded to Responded--><g id="link_Responded_Responded"><path d="M662.1596,846.3641 C681.2896,846.1541 690.8,850.57 690.8,859.47 C690.8,868.38 675.29,872.73 656.16,872.52 " fill="transparent" id="Responded-backto-Responded" style="stroke:#181818;stroke-width:1;"/><polygon fill="#181818" points="656.16,846.43,665.2034,850.331,661.1597,846.3751,665.1156,842.3314,656.16,846.43" style="stroke:#181818;stroke-width:1;"/><text fill="#000000" font-family="sans-serif" font-size="13" font-weight="bold" lengthAdjust="spacing" textLength="29.7007" x="725.9643" y="856.5369">free</text><text fill="#000000" font-family="sans-serif" font-size="13" lengthAdjust="spacing" textLength="88.0293" x="696.8" y="871.6697">by non-closer</text></g><!--link Responded to Resolved--><g id="link_Responded_Resolved"><path d="M578.15,899.06 C536.43,966.78 453.9473,1100.6517 415.5073,1163.0417 " fill="transparent" id="Responded-to-Resolved" style="stroke:#181818;stroke-width:1;"/><polygon fill="#181818" points="412.36,1168.15,420.4865,1162.5858,414.9828,1163.8931,413.6755,1158.3894,412.36,1168.15" style="stroke:#181818;stroke-width:1;"/><text fill="#000000" font-family="sans-serif" font-size="13" font-weight="bold" lengthAdjust="spacing" textLength="53.644" x="614.7674" y="980.1469">resolve</text><text fill="#000000" font-family="sans-serif" font-size="13" lengthAdjust="spacing" textLength="58.9063" x="612.1363" y="995.2797">by closer</text><path d="M543.23,1004.3456 L543.23,1029.3456 L739.23,1029.3456 L739.23,1014.3456 L729.23,1004.3456 L543.23,1004.3456 " fill="#FEFFDD" style="stroke:#181818;stroke-width:0.5;"/><path d="M729.23,1004.3456 L729.23,1014.3456 L739.23,1014.3456 L729.23,1004.3456 " fill="#FEFFDD" style="stroke:#181818;stroke-width:0.5;"/><ellipse cx="554.73" cy="1016.9784" fill="#000000" rx="2.5" ry="2.5"/><text fill="#000000" font-family="sans-serif" font-size="13" lengthAdjust="spacing" textLength="163.7188" x="561.23" y="1021.4125">Releases account assets.</text></g><!--link Responded to *end*--><g id="link_Responded_*end*"><path d="M656.27,880.57 C690.44,896.37 731.74,922.05 751.92,959.58 C769.19,991.67 767.64,1008.7 751.92,1041.58 C674.89,1202.71 458.7319,1294.3449 408.6519,1313.8249 " fill="transparent" id="Responded-to-*end*" style="stroke:#181818;stroke-width:1;"/><polygon fill="#181818" points="403.06,1316,412.8979,1316.4652,407.7199,1314.1874,409.9977,1309.0094,403.06,1316" style="stroke:#181818;stroke-width:1;"/><text fill="#000000" font-family="sans-serif" font-size="13" font-weight="bold" lengthAdjust="spacing" textLength="27.3774" x="750.6244" y="1102.1469">end</text><text fill="#000000" font-family="sans-serif" font-size="13" lengthAdjust="spacing" textLength="58.9063" x="734.86" y="1117.2797">by closer</text></g><!--reverse link Elapsed to Elapsed--><g id="link_Elapsed_Elapsed"><path d="M230.8653,846.2298 C249.5253,844.9198 259.76,849.62 259.76,859.47 C259.76,869.33 243.54,873.6 224.88,872.29 " fill="transparent" id="Elapsed-backto-Elapsed" style="stroke:#181818;stroke-width:1;"/><polygon fill="#181818" points="224.88,846.65,234.138,850.0099,229.8677,846.2998,233.5778,842.0295,224.88,846.65" style="stroke:#181818;stroke-width:1;"/><text fill="#000000" font-family="sans-serif" font-size="13" font-weight="bold" lengthAdjust="spacing" textLength="29.7007" x="280.3628" y="856.5369">free</text><text fill="#000000" font-family="sans-serif" font-size="13" lengthAdjust="spacing" textLength="58.9063" x="265.76" y="871.6697">by closer</text></g><!--link Elapsed to Resolved--><g id="link_Elapsed_Resolved"><path d="M191.02,885.1 C202,921.09 225.2,989.45 256.92,1041.58 C286.29,1089.83 326.1493,1133.7256 356.0993,1163.9856 " fill="transparent" id="Elapsed-to-Resolved" style="stroke:#181818;stroke-width:1;"/><polygon fill="#181818" points="360.32,1168.25,356.8318,1159.0395,356.8027,1164.6963,351.1459,1164.6672,360.32,1168.25" style="stroke:#181818;stroke-width:1;"/><text fill="#000000" font-family="sans-serif" font-size="13" font-weight="bold" lengthAdjust="spacing" textLength="53.644" x="343.2899" y="972.6469">resolve</text><text fill="#000000" font-family="sans-serif" font-size="13" lengthAdjust="spacing" textLength="88.0293" x="326.0972" y="987.7797">by non-closer</text><path d="M261.92,996.8456 L261.92,1036.8456 L477.92,1036.8456 L477.92,1006.8456 L467.92,996.8456 L261.92,996.8456 " fill="#FEFFDD" style="stroke:#181818;stroke-width:0.5;"/><path d="M467.92,996.8456 L467.92,1006.8456 L477.92,1006.8456 L467.92,996.8456 " fill="#FEFFDD" style="stroke:#181818;stroke-width:0.5;"/><ellipse cx="273.42" cy="1009.4784" fill="#000000" rx="2.5" ry="2.5"/><text fill="#000000" font-family="sans-serif" font-size="13" lengthAdjust="spacing" textLength="163.7188" x="279.92" y="1013.9125">Releases account assets.</text><ellipse cx="273.42" cy="1024.6113" fill="#000000" rx="2.5" ry="2.5"/><text fill="#000000" font-family="sans-serif" font-size="13" lengthAdjust="spacing" textLength="183.3838" x="279.92" y="1029.0453">Non-closer `Pend` is empty.</text></g><!--link Elapsed to *end*--><g id="link_Elapsed_*end*"><path d="M157.41,884.83 C106.81,934.35 6,1049.65 58.92,1138.58 C134.5,1265.57 327.6382,1307.9988 376.2182,1316.8988 " fill="transparent" id="Elapsed-to-*end*" style="stroke:#181818;stroke-width:1;"/><polygon fill="#181818" points="382.12,1317.98,373.9882,1312.4236,377.2019,1317.079,372.5465,1320.2927,382.12,1317.98" style="stroke:#181818;stroke-width:1;"/><text fill="#000000" font-family="sans-serif" font-size="13" font-weight="bold" lengthAdjust="spacing" textLength="27.3774" x="150.2442" y="1084.6469">end</text><path d="M63.92,1093.7128 L63.92,1133.7128 L263.92,1133.7128 L263.92,1103.7128 L253.92,1093.7128 L63.92,1093.7128 " fill="#FEFFDD" style="stroke:#181818;stroke-width:0.5;"/><path d="M253.92,1093.7128 L253.92,1103.7128 L263.92,1103.7128 L253.92,1093.7128 " fill="#FEFFDD" style="stroke:#181818;stroke-width:0.5;"/><ellipse cx="75.42" cy="1106.3456" fill="#000000" rx="2.5" ry="2.5"/><text fill="#000000" font-family="sans-serif" font-size="13" lengthAdjust="spacing" textLength="167.0259" x="81.92" y="1110.7797">Possibly releases account</text><text fill="#000000" font-family="sans-serif" font-size="13" lengthAdjust="spacing" textLength="134.7798" x="69.92" y="1125.9125">assets to non-closer.</text></g><!--reverse link Resolved to Resolved--><g id="link_Resolved_Resolved"><path d="M445.0343,1187.289 C463.8643,1186.469 473.76,1191.11 473.76,1200.69 C473.76,1210.28 457.87,1214.66 439.04,1213.84 " fill="transparent" id="Resolved-backto-Resolved" style="stroke:#181818;stroke-width:1;"/><polygon fill="#181818" points="439.04,1187.55,448.2055,1191.1547,444.0353,1187.3325,447.8575,1183.1622,439.04,1187.55" style="stroke:#181818;stroke-width:1;"/><text fill="#000000" font-family="sans-serif" font-size="13" font-weight="bold" lengthAdjust="spacing" textLength="29.7007" x="479.76" y="1205.2569">free</text></g><!--link Resolved to *end*--><g id="link_Resolved_*end*"><path d="M392.92,1233.04 C392.92,1258.32 392.92,1286.38 392.92,1303.32 " fill="transparent" id="Resolved-to-*end*" style="stroke:#181818;stroke-width:1;"/><polygon fill="#181818" points="392.92,1309.32,396.92,1300.32,392.92,1304.32,388.92,1300.32,392.92,1309.32" style="stroke:#181818;stroke-width:1;"/><text fill="#000000" font-family="sans-serif" font-size="13" font-weight="bold" lengthAdjust="spacing" textLength="27.3774" x="393.92" y="1275.8769">end</text></g><!--SRC=[dPLDRzim38Rl_XM4BzsAPRiNHO1X7y0kQz3sjWs8RDE95aLoHJbP_lqeIxPb9sY0dYmnf4W-VAMG4muXlo-M3mrghEu_5SiS147OPk5p1xUGvv_tfjKkpoV69oqQsfgvUOLMcegD6GqPlYX3IOQmpS9dbY4rFhsqWhOpuxFSesddhYlKivoFI8tHLP9si6J3QfPyPe-7NhOcgRuf9f4aYliiVb-fqAZ3jC3EaFMBUHddnkpNxHzOB9PnQd07VB3XjJ_qjovEu3TeCsqugz6WfDvbm4Vyq22K0YvdWmH7X1rY0m9SsoZshE70WwnbAPpai1sUw6CNzxn5a5ewAHGOMw7rllvda0JhTo7T1z16ByBw_NeCN0VKQx1OAomTWMDhy8D2AA5BJBoVZUCi2-YZPF0VpnvZ60Vu7gCMcKcRKiazS545rldej8nY3E1Alnx8TRiBvBuQ97tZk0U5Wf0dH-WIEbCgvLPeJzWPfXEE37J2kgVpq7ZEF94JLAWamu-zuX790SNBTWrbEBJ70g9st07mm4fZ6sDvc7e3bQnhjCWE1BKr-owopt13GDszGqgeHag1QegijdX6R72ks7cuFS7VXkqGCf8u1_qO01E8ilIzdf5MM3imp0guybPLK7QR14ICv0Z1hJISGNVALL8KKh6A-NIULA-gMCdGzhILU9z38zXjhehbrHw-6wvSxXibI-bE_X9MabW3vfZsmCffh3d82ZcetE9Bwui-UW5pucdfLzdyRLbD7CD-OrHI77Cw0VvpLgICs3jIYW57rW_8ZJOMgqGcuriPfJAR_aGj2V0qB8gcU-i6pVZTsraFzQLvbk3VpZ3BH93nyFxnZdrCHdz9ywFxzVhVhFcVuyJM_W-WUn5ntxXJqkEqadcFvnbNXaWM_ExOMMf_QRhaNe6fn2RZ3dqEqqxQxZ6bNXSA-Wy0]--></g></svg>