<svg xmlns="http://www.w3.org/2000/svg" xmlns:xlink="http://www.w3.org/1999/xlink" contentStyleType="text/css" data-diagram-type="STATE" height="1096px" preserveAspectRatio="none" style="width:1375px;height:1096px;background:#FFFFFF;" version="1.1" viewBox="0 0 1375 1096" width="1375px" zoomAndPan="magnify"><defs/><g><g id="Opened"><rect fill="#F1F1F1" height="78.2031" rx="12.5" ry="12.5" style="stroke:#181818;stroke-width:0.5;" width="140.3691" x="572.07" y="213"/><line style="stroke:#181818;stroke-width:0.5;" x1="572.07" x2="712.4391" y1="239.2969" y2="239.2969"/><text fill="#000000" font-family="sans-serif" font-size="14" font-weight="bold" lengthAdjust="spacing" textLength="60.9014" x="611.8039" y="230.9951">Opened</text><ellipse cx="582.57" cy="250.7656" fill="#000000" rx="2.5" ry="2.5"/><text fill="#000000" font-family="monospace" font-size="12" lengthAdjust="spacing" textLength="108.3691" x="589.07" y="255.4355">NonOpenerAmount</text><ellipse cx="582.57" cy="264.7344" fill="#000000" rx="2.5" ry="2.5"/><text fill="#000000" font-family="monospace" font-size="12" lengthAdjust="spacing" textLength="57.7969" x="589.07" y="269.4043">Snapshot</text><ellipse cx="582.57" cy="278.7031" fill="#000000" rx="2.5" ry="2.5"/><text fill="#000000" font-family="monospace" font-size="12" lengthAdjust="spacing" textLength="43.3477" x="589.07" y="283.373">Period</text></g><g id="Closed"><rect fill="#F1F1F1" height="92.1719" rx="12.5" ry="12.5" style="stroke:#181818;stroke-width:0.5;" width="116.7793" x="583.86" y="509.21"/><line style="stroke:#181818;stroke-width:0.5;" x1="583.86" x2="700.6393" y1="535.5069" y2="535.5069"/><text fill="#000000" font-family="sans-serif" font-size="14" font-weight="bold" lengthAdjust="spacing" textLength="52.541" x="615.9791" y="527.2051">Closed</text><ellipse cx="594.36" cy="546.9756" fill="#000000" rx="2.5" ry="2.5"/><text fill="#000000" font-family="sans-serif" font-size="12" lengthAdjust="spacing" textLength="84.7793" x="600.86" y="551.6455">CloserAmount</text><ellipse cx="594.36" cy="560.9444" fill="#000000" rx="2.5" ry="2.5"/><text fill="#000000" font-family="monospace" font-size="12" lengthAdjust="spacing" textLength="43.3477" x="600.86" y="565.6143">Squash</text><ellipse cx="594.36" cy="574.9131" fill="#000000" rx="2.5" ry="2.5"/><text fill="#000000" font-family="monospace" font-size="12" lengthAdjust="spacing" textLength="50.5723" x="600.86" y="579.583">Timeout</text><ellipse cx="594.36" cy="588.8819" fill="#000000" rx="2.5" ry="2.5"/><text fill="#000000" font-family="monospace" font-size="12" lengthAdjust="spacing" textLength="28.8984" x="600.86" y="593.5518">Pend</text></g><g id="Resolved"><rect fill="#F1F1F1" height="78.2031" rx="12.5" ry="12.5" style="stroke:#181818;stroke-width:0.5;" width="154.8184" x="385.84" y="896.28"/><line style="stroke:#181818;stroke-width:0.5;" x1="385.84" x2="540.6584" y1="922.5769" y2="922.5769"/><text fill="#000000" font-family="sans-serif" font-size="14" font-weight="bold" lengthAdjust="spacing" textLength="71.668" x="427.4152" y="914.2751">Resolved</text><ellipse cx="396.34" cy="934.0456" fill="#000000" rx="2.5" ry="2.5"/><text fill="#000000" font-family="monospace" font-size="12" lengthAdjust="spacing" textLength="122.8184" x="402.84" y="938.7155">NonResolverAmount</text><ellipse cx="396.34" cy="948.0144" fill="#000000" rx="2.5" ry="2.5"/><text fill="#000000" font-family="monospace" font-size="12" lengthAdjust="spacing" textLength="28.8984" x="402.84" y="952.6843">Pend</text><ellipse cx="396.34" cy="961.9831" fill="#000000" rx="2.5" ry="2.5"/><text fill="#000000" font-family="monospace" font-size="12" lengthAdjust="spacing" textLength="28.8984" x="402.84" y="966.653">Pend</text></g><ellipse cx="642.25" cy="16" fill="#222222" rx="10" ry="10" style="stroke:#222222;stroke-width:1;"/><ellipse cx="821.25" cy="1079.38" fill="none" rx="11" ry="11" style="stroke:#222222;stroke-width:1;"/><ellipse cx="821.25" cy="1079.38" fill="#222222" rx="6" ry="6" style="stroke:#222222;stroke-width:1;"/><!--link *start* to Opened--><g class="link" data-entity-1=".start." data-entity-2="Opened" data-source-line="18" data-uid="lnk3" id="link_.start._Opened"><path d="M642.25,26.47 C642.25,57.44 642.25,150.91 642.25,206.54" fill="none" id="*start*-to-Opened" style="stroke:#181818;stroke-width:1;"/><polygon fill="#181818" points="642.25,212.54,646.25,203.54,642.25,207.54,638.25,203.54,642.25,212.54" style="stroke:#181818;stroke-width:1;"/><text fill="#000000" font-family="sans-serif" font-size="13" font-weight="bold" lengthAdjust="spacing" textLength="36.3086" x="837.1013" y="69.0669">open</text><text fill="#000000" font-family="sans-serif" font-size="13" lengthAdjust="spacing" textLength="65.8633" x="822.324" y="84.1997">by opener</text><path d="M647.25,93.2656 L647.25,178.2656 L1063.25,178.2656 L1063.25,103.2656 L1053.25,93.2656 L647.25,93.2656" fill="#FEFFDD" style="stroke:#181818;stroke-width:0.5;"/><path d="M1053.25,93.2656 L1053.25,103.2656 L1063.25,103.2656 L1053.25,93.2656" fill="#FEFFDD" style="stroke:#181818;stroke-width:0.5;"/><ellipse cx="658.75" cy="105.8984" fill="#000000" rx="2.5" ry="2.5"/><text fill="#000000" font-family="sans-serif" font-size="13" lengthAdjust="spacing" textLength="318.3921" x="665.25" y="110.3325">In all stages we keep a tuple of verification keys.</text><ellipse cx="658.75" cy="121.0313" fill="#000000" rx="2.5" ry="2.5"/><text fill="#000000" font-family="sans-serif" font-size="13" lengthAdjust="spacing" textLength="328.7578" x="665.25" y="125.4653">The initial order of keys is `(opener, non-opener)`.</text><ellipse cx="658.75" cy="136.1641" fill="#000000" rx="2.5" ry="2.5"/><text fill="#000000" font-family="sans-serif" font-size="13" lengthAdjust="spacing" textLength="383.0112" x="665.25" y="140.5981">The `NonOpenerAmount` reflects the non-opener balance.</text><ellipse cx="658.75" cy="151.2969" fill="#000000" rx="2.5" ry="2.5"/><text fill="#000000" font-family="sans-serif" font-size="13" lengthAdjust="spacing" textLength="361.2515" x="665.25" y="155.731">The `Total - NonOpenerAmount` is the opener balance.</text><ellipse cx="658.75" cy="166.4297" fill="#000000" rx="2.5" ry="2.5"/><text fill="#000000" font-family="sans-serif" font-size="13" lengthAdjust="spacing" textLength="371.4712" x="665.25" y="170.8638">The above balances does not include snapshot liabilities.</text></g><!--reverse link Opened to Opened--><g class="link" data-entity-1="Opened" data-entity-2="Opened" data-source-line="26" data-uid="lnk5" id="link_Opened_Opened"><path d="M718.541,227.6978 C738.281,228.7778 747.44,236.7 747.44,252.11 C747.44,267.52 732.29,275.76 712.55,276.85" fill="none" id="Opened-backto-Opened" style="stroke:#181818;stroke-width:1;"/><polygon fill="#181818" points="712.55,227.37,721.318,231.8557,717.5425,227.6431,721.7551,223.8676,712.55,227.37" style="stroke:#181818;stroke-width:1;"/><text fill="#000000" font-family="monospace" font-size="13" font-weight="bold" lengthAdjust="spacing" textLength="23.48" x="753.44" y="256.6769">add</text></g><!--link Opened to Closed--><g class="link" data-entity-1="Opened" data-entity-2="Closed" data-source-line="27" data-uid="lnk6" id="link_Opened_Closed"><path d="M642.25,291.56 C642.25,347.14 642.25,443.75 642.25,502.95" fill="none" id="Opened-to-Closed" style="stroke:#181818;stroke-width:1;"/><polygon fill="#181818" points="642.25,508.95,646.25,499.95,642.25,503.95,638.25,499.95,642.25,508.95" style="stroke:#181818;stroke-width:1;"/><text fill="#000000" font-family="sans-serif" font-size="13" font-weight="bold" lengthAdjust="spacing" textLength="37.6479" x="835.1384" y="334.2769">close</text><text fill="#000000" font-family="sans-serif" font-size="13" lengthAdjust="spacing" textLength="58.9063" x="824.5093" y="349.4097">by closer</text><path d="M647.25,358.4756 L647.25,473.4756 L1060.25,473.4756 L1060.25,368.4756 L1050.25,358.4756 L647.25,358.4756" fill="#FEFFDD" style="stroke:#181818;stroke-width:0.5;"/><path d="M1050.25,358.4756 L1050.25,368.4756 L1060.25,368.4756 L1050.25,358.4756" fill="#FEFFDD" style="stroke:#181818;stroke-width:0.5;"/><ellipse cx="658.75" cy="371.1084" fill="#000000" rx="2.5" ry="2.5"/><text fill="#000000" font-family="sans-serif" font-size="13" lengthAdjust="spacing" textLength="151.1123" x="665.25" y="375.5425">Doesn't release assets.</text><ellipse cx="658.75" cy="386.2413" fill="#000000" rx="2.5" ry="2.5"/><text fill="#000000" font-family="sans-serif" font-size="13" lengthAdjust="spacing" textLength="365.0791" x="665.25" y="390.6753">The order of keys should be set to `(closer, non-closer)`</text><ellipse cx="658.75" cy="401.3741" fill="#000000" rx="2.5" ry="2.5"/><text fill="#000000" font-family="sans-serif" font-size="13" lengthAdjust="spacing" textLength="265.5796" x="665.25" y="405.8081">Optionally delivers the newest snapshot.</text><ellipse cx="658.75" cy="416.5069" fill="#000000" rx="2.5" ry="2.5"/><text fill="#000000" font-family="sans-serif" font-size="13" lengthAdjust="spacing" textLength="349.0703" x="665.25" y="420.941">The `CloserAmount` reflects the closer balance after:</text><text fill="#000000" font-family="sans-serif" font-size="13" lengthAdjust="spacing" textLength="375.8955" x="669.7793" y="436.0738">- Incorporating differences from the snapshot's squashes.</text><text fill="#000000" font-family="sans-serif" font-size="13" lengthAdjust="spacing" textLength="355.4688" x="669.7793" y="451.2066">- Adding up all the unlocked cheques from the receipt.</text><text fill="#000000" font-family="sans-serif" font-size="13" lengthAdjust="spacing" textLength="301.8818" x="669.7793" y="466.3394">- Ignoring non fully confirmed closer liabilities.</text></g><!--reverse link Closed to Closed--><g class="link" data-entity-1="Closed" data-entity-2="Closed" data-source-line="37" data-uid="lnk8" id="link_Closed_Closed"><path d="M707.0798,526.2668 C726.3198,526.4168 735.64,536.06 735.64,555.29 C735.64,574.53 720.32,584.22 701.08,584.37" fill="none" id="Closed-backto-Closed" style="stroke:#181818;stroke-width:1;"/><polygon fill="#181818" points="701.08,526.22,710.0485,530.29,706.0798,526.259,710.1109,522.2903,701.08,526.22" style="stroke:#181818;stroke-width:1;"/><text fill="#000000" font-family="sans-serif" font-size="13" font-weight="bold" lengthAdjust="spacing" textLength="29.7007" x="756.2428" y="552.3569">free</text><text fill="#000000" font-family="sans-serif" font-size="13" lengthAdjust="spacing" textLength="58.9063" x="741.64" y="567.4897">by closer</text></g><!--link Closed to Resolved--><g class="link" data-entity-1="Closed" data-entity-2="Resolved" data-source-line="39" data-uid="lnk9" id="link_Closed_Resolved"><path d="M583.58,559.74 C445.19,568.45 107.53,593.42 74.25,631.38 C6,709.26 7.83,784.94 74.25,864.38 C113.15,910.9 277.7779,926.2425 379.6879,931.4725" fill="none" id="Closed-to-Resolved" style="stroke:#181818;stroke-width:1;"/><polygon fill="#181818" points="385.68,931.78,376.8968,927.324,380.6866,931.5237,376.4868,935.3135,385.68,931.78" style="stroke:#181818;stroke-width:1;"/><text fill="#000000" font-family="sans-serif" font-size="13" font-weight="bold" lengthAdjust="spacing" textLength="59.7632" x="217.5425" y="666.9469">respond</text><text fill="#000000" font-family="sans-serif" font-size="13" lengthAdjust="spacing" textLength="88.0293" x="203.4094" y="682.0797">by non-closer</text><path d="M79.25,691.1456 L79.25,837.1456 L415.25,837.1456 L415.25,701.1456 L405.25,691.1456 L79.25,691.1456" fill="#FEFFDD" style="stroke:#181818;stroke-width:0.5;"/><path d="M405.25,691.1456 L405.25,701.1456 L415.25,701.1456 L405.25,691.1456" fill="#FEFFDD" style="stroke:#181818;stroke-width:0.5;"/><ellipse cx="90.75" cy="703.7784" fill="#000000" rx="2.5" ry="2.5"/><text fill="#000000" font-family="sans-serif" font-size="13" lengthAdjust="spacing" textLength="300.5615" x="97.25" y="708.2125">Keys are swapped - non-closer is the resolver.</text><ellipse cx="90.75" cy="718.9113" fill="#000000" rx="2.5" ry="2.5"/><text fill="#000000" font-family="sans-serif" font-size="13" lengthAdjust="spacing" textLength="303.3481" x="97.25" y="723.3453">Non-closer provides a possible squash update.</text><ellipse cx="90.75" cy="734.0441" fill="#000000" rx="2.5" ry="2.5"/><text fill="#000000" font-family="sans-serif" font-size="13" lengthAdjust="spacing" textLength="217.8579" x="97.25" y="738.4781">The final squash is used to adjust</text><text fill="#000000" font-family="sans-serif" font-size="13" lengthAdjust="spacing" textLength="134.4434" x="93.5146" y="753.611">the `CloserAmount`.</text><ellipse cx="90.75" cy="764.3097" fill="#000000" rx="2.5" ry="2.5"/><text fill="#000000" font-family="sans-serif" font-size="13" lengthAdjust="spacing" textLength="236.228" x="97.25" y="768.7438">Provided receipt is the source of the</text><text fill="#000000" font-family="sans-serif" font-size="13" lengthAdjust="spacing" textLength="131.8916" x="93.5146" y="783.8766">non-closer `Pend's`.</text><ellipse cx="90.75" cy="794.5753" fill="#000000" rx="2.5" ry="2.5"/><text fill="#000000" font-family="sans-serif" font-size="13" lengthAdjust="spacing" textLength="235.8027" x="97.25" y="799.0094">Releases non-closer account assets.</text><ellipse cx="90.75" cy="809.7081" fill="#000000" rx="2.5" ry="2.5"/><text fill="#000000" font-family="sans-serif" font-size="13" lengthAdjust="spacing" textLength="276.8657" x="97.25" y="814.1422">The left over should cover all the liabilities</text><text fill="#000000" font-family="sans-serif" font-size="13" lengthAdjust="spacing" textLength="165.4517" x="93.5146" y="829.275">plus the `CloserAmount`.</text></g><!--link Closed to Resolved--><g class="link" data-entity-1="Closed" data-entity-2="Resolved" data-source-line="52" data-uid="lnk10" id="link_Closed_Resolved"><path d="M583.51,563.43 C541.42,571.96 487.53,590.62 460.25,631.38 C406.2,712.15 430.0149,828.4004 448.4049,890.0504" fill="none" id="Closed-to-Resolved-1" style="stroke:#181818;stroke-width:1;"/><polygon fill="#181818" points="450.12,895.8,451.3804,886.0321,448.6907,891.0086,443.7143,888.3189,450.12,895.8" style="stroke:#181818;stroke-width:1;"/><text fill="#000000" font-family="sans-serif" font-size="13" font-weight="bold" lengthAdjust="spacing" textLength="47.9058" x="604.0408" y="644.4469">elapse</text><text fill="#000000" font-family="sans-serif" font-size="13" lengthAdjust="spacing" textLength="58.9063" x="598.5405" y="659.5797">by closer</text><path d="M465.25,668.6456 L465.25,859.6456 L790.25,859.6456 L790.25,678.6456 L780.25,668.6456 L465.25,668.6456" fill="#FEFFDD" style="stroke:#181818;stroke-width:0.5;"/><path d="M780.25,668.6456 L780.25,678.6456 L790.25,678.6456 L780.25,668.6456" fill="#FEFFDD" style="stroke:#181818;stroke-width:0.5;"/><ellipse cx="476.75" cy="681.2784" fill="#000000" rx="2.5" ry="2.5"/><text fill="#000000" font-family="sans-serif" font-size="13" lengthAdjust="spacing" textLength="272.5049" x="483.25" y="685.7125">The key's order is preserved as the closer</text><text fill="#000000" font-family="sans-serif" font-size="13" lengthAdjust="spacing" textLength="165.0835" x="479.5146" y="700.8453">is becoming the resolver.</text><ellipse cx="476.75" cy="711.5441" fill="#000000" rx="2.5" ry="2.5"/><text fill="#000000" font-family="sans-serif" font-size="13" lengthAdjust="spacing" textLength="267.6045" x="483.25" y="715.9781">Non-closer `Pend`'s is empty. His receipt</text><text fill="#000000" font-family="sans-serif" font-size="13" lengthAdjust="spacing" textLength="173.6465" x="479.5146" y="731.111">was not delivered on time.</text><ellipse cx="476.75" cy="741.8097" fill="#000000" rx="2.5" ry="2.5"/><text fill="#000000" font-family="sans-serif" font-size="13" lengthAdjust="spacing" textLength="292.4873" x="483.25" y="746.2438">Remaining squash is approached as the final</text><text fill="#000000" font-family="sans-serif" font-size="13" lengthAdjust="spacing" textLength="234.6919" x="479.5146" y="761.3766">one and discarded as it was already</text><text fill="#000000" font-family="sans-serif" font-size="13" lengthAdjust="spacing" textLength="94.1802" x="479.5146" y="776.5094">accounted for.</text><ellipse cx="476.75" cy="787.2081" fill="#000000" rx="2.5" ry="2.5"/><text fill="#000000" font-family="sans-serif" font-size="13" lengthAdjust="spacing" textLength="289.999" x="483.25" y="791.6422">Possibly unlocks some pending cheques and</text><text fill="#000000" font-family="sans-serif" font-size="13" lengthAdjust="spacing" textLength="259.6128" x="479.5146" y="806.775">includes them into the `CloserAmount`.</text><ellipse cx="476.75" cy="817.4738" fill="#000000" rx="2.5" ry="2.5"/><text fill="#000000" font-family="sans-serif" font-size="13" lengthAdjust="spacing" textLength="264.9004" x="483.25" y="821.9078">Releases the withdrawal amount leaving</text><text fill="#000000" font-family="sans-serif" font-size="13" lengthAdjust="spacing" textLength="268.6011" x="479.5146" y="837.0406">coverage for `NonCloserAmount` and his</text><text fill="#000000" font-family="sans-serif" font-size="13" lengthAdjust="spacing" textLength="118.8662" x="479.5146" y="852.1735">pending liabilities.</text></g><!--reverse link Resolved to Resolved--><g class="link" data-entity-1="Resolved" data-entity-2="Resolved" data-source-line="68" data-uid="lnk12" id="link_Resolved_Resolved"><path d="M547.0014,919.5809 C566.7914,920.6409 575.66,925.69 575.66,935.38 C575.66,945.07 560.8,950.44 541.01,951.5" fill="none" id="Resolved-backto-Resolved" style="stroke:#181818;stroke-width:1;"/><polygon fill="#181818" points="541.01,919.26,549.7832,923.7356,546.0028,919.5274,550.2111,915.7471,541.01,919.26" style="stroke:#181818;stroke-width:1;"/><text fill="#000000" font-family="sans-serif" font-size="13" font-weight="bold" lengthAdjust="spacing" textLength="29.7007" x="581.66" y="939.9469">free</text></g><!--link Resolved to *end*--><g class="link" data-entity-1="Resolved" data-entity-2=".end." data-source-line="69" data-uid="lnk14" id="link_Resolved_.end."><path d="M534.93,974.87 C575.36,995.56 627.24,1020.42 675.25,1038.38 C724.48,1056.79 780.034,1069.5892 804.554,1074.8592" fill="none" id="Resolved-to-*end*" style="stroke:#181818;stroke-width:1;"/><polygon fill="#181818" points="810.42,1076.12,802.4614,1070.3182,805.5316,1075.0694,800.7804,1078.1395,810.42,1076.12" style="stroke:#181818;stroke-width:1;"/><text fill="#000000" font-family="sans-serif" font-size="13" font-weight="bold" lengthAdjust="spacing" textLength="27.3774" x="721.7246" y="1019.4469">end</text><text fill="#000000" font-family="sans-serif" font-size="13" lengthAdjust="spacing" textLength="118.3267" x="676.25" y="1034.5797">by min-ada-owner</text></g><!--link Closed to *end*--><g class="link" data-entity-1="Closed" data-entity-2=".end." data-source-line="71" data-uid="lnk15" id="link_Closed_.end."><path d="M701.14,568.58 C735.8,579.1 777.08,598.05 799.25,631.38 C848.85,705.94 827.457,1002.6398 822.607,1062.1998" fill="none" id="Closed-to-*end*" style="stroke:#181818;stroke-width:1;"/><polygon fill="#181818" points="822.12,1068.18,826.8373,1059.5343,822.5258,1063.1965,818.8637,1058.885,822.12,1068.18" style="stroke:#181818;stroke-width:1;"/><text fill="#000000" font-family="sans-serif" font-size="13" font-weight="bold" lengthAdjust="spacing" textLength="92.5361" x="904.0118" y="907.4469">respond-end</text><text fill="#000000" font-family="sans-serif" font-size="13" lengthAdjust="spacing" textLength="202.7314" x="848.9141" y="922.5797">by non-closer if min-ada-owner</text><path d="M835.68,931.6456 L835.68,971.6456 L1064.68,971.6456 L1064.68,941.6456 L1054.68,931.6456 L835.68,931.6456" fill="#FEFFDD" style="stroke:#181818;stroke-width:0.5;"/><path d="M1054.68,931.6456 L1054.68,941.6456 L1064.68,941.6456 L1054.68,931.6456" fill="#FEFFDD" style="stroke:#181818;stroke-width:0.5;"/><ellipse cx="847.18" cy="944.2784" fill="#000000" rx="2.5" ry="2.5"/><text fill="#000000" font-family="sans-serif" font-size="13" lengthAdjust="spacing" textLength="186.6528" x="853.68" y="948.7125">closer balance has to be null</text><ellipse cx="847.18" cy="959.4113" fill="#000000" rx="2.5" ry="2.5"/><text fill="#000000" font-family="sans-serif" font-size="13" lengthAdjust="spacing" textLength="196.1997" x="853.68" y="963.8453">all the pends have to be freed</text></g><!--link Closed to *end*--><g class="link" data-entity-1="Closed" data-entity-2=".end." data-source-line="77" data-uid="lnk16" id="link_Closed_.end."><path d="M701.08,570.46 C742.68,582.32 798.44,602.08 841.25,631.38 C970.86,720.07 1021.1,747.71 1077.25,894.38 C1090.29,928.41 1097.71,946.22 1077.25,976.38 C1018.72,1062.7 880.2328,1075.6762 838.6228,1077.7162" fill="none" id="Closed-to-*end*-1" style="stroke:#181818;stroke-width:1;"/><polygon fill="#181818" points="832.63,1078.01,841.8151,1081.5645,837.624,1077.7652,841.4233,1073.5741,832.63,1078.01" style="stroke:#181818;stroke-width:1;"/><text fill="#000000" font-family="sans-serif" font-size="13" font-weight="bold" lengthAdjust="spacing" textLength="80.6787" x="1191.8848" y="907.4469">elapse-end</text><text fill="#000000" font-family="sans-serif" font-size="13" lengthAdjust="spacing" textLength="173.6084" x="1145.42" y="922.5797">by closer if min-ada-owner</text><path d="M1094.96,931.6456 L1094.96,971.6456 L1368.96,971.6456 L1368.96,941.6456 L1358.96,931.6456 L1094.96,931.6456" fill="#FEFFDD" style="stroke:#181818;stroke-width:0.5;"/><path d="M1358.96,931.6456 L1358.96,941.6456 L1368.96,941.6456 L1358.96,931.6456" fill="#FEFFDD" style="stroke:#181818;stroke-width:0.5;"/><ellipse cx="1106.46" cy="944.2784" fill="#000000" rx="2.5" ry="2.5"/><text fill="#000000" font-family="sans-serif" font-size="13" lengthAdjust="spacing" textLength="215.7759" x="1112.96" y="948.7125">non-closer balance has to be null</text><ellipse cx="1106.46" cy="959.4113" fill="#000000" rx="2.5" ry="2.5"/><text fill="#000000" font-family="sans-serif" font-size="13" lengthAdjust="spacing" textLength="241.5283" x="1112.96" y="963.8453">all the closer_pends have to be freed</text></g><!--SRC=[ZLNBRjiu5DtxAowyoRIeE_kWC51q5YqAj44dkvcYfiIhc0r5gYGLmty_Xmz9z2EJPX6Br7sUS-wL3o8mhTyrswy36vRl_cosQnAUyd6LVsxfDQtNNwn9H_U-jwC9w_N9sx-D6FpUdb_ViLDMudBbvrGVjFLLgdnSvP_ebPvAbkeQENwDmkyHhBwyLptRCPpTth4vo_gDlTLFLTxfOZKzp6sMYwNHKuiI- -hbwf_NtscpsHO0wPQGsk8vfltND4Uo2SELiQZB6jBAFAu88JuP4beJ2dvWJmUcH-Q118LnqB3i20MfJhKYABWzyj6_JNxtUoPbL512atMINRIDhqbvslsHqxqXOyqcFx_QBOwxCr9tvBZJt0PF0QyN9sg45gRbolNU1gJSq4K8bPsVSnIDVUBfsfEq-0Sqq4IhHydaYv80ZMYKHcUCLW5ljEAYBc0yrYYl8yL2PdRNYz6so2iJqSRdcObqkiB4NwZ8t0H0eLbu5EmzXmhjKvHHwgWbDIYS0mKBp7FWZ7b-VhLBtb-7I1veFf9ahS1emPaFxCFSUGLoFGjdvEJ84v0aki3k5fxnRmCvjTODra4kve6awZfsd03ldErJW2dT3Pf8ayMfoUp_NiheE0v9bT5yDDgsZu2otVEliGxak6KrXCNvquEnBhe30Uh6s6zhJQTS7zrptTVPBMnbTclgEiSNp2tMMrgc4SQE_M2DdEqN8YxP_Xn950vm7CGmn6YL-QHbLpP2PkRBydvmzab9W25eiDwh1hEQmGHq4hjduR9JO7vwYRXZB1rw4VBdw4F2BbnGdjtlSXOv8JsLvUteshGSuYc5g6hVnPrquqkCRrdDlhOGRHkpN2XSSnS8K-ecTRVfC2cXeYxb7FJehzO-q_eiKwoXmPT7CXQ5QODIy_2X_m6Si4ESkCkNUKW5uNN3hUsZ1F-NlWJHxYRjIkw7S7nB7_5OO4wn3YAlfpAmo8V20Zuw4wozmFf5eeLPwCXPWJ6PQqlSft3MO5G1YrI-5Kvc4nLI6g4T2tbCTeKQlEzigVik2-nO9X5JQticRBeqgTDK8dZ68A_JbB_72KfxJbwpDAB1GOMzTE80hOfa13M89sH8KPCGy8MALQMln-c2YftjLL55AUpweC-VppBhy_5asckhBSLlQrPDDTiWUIEasDY3ELi9itbP1nk-kX98TMT1BkHtjchtaLKRLxx1RaiMqsZ4fZqCy8NB5h4JUNqGbdRI49oKzzkbLNtyHddPyiTBLVu7]--></g></svg>