<svg xmlns="http://www.w3.org/2000/svg" xmlns:xlink="http://www.w3.org/1999/xlink" contentStyleType="text/css" data-diagram-type="STATE" height="1603px" preserveAspectRatio="none" style="width:1792px;height:1603px;background:#FFFFFF;" version="1.1" viewBox="0 0 1792 1603" width="1792px" zoomAndPan="magnify"><defs/><g><g id="Opened"><rect fill="#F1F1F1" height="78.2031" rx="12.5" ry="12.5" style="stroke:#181818;stroke-width:0.5;" width="140.3691" x="814.19" y="198"/><line style="stroke:#181818;stroke-width:0.5;" x1="814.19" x2="954.5591" y1="224.2969" y2="224.2969"/><text fill="#000000" font-family="sans-serif" font-size="14" font-weight="bold" lengthAdjust="spacing" textLength="60.9014" x="853.9239" y="215.9951">Opened</text><ellipse cx="824.69" cy="235.7656" fill="#000000" rx="2.5" ry="2.5"/><text fill="#000000" font-family="monospace" font-size="12" lengthAdjust="spacing" textLength="108.3691" x="831.19" y="240.4355">NonOpenerAmount</text><ellipse cx="824.69" cy="249.7344" fill="#000000" rx="2.5" ry="2.5"/><text fill="#000000" font-family="monospace" font-size="12" lengthAdjust="spacing" textLength="57.7969" x="831.19" y="254.4043">Snapshot</text><ellipse cx="824.69" cy="263.7031" fill="#000000" rx="2.5" ry="2.5"/><text fill="#000000" font-family="monospace" font-size="12" lengthAdjust="spacing" textLength="43.3477" x="831.19" y="268.373">Period</text></g><g id="Closed"><rect fill="#F1F1F1" height="92.1719" rx="12.5" ry="12.5" style="stroke:#181818;stroke-width:0.5;" width="118.6953" x="825.02" y="479.2"/><line style="stroke:#181818;stroke-width:0.5;" x1="825.02" x2="943.7153" y1="505.4969" y2="505.4969"/><text fill="#000000" font-family="sans-serif" font-size="14" font-weight="bold" lengthAdjust="spacing" textLength="52.541" x="858.0971" y="497.1951">Closed</text><ellipse cx="835.52" cy="516.9656" fill="#000000" rx="2.5" ry="2.5"/><text fill="#000000" font-family="monospace" font-size="12" lengthAdjust="spacing" textLength="86.6953" x="842.02" y="521.6355">CloserAmount</text><ellipse cx="835.52" cy="530.9344" fill="#000000" rx="2.5" ry="2.5"/><text fill="#000000" font-family="monospace" font-size="12" lengthAdjust="spacing" textLength="43.3477" x="842.02" y="535.6043">Squash</text><ellipse cx="835.52" cy="544.9031" fill="#000000" rx="2.5" ry="2.5"/><text fill="#000000" font-family="monospace" font-size="12" lengthAdjust="spacing" textLength="50.5723" x="842.02" y="549.573">Timeout</text><ellipse cx="835.52" cy="558.8719" fill="#000000" rx="2.5" ry="2.5"/><text fill="#000000" font-family="monospace" font-size="12" lengthAdjust="spacing" textLength="28.8984" x="842.02" y="563.5418">Pend</text></g><g id="Responded"><rect fill="#F1F1F1" height="78.2031" rx="12.5" ry="12.5" style="stroke:#181818;stroke-width:0.5;" width="118.6953" x="626.02" y="853.27"/><line style="stroke:#181818;stroke-width:0.5;" x1="626.02" x2="744.7153" y1="879.5669" y2="879.5669"/><text fill="#000000" font-family="sans-serif" font-size="14" font-weight="bold" lengthAdjust="spacing" textLength="87.7529" x="641.4912" y="871.2651">Responded</text><ellipse cx="636.52" cy="891.0356" fill="#000000" rx="2.5" ry="2.5"/><text fill="#000000" font-family="monospace" font-size="12" lengthAdjust="spacing" textLength="86.6953" x="643.02" y="895.7055">CloserAmount</text><ellipse cx="636.52" cy="905.0044" fill="#000000" rx="2.5" ry="2.5"/><text fill="#000000" font-family="monospace" font-size="12" lengthAdjust="spacing" textLength="28.8984" x="643.02" y="909.6743">Pend</text><ellipse cx="636.52" cy="918.9731" fill="#000000" rx="2.5" ry="2.5"/><text fill="#000000" font-family="monospace" font-size="12" lengthAdjust="spacing" textLength="28.8984" x="643.02" y="923.643">Pend</text></g><g id="Elapsed"><rect fill="#F1F1F1" height="50.2656" rx="12.5" ry="12.5" style="stroke:#181818;stroke-width:0.5;" width="81.6807" x="192.53" y="867.24"/><line style="stroke:#181818;stroke-width:0.5;" x1="192.53" x2="274.2107" y1="893.5369" y2="893.5369"/><text fill="#000000" font-family="sans-serif" font-size="14" font-weight="bold" lengthAdjust="spacing" textLength="61.6807" x="202.53" y="885.2351">Elapsed</text><ellipse cx="203.03" cy="905.0056" fill="#000000" rx="2.5" ry="2.5"/><text fill="#000000" font-family="monospace" font-size="12" lengthAdjust="spacing" textLength="28.8984" x="209.53" y="909.6755">Pend</text></g><g id="Resolved"><rect fill="#F1F1F1" height="64.2344" rx="12.5" ry="12.5" style="stroke:#181818;stroke-width:0.5;" width="91.668" x="712.54" y="1419.38"/><line style="stroke:#181818;stroke-width:0.5;" x1="712.54" x2="804.208" y1="1445.6769" y2="1445.6769"/><text fill="#000000" font-family="sans-serif" font-size="14" font-weight="bold" lengthAdjust="spacing" textLength="71.668" x="722.54" y="1437.3751">Resolved</text><ellipse cx="723.04" cy="1457.1456" fill="#000000" rx="2.5" ry="2.5"/><text fill="#000000" font-family="monospace" font-size="12" lengthAdjust="spacing" textLength="28.8984" x="729.54" y="1461.8155">Pend</text><ellipse cx="723.04" cy="1471.1144" fill="#000000" rx="2.5" ry="2.5"/><text fill="#000000" font-family="monospace" font-size="12" lengthAdjust="spacing" textLength="28.8984" x="729.54" y="1475.7843">Pend</text></g><ellipse cx="884.37" cy="16" fill="#222222" rx="10" ry="10" style="stroke:#222222;stroke-width:1;"/><ellipse cx="660.37" cy="1586.61" fill="none" rx="11" ry="11" style="stroke:#222222;stroke-width:1;"/><ellipse cx="660.37" cy="1586.61" fill="#222222" rx="6" ry="6" style="stroke:#222222;stroke-width:1;"/><!--link *start* to Opened--><g class="link" data-entity-1=".start." data-entity-2="Opened" data-source-line="25" data-uid="lnk3" id="link_.start._Opened"><path d="M884.37,26.42 C884.37,55.57 884.37,139.56 884.37,191.69" fill="none" id="*start*-to-Opened" style="stroke:#181818;stroke-width:1;"/><polygon fill="#181818" points="884.37,197.69,888.37,188.69,884.37,192.69,880.37,188.69,884.37,197.69" style="stroke:#181818;stroke-width:1;"/><text fill="#000000" font-family="sans-serif" font-size="13" font-weight="bold" lengthAdjust="spacing" textLength="36.3086" x="1079.2213" y="69.0669">open</text><text fill="#000000" font-family="sans-serif" font-size="13" lengthAdjust="spacing" textLength="65.8633" x="1064.444" y="84.1997">by opener</text><path d="M889.37,93.2656 L889.37,163.2656 L1305.37,163.2656 L1305.37,103.2656 L1295.37,93.2656 L889.37,93.2656" fill="#FEFFDD" style="stroke:#181818;stroke-width:0.5;"/><path d="M1295.37,93.2656 L1295.37,103.2656 L1305.37,103.2656 L1295.37,93.2656" fill="#FEFFDD" style="stroke:#181818;stroke-width:0.5;"/><ellipse cx="900.87" cy="105.8984" fill="#000000" rx="2.5" ry="2.5"/><text fill="#000000" font-family="sans-serif" font-size="13" lengthAdjust="spacing" textLength="318.3921" x="907.37" y="110.3325">In all stages we keep a tuple of verification keys.</text><ellipse cx="900.87" cy="121.0313" fill="#000000" rx="2.5" ry="2.5"/><text fill="#000000" font-family="sans-serif" font-size="13" lengthAdjust="spacing" textLength="328.7578" x="907.37" y="125.4653">The initial order of keys is `(opener, non-opener)`.</text><ellipse cx="900.87" cy="136.1641" fill="#000000" rx="2.5" ry="2.5"/><text fill="#000000" font-family="sans-serif" font-size="13" lengthAdjust="spacing" textLength="383.0112" x="907.37" y="140.5981">The `NonOpenerAmount` reflects the non-opener balance.</text><ellipse cx="900.87" cy="151.2969" fill="#000000" rx="2.5" ry="2.5"/><text fill="#000000" font-family="sans-serif" font-size="13" lengthAdjust="spacing" textLength="361.2515" x="907.37" y="155.731">The `Total - NonOpenerAmount` is the opener balance.</text></g><!--reverse link Opened to Opened--><g class="link" data-entity-1="Opened" data-entity-2="Opened" data-source-line="32" data-uid="lnk5" id="link_Opened_Opened"><path d="M960.662,214.0698 C980.392,215.0898 989.56,222.56 989.56,237.1 C989.56,251.64 974.4,259.42 954.67,260.44" fill="none" id="Opened-backto-Opened" style="stroke:#181818;stroke-width:1;"/><polygon fill="#181818" points="954.67,213.76,963.4515,218.2193,959.6633,214.0181,963.8645,210.23,954.67,213.76" style="stroke:#181818;stroke-width:1;"/><text fill="#000000" font-family="monospace" font-size="13" font-weight="bold" lengthAdjust="spacing" textLength="23.48" x="995.56" y="241.6669">add</text></g><!--link Opened to Closed--><g class="link" data-entity-1="Opened" data-entity-2="Closed" data-source-line="33" data-uid="lnk6" id="link_Opened_Closed"><path d="M884.37,276.7 C884.37,329.18 884.37,416.91 884.37,472.76" fill="none" id="Opened-to-Closed" style="stroke:#181818;stroke-width:1;"/><polygon fill="#181818" points="884.37,478.76,888.37,469.76,884.37,473.76,880.37,469.76,884.37,478.76" style="stroke:#181818;stroke-width:1;"/><text fill="#000000" font-family="sans-serif" font-size="13" font-weight="bold" lengthAdjust="spacing" textLength="37.6479" x="1107.3844" y="319.2669">close</text><text fill="#000000" font-family="sans-serif" font-size="13" lengthAdjust="spacing" textLength="58.9063" x="1096.7553" y="334.3997">by closer</text><path d="M889.37,343.4656 L889.37,443.4656 L1362.37,443.4656 L1362.37,353.4656 L1352.37,343.4656 L889.37,343.4656" fill="#FEFFDD" style="stroke:#181818;stroke-width:0.5;"/><path d="M1352.37,343.4656 L1352.37,353.4656 L1362.37,353.4656 L1352.37,343.4656" fill="#FEFFDD" style="stroke:#181818;stroke-width:0.5;"/><ellipse cx="900.87" cy="356.0984" fill="#000000" rx="2.5" ry="2.5"/><text fill="#000000" font-family="sans-serif" font-size="13" lengthAdjust="spacing" textLength="151.1123" x="907.37" y="360.5325">Doesn't release assets.</text><ellipse cx="900.87" cy="371.2312" fill="#000000" rx="2.5" ry="2.5"/><text fill="#000000" font-family="sans-serif" font-size="13" lengthAdjust="spacing" textLength="336.375" x="907.37" y="375.6653">The order of keys changes to `(closer, non-closer)`.</text><ellipse cx="900.87" cy="386.3641" fill="#000000" rx="2.5" ry="2.5"/><text fill="#000000" font-family="sans-serif" font-size="13" lengthAdjust="spacing" textLength="265.5796" x="907.37" y="390.7981">Optionally delivers the newest snapshot.</text><ellipse cx="900.87" cy="401.4969" fill="#000000" rx="2.5" ry="2.5"/><text fill="#000000" font-family="sans-serif" font-size="13" lengthAdjust="spacing" textLength="349.0703" x="907.37" y="405.931">The `CloserAmount` reflects the closer balance after:</text><text fill="#000000" font-family="sans-serif" font-size="13" lengthAdjust="spacing" textLength="371.541" x="911.8993" y="421.0638">- incorporating differences from the snapshot's squashes</text><text fill="#000000" font-family="sans-serif" font-size="13" lengthAdjust="spacing" textLength="436.1475" x="911.8993" y="436.1966">- adding up all the reduced cheques provided in this step's Receipt</text></g><!--reverse link Closed to Closed--><g class="link" data-entity-1="Closed" data-entity-2="Closed" data-source-line="42" data-uid="lnk8" id="link_Closed_Closed"><path d="M949.8,510.9516 C969.24,511.0216 978.72,515.79 978.72,525.29 C978.72,534.79 963.24,539.57 943.8,539.65" fill="none" id="Closed-backto-Closed" style="stroke:#181818;stroke-width:1;"/><polygon fill="#181818" points="943.8,510.93,952.7855,514.9624,948.8,510.948,952.8143,506.9624,943.8,510.93" style="stroke:#181818;stroke-width:1;"/><text fill="#000000" font-family="sans-serif" font-size="13" font-weight="bold" lengthAdjust="spacing" textLength="29.7007" x="999.3228" y="522.3569">free</text><text fill="#000000" font-family="sans-serif" font-size="13" lengthAdjust="spacing" textLength="58.9063" x="984.72" y="537.4897">by closer</text></g><!--link Closed to Responded--><g class="link" data-entity-1="Closed" data-entity-2="Responded" data-source-line="43" data-uid="lnk9" id="link_Closed_Responded"><path d="M824.85,547 C786.1,563.76 738.13,591.38 712.37,632.38 C669.56,700.51 672.5415,793.1496 678.7515,846.9096" fill="none" id="Closed-to-Responded" style="stroke:#181818;stroke-width:1;"/><polygon fill="#181818" points="679.44,852.87,682.3808,843.4704,678.8662,847.903,674.4337,844.3885,679.44,852.87" style="stroke:#181818;stroke-width:1;"/><text fill="#000000" font-family="sans-serif" font-size="13" font-weight="bold" lengthAdjust="spacing" textLength="59.7632" x="855.9418" y="645.4469">respond</text><text fill="#000000" font-family="sans-serif" font-size="13" lengthAdjust="spacing" textLength="88.0293" x="841.8087" y="660.5797">by non-closer</text><path d="M717.37,669.6456 L717.37,769.6456 L1053.37,769.6456 L1053.37,679.6456 L1043.37,669.6456 L717.37,669.6456" fill="#FEFFDD" style="stroke:#181818;stroke-width:0.5;"/><path d="M1043.37,669.6456 L1043.37,679.6456 L1053.37,679.6456 L1043.37,669.6456" fill="#FEFFDD" style="stroke:#181818;stroke-width:0.5;"/><ellipse cx="728.87" cy="682.2784" fill="#000000" rx="2.5" ry="2.5"/><text fill="#000000" font-family="sans-serif" font-size="13" lengthAdjust="spacing" textLength="235.8027" x="735.37" y="686.7125">Releases non-closer account assets.</text><ellipse cx="728.87" cy="697.4112" fill="#000000" rx="2.5" ry="2.5"/><text fill="#000000" font-family="sans-serif" font-size="13" lengthAdjust="spacing" textLength="238.6147" x="735.37" y="701.8453">The left over should cover the closer</text><text fill="#000000" font-family="sans-serif" font-size="13" lengthAdjust="spacing" textLength="246.3589" x="731.6346" y="716.9781">account and potential liabilities of the</text><text fill="#000000" font-family="sans-serif" font-size="13" lengthAdjust="spacing" textLength="284.9463" x="731.6346" y="732.111">non-closer which are stored in their `Pend`.</text><ellipse cx="728.87" cy="742.8097" fill="#000000" rx="2.5" ry="2.5"/><text fill="#000000" font-family="sans-serif" font-size="13" lengthAdjust="spacing" textLength="303.9067" x="735.37" y="747.2438">The `Pend`s are stored in order corresponding</text><text fill="#000000" font-family="sans-serif" font-size="13" lengthAdjust="spacing" textLength="76.7749" x="731.6346" y="762.3766">to the keys.</text></g><!--link Closed to Elapsed--><g class="link" data-entity-1="Closed" data-entity-2="Elapsed" data-source-line="52" data-uid="lnk10" id="link_Closed_Elapsed"><path d="M824.55,530.01 C695.23,539.21 395.24,567.2 320.37,632.38 C249.54,694.05 236.5068,809.2564 234.1168,861.0164" fill="none" id="Closed-to-Elapsed" style="stroke:#181818;stroke-width:1;"/><polygon fill="#181818" points="233.84,867.01,238.2509,858.2041,234.0706,862.0153,230.2594,857.8351,233.84,867.01" style="stroke:#181818;stroke-width:1;"/><text fill="#000000" font-family="sans-serif" font-size="13" font-weight="bold" lengthAdjust="spacing" textLength="47.9058" x="470.4862" y="645.4469">elapse</text><text fill="#000000" font-family="sans-serif" font-size="13" lengthAdjust="spacing" textLength="58.9063" x="464.986" y="660.5797">by closer</text><path d="M325.37,669.6456 L325.37,769.6456 L663.37,769.6456 L663.37,679.6456 L653.37,669.6456 L325.37,669.6456" fill="#FEFFDD" style="stroke:#181818;stroke-width:0.5;"/><path d="M653.37,669.6456 L653.37,679.6456 L663.37,679.6456 L653.37,669.6456" fill="#FEFFDD" style="stroke:#181818;stroke-width:0.5;"/><ellipse cx="336.87" cy="682.2784" fill="#000000" rx="2.5" ry="2.5"/><text fill="#000000" font-family="sans-serif" font-size="13" lengthAdjust="spacing" textLength="163.7188" x="343.37" y="686.7125">Releases account assets.</text><ellipse cx="336.87" cy="697.4112" fill="#000000" rx="2.5" ry="2.5"/><text fill="#000000" font-family="sans-serif" font-size="13" lengthAdjust="spacing" textLength="305.1382" x="343.37" y="701.8453">For simplicity we disallow the closer to provide</text><text fill="#000000" font-family="sans-serif" font-size="13" lengthAdjust="spacing" textLength="223.6152" x="339.6346" y="716.9781">cheques owned by the non-closer.</text><ellipse cx="336.87" cy="727.6769" fill="#000000" rx="2.5" ry="2.5"/><text fill="#000000" font-family="sans-serif" font-size="13" lengthAdjust="spacing" textLength="223.5073" x="343.37" y="732.111">The left over should cover just the</text><text fill="#000000" font-family="sans-serif" font-size="13" lengthAdjust="spacing" textLength="270.8989" x="339.6346" y="747.2438">non-closer account as any extra liabilities</text><text fill="#000000" font-family="sans-serif" font-size="13" lengthAdjust="spacing" textLength="174.9795" x="339.6346" y="762.3766">of the closer were ignored.</text></g><!--link Closed to Resolved--><g class="link" data-entity-1="Closed" data-entity-2="Resolved" data-source-line="62" data-uid="lnk11" id="link_Closed_Resolved"><path d="M944.21,548.66 C983.02,566.02 1031.85,593.68 1062.37,632.38 C1082.7,658.15 1084.37,670.05 1084.37,702.88 C1084.37,702.88 1084.37,702.88 1084.37,1184.88 C1084.37,1327.6 899.9475,1405.3588 810.0875,1435.0288" fill="none" id="Closed-to-Resolved" style="stroke:#181818;stroke-width:1;"/><polygon fill="#181818" points="804.39,1436.91,814.1903,1437.8865,809.1379,1435.3423,811.6821,1430.2899,804.39,1436.91" style="stroke:#181818;stroke-width:1;"/><text fill="#000000" font-family="sans-serif" font-size="13" font-weight="bold" lengthAdjust="spacing" textLength="105.9932" x="1183.2828" y="849.4469">resolve-closed</text><path d="M1089.37,858.5128 L1089.37,943.5128 L1382.37,943.5128 L1382.37,868.5128 L1372.37,858.5128 L1089.37,858.5128" fill="#FEFFDD" style="stroke:#181818;stroke-width:0.5;"/><path d="M1372.37,858.5128 L1372.37,868.5128 L1382.37,868.5128 L1372.37,858.5128" fill="#FEFFDD" style="stroke:#181818;stroke-width:0.5;"/><ellipse cx="1100.87" cy="871.1456" fill="#000000" rx="2.5" ry="2.5"/><text fill="#000000" font-family="sans-serif" font-size="13" lengthAdjust="spacing" textLength="231.6958" x="1107.37" y="875.5797">When executed by closer combines</text><text fill="#000000" font-family="sans-serif" font-size="13" lengthAdjust="spacing" textLength="186.7354" x="1103.6346" y="890.7125">`elapse` and `resolve`. Only</text><text fill="#000000" font-family="sans-serif" font-size="13" lengthAdjust="spacing" textLength="262.4819" x="1103.6346" y="905.8453">allowed when `NonCloserAmount == 0`</text><ellipse cx="1100.87" cy="916.5441" fill="#000000" rx="2.5" ry="2.5"/><text fill="#000000" font-family="sans-serif" font-size="13" lengthAdjust="spacing" textLength="260.8188" x="1107.37" y="920.9781">When executed by non-closer combines</text><text fill="#000000" font-family="sans-serif" font-size="13" lengthAdjust="spacing" textLength="166.1626" x="1103.6346" y="936.111">`respond` with `resolve`.</text></g><!--reverse link Responded to Responded--><g class="link" data-entity-1="Responded" data-entity-2="Responded" data-source-line="71" data-uid="lnk13" id="link_Responded_Responded"><path d="M750.7999,876.1847 C770.2399,876.2647 779.72,881.65 779.72,892.38 C779.72,903.1 764.24,908.51 744.8,908.59" fill="none" id="Responded-backto-Responded" style="stroke:#181818;stroke-width:1;"/><polygon fill="#181818" points="744.8,876.16,753.7835,880.197,749.8,876.1806,753.8164,872.1971,744.8,876.16" style="stroke:#181818;stroke-width:1;"/><text fill="#000000" font-family="sans-serif" font-size="13" font-weight="bold" lengthAdjust="spacing" textLength="29.7007" x="814.8843" y="889.4469">free</text><text fill="#000000" font-family="sans-serif" font-size="13" lengthAdjust="spacing" textLength="88.0293" x="785.72" y="904.5797">by non-closer</text></g><!--link Responded to Resolved--><g class="link" data-entity-1="Responded" data-entity-2="Resolved" data-source-line="72" data-uid="lnk14" id="link_Responded_Resolved"><path d="M696.56,931.9 C715.86,1000.59 754.66,1149.03 768.37,1277.38 C773.66,1326.87 772.4,1339.76 768.37,1389.38 C767.59,1399.02 767.1094,1403.5221 765.5294,1412.9721" fill="none" id="Responded-to-Resolved" style="stroke:#181818;stroke-width:1;"/><polygon fill="#181818" points="764.54,1418.89,769.9694,1410.6728,765.3645,1413.9585,762.0789,1409.3536,764.54,1418.89" style="stroke:#181818;stroke-width:1;"/><text fill="#000000" font-family="sans-serif" font-size="13" font-weight="bold" lengthAdjust="spacing" textLength="53.644" x="864.3036" y="1155.9469">resolve</text><text fill="#000000" font-family="sans-serif" font-size="13" lengthAdjust="spacing" textLength="58.9063" x="861.6725" y="1171.0797">by closer</text><path d="M769.08,1180.1456 L769.08,1220.1456 L1013.08,1220.1456 L1013.08,1190.1456 L1003.08,1180.1456 L769.08,1180.1456" fill="#FEFFDD" style="stroke:#181818;stroke-width:0.5;"/><path d="M1003.08,1180.1456 L1003.08,1190.1456 L1013.08,1190.1456 L1003.08,1180.1456" fill="#FEFFDD" style="stroke:#181818;stroke-width:0.5;"/><ellipse cx="780.58" cy="1192.7784" fill="#000000" rx="2.5" ry="2.5"/><text fill="#000000" font-family="sans-serif" font-size="13" lengthAdjust="spacing" textLength="211.0913" x="787.08" y="1197.2125">Releases account assets leaving</text><text fill="#000000" font-family="sans-serif" font-size="13" lengthAdjust="spacing" textLength="148.3828" x="783.3446" y="1212.3453">coverage for liabilities.</text></g><!--link Responded to *end*--><g class="link" data-entity-1="Responded" data-entity-2=".end." data-source-line="77" data-uid="lnk16" id="link_Responded_.end."><path d="M663.01,931.77 C625.27,999.07 550.38,1143.87 523.37,1277.38 C513.5,1326.16 508.44,1341.89 523.37,1389.38 C550.05,1474.2 623.5493,1550.1565 648.3593,1574.1765" fill="none" id="Responded-to-*end*" style="stroke:#181818;stroke-width:1;"/><polygon fill="#181818" points="652.67,1578.35,648.9862,1569.216,649.0777,1574.8721,643.4216,1574.9636,652.67,1578.35" style="stroke:#181818;stroke-width:1;"/><text fill="#000000" font-family="sans-serif" font-size="13" font-weight="bold" lengthAdjust="spacing" textLength="27.3774" x="628.2052" y="1305.4469">end</text><path d="M528.37,1314.5128 L528.37,1369.5128 L755.37,1369.5128 L755.37,1324.5128 L745.37,1314.5128 L528.37,1314.5128" fill="#FEFFDD" style="stroke:#181818;stroke-width:0.5;"/><path d="M745.37,1314.5128 L745.37,1324.5128 L755.37,1324.5128 L745.37,1314.5128" fill="#FEFFDD" style="stroke:#181818;stroke-width:0.5;"/><ellipse cx="539.87" cy="1327.1456" fill="#000000" rx="2.5" ry="2.5"/><text fill="#000000" font-family="sans-serif" font-size="13" lengthAdjust="spacing" textLength="194.0479" x="546.37" y="1331.5797">When executed by non-closer</text><text fill="#000000" font-family="sans-serif" font-size="13" lengthAdjust="spacing" textLength="191.1279" x="542.6346" y="1346.7125">then the `CloserAmount` has</text><text fill="#000000" font-family="sans-serif" font-size="13" lengthAdjust="spacing" textLength="62.9688" x="542.6346" y="1361.8453">to be `0`.</text></g><!--reverse link Elapsed to Elapsed--><g class="link" data-entity-1="Elapsed" data-entity-2="Elapsed" data-source-line="84" data-uid="lnk18" id="link_Elapsed_Elapsed"><path d="M280.3075,875.9211 C298.9675,874.3011 309.21,880.13 309.21,892.38 C309.21,904.62 292.99,909.94 274.33,908.31" fill="none" id="Elapsed-backto-Elapsed" style="stroke:#181818;stroke-width:1;"/><polygon fill="#181818" points="274.33,876.44,283.6422,879.6466,279.3113,876.0075,282.9503,871.6766,274.33,876.44" style="stroke:#181818;stroke-width:1;"/><text fill="#000000" font-family="sans-serif" font-size="13" font-weight="bold" lengthAdjust="spacing" textLength="29.7007" x="329.8128" y="889.4469">free</text><text fill="#000000" font-family="sans-serif" font-size="13" lengthAdjust="spacing" textLength="58.9063" x="315.21" y="904.5797">by closer</text></g><!--link Elapsed to Resolved--><g class="link" data-entity-1="Elapsed" data-entity-2="Resolved" data-source-line="85" data-uid="lnk19" id="link_Elapsed_Resolved"><path d="M238.24,917.94 C255.73,999.31 323.2,1262.05 487.37,1389.38 C522.05,1416.27 638.4427,1435.0265 706.2727,1444.0765" fill="none" id="Elapsed-to-Resolved" style="stroke:#181818;stroke-width:1;"/><polygon fill="#181818" points="712.22,1444.87,703.8281,1439.7149,707.2639,1444.2088,702.7701,1447.6446,712.22,1444.87" style="stroke:#181818;stroke-width:1;"/><text fill="#000000" font-family="sans-serif" font-size="13" font-weight="bold" lengthAdjust="spacing" textLength="53.644" x="461.8541" y="1133.4469">resolve</text><text fill="#000000" font-family="sans-serif" font-size="13" lengthAdjust="spacing" textLength="88.0293" x="444.6614" y="1148.5797">by non-closer</text><path d="M367.93,1157.6456 L367.93,1242.6456 L608.93,1242.6456 L608.93,1167.6456 L598.93,1157.6456 L367.93,1157.6456" fill="#FEFFDD" style="stroke:#181818;stroke-width:0.5;"/><path d="M598.93,1157.6456 L598.93,1167.6456 L608.93,1167.6456 L598.93,1157.6456" fill="#FEFFDD" style="stroke:#181818;stroke-width:0.5;"/><ellipse cx="379.43" cy="1170.2784" fill="#000000" rx="2.5" ry="2.5"/><text fill="#000000" font-family="sans-serif" font-size="13" lengthAdjust="spacing" textLength="186.4243" x="385.93" y="1174.7125">Releases account assets still</text><text fill="#000000" font-family="sans-serif" font-size="13" lengthAdjust="spacing" textLength="192.3213" x="382.1946" y="1189.8453">covering remaining liabilities.</text><ellipse cx="379.43" cy="1200.5441" fill="#000000" rx="2.5" ry="2.5"/><text fill="#000000" font-family="sans-serif" font-size="13" lengthAdjust="spacing" textLength="183.3838" x="385.93" y="1204.9781">Non-closer `Pend` is empty.</text><text fill="#000000" font-family="sans-serif" font-size="13" lengthAdjust="spacing" textLength="212.2275" x="382.1946" y="1220.111">It was discarded (as a "penalty")</text><text fill="#000000" font-family="sans-serif" font-size="13" lengthAdjust="spacing" textLength="191.2676" x="382.1946" y="1235.2438">during the previous `elapse`.</text></g><!--link Elapsed to *end*--><g class="link" data-entity-1="Elapsed" data-entity-2=".end." data-source-line="93" data-uid="lnk20" id="link_Elapsed_.end."><path d="M215.05,917.87 C159.94,994.74 6,1235.27 114.37,1389.38 C247.93,1579.3 577.6202,1586.3449 643.1702,1585.8549" fill="none" id="Elapsed-to-*end*" style="stroke:#181818;stroke-width:1;"/><polygon fill="#181818" points="649.17,1585.81,640.1404,1581.8774,644.1701,1585.8474,640.2002,1589.8772,649.17,1585.81" style="stroke:#181818;stroke-width:1;"/><text fill="#000000" font-family="sans-serif" font-size="13" font-weight="bold" lengthAdjust="spacing" textLength="27.3774" x="232.3925" y="1290.4469">end</text><text fill="#000000" font-family="sans-serif" font-size="13" lengthAdjust="spacing" textLength="118.3267" x="186.9179" y="1305.5797">by min-ada-owner</text><path d="M119.37,1314.6456 L119.37,1384.6456 L372.37,1384.6456 L372.37,1324.6456 L362.37,1314.6456 L119.37,1314.6456" fill="#FEFFDD" style="stroke:#181818;stroke-width:0.5;"/><path d="M362.37,1314.6456 L362.37,1324.6456 L372.37,1324.6456 L362.37,1314.6456" fill="#FEFFDD" style="stroke:#181818;stroke-width:0.5;"/><ellipse cx="130.87" cy="1327.2784" fill="#000000" rx="2.5" ry="2.5"/><text fill="#000000" font-family="sans-serif" font-size="13" lengthAdjust="spacing" textLength="194.0479" x="137.37" y="1331.7125">When executed by non-closer</text><text fill="#000000" font-family="sans-serif" font-size="13" lengthAdjust="spacing" textLength="160.0308" x="133.6346" y="1346.8453">releases account assets.</text><ellipse cx="130.87" cy="1357.5441" fill="#000000" rx="2.5" ry="2.5"/><text fill="#000000" font-family="sans-serif" font-size="13" lengthAdjust="spacing" textLength="220.4224" x="137.37" y="1361.9781">When executed by closer ensures</text><text fill="#000000" font-family="sans-serif" font-size="13" lengthAdjust="spacing" textLength="173.2339" x="133.6346" y="1377.111">empty non-closer balance.</text></g><!--reverse link Resolved to Resolved--><g class="link" data-entity-1="Resolved" data-entity-2="Resolved" data-source-line="101" data-uid="lnk22" id="link_Resolved_Resolved"><path d="M810.473,1436.6605 C829.313,1435.7505 839.21,1440.89 839.21,1451.49 C839.21,1462.1 823.32,1466.94 804.48,1466.03" fill="none" id="Resolved-backto-Resolved" style="stroke:#181818;stroke-width:1;"/><polygon fill="#181818" points="804.48,1436.95,813.6625,1440.5111,809.4742,1436.7088,813.2765,1432.5205,804.48,1436.95" style="stroke:#181818;stroke-width:1;"/><text fill="#000000" font-family="sans-serif" font-size="13" font-weight="bold" lengthAdjust="spacing" textLength="29.7007" x="845.21" y="1456.0569">free</text></g><!--link Resolved to *end*--><g class="link" data-entity-1="Resolved" data-entity-2=".end." data-source-line="102" data-uid="lnk23" id="link_Resolved_.end."><path d="M735.15,1484.04 C712.73,1514.49 683.817,1553.7681 670.257,1572.1881" fill="none" id="Resolved-to-*end*" style="stroke:#181818;stroke-width:1;"/><polygon fill="#181818" points="666.7,1577.02,675.2568,1572.1435,669.6642,1572.9934,668.8143,1567.4008,666.7,1577.02" style="stroke:#181818;stroke-width:1;"/><text fill="#000000" font-family="sans-serif" font-size="13" font-weight="bold" lengthAdjust="spacing" textLength="27.3774" x="758.7846" y="1526.6769">end</text><text fill="#000000" font-family="sans-serif" font-size="13" lengthAdjust="spacing" textLength="118.3267" x="713.31" y="1541.8097">by min-ada-owner</text></g><!--link Closed to *end*--><g class="link" data-entity-1="Closed" data-entity-2=".end." data-source-line="104" data-uid="lnk24" id="link_Closed_.end."><path d="M944.14,532.43 C1087.74,548.84 1440.37,599.63 1440.37,702.88 C1440.37,702.88 1440.37,702.88 1440.37,1452.49 C1440.37,1534.14 773.6084,1578.5773 677.6884,1584.5473" fill="none" id="Closed-to-*end*" style="stroke:#181818;stroke-width:1;"/><polygon fill="#181818" points="671.7,1584.92,680.9311,1588.3532,676.6903,1584.6094,680.4341,1580.3687,671.7,1584.92" style="stroke:#181818;stroke-width:1;"/><text fill="#000000" font-family="sans-serif" font-size="13" font-weight="bold" lengthAdjust="spacing" textLength="27.3774" x="1601.8644" y="991.4469">end</text><text fill="#000000" font-family="sans-serif" font-size="13" lengthAdjust="spacing" textLength="118.3267" x="1556.3898" y="1006.5797">by min-ada-owner</text><path d="M1445.37,1015.6456 L1445.37,1085.6456 L1785.37,1085.6456 L1785.37,1025.6456 L1775.37,1015.6456 L1445.37,1015.6456" fill="#FEFFDD" style="stroke:#181818;stroke-width:0.5;"/><path d="M1775.37,1015.6456 L1775.37,1025.6456 L1785.37,1025.6456 L1775.37,1015.6456" fill="#FEFFDD" style="stroke:#181818;stroke-width:0.5;"/><ellipse cx="1456.87" cy="1028.2784" fill="#000000" rx="2.5" ry="2.5"/><text fill="#000000" font-family="sans-serif" font-size="13" lengthAdjust="spacing" textLength="278.2432" x="1463.37" y="1032.7125">When executed by closer then it combines</text><text fill="#000000" font-family="sans-serif" font-size="13" lengthAdjust="spacing" textLength="247.7681" x="1459.6346" y="1047.8453">`elapse` with subsequent `end` logic.</text><ellipse cx="1456.87" cy="1058.5441" fill="#000000" rx="2.5" ry="2.5"/><text fill="#000000" font-family="sans-serif" font-size="13" lengthAdjust="spacing" textLength="307.3662" x="1463.37" y="1062.9781">When executed by non-closer then it combines</text><text fill="#000000" font-family="sans-serif" font-size="13" lengthAdjust="spacing" textLength="177.9883" x="1459.6346" y="1078.111">`respond` with `end` logic.</text></g><!--SRC=[hLPBRzms4BxhLmnqSH9qdPoDP86YRO1SuY0nq4CRG5nfP37caWf9hRB_laDIZv6qYTqWlYmVy-1yttmZEoyyGlxwiBzjKMFr-kLXduDmaBPP-hc15v3dxusEM_lxqNJQv_dYzfCMhMlC-lW3McagEipSbEeFPHnBbRPP-abUSJtduLUVldR2DQl3Etb4qwrDFw1UPVw8hZMwOicdasnQNNp2wdO8VVcK9VnB4IeitR3FXjyVlDEeq_APyI0R5-jdR0-pVrvyXjrkFr09Dq213Qr3q7_ruGmcifbfGrcD1YNrGmOKufq6eHJGS-xHGO_mWDY20D-rYYnhE16fjIo5b-JsW6Tt7Vtk6WIffPT2WR4Lsc0Rha4wA9wbTB-1DdgNri-BsR5OjLS15ck5fNVWwNfsWeDGGfV8NE-CfvGxs8IGoNdjI011g7heL4AfupZbWG9H9VJpsMW_j6g2iWph2Skuku3bdmQTll9KZ4BXaBXqw1bUIvpAHkY0kJU4LmgPy4hh4Q_RDY1F79sXGYM9ZW4axD5vS8CK6KAycrV8fj0ZE21gZ_Q6FCFVZlWiZMsD9QxrFLIohj4YsJcehJd606EwAmSkYXFTv4ue1h-kZHqLh2rMNKaObWr-xIXCQyr9ae8e4zqJOSvZUnKwlaJP-fch0Vl45IUYjhZXOJAko7XIQRAtQJkvpFXkwVkOQ7FC24HP1XWtL2giFHWY0mYDJb69SJDZ756PlAckbjBfA1SbnK4gaWwbecOWdsZCilQDB1iGbl3snevueRHG1C5p9SMzMzccHYCoX_A9bfY2MYsyCAbu2_P-75a9EuoRHxj-WkqILcyD8IIFhPAbzESmNohfg3rCp_kHtZMqHdpcs2wc3rgarEDGIEQFil2b8s5SW7L-835o1lpchU1iHFl4oFYodXG0ybu7P1ba7BDv8AT-2vkKCRRT5h2_6zIK7ClEf_A6NAKv7gGUdb4az8lOEyKGjhY6MwtEgRS2YEJVXsXXe7BPmvityAgud8q1iimuD4i1lVGDoydAdjMLfBbIsqATJ6hShMAG0SViPnkDka2SnWwF3K2VCgYfyHYrh0Z-c3s43sVgTlrKkbXXKLJXtcy7RoFSABe3NRvQ03aABS6uaDsb4JURFmxVaqRS2aBdfL8pW66CMpmA-i3JQW5ZYF9-xg0qVyAt5u-jFr_76EyyzAGnKdefR03wML0SvFHj5SgVy-VHgkfYde1SQ_4aJUUchcTGBKjVqnKhFagz4vNOXNbX_p-1zaS3x7jYHUqwEoWdbivrjVtdO_gtRHOEet2ad5izgLO-Xtu9DED03kVIVsSanVdWkeCBOvhmAc8FA7Clo-j7PyxbqAlPmmDE6Fu7]--></g></svg>