<svg xmlns="http://www.w3.org/2000/svg" xmlns:xlink="http://www.w3.org/1999/xlink" contentStyleType="text/css" data-diagram-type="STATE" height="1337px" preserveAspectRatio="none" style="width:1227px;height:1337px;background:#FFFFFF;" version="1.1" viewBox="0 0 1227 1337" width="1227px" zoomAndPan="magnify"><defs/><g><g id="Opened"><rect fill="#F1F1F1" height="78.2031" rx="12.5" ry="12.5" style="stroke:#181818;stroke-width:0.5;" width="89.7969" x="484.62" y="198"/><line style="stroke:#181818;stroke-width:0.5;" x1="484.62" x2="574.4169" y1="224.2969" y2="224.2969"/><text fill="#000000" font-family="sans-serif" font-size="14" font-weight="bold" lengthAdjust="spacing" textLength="60.9014" x="499.0678" y="215.9951">Opened</text><ellipse cx="495.12" cy="235.7656" fill="#000000" rx="2.5" ry="2.5"/><text fill="#000000" font-family="monospace" font-size="12" lengthAdjust="spacing" textLength="43.3477" x="501.62" y="240.4355">Amount</text><ellipse cx="495.12" cy="249.7344" fill="#000000" rx="2.5" ry="2.5"/><text fill="#000000" font-family="monospace" font-size="12" lengthAdjust="spacing" textLength="57.7969" x="501.62" y="254.4043">Snapshot</text><ellipse cx="495.12" cy="263.7031" fill="#000000" rx="2.5" ry="2.5"/><text fill="#000000" font-family="monospace" font-size="12" lengthAdjust="spacing" textLength="43.3477" x="501.62" y="268.373">Period</text></g><g id="Closed"><rect fill="#F1F1F1" height="92.1719" rx="12.5" ry="12.5" style="stroke:#181818;stroke-width:0.5;" width="82.5723" x="488.23" y="463.2"/><line style="stroke:#181818;stroke-width:0.5;" x1="488.23" x2="570.8023" y1="489.4969" y2="489.4969"/><text fill="#000000" font-family="sans-serif" font-size="14" font-weight="bold" lengthAdjust="spacing" textLength="52.541" x="503.2456" y="481.1951">Closed</text><ellipse cx="498.73" cy="500.9656" fill="#000000" rx="2.5" ry="2.5"/><text fill="#000000" font-family="monospace" font-size="12" lengthAdjust="spacing" textLength="43.3477" x="505.23" y="505.6355">Amount</text><ellipse cx="498.73" cy="514.9344" fill="#000000" rx="2.5" ry="2.5"/><text fill="#000000" font-family="monospace" font-size="12" lengthAdjust="spacing" textLength="43.3477" x="505.23" y="519.6043">Squash</text><ellipse cx="498.73" cy="528.9031" fill="#000000" rx="2.5" ry="2.5"/><text fill="#000000" font-family="monospace" font-size="12" lengthAdjust="spacing" textLength="50.5723" x="505.23" y="533.573">Timeout</text><ellipse cx="498.73" cy="542.8719" fill="#000000" rx="2.5" ry="2.5"/><text fill="#000000" font-family="monospace" font-size="12" lengthAdjust="spacing" textLength="28.8984" x="505.23" y="547.5418">Pend</text></g><g id="Responded"><rect fill="#F1F1F1" height="78.2031" rx="12.5" ry="12.5" style="stroke:#181818;stroke-width:0.5;" width="107.7529" x="738.64" y="820.37"/><line style="stroke:#181818;stroke-width:0.5;" x1="738.64" x2="846.3929" y1="846.6669" y2="846.6669"/><text fill="#000000" font-family="sans-serif" font-size="14" font-weight="bold" lengthAdjust="spacing" textLength="87.7529" x="748.64" y="838.3651">Responded</text><ellipse cx="749.14" cy="858.1356" fill="#000000" rx="2.5" ry="2.5"/><text fill="#000000" font-family="monospace" font-size="12" lengthAdjust="spacing" textLength="43.3477" x="755.64" y="862.8055">Amount</text><ellipse cx="749.14" cy="872.1044" fill="#000000" rx="2.5" ry="2.5"/><text fill="#000000" font-family="monospace" font-size="12" lengthAdjust="spacing" textLength="28.8984" x="755.64" y="876.7743">Pend</text><ellipse cx="749.14" cy="886.0731" fill="#000000" rx="2.5" ry="2.5"/><text fill="#000000" font-family="monospace" font-size="12" lengthAdjust="spacing" textLength="28.8984" x="755.64" y="890.743">Pend</text></g><g id="Elapsed"><rect fill="#F1F1F1" height="50.2656" rx="12.5" ry="12.5" style="stroke:#181818;stroke-width:0.5;" width="81.6807" x="226.68" y="834.34"/><line style="stroke:#181818;stroke-width:0.5;" x1="226.68" x2="308.3607" y1="860.6369" y2="860.6369"/><text fill="#000000" font-family="sans-serif" font-size="14" font-weight="bold" lengthAdjust="spacing" textLength="61.6807" x="236.68" y="852.3351">Elapsed</text><ellipse cx="237.18" cy="872.1056" fill="#000000" rx="2.5" ry="2.5"/><text fill="#000000" font-family="monospace" font-size="12" lengthAdjust="spacing" textLength="28.8984" x="243.68" y="876.7755">Pend</text></g><g id="Resolved"><rect fill="#F1F1F1" height="64.2344" rx="12.5" ry="12.5" style="stroke:#181818;stroke-width:0.5;" width="91.668" x="484.68" y="1168.58"/><line style="stroke:#181818;stroke-width:0.5;" x1="484.68" x2="576.348" y1="1194.8769" y2="1194.8769"/><text fill="#000000" font-family="sans-serif" font-size="14" font-weight="bold" lengthAdjust="spacing" textLength="71.668" x="494.68" y="1186.5751">Resolved</text><ellipse cx="495.18" cy="1206.3456" fill="#000000" rx="2.5" ry="2.5"/><text fill="#000000" font-family="monospace" font-size="12" lengthAdjust="spacing" textLength="28.8984" x="501.68" y="1211.0155">Pend</text><ellipse cx="495.18" cy="1220.3144" fill="#000000" rx="2.5" ry="2.5"/><text fill="#000000" font-family="monospace" font-size="12" lengthAdjust="spacing" textLength="28.8984" x="501.68" y="1224.9843">Pend</text></g><ellipse cx="529.52" cy="16" fill="#222222" rx="10" ry="10" style="stroke:#222222;stroke-width:1;"/><ellipse cx="530.52" cy="1320.81" fill="transparent" rx="11" ry="11" style="stroke:#222222;stroke-width:1;"/><ellipse cx="530.52" cy="1320.81" fill="#222222" rx="6" ry="6" style="stroke:#222222;stroke-width:1;"/><!--link *start* to Opened--><g id="link_*start*_Opened"><path d="M529.52,26.41 C529.52,55.57 529.52,139.56 529.52,191.68 " fill="transparent" id="*start*-to-Opened" style="stroke:#181818;stroke-width:1;"/><polygon fill="#181818" points="529.52,197.68,533.52,188.68,529.52,192.68,525.52,188.68,529.52,197.68" style="stroke:#181818;stroke-width:1;"/><text fill="#000000" font-family="sans-serif" font-size="13" font-weight="bold" lengthAdjust="spacing" textLength="36.3086" x="697.2446" y="69.0669">open</text><text fill="#000000" font-family="sans-serif" font-size="13" lengthAdjust="spacing" textLength="65.8633" x="682.4673" y="84.1997">by opener</text><path d="M534.52,93.2656 L534.52,163.2656 L895.52,163.2656 L895.52,103.2656 L885.52,93.2656 L534.52,93.2656 " fill="#FEFFDD" style="stroke:#181818;stroke-width:0.5;"/><path d="M885.52,93.2656 L885.52,103.2656 L895.52,103.2656 L885.52,93.2656 " fill="#FEFFDD" style="stroke:#181818;stroke-width:0.5;"/><ellipse cx="546.02" cy="105.8984" fill="#000000" rx="2.5" ry="2.5"/><text fill="#000000" font-family="sans-serif" font-size="13" lengthAdjust="spacing" textLength="318.3921" x="552.52" y="110.3325">In all stages we keep a tuple of verification keys.</text><ellipse cx="546.02" cy="121.0313" fill="#000000" rx="2.5" ry="2.5"/><text fill="#000000" font-family="sans-serif" font-size="13" lengthAdjust="spacing" textLength="328.7578" x="552.52" y="125.4653">The initial order of keys is `(opener, non-opener)`.</text><ellipse cx="546.02" cy="136.1641" fill="#000000" rx="2.5" ry="2.5"/><text fill="#000000" font-family="sans-serif" font-size="13" lengthAdjust="spacing" textLength="279.9063" x="552.52" y="140.5981">The `Amount` reflects the opener balance.</text><ellipse cx="546.02" cy="151.2969" fill="#000000" rx="2.5" ry="2.5"/><text fill="#000000" font-family="sans-serif" font-size="13" lengthAdjust="spacing" textLength="316.3926" x="552.52" y="155.731">The `Total - Amount` is the non-opener balance.</text></g><!--reverse link Opened to Opened--><g id="link_Opened_Opened"><path d="M580.6684,213.3412 C599.4684,211.7412 609.42,220 609.42,237.1 C609.42,254.2 593.49,261.95 574.69,260.35 " fill="transparent" id="Opened-backto-Opened" style="stroke:#181818;stroke-width:1;"/><polygon fill="#181818" points="574.69,213.85,583.9968,217.0724,579.672,213.426,583.3184,209.1012,574.69,213.85" style="stroke:#181818;stroke-width:1;"/><text fill="#000000" font-family="monospace" font-size="13" font-weight="bold" lengthAdjust="spacing" textLength="23.48" x="615.42" y="241.6669">add</text></g><!--link Opened to Closed--><g id="link_Opened_Closed"><path d="M529.52,276.52 C529.52,325.62 529.52,404.49 529.52,456.78 " fill="transparent" id="Opened-to-Closed" style="stroke:#181818;stroke-width:1;"/><polygon fill="#181818" points="529.52,462.78,533.52,453.78,529.52,457.78,525.52,453.78,529.52,462.78" style="stroke:#181818;stroke-width:1;"/><text fill="#000000" font-family="sans-serif" font-size="13" font-weight="bold" lengthAdjust="spacing" textLength="37.6479" x="709.6211" y="319.2669">close</text><text fill="#000000" font-family="sans-serif" font-size="13" lengthAdjust="spacing" textLength="58.9063" x="698.9919" y="334.3997">by closer</text><path d="M534.52,343.4656 L534.52,428.4656 L921.52,428.4656 L921.52,353.4656 L911.52,343.4656 L534.52,343.4656 " fill="#FEFFDD" style="stroke:#181818;stroke-width:0.5;"/><path d="M911.52,343.4656 L911.52,353.4656 L921.52,353.4656 L911.52,343.4656 " fill="#FEFFDD" style="stroke:#181818;stroke-width:0.5;"/><ellipse cx="546.02" cy="356.0984" fill="#000000" rx="2.5" ry="2.5"/><text fill="#000000" font-family="sans-serif" font-size="13" lengthAdjust="spacing" textLength="151.1123" x="552.52" y="360.5325">Doesn't release assets.</text><ellipse cx="546.02" cy="371.2313" fill="#000000" rx="2.5" ry="2.5"/><text fill="#000000" font-family="sans-serif" font-size="13" lengthAdjust="spacing" textLength="336.375" x="552.52" y="375.6653">The order of keys changes to `(closer, non-closer)`.</text><ellipse cx="546.02" cy="386.3641" fill="#000000" rx="2.5" ry="2.5"/><text fill="#000000" font-family="sans-serif" font-size="13" lengthAdjust="spacing" textLength="265.5796" x="552.52" y="390.7981">Optionally delivers the newest snapshot.</text><ellipse cx="546.02" cy="401.4969" fill="#000000" rx="2.5" ry="2.5"/><text fill="#000000" font-family="sans-serif" font-size="13" lengthAdjust="spacing" textLength="303.9321" x="552.52" y="405.931">The `Amount` reflects the closer balance after</text><text fill="#000000" font-family="sans-serif" font-size="13" lengthAdjust="spacing" textLength="366.8501" x="540.52" y="421.0638">incorporating differences from the snapshot's squashes.</text></g><!--reverse link Closed to Closed--><g id="link_Closed_Closed"><path d="M577.0943,494.7157 C595.6943,493.3657 605.8,498.52 605.8,509.29 C605.8,520.06 589.71,524.77 571.11,523.42 " fill="transparent" id="Closed-backto-Closed" style="stroke:#181818;stroke-width:1;"/><polygon fill="#181818" points="571.11,495.15,580.3759,498.488,576.0969,494.788,579.7968,490.509,571.11,495.15" style="stroke:#181818;stroke-width:1;"/><text fill="#000000" font-family="sans-serif" font-size="13" font-weight="bold" lengthAdjust="spacing" textLength="29.7007" x="626.4028" y="506.3569">free</text><text fill="#000000" font-family="sans-serif" font-size="13" lengthAdjust="spacing" textLength="58.9063" x="611.8" y="521.4897">by closer</text></g><!--link Closed to Responded--><g id="link_Closed_Responded"><path d="M570.97,521.82 C615.9,536.45 686.52,566.04 726.52,616.37 C774.22,676.4 787.1054,762.335 790.7654,813.925 " fill="transparent" id="Closed-to-Responded" style="stroke:#181818;stroke-width:1;"/><polygon fill="#181818" points="791.19,819.91,794.5431,810.6495,790.8362,814.9225,786.5631,811.2156,791.19,819.91" style="stroke:#181818;stroke-width:1;"/><text fill="#000000" font-family="sans-serif" font-size="13" font-weight="bold" lengthAdjust="spacing" textLength="59.7632" x="922.5872" y="652.4369">respond</text><text fill="#000000" font-family="sans-serif" font-size="13" lengthAdjust="spacing" textLength="88.0293" x="908.4542" y="667.5697">by non-closer</text><path d="M788.7,676.6356 L788.7,731.6356 L1115.7,731.6356 L1115.7,686.6356 L1105.7,676.6356 L788.7,676.6356 " fill="#FEFFDD" style="stroke:#181818;stroke-width:0.5;"/><path d="M1105.7,676.6356 L1105.7,686.6356 L1115.7,686.6356 L1105.7,676.6356 " fill="#FEFFDD" style="stroke:#181818;stroke-width:0.5;"/><ellipse cx="800.2" cy="689.2684" fill="#000000" rx="2.5" ry="2.5"/><text fill="#000000" font-family="sans-serif" font-size="13" lengthAdjust="spacing" textLength="163.7188" x="806.7" y="693.7025">Releases account assets.</text><ellipse cx="800.2" cy="704.4012" fill="#000000" rx="2.5" ry="2.5"/><text fill="#000000" font-family="sans-serif" font-size="13" lengthAdjust="spacing" textLength="294.5376" x="806.7" y="708.8353">The left over should cover the closer account</text><text fill="#000000" font-family="sans-serif" font-size="13" lengthAdjust="spacing" textLength="262.52" x="794.7" y="723.9681">and potential liabilities of the non-closer</text></g><!--link Closed to Elapsed--><g id="link_Closed_Elapsed"><path d="M487.88,530.44 C453.62,548.8 405.78,578.75 374.52,616.37 C317.83,684.58 287.3363,781.75 275.0063,828.3 " fill="transparent" id="Closed-to-Elapsed" style="stroke:#181818;stroke-width:1;"/><polygon fill="#181818" points="273.47,834.1,279.6411,826.4242,274.7502,829.2667,271.9078,824.3758,273.47,834.1" style="stroke:#181818;stroke-width:1;"/><text fill="#000000" font-family="sans-serif" font-size="13" font-weight="bold" lengthAdjust="spacing" textLength="47.9058" x="524.6362" y="629.4369">elapse</text><text fill="#000000" font-family="sans-serif" font-size="13" lengthAdjust="spacing" textLength="58.9063" x="519.136" y="644.5697">by closer</text><path d="M379.52,653.6356 L379.52,753.6356 L717.52,753.6356 L717.52,663.6356 L707.52,653.6356 L379.52,653.6356 " fill="#FEFFDD" style="stroke:#181818;stroke-width:0.5;"/><path d="M707.52,653.6356 L707.52,663.6356 L717.52,663.6356 L707.52,653.6356 " fill="#FEFFDD" style="stroke:#181818;stroke-width:0.5;"/><ellipse cx="391.02" cy="666.2684" fill="#000000" rx="2.5" ry="2.5"/><text fill="#000000" font-family="sans-serif" font-size="13" lengthAdjust="spacing" textLength="163.7188" x="397.52" y="670.7025">Releases account assets.</text><ellipse cx="391.02" cy="681.4012" fill="#000000" rx="2.5" ry="2.5"/><text fill="#000000" font-family="sans-serif" font-size="13" lengthAdjust="spacing" textLength="305.1382" x="397.52" y="685.8353">For simplicity we disallow the closer to provide</text><text fill="#000000" font-family="sans-serif" font-size="13" lengthAdjust="spacing" textLength="223.6152" x="385.52" y="700.9681">cheques owned by the non-closer.</text><ellipse cx="391.02" cy="711.6669" fill="#000000" rx="2.5" ry="2.5"/><text fill="#000000" font-family="sans-serif" font-size="13" lengthAdjust="spacing" textLength="223.5073" x="397.52" y="716.101">The left over should cover just the</text><text fill="#000000" font-family="sans-serif" font-size="13" lengthAdjust="spacing" textLength="270.8989" x="385.52" y="731.2338">non-closer account as any extra liabilities</text><text fill="#000000" font-family="sans-serif" font-size="13" lengthAdjust="spacing" textLength="174.9795" x="385.52" y="746.3666">of the closer were ignored.</text></g><!--reverse link Responded to Responded--><g id="link_Responded_Responded"><path d="M852.7596,846.3641 C871.8796,846.1541 881.39,850.57 881.39,859.47 C881.39,868.38 865.88,872.73 846.76,872.52 " fill="transparent" id="Responded-backto-Responded" style="stroke:#181818;stroke-width:1;"/><polygon fill="#181818" points="846.76,846.43,855.8034,850.3309,851.7597,846.3751,855.7155,842.3314,846.76,846.43" style="stroke:#181818;stroke-width:1;"/><text fill="#000000" font-family="sans-serif" font-size="13" font-weight="bold" lengthAdjust="spacing" textLength="29.7007" x="916.5543" y="856.5369">free</text><text fill="#000000" font-family="sans-serif" font-size="13" lengthAdjust="spacing" textLength="88.0293" x="887.39" y="871.6697">by non-closer</text></g><!--link Responded to Resolved--><g id="link_Responded_Resolved"><path d="M786.01,898.74 C777.98,937.53 761.42,997.9 730.52,1041.58 C689.61,1099.39 626.8425,1143.5923 581.6725,1170.9423 " fill="transparent" id="Responded-to-Resolved" style="stroke:#181818;stroke-width:1;"/><polygon fill="#181818" points="576.54,1174.05,586.3105,1172.8102,580.8171,1171.4603,582.1669,1165.9668,576.54,1174.05" style="stroke:#181818;stroke-width:1;"/><text fill="#000000" font-family="sans-serif" font-size="13" font-weight="bold" lengthAdjust="spacing" textLength="57.2432" x="884.134" y="980.1469">Resolve</text><text fill="#000000" font-family="sans-serif" font-size="13" lengthAdjust="spacing" textLength="120.6753" x="941.3772" y="980.1469">(Secrets, DropOld)</text><text fill="#000000" font-family="sans-serif" font-size="13" lengthAdjust="spacing" textLength="58.9063" x="943.6401" y="995.2797">by closer</text><path d="M774.79,1004.3456 L774.79,1029.3456 L1170.79,1029.3456 L1170.79,1014.3456 L1160.79,1004.3456 L774.79,1004.3456 " fill="#FEFFDD" style="stroke:#181818;stroke-width:0.5;"/><path d="M1160.79,1004.3456 L1160.79,1014.3456 L1170.79,1014.3456 L1160.79,1004.3456 " fill="#FEFFDD" style="stroke:#181818;stroke-width:0.5;"/><ellipse cx="786.29" cy="1016.9784" fill="#000000" rx="2.5" ry="2.5"/><text fill="#000000" font-family="sans-serif" font-size="13" lengthAdjust="spacing" textLength="363.6064" x="792.79" y="1021.4125">Releases account assets leaving coverage for liabilities.</text></g><!--link Responded to *end*--><g id="link_Responded_*end*"><path d="M846.63,866.1 C943.97,877.46 1142.34,906.66 1183.52,959.58 C1205.9,988.34 1203.61,1011.17 1183.52,1041.58 C1025.21,1281.11 620.1301,1314.7551 547.5401,1318.9351 " fill="transparent" id="Responded-to-*end*" style="stroke:#181818;stroke-width:1;"/><polygon fill="#181818" points="541.55,1319.28,550.7651,1322.756,546.5417,1318.9926,550.3052,1314.7692,541.55,1319.28" style="stroke:#181818;stroke-width:1;"/><text fill="#000000" font-family="sans-serif" font-size="13" font-weight="bold" lengthAdjust="spacing" textLength="27.3774" x="1176.6244" y="1102.1469">end</text><text fill="#000000" font-family="sans-serif" font-size="13" lengthAdjust="spacing" textLength="58.9063" x="1160.86" y="1117.2797">by closer</text></g><!--reverse link Elapsed to Elapsed--><g id="link_Elapsed_Elapsed"><path d="M314.4653,846.2298 C333.1253,844.9198 343.36,849.62 343.36,859.47 C343.36,869.33 327.14,873.6 308.48,872.29 " fill="transparent" id="Elapsed-backto-Elapsed" style="stroke:#181818;stroke-width:1;"/><polygon fill="#181818" points="308.48,846.65,317.738,850.0099,313.4677,846.2998,317.1778,842.0295,308.48,846.65" style="stroke:#181818;stroke-width:1;"/><text fill="#000000" font-family="sans-serif" font-size="13" font-weight="bold" lengthAdjust="spacing" textLength="29.7007" x="363.9628" y="856.5369">free</text><text fill="#000000" font-family="sans-serif" font-size="13" lengthAdjust="spacing" textLength="58.9063" x="349.36" y="871.6697">by closer</text></g><!--link Elapsed to Resolved--><g id="link_Elapsed_Resolved"><path d="M260.38,884.94 C251.17,921.63 239.42,991.9 267.52,1041.58 C314.01,1123.77 416.4724,1166.1627 478.6424,1185.5627 " fill="transparent" id="Elapsed-to-Resolved" style="stroke:#181818;stroke-width:1;"/><polygon fill="#181818" points="484.37,1187.35,476.9701,1180.8507,479.597,1185.8606,474.587,1188.4875,484.37,1187.35" style="stroke:#181818;stroke-width:1;"/><text fill="#000000" font-family="sans-serif" font-size="13" font-weight="bold" lengthAdjust="spacing" textLength="53.644" x="468.5412" y="972.6469">resolve</text><text fill="#000000" font-family="sans-serif" font-size="13" lengthAdjust="spacing" textLength="88.0293" x="451.3486" y="987.7797">by non-closer</text><path d="M272.52,996.8456 L272.52,1036.8456 L717.52,1036.8456 L717.52,1006.8456 L707.52,996.8456 L272.52,996.8456 " fill="#FEFFDD" style="stroke:#181818;stroke-width:0.5;"/><path d="M707.52,996.8456 L707.52,1006.8456 L717.52,1006.8456 L707.52,996.8456 " fill="#FEFFDD" style="stroke:#181818;stroke-width:0.5;"/><ellipse cx="284.02" cy="1009.4784" fill="#000000" rx="2.5" ry="2.5"/><text fill="#000000" font-family="sans-serif" font-size="13" lengthAdjust="spacing" textLength="334.458" x="290.52" y="1013.9125">Releases account assets but covering his liabilities.</text><ellipse cx="284.02" cy="1024.6113" fill="#000000" rx="2.5" ry="2.5"/><text fill="#000000" font-family="sans-serif" font-size="13" lengthAdjust="spacing" textLength="412.6865" x="290.52" y="1029.0453">Non-closer `Pend` is empty - we ignored them during `elapse`.</text></g><!--link Elapsed to *end*--><g id="link_Elapsed_*end*"><path d="M226.79,885 C151.98,933.19 6,1043.82 70.52,1138.58 C180.66,1300.35 453.4929,1317.5321 513.1729,1319.4021 " fill="transparent" id="Elapsed-to-*end*" style="stroke:#181818;stroke-width:1;"/><polygon fill="#181818" points="519.17,1319.59,510.2997,1315.3101,514.1725,1319.4334,510.0491,1323.3062,519.17,1319.59" style="stroke:#181818;stroke-width:1;"/><text fill="#000000" font-family="sans-serif" font-size="13" font-weight="bold" lengthAdjust="spacing" textLength="27.3774" x="161.8442" y="1084.6469">end</text><path d="M75.52,1093.7128 L75.52,1133.7128 L275.52,1133.7128 L275.52,1103.7128 L265.52,1093.7128 L75.52,1093.7128 " fill="#FEFFDD" style="stroke:#181818;stroke-width:0.5;"/><path d="M265.52,1093.7128 L265.52,1103.7128 L275.52,1103.7128 L265.52,1093.7128 " fill="#FEFFDD" style="stroke:#181818;stroke-width:0.5;"/><ellipse cx="87.02" cy="1106.3456" fill="#000000" rx="2.5" ry="2.5"/><text fill="#000000" font-family="sans-serif" font-size="13" lengthAdjust="spacing" textLength="167.0259" x="93.52" y="1110.7797">Possibly releases account</text><text fill="#000000" font-family="sans-serif" font-size="13" lengthAdjust="spacing" textLength="134.7798" x="81.52" y="1125.9125">assets to non-closer.</text></g><!--reverse link Resolved to Resolved--><g id="link_Resolved_Resolved"><path d="M582.6243,1187.289 C601.4543,1186.469 611.35,1191.11 611.35,1200.69 C611.35,1210.28 595.46,1214.66 576.63,1213.84 " fill="transparent" id="Resolved-backto-Resolved" style="stroke:#181818;stroke-width:1;"/><polygon fill="#181818" points="576.63,1187.55,585.7955,1191.1547,581.6253,1187.3325,585.4475,1183.1622,576.63,1187.55" style="stroke:#181818;stroke-width:1;"/><text fill="#000000" font-family="sans-serif" font-size="13" font-weight="bold" lengthAdjust="spacing" textLength="29.7007" x="617.35" y="1205.2569">free</text></g><!--link Resolved to *end*--><g id="link_Resolved_*end*"><path d="M530.52,1233.04 C530.52,1258.32 530.52,1286.38 530.52,1303.32 " fill="transparent" id="Resolved-to-*end*" style="stroke:#181818;stroke-width:1;"/><polygon fill="#181818" points="530.52,1309.32,534.52,1300.32,530.52,1304.32,526.52,1300.32,530.52,1309.32" style="stroke:#181818;stroke-width:1;"/><text fill="#000000" font-family="sans-serif" font-size="13" font-weight="bold" lengthAdjust="spacing" textLength="27.3774" x="531.52" y="1275.8769">end</text></g><!--SRC=[dPLDRzim38Rl_XM4B_r0izsB8i2mRi0kQz7sjWsmRD6n5aLo9JbP_lqeIxPb9sY1dYmnf4W-VALOnnn2VbUk7rfKoEy-b-iSc8MmpSBd5guXpx_iTATSdi-Cpugrjj5ByoCQeJaPCpjc-2grJJA4RHO-YmofyVcrOxPP65_43dMtT7r4jSZvXBRLYYTfHqishXR95_Puw7bhakgR9199ehZFulUD2hNSpmli3TcmM9PnQin-NV-1rMeTfmQtG0ThMlj3Vwlo27w39bEQice5KgXj1dJ43mLCIg1oDcZXWB15R861wrf9dZNiQP2rg9WJ5BR5e_tKnxqq24899vW4RJWQx-j_1c6Xk0pfRa1fjGhhgs8AB0Bg0WpM4YjdmP4r-47995CL9julsb6M5GnH8lXFPqynX0DyZr6BnAHBgUGUEEE1TJuvhQCO0xZAhqTo_UuCkNkDLbquwa4YiqYJi-WIEdCgLSEK9-mqqGb71ZfXFT1vQ3rdciWHE4f1y6ElU43hmCRBzXxASEY01LZjg0EWWLNQjDhGCDK6kAXhD4WE5cgZTttaaE72Wktl7Tg4QgGKgAR8QeCdn4PdJixZxGd-9cp7a8d4AUYd0DW2gohVwmbfYRK3JQo0AkyaXwhV921Y94KmQgMb3AfNhXIi599KJAVJf0PLnKh6jkUjnFiS6i5-ywvOtkpXkwRAnQwLeXBkw2yX5vOqe0zf3wISrkYzu4X1LOEldI_wu0LCYUUblylcRqTgeXZocwAIueZJ4V2VConbHDwHKWmua7v0R9Gso1EPJ6zbbCfY-ZEr9C3Ji2YQ_gqBKN7d0o-ViJB4xmRkZMuV9B_w27s2m_R-9lHCw064cYQHz9kqb9Qs1l_SXl4d6exPX_S-jZvJoxbhChcVjcocbZzwJQ3iN6ZGTzhGspbhq4V-d1HG-3-K_eN5NKjQN7arnW7xmU-0T_r1HH1-aI2QDx94T5hmexPMbFJIcKNb_fg6sadpgQXd0WkOHdqbr0RAgTUPWlu3]--></g></svg>