<svg xmlns="http://www.w3.org/2000/svg" xmlns:xlink="http://www.w3.org/1999/xlink" contentStyleType="text/css" data-diagram-type="STATE" height="1126px" preserveAspectRatio="none" style="width:1191px;height:1126px;background:#FFFFFF;" version="1.1" viewBox="0 0 1191 1126" width="1191px" zoomAndPan="magnify"><defs/><g><g id="Opened"><rect fill="#F1F1F1" height="78.2031" rx="12.5" ry="12.5" style="stroke:#181818;stroke-width:0.5;" width="140.3691" x="390.74" y="213"/><line style="stroke:#181818;stroke-width:0.5;" x1="390.74" x2="531.1091" y1="239.2969" y2="239.2969"/><text fill="#000000" font-family="sans-serif" font-size="14" font-weight="bold" lengthAdjust="spacing" textLength="60.9014" x="430.4739" y="230.9951">Opened</text><ellipse cx="401.24" cy="250.7656" fill="#000000" rx="2.5" ry="2.5"/><text fill="#000000" font-family="monospace" font-size="12" lengthAdjust="spacing" textLength="108.3691" x="407.74" y="255.4355">NonOpenerAmount</text><ellipse cx="401.24" cy="264.7344" fill="#000000" rx="2.5" ry="2.5"/><text fill="#000000" font-family="monospace" font-size="12" lengthAdjust="spacing" textLength="57.7969" x="407.74" y="269.4043">Snapshot</text><ellipse cx="401.24" cy="278.7031" fill="#000000" rx="2.5" ry="2.5"/><text fill="#000000" font-family="monospace" font-size="12" lengthAdjust="spacing" textLength="43.3477" x="407.74" y="283.373">Period</text></g><g id="Closed"><rect fill="#F1F1F1" height="92.1719" rx="12.5" ry="12.5" style="stroke:#181818;stroke-width:0.5;" width="116.7793" x="402.53" y="509.21"/><line style="stroke:#181818;stroke-width:0.5;" x1="402.53" x2="519.3093" y1="535.5069" y2="535.5069"/><text fill="#000000" font-family="sans-serif" font-size="14" font-weight="bold" lengthAdjust="spacing" textLength="52.541" x="434.6491" y="527.2051">Closed</text><ellipse cx="413.03" cy="546.9756" fill="#000000" rx="2.5" ry="2.5"/><text fill="#000000" font-family="sans-serif" font-size="12" lengthAdjust="spacing" textLength="84.7793" x="419.53" y="551.6455">CloserAmount</text><ellipse cx="413.03" cy="560.9444" fill="#000000" rx="2.5" ry="2.5"/><text fill="#000000" font-family="monospace" font-size="12" lengthAdjust="spacing" textLength="43.3477" x="419.53" y="565.6143">Squash</text><ellipse cx="413.03" cy="574.9131" fill="#000000" rx="2.5" ry="2.5"/><text fill="#000000" font-family="monospace" font-size="12" lengthAdjust="spacing" textLength="50.5723" x="419.53" y="579.583">Timeout</text><ellipse cx="413.03" cy="588.8819" fill="#000000" rx="2.5" ry="2.5"/><text fill="#000000" font-family="monospace" font-size="12" lengthAdjust="spacing" textLength="28.8984" x="419.53" y="593.5518">Pend</text></g><g id="Resolved"><rect fill="#F1F1F1" height="78.2031" rx="12.5" ry="12.5" style="stroke:#181818;stroke-width:0.5;" width="154.8184" x="383.51" y="911.28"/><line style="stroke:#181818;stroke-width:0.5;" x1="383.51" x2="538.3284" y1="937.5769" y2="937.5769"/><text fill="#000000" font-family="sans-serif" font-size="14" font-weight="bold" lengthAdjust="spacing" textLength="71.668" x="425.0852" y="929.2751">Resolved</text><ellipse cx="394.01" cy="949.0456" fill="#000000" rx="2.5" ry="2.5"/><text fill="#000000" font-family="monospace" font-size="12" lengthAdjust="spacing" textLength="122.8184" x="400.51" y="953.7155">NonResolverAmount</text><ellipse cx="394.01" cy="963.0144" fill="#000000" rx="2.5" ry="2.5"/><text fill="#000000" font-family="monospace" font-size="12" lengthAdjust="spacing" textLength="28.8984" x="400.51" y="967.6843">Pend</text><ellipse cx="394.01" cy="976.9831" fill="#000000" rx="2.5" ry="2.5"/><text fill="#000000" font-family="monospace" font-size="12" lengthAdjust="spacing" textLength="28.8984" x="400.51" y="981.653">Pend</text></g><ellipse cx="460.92" cy="16" fill="#222222" rx="10" ry="10" style="stroke:#222222;stroke-width:1;"/><ellipse cx="639.92" cy="1109.38" fill="none" rx="11" ry="11" style="stroke:#222222;stroke-width:1;"/><ellipse cx="639.92" cy="1109.38" fill="#222222" rx="6" ry="6" style="stroke:#222222;stroke-width:1;"/><!--link *start* to Opened--><g class="link" data-entity-1=".start." data-entity-2="Opened" data-source-line="18" data-uid="lnk3" id="link_.start._Opened"><path d="M460.92,26.47 C460.92,57.44 460.92,150.91 460.92,206.54" fill="none" id="*start*-to-Opened" style="stroke:#181818;stroke-width:1;"/><polygon fill="#181818" points="460.92,212.54,464.92,203.54,460.92,207.54,456.92,203.54,460.92,212.54" style="stroke:#181818;stroke-width:1;"/><text fill="#000000" font-family="sans-serif" font-size="13" font-weight="bold" lengthAdjust="spacing" textLength="36.3086" x="655.7713" y="69.0669">open</text><text fill="#000000" font-family="sans-serif" font-size="13" lengthAdjust="spacing" textLength="65.8633" x="640.994" y="84.1997">by opener</text><path d="M465.92,93.2656 L465.92,178.2656 L881.92,178.2656 L881.92,103.2656 L871.92,93.2656 L465.92,93.2656" fill="#FEFFDD" style="stroke:#181818;stroke-width:0.5;"/><path d="M871.92,93.2656 L871.92,103.2656 L881.92,103.2656 L871.92,93.2656" fill="#FEFFDD" style="stroke:#181818;stroke-width:0.5;"/><ellipse cx="477.42" cy="105.8984" fill="#000000" rx="2.5" ry="2.5"/><text fill="#000000" font-family="sans-serif" font-size="13" lengthAdjust="spacing" textLength="318.3921" x="483.92" y="110.3325">In all stages we keep a tuple of verification keys.</text><ellipse cx="477.42" cy="121.0313" fill="#000000" rx="2.5" ry="2.5"/><text fill="#000000" font-family="sans-serif" font-size="13" lengthAdjust="spacing" textLength="328.7578" x="483.92" y="125.4653">The initial order of keys is `(opener, non-opener)`.</text><ellipse cx="477.42" cy="136.1641" fill="#000000" rx="2.5" ry="2.5"/><text fill="#000000" font-family="sans-serif" font-size="13" lengthAdjust="spacing" textLength="383.0112" x="483.92" y="140.5981">The `NonOpenerAmount` reflects the non-opener balance.</text><ellipse cx="477.42" cy="151.2969" fill="#000000" rx="2.5" ry="2.5"/><text fill="#000000" font-family="sans-serif" font-size="13" lengthAdjust="spacing" textLength="361.2515" x="483.92" y="155.731">The `Total - NonOpenerAmount` is the opener balance.</text><ellipse cx="477.42" cy="166.4297" fill="#000000" rx="2.5" ry="2.5"/><text fill="#000000" font-family="sans-serif" font-size="13" lengthAdjust="spacing" textLength="371.4712" x="483.92" y="170.8638">The above balances does not include snapshot liabilities.</text></g><!--reverse link Opened to Opened--><g class="link" data-entity-1="Opened" data-entity-2="Opened" data-source-line="26" data-uid="lnk5" id="link_Opened_Opened"><path d="M537.211,227.6978 C556.951,228.7778 566.11,236.7 566.11,252.11 C566.11,267.52 550.96,275.76 531.22,276.85" fill="none" id="Opened-backto-Opened" style="stroke:#181818;stroke-width:1;"/><polygon fill="#181818" points="531.22,227.37,539.988,231.8557,536.2125,227.6431,540.4251,223.8676,531.22,227.37" style="stroke:#181818;stroke-width:1;"/><text fill="#000000" font-family="monospace" font-size="13" font-weight="bold" lengthAdjust="spacing" textLength="23.48" x="572.11" y="256.6769">add</text></g><!--link Opened to Closed--><g class="link" data-entity-1="Opened" data-entity-2="Closed" data-source-line="27" data-uid="lnk6" id="link_Opened_Closed"><path d="M460.92,291.56 C460.92,347.14 460.92,443.75 460.92,502.95" fill="none" id="Opened-to-Closed" style="stroke:#181818;stroke-width:1;"/><polygon fill="#181818" points="460.92,508.95,464.92,499.95,460.92,503.95,456.92,499.95,460.92,508.95" style="stroke:#181818;stroke-width:1;"/><text fill="#000000" font-family="sans-serif" font-size="13" font-weight="bold" lengthAdjust="spacing" textLength="37.6479" x="653.8084" y="334.2769">close</text><text fill="#000000" font-family="sans-serif" font-size="13" lengthAdjust="spacing" textLength="58.9063" x="643.1793" y="349.4097">by closer</text><path d="M465.92,358.4756 L465.92,473.4756 L878.92,473.4756 L878.92,368.4756 L868.92,358.4756 L465.92,358.4756" fill="#FEFFDD" style="stroke:#181818;stroke-width:0.5;"/><path d="M868.92,358.4756 L868.92,368.4756 L878.92,368.4756 L868.92,358.4756" fill="#FEFFDD" style="stroke:#181818;stroke-width:0.5;"/><ellipse cx="477.42" cy="371.1084" fill="#000000" rx="2.5" ry="2.5"/><text fill="#000000" font-family="sans-serif" font-size="13" lengthAdjust="spacing" textLength="151.1123" x="483.92" y="375.5425">Doesn't release assets.</text><ellipse cx="477.42" cy="386.2413" fill="#000000" rx="2.5" ry="2.5"/><text fill="#000000" font-family="sans-serif" font-size="13" lengthAdjust="spacing" textLength="365.0791" x="483.92" y="390.6753">The order of keys should be set to `(closer, non-closer)`</text><ellipse cx="477.42" cy="401.3741" fill="#000000" rx="2.5" ry="2.5"/><text fill="#000000" font-family="sans-serif" font-size="13" lengthAdjust="spacing" textLength="265.5796" x="483.92" y="405.8081">Optionally delivers the newest snapshot.</text><ellipse cx="477.42" cy="416.5069" fill="#000000" rx="2.5" ry="2.5"/><text fill="#000000" font-family="sans-serif" font-size="13" lengthAdjust="spacing" textLength="349.0703" x="483.92" y="420.941">The `CloserAmount` reflects the closer balance after:</text><text fill="#000000" font-family="sans-serif" font-size="13" lengthAdjust="spacing" textLength="375.8955" x="488.4493" y="436.0738">- Incorporating differences from the snapshot's squashes.</text><text fill="#000000" font-family="sans-serif" font-size="13" lengthAdjust="spacing" textLength="355.4688" x="488.4493" y="451.2066">- Adding up all the unlocked cheques from the receipt.</text><text fill="#000000" font-family="sans-serif" font-size="13" lengthAdjust="spacing" textLength="301.8818" x="488.4493" y="466.3394">- Ignoring non fully confirmed closer liabilities.</text></g><!--reverse link Closed to Closed--><g class="link" data-entity-1="Closed" data-entity-2="Closed" data-source-line="37" data-uid="lnk8" id="link_Closed_Closed"><path d="M525.7498,526.2668 C544.9898,526.4168 554.31,536.06 554.31,555.29 C554.31,574.53 538.99,584.22 519.75,584.37" fill="none" id="Closed-backto-Closed" style="stroke:#181818;stroke-width:1;"/><polygon fill="#181818" points="519.75,526.22,528.7185,530.29,524.7498,526.259,528.7809,522.2903,519.75,526.22" style="stroke:#181818;stroke-width:1;"/><text fill="#000000" font-family="sans-serif" font-size="13" font-weight="bold" lengthAdjust="spacing" textLength="29.7007" x="574.9128" y="552.3569">free</text><text fill="#000000" font-family="sans-serif" font-size="13" lengthAdjust="spacing" textLength="58.9063" x="560.31" y="567.4897">by closer</text></g><!--link Closed to Resolved--><g class="link" data-entity-1="Closed" data-entity-2="Resolved" data-source-line="39" data-uid="lnk9" id="link_Closed_Resolved"><path d="M402.27,558.8 C304.09,564.35 113.14,581.45 71.92,631.38 C6,711.24 6.98,783.72 71.92,864.38 C110.24,911.97 275.1048,933.8151 377.2048,943.1251" fill="none" id="Closed-to-Resolved" style="stroke:#181818;stroke-width:1;"/><polygon fill="#181818" points="383.18,943.67,374.5804,938.8693,378.2007,943.216,373.854,946.8362,383.18,943.67" style="stroke:#181818;stroke-width:1;"/><text fill="#000000" font-family="sans-serif" font-size="13" font-weight="bold" lengthAdjust="spacing" textLength="59.7632" x="215.2125" y="666.9469">respond</text><text fill="#000000" font-family="sans-serif" font-size="13" lengthAdjust="spacing" textLength="88.0293" x="201.0794" y="682.0797">by non-closer</text><path d="M76.92,691.1456 L76.92,837.1456 L412.92,837.1456 L412.92,701.1456 L402.92,691.1456 L76.92,691.1456" fill="#FEFFDD" style="stroke:#181818;stroke-width:0.5;"/><path d="M402.92,691.1456 L402.92,701.1456 L412.92,701.1456 L402.92,691.1456" fill="#FEFFDD" style="stroke:#181818;stroke-width:0.5;"/><ellipse cx="88.42" cy="703.7784" fill="#000000" rx="2.5" ry="2.5"/><text fill="#000000" font-family="sans-serif" font-size="13" lengthAdjust="spacing" textLength="300.5615" x="94.92" y="708.2125">Keys are swapped - non-closer is the resolver.</text><ellipse cx="88.42" cy="718.9113" fill="#000000" rx="2.5" ry="2.5"/><text fill="#000000" font-family="sans-serif" font-size="13" lengthAdjust="spacing" textLength="303.3481" x="94.92" y="723.3453">Non-closer provides a possible squash update.</text><ellipse cx="88.42" cy="734.0441" fill="#000000" rx="2.5" ry="2.5"/><text fill="#000000" font-family="sans-serif" font-size="13" lengthAdjust="spacing" textLength="217.8579" x="94.92" y="738.4781">The final squash is used to adjust</text><text fill="#000000" font-family="sans-serif" font-size="13" lengthAdjust="spacing" textLength="134.4434" x="91.1846" y="753.611">the `CloserAmount`.</text><ellipse cx="88.42" cy="764.3097" fill="#000000" rx="2.5" ry="2.5"/><text fill="#000000" font-family="sans-serif" font-size="13" lengthAdjust="spacing" textLength="236.228" x="94.92" y="768.7438">Provided receipt is the source of the</text><text fill="#000000" font-family="sans-serif" font-size="13" lengthAdjust="spacing" textLength="131.8916" x="91.1846" y="783.8766">non-closer `Pend's`.</text><ellipse cx="88.42" cy="794.5753" fill="#000000" rx="2.5" ry="2.5"/><text fill="#000000" font-family="sans-serif" font-size="13" lengthAdjust="spacing" textLength="235.8027" x="94.92" y="799.0094">Releases non-closer account assets.</text><ellipse cx="88.42" cy="809.7081" fill="#000000" rx="2.5" ry="2.5"/><text fill="#000000" font-family="sans-serif" font-size="13" lengthAdjust="spacing" textLength="276.8657" x="94.92" y="814.1422">The left over should cover all the liabilities</text><text fill="#000000" font-family="sans-serif" font-size="13" lengthAdjust="spacing" textLength="165.4517" x="91.1846" y="829.275">plus the `CloserAmount`.</text></g><!--link Closed to Resolved--><g class="link" data-entity-1="Closed" data-entity-2="Resolved" data-source-line="52" data-uid="lnk10" id="link_Closed_Resolved"><path d="M458.82,601.55 C458.45,611.38 458.12,621.73 457.92,631.38 C455.86,734.91 456.1,760.84 457.92,864.38 C458.19,879.59 458.5035,890.3243 459.0535,904.8843" fill="none" id="Closed-to-Resolved-1" style="stroke:#181818;stroke-width:1;"/><polygon fill="#181818" points="459.28,910.88,462.9374,901.7354,459.0913,905.8836,454.9431,902.0374,459.28,910.88" style="stroke:#181818;stroke-width:1;"/><text fill="#000000" font-family="sans-serif" font-size="13" font-weight="bold" lengthAdjust="spacing" textLength="47.9058" x="601.7108" y="644.4469">elapse</text><text fill="#000000" font-family="sans-serif" font-size="13" lengthAdjust="spacing" textLength="58.9063" x="596.2105" y="659.5797">by closer</text><path d="M462.92,668.6456 L462.92,859.6456 L787.92,859.6456 L787.92,678.6456 L777.92,668.6456 L462.92,668.6456" fill="#FEFFDD" style="stroke:#181818;stroke-width:0.5;"/><path d="M777.92,668.6456 L777.92,678.6456 L787.92,678.6456 L777.92,668.6456" fill="#FEFFDD" style="stroke:#181818;stroke-width:0.5;"/><ellipse cx="474.42" cy="681.2784" fill="#000000" rx="2.5" ry="2.5"/><text fill="#000000" font-family="sans-serif" font-size="13" lengthAdjust="spacing" textLength="272.5049" x="480.92" y="685.7125">The key's order is preserved as the closer</text><text fill="#000000" font-family="sans-serif" font-size="13" lengthAdjust="spacing" textLength="165.0835" x="477.1846" y="700.8453">is becoming the resolver.</text><ellipse cx="474.42" cy="711.5441" fill="#000000" rx="2.5" ry="2.5"/><text fill="#000000" font-family="sans-serif" font-size="13" lengthAdjust="spacing" textLength="267.6045" x="480.92" y="715.9781">Non-closer `Pend`'s is empty. His receipt</text><text fill="#000000" font-family="sans-serif" font-size="13" lengthAdjust="spacing" textLength="173.6465" x="477.1846" y="731.111">was not delivered on time.</text><ellipse cx="474.42" cy="741.8097" fill="#000000" rx="2.5" ry="2.5"/><text fill="#000000" font-family="sans-serif" font-size="13" lengthAdjust="spacing" textLength="292.4873" x="480.92" y="746.2438">Remaining squash is approached as the final</text><text fill="#000000" font-family="sans-serif" font-size="13" lengthAdjust="spacing" textLength="234.6919" x="477.1846" y="761.3766">one and discarded as it was already</text><text fill="#000000" font-family="sans-serif" font-size="13" lengthAdjust="spacing" textLength="94.1802" x="477.1846" y="776.5094">accounted for.</text><ellipse cx="474.42" cy="787.2081" fill="#000000" rx="2.5" ry="2.5"/><text fill="#000000" font-family="sans-serif" font-size="13" lengthAdjust="spacing" textLength="289.999" x="480.92" y="791.6422">Possibly unlocks some pending cheques and</text><text fill="#000000" font-family="sans-serif" font-size="13" lengthAdjust="spacing" textLength="259.6128" x="477.1846" y="806.775">includes them into the `CloserAmount`.</text><ellipse cx="474.42" cy="817.4738" fill="#000000" rx="2.5" ry="2.5"/><text fill="#000000" font-family="sans-serif" font-size="13" lengthAdjust="spacing" textLength="264.9004" x="480.92" y="821.9078">Releases the withdrawal amount leaving</text><text fill="#000000" font-family="sans-serif" font-size="13" lengthAdjust="spacing" textLength="268.6011" x="477.1846" y="837.0406">coverage for `NonCloserAmount` and his</text><text fill="#000000" font-family="sans-serif" font-size="13" lengthAdjust="spacing" textLength="118.8662" x="477.1846" y="852.1735">pending liabilities.</text></g><!--reverse link Resolved to Resolved--><g class="link" data-entity-1="Resolved" data-entity-2="Resolved" data-source-line="68" data-uid="lnk12" id="link_Resolved_Resolved"><path d="M544.6681,931.8582 C564.4581,933.1082 573.33,939.02 573.33,950.38 C573.33,961.74 558.47,968.03 538.68,969.28" fill="none" id="Resolved-backto-Resolved" style="stroke:#181818;stroke-width:1;"/><polygon fill="#181818" points="538.68,931.48,547.41,936.0394,543.6701,931.7952,547.9143,928.0553,538.68,931.48" style="stroke:#181818;stroke-width:1;"/><text fill="#000000" font-family="sans-serif" font-size="13" font-weight="bold" lengthAdjust="spacing" textLength="29.7007" x="579.33" y="954.9469">free</text></g><!--link Resolved to *end*--><g class="link" data-entity-1="Resolved" data-entity-2=".end." data-source-line="69" data-uid="lnk14" id="link_Resolved_.end."><path d="M504.71,989.79 C547.77,1027.55 605.609,1078.2839 627.479,1097.4639" fill="none" id="Resolved-to-*end*" style="stroke:#181818;stroke-width:1;"/><polygon fill="#181818" points="631.99,1101.42,627.8609,1092.4785,628.2308,1098.1232,622.5861,1098.4931,631.99,1101.42" style="stroke:#181818;stroke-width:1;"/><text fill="#000000" font-family="sans-serif" font-size="13" font-weight="bold" lengthAdjust="spacing" textLength="27.3774" x="638.3946" y="1049.4469">end</text><text fill="#000000" font-family="sans-serif" font-size="13" lengthAdjust="spacing" textLength="118.3267" x="592.92" y="1064.5797">by min-ada-owner</text></g><!--link Closed to *end*--><g class="link" data-entity-1="Closed" data-entity-2=".end." data-source-line="71" data-uid="lnk15" id="link_Closed_.end."><path d="M519.68,560.78 C606.58,568.78 762.82,588.81 796.92,631.38 C920.23,785.29 852.03,921.95 719.92,1068.38 C700.78,1089.59 673.6118,1099.3766 656.5918,1104.0966" fill="none" id="Closed-to-*end*" style="stroke:#181818;stroke-width:1;"/><polygon fill="#181818" points="650.81,1105.7,660.5516,1107.1494,655.6282,1104.3638,658.4137,1099.4404,650.81,1105.7" style="stroke:#181818;stroke-width:1;"/><text fill="#000000" font-family="sans-serif" font-size="13" font-weight="bold" lengthAdjust="spacing" textLength="27.3774" x="1001.1044" y="907.4469">end</text><text fill="#000000" font-family="sans-serif" font-size="13" lengthAdjust="spacing" textLength="118.3267" x="955.6298" y="922.5797">by min-ada-owner</text><path d="M844.61,931.6456 L844.61,1001.6456 L1184.61,1001.6456 L1184.61,941.6456 L1174.61,931.6456 L844.61,931.6456" fill="#FEFFDD" style="stroke:#181818;stroke-width:0.5;"/><path d="M1174.61,931.6456 L1174.61,941.6456 L1184.61,941.6456 L1174.61,931.6456" fill="#FEFFDD" style="stroke:#181818;stroke-width:0.5;"/><ellipse cx="856.11" cy="944.2784" fill="#000000" rx="2.5" ry="2.5"/><text fill="#000000" font-family="sans-serif" font-size="13" lengthAdjust="spacing" textLength="278.2432" x="862.61" y="948.7125">When executed by closer then it combines</text><text fill="#000000" font-family="sans-serif" font-size="13" lengthAdjust="spacing" textLength="247.7681" x="858.8746" y="963.8453">`elapse` with subsequent `end` logic.</text><ellipse cx="856.11" cy="974.5441" fill="#000000" rx="2.5" ry="2.5"/><text fill="#000000" font-family="sans-serif" font-size="13" lengthAdjust="spacing" textLength="307.3662" x="862.61" y="978.9781">When executed by non-closer then it combines</text><text fill="#000000" font-family="sans-serif" font-size="13" lengthAdjust="spacing" textLength="172.5483" x="858.8746" y="994.111">`resolve` with `end` logic.</text></g><!--SRC=[ZLN9RXmt4BtFLnJcejZ8A7V16C183Z42s88Z88SaGBF9QWqZDjacsPhCt-TnwMKM9T51mwKsllUgEaGHcROVslsNWIsh3p-q-os9G6MxAJyFz9wssy_Evgt_sBlHnktsxFPNAuPmS9V7Z-orKpZSX3dLZyQ5LQgotPIVv9LNDSlg63c-ZI8S46nz-AHxTcEyE7raUv7rAmTdNbTvfuFDj9YVMG-MXvvRrDWt3pU_l_-JThjz1P0U2AaTrYdj7xOzaSiORgn3NSwIqVPbGmZnoP8mXb3mCmSwChqm3oGeZeE1PKSeI7TQYgZXziAdS9_zdWvCskgeXI7d5Vjacwv91sg-A-c-9-lihgpVDOjZSq5gGvuxmp86YhXUdAWLHbZ9AzSd5v5oHrSXT75-or6qxfMduq3AuH_Gm2Ea6HLJg4e2DABL1YzZF1Nm9YkkwWB6unhbRQ9OgCBkTZ7QLtaL8cHQpqpatGqcVa95zYu22iCYeE0GEAxGFaSPfOv6KOl2EL9qmBm4BfYNzRicUtyP4dcW-KIAZGQZ5MS-SeZporSWhtlXWfmIUGAIH1VPFy0p_UqW9-dyu3paOfz9wQvZpndmphi-1vZItU4HkRCuFxBuVrGgEOv3LcKo7wrnyWLGoWD_6zU1F4lMGroSFprRvvCx4A1kJE-LpdRQzyczr7sRtSfMONTDNUVvYhd5UazBDyBOSnYSLRFzGiGrsxya4eK774Sn32dQodpIigyJeJ3pURaVl7lL2c086bm8kaMl5Z01dSBiMRZiD9YVBX5tJAL3BqBzDOQOiOjNb1Vtnv95JKXFPGKtUfc7Gzhb4AlQcpIJxaADyRMeEQmjX9GfovN23NUHqAL-KhVCcqa9A-fopi6CuMRjCwrlCiK66lplban5eTkWrD9yUFy0JjWZJfhbIp_aWd3TidHzak2_qfSXQkxohEH-YATx-XdB2dEETHHbFDM6HJuK5l7HcM3j1SOl4YtCGaVU2RJ9N5lcFeTp5gqAM9GEKdXLJ7JCQOJnBDGfsrLgSD-vMlTZ4TYfTYAwrlLCc7IvKwUkHF22GHcdEN-F7PJsbhncQII3euu7vSKHMXNP26eGhyYGesOXu0kLgifVZ_C1bLvsq5KLjR3RZJv_FcklpzkpRbzRxIbzMujgLhqDadT2YPqxsekHy3_ChuJssu4jyTyinmJzhCY4Z4qqGLIjjbNtJL5lap6ZCBOXKG34cgGgCkvPo_lROLTDU3jqbMoDVHPmnl0V]--></g></svg>