<svg xmlns="http://www.w3.org/2000/svg" xmlns:xlink="http://www.w3.org/1999/xlink" contentStyleType="text/css" data-diagram-type="STATE" height="1353px" preserveAspectRatio="none" style="width:1227px;height:1353px;background:#FFFFFF;" version="1.1" viewBox="0 0 1227 1353" width="1227px" zoomAndPan="magnify"><defs/><g><g id="Opened"><rect fill="#F1F1F1" height="78.2031" rx="12.5" ry="12.5" style="stroke:#181818;stroke-width:0.5;" width="89.7969" x="484.62" y="198"/><line style="stroke:#181818;stroke-width:0.5;" x1="484.62" x2="574.4169" y1="224.2969" y2="224.2969"/><text fill="#000000" font-family="sans-serif" font-size="14" font-weight="bold" lengthAdjust="spacing" textLength="60.9014" x="499.0678" y="215.9951">Opened</text><ellipse cx="495.12" cy="235.7656" fill="#000000" rx="2.5" ry="2.5"/><text fill="#000000" font-family="monospace" font-size="12" lengthAdjust="spacing" textLength="43.3477" x="501.62" y="240.4355">Amount</text><ellipse cx="495.12" cy="249.7344" fill="#000000" rx="2.5" ry="2.5"/><text fill="#000000" font-family="monospace" font-size="12" lengthAdjust="spacing" textLength="57.7969" x="501.62" y="254.4043">Snapshot</text><ellipse cx="495.12" cy="263.7031" fill="#000000" rx="2.5" ry="2.5"/><text fill="#000000" font-family="monospace" font-size="12" lengthAdjust="spacing" textLength="43.3477" x="501.62" y="268.373">Period</text></g><g id="Closed"><rect fill="#F1F1F1" height="92.1719" rx="12.5" ry="12.5" style="stroke:#181818;stroke-width:0.5;" width="82.5723" x="488.23" y="479.2"/><line style="stroke:#181818;stroke-width:0.5;" x1="488.23" x2="570.8023" y1="505.4969" y2="505.4969"/><text fill="#000000" font-family="sans-serif" font-size="14" font-weight="bold" lengthAdjust="spacing" textLength="52.541" x="503.2456" y="497.1951">Closed</text><ellipse cx="498.73" cy="516.9656" fill="#000000" rx="2.5" ry="2.5"/><text fill="#000000" font-family="monospace" font-size="12" lengthAdjust="spacing" textLength="43.3477" x="505.23" y="521.6355">Amount</text><ellipse cx="498.73" cy="530.9344" fill="#000000" rx="2.5" ry="2.5"/><text fill="#000000" font-family="monospace" font-size="12" lengthAdjust="spacing" textLength="43.3477" x="505.23" y="535.6043">Squash</text><ellipse cx="498.73" cy="544.9031" fill="#000000" rx="2.5" ry="2.5"/><text fill="#000000" font-family="monospace" font-size="12" lengthAdjust="spacing" textLength="50.5723" x="505.23" y="549.573">Timeout</text><ellipse cx="498.73" cy="558.8719" fill="#000000" rx="2.5" ry="2.5"/><text fill="#000000" font-family="monospace" font-size="12" lengthAdjust="spacing" textLength="28.8984" x="505.23" y="563.5418">Pend</text></g><g id="Responded"><rect fill="#F1F1F1" height="78.2031" rx="12.5" ry="12.5" style="stroke:#181818;stroke-width:0.5;" width="107.7529" x="738.64" y="836.37"/><line style="stroke:#181818;stroke-width:0.5;" x1="738.64" x2="846.3929" y1="862.6669" y2="862.6669"/><text fill="#000000" font-family="sans-serif" font-size="14" font-weight="bold" lengthAdjust="spacing" textLength="87.7529" x="748.64" y="854.3651">Responded</text><ellipse cx="749.14" cy="874.1356" fill="#000000" rx="2.5" ry="2.5"/><text fill="#000000" font-family="monospace" font-size="12" lengthAdjust="spacing" textLength="43.3477" x="755.64" y="878.8055">Amount</text><ellipse cx="749.14" cy="888.1044" fill="#000000" rx="2.5" ry="2.5"/><text fill="#000000" font-family="monospace" font-size="12" lengthAdjust="spacing" textLength="28.8984" x="755.64" y="892.7743">Pend</text><ellipse cx="749.14" cy="902.0731" fill="#000000" rx="2.5" ry="2.5"/><text fill="#000000" font-family="monospace" font-size="12" lengthAdjust="spacing" textLength="28.8984" x="755.64" y="906.743">Pend</text></g><g id="Elapsed"><rect fill="#F1F1F1" height="50.2656" rx="12.5" ry="12.5" style="stroke:#181818;stroke-width:0.5;" width="81.6807" x="226.68" y="850.34"/><line style="stroke:#181818;stroke-width:0.5;" x1="226.68" x2="308.3607" y1="876.6369" y2="876.6369"/><text fill="#000000" font-family="sans-serif" font-size="14" font-weight="bold" lengthAdjust="spacing" textLength="61.6807" x="236.68" y="868.3351">Elapsed</text><ellipse cx="237.18" cy="888.1056" fill="#000000" rx="2.5" ry="2.5"/><text fill="#000000" font-family="monospace" font-size="12" lengthAdjust="spacing" textLength="28.8984" x="243.68" y="892.7755">Pend</text></g><g id="Resolved"><rect fill="#F1F1F1" height="64.2344" rx="12.5" ry="12.5" style="stroke:#181818;stroke-width:0.5;" width="91.668" x="484.68" y="1184.58"/><line style="stroke:#181818;stroke-width:0.5;" x1="484.68" x2="576.348" y1="1210.8769" y2="1210.8769"/><text fill="#000000" font-family="sans-serif" font-size="14" font-weight="bold" lengthAdjust="spacing" textLength="71.668" x="494.68" y="1202.5751">Resolved</text><ellipse cx="495.18" cy="1222.3456" fill="#000000" rx="2.5" ry="2.5"/><text fill="#000000" font-family="monospace" font-size="12" lengthAdjust="spacing" textLength="28.8984" x="501.68" y="1227.0155">Pend</text><ellipse cx="495.18" cy="1236.3144" fill="#000000" rx="2.5" ry="2.5"/><text fill="#000000" font-family="monospace" font-size="12" lengthAdjust="spacing" textLength="28.8984" x="501.68" y="1240.9843">Pend</text></g><ellipse cx="529.52" cy="16" fill="#222222" rx="10" ry="10" style="stroke:#222222;stroke-width:1;"/><ellipse cx="530.52" cy="1336.81" fill="none" rx="11" ry="11" style="stroke:#222222;stroke-width:1;"/><ellipse cx="530.52" cy="1336.81" fill="#222222" rx="6" ry="6" style="stroke:#222222;stroke-width:1;"/><!--link *start* to Opened--><g class="link" data-entity-1=".start." data-entity-2="Opened" data-source-line="25" data-uid="lnk3" id="link_.start._Opened"><path d="M529.52,26.41 C529.52,55.57 529.52,139.56 529.52,191.68" fill="none" id="*start*-to-Opened" style="stroke:#181818;stroke-width:1;"/><polygon fill="#181818" points="529.52,197.68,533.52,188.68,529.52,192.68,525.52,188.68,529.52,197.68" style="stroke:#181818;stroke-width:1;"/><text fill="#000000" font-family="sans-serif" font-size="13" font-weight="bold" lengthAdjust="spacing" textLength="36.3086" x="697.2446" y="69.0669">open</text><text fill="#000000" font-family="sans-serif" font-size="13" lengthAdjust="spacing" textLength="65.8633" x="682.4673" y="84.1997">by opener</text><path d="M534.52,93.2656 L534.52,163.2656 L895.52,163.2656 L895.52,103.2656 L885.52,93.2656 L534.52,93.2656" fill="#FEFFDD" style="stroke:#181818;stroke-width:0.5;"/><path d="M885.52,93.2656 L885.52,103.2656 L895.52,103.2656 L885.52,93.2656" fill="#FEFFDD" style="stroke:#181818;stroke-width:0.5;"/><ellipse cx="546.02" cy="105.8984" fill="#000000" rx="2.5" ry="2.5"/><text fill="#000000" font-family="sans-serif" font-size="13" lengthAdjust="spacing" textLength="318.3921" x="552.52" y="110.3325">In all stages we keep a tuple of verification keys.</text><ellipse cx="546.02" cy="121.0313" fill="#000000" rx="2.5" ry="2.5"/><text fill="#000000" font-family="sans-serif" font-size="13" lengthAdjust="spacing" textLength="328.7578" x="552.52" y="125.4653">The initial order of keys is `(opener, non-opener)`.</text><ellipse cx="546.02" cy="136.1641" fill="#000000" rx="2.5" ry="2.5"/><text fill="#000000" font-family="sans-serif" font-size="13" lengthAdjust="spacing" textLength="309.0293" x="552.52" y="140.5981">The `Amount` reflects the non-opener balance.</text><ellipse cx="546.02" cy="151.2969" fill="#000000" rx="2.5" ry="2.5"/><text fill="#000000" font-family="sans-serif" font-size="13" lengthAdjust="spacing" textLength="287.2695" x="552.52" y="155.731">The `Total - Amount` is the opener balance.</text></g><!--reverse link Opened to Opened--><g class="link" data-entity-1="Opened" data-entity-2="Opened" data-source-line="32" data-uid="lnk5" id="link_Opened_Opened"><path d="M580.6684,213.3412 C599.4684,211.7412 609.42,220 609.42,237.1 C609.42,254.2 593.49,261.95 574.69,260.35" fill="none" id="Opened-backto-Opened" style="stroke:#181818;stroke-width:1;"/><polygon fill="#181818" points="574.69,213.85,583.9968,217.0724,579.672,213.426,583.3184,209.1012,574.69,213.85" style="stroke:#181818;stroke-width:1;"/><text fill="#000000" font-family="monospace" font-size="13" font-weight="bold" lengthAdjust="spacing" textLength="23.48" x="615.42" y="241.6669">add</text></g><!--link Opened to Closed--><g class="link" data-entity-1="Opened" data-entity-2="Closed" data-source-line="33" data-uid="lnk6" id="link_Opened_Closed"><path d="M529.52,276.7 C529.52,329.18 529.52,416.91 529.52,472.76" fill="none" id="Opened-to-Closed" style="stroke:#181818;stroke-width:1;"/><polygon fill="#181818" points="529.52,478.76,533.52,469.76,529.52,473.76,525.52,469.76,529.52,478.76" style="stroke:#181818;stroke-width:1;"/><text fill="#000000" font-family="sans-serif" font-size="13" font-weight="bold" lengthAdjust="spacing" textLength="37.6479" x="752.5344" y="319.2669">close</text><text fill="#000000" font-family="sans-serif" font-size="13" lengthAdjust="spacing" textLength="58.9063" x="741.9053" y="334.3997">by closer</text><path d="M534.52,343.4656 L534.52,443.4656 L1007.52,443.4656 L1007.52,353.4656 L997.52,343.4656 L534.52,343.4656" fill="#FEFFDD" style="stroke:#181818;stroke-width:0.5;"/><path d="M997.52,343.4656 L997.52,353.4656 L1007.52,353.4656 L997.52,343.4656" fill="#FEFFDD" style="stroke:#181818;stroke-width:0.5;"/><ellipse cx="546.02" cy="356.0984" fill="#000000" rx="2.5" ry="2.5"/><text fill="#000000" font-family="sans-serif" font-size="13" lengthAdjust="spacing" textLength="151.1123" x="552.52" y="360.5325">Doesn't release assets.</text><ellipse cx="546.02" cy="371.2313" fill="#000000" rx="2.5" ry="2.5"/><text fill="#000000" font-family="sans-serif" font-size="13" lengthAdjust="spacing" textLength="336.375" x="552.52" y="375.6653">The order of keys changes to `(closer, non-closer)`.</text><ellipse cx="546.02" cy="386.3641" fill="#000000" rx="2.5" ry="2.5"/><text fill="#000000" font-family="sans-serif" font-size="13" lengthAdjust="spacing" textLength="265.5796" x="552.52" y="390.7981">Optionally delivers the newest snapshot.</text><ellipse cx="546.02" cy="401.4969" fill="#000000" rx="2.5" ry="2.5"/><text fill="#000000" font-family="sans-serif" font-size="13" lengthAdjust="spacing" textLength="308.312" x="552.52" y="405.931">The `Amount` reflects the closer balance after:</text><text fill="#000000" font-family="sans-serif" font-size="13" lengthAdjust="spacing" textLength="371.541" x="557.0493" y="421.0638">- incorporating differences from the snapshot's squashes</text><text fill="#000000" font-family="sans-serif" font-size="13" lengthAdjust="spacing" textLength="436.1475" x="557.0493" y="436.1966">- adding up all the reduced cheques provided in this step's Receipt</text></g><!--reverse link Closed to Closed--><g class="link" data-entity-1="Closed" data-entity-2="Closed" data-source-line="42" data-uid="lnk8" id="link_Closed_Closed"><path d="M577.0943,510.7157 C595.6943,509.3657 605.8,514.52 605.8,525.29 C605.8,536.06 589.71,540.77 571.11,539.42" fill="none" id="Closed-backto-Closed" style="stroke:#181818;stroke-width:1;"/><polygon fill="#181818" points="571.11,511.15,580.3759,514.488,576.0969,510.788,579.7968,506.509,571.11,511.15" style="stroke:#181818;stroke-width:1;"/><text fill="#000000" font-family="sans-serif" font-size="13" font-weight="bold" lengthAdjust="spacing" textLength="29.7007" x="626.4028" y="522.3569">free</text><text fill="#000000" font-family="sans-serif" font-size="13" lengthAdjust="spacing" textLength="58.9063" x="611.8" y="537.4897">by closer</text></g><!--link Closed to Responded--><g class="link" data-entity-1="Closed" data-entity-2="Responded" data-source-line="43" data-uid="lnk9" id="link_Closed_Responded"><path d="M570.97,537.82 C615.9,552.45 686.52,582.04 726.52,632.37 C774.22,692.4 787.1054,778.335 790.7654,829.925" fill="none" id="Closed-to-Responded" style="stroke:#181818;stroke-width:1;"/><polygon fill="#181818" points="791.19,835.91,794.5431,826.6495,790.8362,830.9225,786.5631,827.2156,791.19,835.91" style="stroke:#181818;stroke-width:1;"/><text fill="#000000" font-family="sans-serif" font-size="13" font-weight="bold" lengthAdjust="spacing" textLength="59.7632" x="967.7254" y="653.4369">respond</text><text fill="#000000" font-family="sans-serif" font-size="13" lengthAdjust="spacing" textLength="88.0293" x="953.5923" y="668.5697">by non-closer</text><path d="M788.7,677.6356 L788.7,762.6356 L1205.7,762.6356 L1205.7,687.6356 L1195.7,677.6356 L788.7,677.6356" fill="#FEFFDD" style="stroke:#181818;stroke-width:0.5;"/><path d="M1195.7,677.6356 L1195.7,687.6356 L1205.7,687.6356 L1195.7,677.6356" fill="#FEFFDD" style="stroke:#181818;stroke-width:0.5;"/><ellipse cx="800.2" cy="690.2684" fill="#000000" rx="2.5" ry="2.5"/><text fill="#000000" font-family="sans-serif" font-size="13" lengthAdjust="spacing" textLength="235.8027" x="806.7" y="694.7025">Releases non-closer account assets.</text><ellipse cx="800.2" cy="705.4012" fill="#000000" rx="2.5" ry="2.5"/><text fill="#000000" font-family="sans-serif" font-size="13" lengthAdjust="spacing" textLength="294.5376" x="806.7" y="709.8353">The left over should cover the closer account</text><text fill="#000000" font-family="sans-serif" font-size="13" lengthAdjust="spacing" textLength="304.5225" x="794.7" y="724.9681">and potential liabilities of the non-closer which</text><text fill="#000000" font-family="sans-serif" font-size="13" lengthAdjust="spacing" textLength="170.8599" x="794.7" y="740.101">are stored in their `Pend`.</text><ellipse cx="800.2" cy="750.7997" fill="#000000" rx="2.5" ry="2.5"/><text fill="#000000" font-family="sans-serif" font-size="13" lengthAdjust="spacing" textLength="384.814" x="806.7" y="755.2338">The `Pend`s are stored in order corresponding to the keys.</text></g><!--link Closed to Elapsed--><g class="link" data-entity-1="Closed" data-entity-2="Elapsed" data-source-line="52" data-uid="lnk10" id="link_Closed_Elapsed"><path d="M487.88,546.44 C453.62,564.8 405.78,594.75 374.52,632.37 C317.83,700.58 287.3363,797.75 275.0063,844.3" fill="none" id="Closed-to-Elapsed" style="stroke:#181818;stroke-width:1;"/><polygon fill="#181818" points="273.47,850.1,279.6411,842.4242,274.7502,845.2667,271.9078,840.3758,273.47,850.1" style="stroke:#181818;stroke-width:1;"/><text fill="#000000" font-family="sans-serif" font-size="13" font-weight="bold" lengthAdjust="spacing" textLength="47.9058" x="524.6362" y="645.4369">elapse</text><text fill="#000000" font-family="sans-serif" font-size="13" lengthAdjust="spacing" textLength="58.9063" x="519.136" y="660.5697">by closer</text><path d="M379.52,669.6356 L379.52,769.6356 L717.52,769.6356 L717.52,679.6356 L707.52,669.6356 L379.52,669.6356" fill="#FEFFDD" style="stroke:#181818;stroke-width:0.5;"/><path d="M707.52,669.6356 L707.52,679.6356 L717.52,679.6356 L707.52,669.6356" fill="#FEFFDD" style="stroke:#181818;stroke-width:0.5;"/><ellipse cx="391.02" cy="682.2684" fill="#000000" rx="2.5" ry="2.5"/><text fill="#000000" font-family="sans-serif" font-size="13" lengthAdjust="spacing" textLength="163.7188" x="397.52" y="686.7025">Releases account assets.</text><ellipse cx="391.02" cy="697.4012" fill="#000000" rx="2.5" ry="2.5"/><text fill="#000000" font-family="sans-serif" font-size="13" lengthAdjust="spacing" textLength="305.1382" x="397.52" y="701.8353">For simplicity we disallow the closer to provide</text><text fill="#000000" font-family="sans-serif" font-size="13" lengthAdjust="spacing" textLength="223.6152" x="385.52" y="716.9681">cheques owned by the non-closer.</text><ellipse cx="391.02" cy="727.6669" fill="#000000" rx="2.5" ry="2.5"/><text fill="#000000" font-family="sans-serif" font-size="13" lengthAdjust="spacing" textLength="223.5073" x="397.52" y="732.101">The left over should cover just the</text><text fill="#000000" font-family="sans-serif" font-size="13" lengthAdjust="spacing" textLength="270.8989" x="385.52" y="747.2338">non-closer account as any extra liabilities</text><text fill="#000000" font-family="sans-serif" font-size="13" lengthAdjust="spacing" textLength="174.9795" x="385.52" y="762.3666">of the closer were ignored.</text></g><!--reverse link Responded to Responded--><g class="link" data-entity-1="Responded" data-entity-2="Responded" data-source-line="62" data-uid="lnk12" id="link_Responded_Responded"><path d="M852.7596,862.3641 C871.8796,862.1541 881.39,866.57 881.39,875.47 C881.39,884.38 865.88,888.73 846.76,888.52" fill="none" id="Responded-backto-Responded" style="stroke:#181818;stroke-width:1;"/><polygon fill="#181818" points="846.76,862.43,855.8034,866.3309,851.7597,862.3751,855.7155,858.3314,846.76,862.43" style="stroke:#181818;stroke-width:1;"/><text fill="#000000" font-family="sans-serif" font-size="13" font-weight="bold" lengthAdjust="spacing" textLength="29.7007" x="916.5543" y="872.5369">free</text><text fill="#000000" font-family="sans-serif" font-size="13" lengthAdjust="spacing" textLength="88.0293" x="887.39" y="887.6697">by non-closer</text></g><!--link Responded to Resolved--><g class="link" data-entity-1="Responded" data-entity-2="Resolved" data-source-line="63" data-uid="lnk13" id="link_Responded_Resolved"><path d="M786.01,914.74 C777.98,953.53 761.42,1013.9 730.52,1057.58 C689.61,1115.39 626.8425,1159.5923 581.6725,1186.9423" fill="none" id="Responded-to-Resolved" style="stroke:#181818;stroke-width:1;"/><polygon fill="#181818" points="576.54,1190.05,586.3105,1188.8102,580.8171,1187.4603,582.1669,1181.9668,576.54,1190.05" style="stroke:#181818;stroke-width:1;"/><text fill="#000000" font-family="sans-serif" font-size="13" font-weight="bold" lengthAdjust="spacing" textLength="53.644" x="946.2712" y="996.1469">resolve</text><text fill="#000000" font-family="sans-serif" font-size="13" lengthAdjust="spacing" textLength="58.9063" x="943.6401" y="1011.2797">by closer</text><path d="M774.79,1020.3456 L774.79,1045.3456 L1170.79,1045.3456 L1170.79,1030.3456 L1160.79,1020.3456 L774.79,1020.3456" fill="#FEFFDD" style="stroke:#181818;stroke-width:0.5;"/><path d="M1160.79,1020.3456 L1160.79,1030.3456 L1170.79,1030.3456 L1160.79,1020.3456" fill="#FEFFDD" style="stroke:#181818;stroke-width:0.5;"/><ellipse cx="786.29" cy="1032.9784" fill="#000000" rx="2.5" ry="2.5"/><text fill="#000000" font-family="sans-serif" font-size="13" lengthAdjust="spacing" textLength="363.6064" x="792.79" y="1037.4125">Releases account assets leaving coverage for liabilities.</text></g><!--link Responded to *end*--><g class="link" data-entity-1="Responded" data-entity-2=".end." data-source-line="67" data-uid="lnk15" id="link_Responded_.end."><path d="M846.63,882.1 C943.97,893.46 1142.34,922.66 1183.52,975.58 C1205.9,1004.34 1203.61,1027.17 1183.52,1057.58 C1025.21,1297.11 620.1301,1330.7551 547.5401,1334.9351" fill="none" id="Responded-to-*end*" style="stroke:#181818;stroke-width:1;"/><polygon fill="#181818" points="541.55,1335.28,550.7651,1338.756,546.5417,1334.9926,550.3052,1330.7692,541.55,1335.28" style="stroke:#181818;stroke-width:1;"/><text fill="#000000" font-family="sans-serif" font-size="13" font-weight="bold" lengthAdjust="spacing" textLength="27.3774" x="1176.6244" y="1118.1469">end</text><text fill="#000000" font-family="sans-serif" font-size="13" lengthAdjust="spacing" textLength="58.9063" x="1160.86" y="1133.2797">by closer</text></g><!--reverse link Elapsed to Elapsed--><g class="link" data-entity-1="Elapsed" data-entity-2="Elapsed" data-source-line="69" data-uid="lnk17" id="link_Elapsed_Elapsed"><path d="M314.4653,862.2298 C333.1253,860.9198 343.36,865.62 343.36,875.47 C343.36,885.33 327.14,889.6 308.48,888.29" fill="none" id="Elapsed-backto-Elapsed" style="stroke:#181818;stroke-width:1;"/><polygon fill="#181818" points="308.48,862.65,317.738,866.0099,313.4677,862.2998,317.1778,858.0295,308.48,862.65" style="stroke:#181818;stroke-width:1;"/><text fill="#000000" font-family="sans-serif" font-size="13" font-weight="bold" lengthAdjust="spacing" textLength="29.7007" x="363.9628" y="872.5369">free</text><text fill="#000000" font-family="sans-serif" font-size="13" lengthAdjust="spacing" textLength="58.9063" x="349.36" y="887.6697">by closer</text></g><!--link Elapsed to Resolved--><g class="link" data-entity-1="Elapsed" data-entity-2="Resolved" data-source-line="70" data-uid="lnk18" id="link_Elapsed_Resolved"><path d="M260.38,900.94 C251.17,937.63 239.42,1007.9 267.52,1057.58 C314.01,1139.77 416.4724,1182.1627 478.6424,1201.5627" fill="none" id="Elapsed-to-Resolved" style="stroke:#181818;stroke-width:1;"/><polygon fill="#181818" points="484.37,1203.35,476.9701,1196.8507,479.597,1201.8606,474.587,1204.4875,484.37,1203.35" style="stroke:#181818;stroke-width:1;"/><text fill="#000000" font-family="sans-serif" font-size="13" font-weight="bold" lengthAdjust="spacing" textLength="53.644" x="468.5412" y="988.6469">resolve</text><text fill="#000000" font-family="sans-serif" font-size="13" lengthAdjust="spacing" textLength="88.0293" x="451.3486" y="1003.7797">by non-closer</text><path d="M272.52,1012.8456 L272.52,1052.8456 L717.52,1052.8456 L717.52,1022.8456 L707.52,1012.8456 L272.52,1012.8456" fill="#FEFFDD" style="stroke:#181818;stroke-width:0.5;"/><path d="M707.52,1012.8456 L707.52,1022.8456 L717.52,1022.8456 L707.52,1012.8456" fill="#FEFFDD" style="stroke:#181818;stroke-width:0.5;"/><ellipse cx="284.02" cy="1025.4784" fill="#000000" rx="2.5" ry="2.5"/><text fill="#000000" font-family="sans-serif" font-size="13" lengthAdjust="spacing" textLength="334.458" x="290.52" y="1029.9125">Releases account assets but covering his liabilities.</text><ellipse cx="284.02" cy="1040.6113" fill="#000000" rx="2.5" ry="2.5"/><text fill="#000000" font-family="sans-serif" font-size="13" lengthAdjust="spacing" textLength="412.6865" x="290.52" y="1045.0453">Non-closer `Pend` is empty - we ignored them during `elapse`.</text></g><!--link Elapsed to *end*--><g class="link" data-entity-1="Elapsed" data-entity-2=".end." data-source-line="75" data-uid="lnk19" id="link_Elapsed_.end."><path d="M226.79,901 C151.98,949.19 6,1059.82 70.52,1154.58 C180.66,1316.35 453.4929,1333.5321 513.1729,1335.4021" fill="none" id="Elapsed-to-*end*" style="stroke:#181818;stroke-width:1;"/><polygon fill="#181818" points="519.17,1335.59,510.2997,1331.3101,514.1725,1335.4334,510.0491,1339.3062,519.17,1335.59" style="stroke:#181818;stroke-width:1;"/><text fill="#000000" font-family="sans-serif" font-size="13" font-weight="bold" lengthAdjust="spacing" textLength="27.3774" x="161.8442" y="1100.6469">end</text><path d="M75.52,1109.7128 L75.52,1149.7128 L275.52,1149.7128 L275.52,1119.7128 L265.52,1109.7128 L75.52,1109.7128" fill="#FEFFDD" style="stroke:#181818;stroke-width:0.5;"/><path d="M265.52,1109.7128 L265.52,1119.7128 L275.52,1119.7128 L265.52,1109.7128" fill="#FEFFDD" style="stroke:#181818;stroke-width:0.5;"/><ellipse cx="87.02" cy="1122.3456" fill="#000000" rx="2.5" ry="2.5"/><text fill="#000000" font-family="sans-serif" font-size="13" lengthAdjust="spacing" textLength="167.0259" x="93.52" y="1126.7797">Possibly releases account</text><text fill="#000000" font-family="sans-serif" font-size="13" lengthAdjust="spacing" textLength="134.7798" x="81.52" y="1141.9125">assets to non-closer.</text></g><!--reverse link Resolved to Resolved--><g class="link" data-entity-1="Resolved" data-entity-2="Resolved" data-source-line="81" data-uid="lnk21" id="link_Resolved_Resolved"><path d="M582.6243,1203.289 C601.4543,1202.469 611.35,1207.11 611.35,1216.69 C611.35,1226.28 595.46,1230.66 576.63,1229.84" fill="none" id="Resolved-backto-Resolved" style="stroke:#181818;stroke-width:1;"/><polygon fill="#181818" points="576.63,1203.55,585.7955,1207.1547,581.6253,1203.3325,585.4475,1199.1622,576.63,1203.55" style="stroke:#181818;stroke-width:1;"/><text fill="#000000" font-family="sans-serif" font-size="13" font-weight="bold" lengthAdjust="spacing" textLength="29.7007" x="617.35" y="1221.2569">free</text></g><!--link Resolved to *end*--><g class="link" data-entity-1="Resolved" data-entity-2=".end." data-source-line="82" data-uid="lnk22" id="link_Resolved_.end."><path d="M530.52,1249.04 C530.52,1274.32 530.52,1302.38 530.52,1319.32" fill="none" id="Resolved-to-*end*" style="stroke:#181818;stroke-width:1;"/><polygon fill="#181818" points="530.52,1325.32,534.52,1316.32,530.52,1320.32,526.52,1316.32,530.52,1325.32" style="stroke:#181818;stroke-width:1;"/><text fill="#000000" font-family="sans-serif" font-size="13" font-weight="bold" lengthAdjust="spacing" textLength="27.3774" x="531.52" y="1291.8769">end</text></g><!--SRC=[dPLDRzim38Rl_XM4Bzs6PRiNHO1X7y0kQz7sjWsmRDErLaLo9JbP_lr8IxPb9rY6vH9B8KNnULywpWkFaD-KsziEDTOtxyjj3i91M6RXwnhUG9v_s9bU-pnVR3veqRdMhBVlq4fJqsRcfWeVbN59XR3CmjUgGhhvyD8Brwus7-KEJRyElKEzgdcFhZEwJifEEzdqj2g-se-7djzDIdrMH28f5DTP_FxB3OtQBoyuR6JZm_eQfvlPzpS_ORFPHjNW6kXWGyzyw0zT7e4NQ3DjgAhHeAH-pe2E-Af1A0LqdITqS41uHkn0WEyxHP4Dx4d8HbR2IqfxngDxD-GzjWXIIo-50cDhj1pBFuDqKBmAvTw2DdeJdbyNSs8HK1TWiL5OUGUUTkTOA8KIki8auz5ughI1CLE6d7KyuG3kCNgHcFGfbPo1YpgmpkUWRJHZ05VnyqHkM9qXzycWqrUUUb0e799o3dr2PqcbQeLcmjuGdN1ae1EUHpgt7NCcHOvGev84FxB10peFBWxR9PJXq14BYCQZlQOS_cn8jyhOpbZIL3z1BPi6BLASWyQQtN30MEZAWHl63zsKJlmuh-y6vt2qnRglY5xLuajFntJMx2LD2bMYtqagvx6xOcTNA3i_gnIf1vLI2HgB9mfCmJK5JzCOucrOJYapsLFXxeDWBWa2KLMCyKH4XOq7Gp80qUWLjJWi4iOnap84TTLHCJqCXPAYb8e6X0gH2KQ3nwn3AwkMSoonziQEh51QA7YeqsaPrcuL6-n5GiRMMH8o5zS9Kpf1NeABRwE03OV5HQjFnCvX-c88ZjnrIbRI7_aLKaj7pZ2751DTBRg2aaQVc0EF7nLUqhc8_rTFiq0v57TMGvBY2FZRMv7AGD5HY544iZt89yr8Krwpju8nLrvRU3CnMfeMBJgygIU7ykf_MHCAiMUD1mBqieQ6k2VT9Gsa5za2_pK4iPFvYDN7_wROwC8RvqPm3h_Su3-DuAh9ilUXGUwKNnoB1Zdpswntc0l-9y1THyxRiFUYd2pp3kf-EAW8DYyIHCj6reXEBtndd9CblPNjwkOym-7kvF3KmWix1KoJcn9g8-Kqwio5_W00]--></g></svg>