<?plantuml 1.2026.2?><svg xmlns="http://www.w3.org/2000/svg" xmlns:xlink="http://www.w3.org/1999/xlink" contentStyleType="text/css" data-diagram-type="DESCRIPTION" height="1073px" preserveAspectRatio="none" style="width:1539px;height:1073px;background:#FFFFFF;" version="1.1" viewBox="0 0 1539 1073" width="1539px" zoomAndPan="magnify"><defs/><g><!--cluster CLNode--><g class="cluster" data-qualified-name="CLNode" data-source-line="18" id="ent0002"><path d="M8.5,6 L123.8584,6 A3.75,3.75 0 0 1 126.3584,8.5 L133.3584,28.2969 L391.5,28.2969 A2.5,2.5 0 0 1 394,30.7969 L394,908.44 A2.5,2.5 0 0 1 391.5,910.94 L8.5,910.94 A2.5,2.5 0 0 1 6,908.44 L6,8.5 A2.5,2.5 0 0 1 8.5,6" fill="none" style="stroke:#000000;stroke-width:1.5;"/><line style="stroke:#000000;stroke-width:1.5;" x1="6" x2="133.3584" y1="28.2969" y2="28.2969"/><text fill="#000000" font-family="sans-serif" font-size="14" font-weight="bold" lengthAdjust="spacing" textLength="114.3584" x="10" y="20.9951">Gateway Node</text></g><!--cluster DB--><g class="cluster" data-qualified-name="CLNode.DB" data-source-line="19" id="ent0003"><path d="M188,301.19 C188,291.19 268,291.19 268,291.19 C268,291.19 348,291.19 348,301.19 L348,425.78 C348,435.78 268,435.78 268,435.78 C268,435.78 188,435.78 188,425.78 L188,301.19" fill="none" style="stroke:#181818;stroke-width:1;"/><path d="M188,301.19 C188,311.19 268,311.19 268,311.19 C268,311.19 348,311.19 348,301.19" fill="none" style="stroke:#181818;stroke-width:1;"/><text fill="#000000" font-family="sans-serif" font-size="14" font-weight="bold" lengthAdjust="spacing" textLength="22.292" x="256.854" y="326.1851">DB</text></g><!--cluster Protocols--><g class="cluster" data-qualified-name="Protocols" data-source-line="79" id="ent0036"><path d="M706.5,289.75 L781.6426,289.75 A3.75,3.75 0 0 1 784.1426,292.25 L791.1426,312.0469 L1529.5,312.0469 A2.5,2.5 0 0 1 1532,314.5469 L1532,449.73 A2.5,2.5 0 0 1 1529.5,452.23 L706.5,452.23 A2.5,2.5 0 0 1 704,449.73 L704,292.25 A2.5,2.5 0 0 1 706.5,289.75" fill="none" style="stroke:#000000;stroke-width:1.5;"/><line style="stroke:#000000;stroke-width:1.5;" x1="704" x2="791.1426" y1="312.0469" y2="312.0469"/><text fill="#000000" font-family="sans-serif" font-size="14" font-weight="bold" lengthAdjust="spacing" textLength="74.1426" x="708" y="304.7451">Protocols</text></g><!--cluster FX--><g class="cluster" data-qualified-name="FX" data-source-line="103" id="ent0040"><path d="M420.5,314.19 L441.8574,314.19 A3.75,3.75 0 0 1 444.3574,316.69 L451.3574,336.4869 L677.5,336.4869 A2.5,2.5 0 0 1 680,338.9869 L680,425.28 A2.5,2.5 0 0 1 677.5,427.78 L420.5,427.78 A2.5,2.5 0 0 1 418,425.28 L418,316.69 A2.5,2.5 0 0 1 420.5,314.19" fill="none" style="stroke:#000000;stroke-width:1.5;"/><line style="stroke:#000000;stroke-width:1.5;" x1="418" x2="451.3574" y1="336.4869" y2="336.4869"/><text fill="#000000" font-family="sans-serif" font-size="14" font-weight="bold" lengthAdjust="spacing" textLength="20.3574" x="422" y="329.1851">FX</text></g><!--cluster BLN--><g class="cluster" data-qualified-name="BLN" data-source-line="110" id="ent0045"><path d="M420.5,797.35 L452.8086,797.35 A3.75,3.75 0 0 1 455.3086,799.85 L462.3086,819.6469 L707.5,819.6469 A2.5,2.5 0 0 1 710,822.1469 L710,1064.48 A2.5,2.5 0 0 1 707.5,1066.98 L420.5,1066.98 A2.5,2.5 0 0 1 418,1064.48 L418,799.85 A2.5,2.5 0 0 1 420.5,797.35" fill="none" style="stroke:#000000;stroke-width:1.5;"/><line style="stroke:#000000;stroke-width:1.5;" x1="418" x2="462.3086" y1="819.6469" y2="819.6469"/><text fill="#000000" font-family="sans-serif" font-size="14" font-weight="bold" lengthAdjust="spacing" textLength="31.3086" x="422" y="812.3451">BLN</text></g><!--cluster Cardano--><g class="cluster" data-qualified-name="Cardano" data-source-line="119" id="ent0051"><path d="M736.5,772.9 L803.1797,772.9 A3.75,3.75 0 0 1 805.6797,775.4 L812.6797,795.1969 L1277.5,795.1969 A2.5,2.5 0 0 1 1280,797.6969 L1280,1064.48 A2.5,2.5 0 0 1 1277.5,1066.98 L736.5,1066.98 A2.5,2.5 0 0 1 734,1064.48 L734,775.4 A2.5,2.5 0 0 1 736.5,772.9" fill="none" style="stroke:#000000;stroke-width:1.5;"/><line style="stroke:#000000;stroke-width:1.5;" x1="734" x2="812.6797" y1="795.1969" y2="795.1969"/><text fill="#000000" font-family="sans-serif" font-size="14" font-weight="bold" lengthAdjust="spacing" textLength="65.6797" x="738" y="787.8951">Cardano</text></g><!--entity Server--><g class="entity" data-qualified-name="CLNode.Server" data-source-line="25" id="ent0005"><rect fill="#F1F1F1" height="62.5938" rx="2.5" ry="2.5" style="stroke:#181818;stroke-width:0.5;" width="109.4297" x="268.29" y="120.6"/><rect fill="#F1F1F1" height="10" style="stroke:#181818;stroke-width:0.5;" width="15" x="357.7197" y="125.6"/><rect fill="#F1F1F1" height="2" style="stroke:#181818;stroke-width:0.5;" width="4" x="355.7197" y="127.6"/><rect fill="#F1F1F1" height="2" style="stroke:#181818;stroke-width:0.5;" width="4" x="355.7197" y="131.6"/><text fill="#000000" font-family="sans-serif" font-size="14" font-style="italic" lengthAdjust="spacing" textLength="67.4297" x="284.29" y="153.5951">&#171;service&#187;</text><text fill="#000000" font-family="sans-serif" font-size="14" font-weight="bold" lengthAdjust="spacing" textLength="52.0078" x="292.0009" y="169.892">Server</text></g><!--entity HTTP--><g class="entity" data-qualified-name="CLNode.HTTP" data-source-line="30" id="ent0007"><ellipse cx="218" cy="229.19" fill="#F1F1F1" rx="8" ry="8" style="stroke:#181818;stroke-width:0.5;"/><text fill="#000000" font-family="sans-serif" font-size="14" font-weight="bold" lengthAdjust="spacing" textLength="41.0771" x="197.4614" y="259.1851">HTTP</text></g><!--entity Client--><g class="entity" data-qualified-name="CLNode.Client" data-source-line="31" id="ent0008"><rect fill="#F1F1F1" height="62.5938" rx="2.5" ry="2.5" style="stroke:#181818;stroke-width:0.5;" width="104.3232" x="88.84" y="477.23"/><rect fill="#F1F1F1" height="10" style="stroke:#181818;stroke-width:0.5;" width="15" x="173.1632" y="482.23"/><rect fill="#F1F1F1" height="2" style="stroke:#181818;stroke-width:0.5;" width="4" x="171.1632" y="484.23"/><rect fill="#F1F1F1" height="2" style="stroke:#181818;stroke-width:0.5;" width="4" x="171.1632" y="488.23"/><text fill="#000000" font-family="sans-serif" font-size="14" font-style="italic" lengthAdjust="spacing" textLength="62.3232" x="104.84" y="510.2251">&#171;library&#187;</text><text fill="#000000" font-family="sans-serif" font-size="14" font-weight="bold" lengthAdjust="spacing" textLength="46.0264" x="112.9884" y="526.522">Client</text></g><!--entity CLI--><g class="entity" data-qualified-name="CLNode.CLI" data-source-line="34" id="ent0009"><rect fill="#F1F1F1" height="62.5938" rx="2.5" ry="2.5" style="stroke:#181818;stroke-width:0.5;" width="136.5068" x="21.75" y="685.31"/><rect fill="#F1F1F1" height="10" style="stroke:#181818;stroke-width:0.5;" width="15" x="138.2568" y="690.31"/><rect fill="#F1F1F1" height="2" style="stroke:#181818;stroke-width:0.5;" width="4" x="136.2568" y="692.31"/><rect fill="#F1F1F1" height="2" style="stroke:#181818;stroke-width:0.5;" width="4" x="136.2568" y="696.31"/><text fill="#000000" font-family="sans-serif" font-size="14" font-style="italic" lengthAdjust="spacing" textLength="94.5068" x="37.75" y="718.3051">&#171;application&#187;</text><text fill="#000000" font-family="sans-serif" font-size="14" font-weight="bold" lengthAdjust="spacing" textLength="75.3047" x="47.3511" y="734.602">CLI Client</text></g><!--entity WASM--><g class="entity" data-qualified-name="CLNode.WASM" data-source-line="37" id="ent0010"><rect fill="#F1F1F1" height="62.5938" rx="2.5" ry="2.5" style="stroke:#181818;stroke-width:0.5;" width="146.0664" x="105.97" y="832.35"/><rect fill="#F1F1F1" height="10" style="stroke:#181818;stroke-width:0.5;" width="15" x="232.0364" y="837.35"/><rect fill="#F1F1F1" height="2" style="stroke:#181818;stroke-width:0.5;" width="4" x="230.0364" y="839.35"/><rect fill="#F1F1F1" height="2" style="stroke:#181818;stroke-width:0.5;" width="4" x="230.0364" y="843.35"/><text fill="#000000" font-family="sans-serif" font-size="14" font-style="italic" lengthAdjust="spacing" textLength="62.3232" x="142.8416" y="865.3451">&#171;library&#187;</text><text fill="#000000" font-family="sans-serif" font-size="14" font-weight="bold" lengthAdjust="spacing" textLength="101.1924" x="125.844" y="881.642">WASM Client</text></g><!--entity Kernel--><g class="entity" data-qualified-name="CLNode.Kernel" data-source-line="45" id="ent0018"><rect fill="#F1F1F1" height="62.5938" rx="2.5" ry="2.5" style="stroke:#181818;stroke-width:0.5;" width="163.2354" x="146.38" y="41"/><rect fill="#F1F1F1" height="10" style="stroke:#181818;stroke-width:0.5;" width="15" x="289.6154" y="46"/><rect fill="#F1F1F1" height="2" style="stroke:#181818;stroke-width:0.5;" width="4" x="287.6154" y="48"/><rect fill="#F1F1F1" height="2" style="stroke:#181818;stroke-width:0.5;" width="4" x="287.6154" y="52"/><text fill="#000000" font-family="sans-serif" font-size="14" font-style="italic" lengthAdjust="spacing" textLength="121.2354" x="162.38" y="73.9951">&#171;smart-contract&#187;</text><text fill="#000000" font-family="sans-serif" font-size="14" font-weight="bold" lengthAdjust="spacing" textLength="120.4287" x="162.7833" y="90.292">Kernel in Aiken</text></g><!--entity PlutusBinaries--><g class="entity" data-qualified-name="CLNode.PlutusBinaries" data-source-line="48" id="ent0019"><ellipse cx="181" cy="151.89" fill="#F1F1F1" rx="8" ry="8" style="stroke:#181818;stroke-width:0.5;"/><text fill="#000000" font-family="sans-serif" font-size="14" font-weight="bold" lengthAdjust="spacing" textLength="119.3076" x="121.3462" y="181.8851">Plutus Binaries</text></g><!--entity TxBuilder--><g class="entity" data-qualified-name="CLNode.TxBuilder" data-source-line="51" id="ent0022"><rect fill="#F1F1F1" height="62.5938" rx="2.5" ry="2.5" style="stroke:#181818;stroke-width:0.5;" width="120.1104" x="21.94" y="349.19"/><rect fill="#F1F1F1" height="10" style="stroke:#181818;stroke-width:0.5;" width="15" x="122.0504" y="354.19"/><rect fill="#F1F1F1" height="2" style="stroke:#181818;stroke-width:0.5;" width="4" x="120.0504" y="356.19"/><rect fill="#F1F1F1" height="2" style="stroke:#181818;stroke-width:0.5;" width="4" x="120.0504" y="360.19"/><text fill="#000000" font-family="sans-serif" font-size="14" font-style="italic" lengthAdjust="spacing" textLength="62.3232" x="45.8336" y="382.1851">&#171;library&#187;</text><text fill="#000000" font-family="sans-serif" font-size="14" font-weight="bold" lengthAdjust="spacing" textLength="80.1104" x="36.94" y="398.482">Tx Builder</text></g><!--entity CLData--><g class="entity" data-qualified-name="CLNode.CLData" data-source-line="57" id="ent0025"><rect fill="#F1F1F1" height="62.5938" rx="2.5" ry="2.5" style="stroke:#181818;stroke-width:0.5;" width="104.3232" x="21.84" y="41"/><rect fill="#F1F1F1" height="10" style="stroke:#181818;stroke-width:0.5;" width="15" x="106.1632" y="46"/><rect fill="#F1F1F1" height="2" style="stroke:#181818;stroke-width:0.5;" width="4" x="104.1632" y="48"/><rect fill="#F1F1F1" height="2" style="stroke:#181818;stroke-width:0.5;" width="4" x="104.1632" y="52"/><text fill="#000000" font-family="sans-serif" font-size="14" font-style="italic" lengthAdjust="spacing" textLength="62.3232" x="37.84" y="73.9951">&#171;library&#187;</text><text fill="#000000" font-family="sans-serif" font-size="14" font-weight="bold" lengthAdjust="spacing" textLength="61.2773" x="38.3629" y="90.292">CL Data</text></g><!--entity Codecs--><g class="entity" data-qualified-name="CLNode.Codecs" data-source-line="61" id="ent0026"><ellipse cx="58" cy="151.89" fill="#F1F1F1" rx="8" ry="8" style="stroke:#181818;stroke-width:0.5;"/><text fill="#000000" font-family="sans-serif" font-size="14" font-weight="bold" lengthAdjust="spacing" textLength="56.041" x="29.9795" y="181.8851">Codecs</text></g><!--entity Admin--><g class="entity" data-qualified-name="CLNode.Admin" data-source-line="67" id="ent0031"><rect fill="#F1F1F1" height="111.4844" rx="2.5" ry="2.5" style="stroke:#181818;stroke-width:0.5;" width="215.3691" x="162.32" y="556.82"/><rect fill="#F1F1F1" height="10" style="stroke:#181818;stroke-width:0.5;" width="15" x="357.6891" y="561.82"/><rect fill="#F1F1F1" height="2" style="stroke:#181818;stroke-width:0.5;" width="4" x="355.6891" y="563.82"/><rect fill="#F1F1F1" height="2" style="stroke:#181818;stroke-width:0.5;" width="4" x="355.6891" y="567.82"/><text fill="#000000" font-family="sans-serif" font-size="14" font-style="italic" lengthAdjust="spacing" textLength="67.4297" x="231.2897" y="589.8151">&#171;service&#187;</text><text fill="#000000" font-family="sans-serif" font-size="14" font-weight="bold" lengthAdjust="spacing" textLength="50.21" x="239.8996" y="606.112">Admin</text><text fill="#000000" font-family="sans-serif" font-size="14" lengthAdjust="spacing" textLength="4.4502" x="262.7795" y="622.4089">&#160;</text><text fill="#000000" font-family="sans-serif" font-size="14" font-style="italic" lengthAdjust="spacing" textLength="97.583" x="216.2131" y="638.7057">L1 monitoring</text><text fill="#000000" font-family="sans-serif" font-size="14" font-style="italic" lengthAdjust="spacing" textLength="175.3691" x="177.32" y="655.0026">L1 liquidity management</text></g><!--entity ChannelInfo--><g class="entity" data-qualified-name="CLNode.DB.ChannelInfo" data-source-line="20" id="ent0004"><rect fill="#F1F1F1" height="62.5938" rx="2.5" ry="2.5" style="stroke:#181818;stroke-width:0.5;" width="104.5557" x="211.72" y="349.19"/><rect fill="#F1F1F1" height="10" style="stroke:#181818;stroke-width:0.5;" width="15" x="296.2757" y="354.19"/><rect fill="#F1F1F1" height="2" style="stroke:#181818;stroke-width:0.5;" width="4" x="294.2757" y="356.19"/><rect fill="#F1F1F1" height="2" style="stroke:#181818;stroke-width:0.5;" width="4" x="294.2757" y="360.19"/><text fill="#000000" font-family="sans-serif" font-size="14" font-style="italic" lengthAdjust="spacing" textLength="62.5557" x="227.72" y="382.1851">&#171;record&#187;</text><text fill="#000000" font-family="sans-serif" font-size="14" font-weight="bold" lengthAdjust="spacing" textLength="63.916" x="227.0398" y="398.482">Channel</text></g><!--entity ProblemDetails--><g class="entity" data-qualified-name="Protocols.ProblemDetails" data-source-line="80" id="ent0037"><rect fill="#F1F1F1" height="111.4844" rx="2.5" ry="2.5" style="stroke:#181818;stroke-width:0.5;" width="188.5859" x="719.71" y="324.75"/><rect fill="#F1F1F1" height="10" style="stroke:#181818;stroke-width:0.5;" width="15" x="888.2959" y="329.75"/><rect fill="#F1F1F1" height="2" style="stroke:#181818;stroke-width:0.5;" width="4" x="886.2959" y="331.75"/><rect fill="#F1F1F1" height="2" style="stroke:#181818;stroke-width:0.5;" width="4" x="886.2959" y="335.75"/><text fill="#000000" font-family="sans-serif" font-size="14" font-style="italic" lengthAdjust="spacing" textLength="62.3232" x="777.8413" y="357.7451">&#171;library&#187;</text><text fill="#000000" font-family="sans-serif" font-size="14" font-weight="bold" lengthAdjust="spacing" textLength="140.335" x="738.8355" y="374.042">"Problem Details"</text><text fill="#000000" font-family="sans-serif" font-size="14" lengthAdjust="spacing" textLength="4.4502" x="806.7779" y="390.3389">&#160;</text><text fill="#000000" font-family="sans-serif" font-size="14" font-style="italic" lengthAdjust="spacing" textLength="114.3447" x="751.8306" y="406.6357">RFC 9457 based</text><text fill="#000000" font-family="sans-serif" font-size="14" font-style="italic" lengthAdjust="spacing" textLength="148.5859" x="734.71" y="422.9326">HTTP error reporting.</text></g><!--entity Cobbl3--><g class="entity" data-qualified-name="Protocols.Cobbl3" data-source-line="87" id="ent0038"><rect fill="#F1F1F1" height="111.4844" rx="2.5" ry="2.5" style="stroke:#181818;stroke-width:0.5;" width="241.0039" x="928.5" y="324.75"/><rect fill="#F1F1F1" height="10" style="stroke:#181818;stroke-width:0.5;" width="15" x="1149.5039" y="329.75"/><rect fill="#F1F1F1" height="2" style="stroke:#181818;stroke-width:0.5;" width="4" x="1147.5039" y="331.75"/><rect fill="#F1F1F1" height="2" style="stroke:#181818;stroke-width:0.5;" width="4" x="1147.5039" y="335.75"/><text fill="#000000" font-family="sans-serif" font-size="14" font-style="italic" lengthAdjust="spacing" textLength="62.3232" x="1012.8403" y="357.7451">&#171;library&#187;</text><text fill="#000000" font-family="sans-serif" font-size="14" font-weight="bold" lengthAdjust="spacing" textLength="69.0635" x="1009.4702" y="374.042">"Cobbl3"</text><text fill="#000000" font-family="sans-serif" font-size="14" lengthAdjust="spacing" textLength="4.4502" x="1041.7769" y="390.3389">&#160;</text><text fill="#000000" font-family="sans-serif" font-size="14" font-style="italic" lengthAdjust="spacing" textLength="201.0039" x="943.5" y="406.6357">A very simple HMAC-BLAKE3</text><text fill="#000000" font-family="sans-serif" font-size="14" font-style="italic" lengthAdjust="spacing" textLength="98.1299" x="994.937" y="422.9326">auth protocol.</text></g><!--entity Powdos--><g class="entity" data-qualified-name="Protocols.Powdos" data-source-line="94" id="ent0039"><rect fill="#F1F1F1" height="111.4844" rx="2.5" ry="2.5" style="stroke:#181818;stroke-width:0.5;" width="326.5283" x="1189.74" y="324.75"/><rect fill="#F1F1F1" height="10" style="stroke:#181818;stroke-width:0.5;" width="15" x="1496.2683" y="329.75"/><rect fill="#F1F1F1" height="2" style="stroke:#181818;stroke-width:0.5;" width="4" x="1494.2683" y="331.75"/><rect fill="#F1F1F1" height="2" style="stroke:#181818;stroke-width:0.5;" width="4" x="1494.2683" y="335.75"/><text fill="#000000" font-family="sans-serif" font-size="14" font-style="italic" lengthAdjust="spacing" textLength="62.3232" x="1316.8425" y="357.7451">&#171;library&#187;</text><text fill="#000000" font-family="sans-serif" font-size="14" font-weight="bold" lengthAdjust="spacing" textLength="75.373" x="1310.3176" y="374.042">"Powdos"</text><text fill="#000000" font-family="sans-serif" font-size="14" lengthAdjust="spacing" textLength="4.4502" x="1345.7791" y="390.3389">&#160;</text><text fill="#000000" font-family="sans-serif" font-size="14" font-style="italic" lengthAdjust="spacing" textLength="286.5283" x="1204.74" y="406.6357">Crypto-agnostic proof-of-work challenge.</text><text fill="#000000" font-family="sans-serif" font-size="14" font-style="italic" lengthAdjust="spacing" textLength="134.8594" x="1280.5745" y="422.9326">Issue, solve, verify.</text></g><!--entity FXAPI--><g class="entity" data-qualified-name="FX.FXAPI" data-source-line="104" id="ent0041"><ellipse cx="443" cy="380.49" fill="#F1F1F1" rx="8" ry="8" style="stroke:#181818;stroke-width:0.5;"/><text fill="#000000" font-family="sans-serif" font-size="14" font-weight="bold" lengthAdjust="spacing" textLength="47.3936" x="419.3032" y="410.4851">Query</text><text fill="#000000" font-family="sans-serif" font-size="14" font-style="italic" lengthAdjust="spacing" textLength="38.6367" x="423.6816" y="360.1882">&#171;api&#187;</text></g><!--entity Kraken--><g class="entity" data-qualified-name="FX.Kraken" data-source-line="105" id="ent0042"><rect fill="#F1F1F1" height="62.5938" rx="2.5" ry="2.5" style="stroke:#181818;stroke-width:0.5;" width="114.0713" x="549.96" y="349.19"/><rect fill="#F1F1F1" height="10" style="stroke:#181818;stroke-width:0.5;" width="15" x="644.0313" y="354.19"/><rect fill="#F1F1F1" height="2" style="stroke:#181818;stroke-width:0.5;" width="4" x="642.0313" y="356.19"/><rect fill="#F1F1F1" height="2" style="stroke:#181818;stroke-width:0.5;" width="4" x="642.0313" y="360.19"/><text fill="#000000" font-family="sans-serif" font-size="14" font-style="italic" lengthAdjust="spacing" textLength="72.0713" x="565.96" y="382.1851">&#171;adapter&#187;</text><text fill="#000000" font-family="sans-serif" font-size="14" font-weight="bold" lengthAdjust="spacing" textLength="55.9727" x="574.0093" y="398.482">Kraken</text></g><!--entity BLNSDK--><g class="entity" data-qualified-name="BLN.BLNSDK" data-source-line="111" id="ent0046"><rect fill="#F1F1F1" height="62.5938" rx="2.5" ry="2.5" style="stroke:#181818;stroke-width:0.5;" width="108.7354" x="585.63" y="832.35"/><rect fill="#F1F1F1" height="10" style="stroke:#181818;stroke-width:0.5;" width="15" x="674.3654" y="837.35"/><rect fill="#F1F1F1" height="2" style="stroke:#181818;stroke-width:0.5;" width="4" x="672.3654" y="839.35"/><rect fill="#F1F1F1" height="2" style="stroke:#181818;stroke-width:0.5;" width="4" x="672.3654" y="843.35"/><text fill="#000000" font-family="sans-serif" font-size="14" font-style="italic" lengthAdjust="spacing" textLength="62.3232" x="603.8361" y="865.3451">&#171;library&#187;</text><text fill="#000000" font-family="sans-serif" font-size="14" font-weight="bold" lengthAdjust="spacing" textLength="68.7354" x="600.63" y="881.642">BLN SDK</text></g><!--entity BLNConnector--><g class="entity" data-qualified-name="BLN.BLNConnector" data-source-line="113" id="ent0047"><ellipse cx="500" cy="863.64" fill="#F1F1F1" rx="8" ry="8" style="stroke:#181818;stroke-width:0.5;"/><text fill="#000000" font-family="sans-serif" font-size="14" font-weight="bold" lengthAdjust="spacing" textLength="117.0176" x="441.4912" y="893.6351">BLN Connector</text><text fill="#000000" font-family="sans-serif" font-size="14" font-style="italic" lengthAdjust="spacing" textLength="38.6367" x="480.6816" y="843.3382">&#171;api&#187;</text></g><!--entity LndAdapter--><g class="entity" data-qualified-name="BLN.LndAdapter" data-source-line="114" id="ent0048"><rect fill="#F1F1F1" height="62.5938" rx="2.5" ry="2.5" style="stroke:#181818;stroke-width:0.5;" width="123.1592" x="438.42" y="988.39"/><rect fill="#F1F1F1" height="10" style="stroke:#181818;stroke-width:0.5;" width="15" x="541.5792" y="993.39"/><rect fill="#F1F1F1" height="2" style="stroke:#181818;stroke-width:0.5;" width="4" x="539.5792" y="995.39"/><rect fill="#F1F1F1" height="2" style="stroke:#181818;stroke-width:0.5;" width="4" x="539.5792" y="999.39"/><text fill="#000000" font-family="sans-serif" font-size="14" font-style="italic" lengthAdjust="spacing" textLength="72.0713" x="458.9639" y="1021.3851">&#171;adapter&#187;</text><text fill="#000000" font-family="sans-serif" font-size="14" font-weight="bold" lengthAdjust="spacing" textLength="83.1592" x="453.42" y="1037.682">LND Client</text></g><!--entity CardanoConnector--><g class="entity" data-qualified-name="Cardano.CardanoConnector" data-source-line="120" id="ent0052"><ellipse cx="833" cy="863.64" fill="#F1F1F1" rx="8" ry="8" style="stroke:#181818;stroke-width:0.5;"/><text fill="#000000" font-family="sans-serif" font-size="14" font-weight="bold" lengthAdjust="spacing" textLength="151.3887" x="757.3057" y="893.6351">Cardano Connector</text><text fill="#000000" font-family="sans-serif" font-size="14" font-style="italic" lengthAdjust="spacing" textLength="38.6367" x="813.6816" y="843.3382">&#171;api&#187;</text></g><!--entity BlockfrostAdapter--><g class="entity" data-qualified-name="Cardano.BlockfrostAdapter" data-source-line="122" id="ent0053"><rect fill="#F1F1F1" height="62.5938" rx="2.5" ry="2.5" style="stroke:#181818;stroke-width:0.5;" width="120.3359" x="883.83" y="988.39"/><rect fill="#F1F1F1" height="10" style="stroke:#181818;stroke-width:0.5;" width="15" x="984.1659" y="993.39"/><rect fill="#F1F1F1" height="2" style="stroke:#181818;stroke-width:0.5;" width="4" x="982.1659" y="995.39"/><rect fill="#F1F1F1" height="2" style="stroke:#181818;stroke-width:0.5;" width="4" x="982.1659" y="999.39"/><text fill="#000000" font-family="sans-serif" font-size="14" font-style="italic" lengthAdjust="spacing" textLength="72.0713" x="902.9623" y="1021.3851">&#171;adapter&#187;</text><text fill="#000000" font-family="sans-serif" font-size="14" font-weight="bold" lengthAdjust="spacing" textLength="80.3359" x="898.83" y="1037.682">Blockfrost</text></g><!--entity UTxORPCAdapter--><g class="entity" data-qualified-name="Cardano.UTxORPCAdapter" data-source-line="123" id="ent0054"><rect fill="#F1F1F1" height="62.5938" rx="2.5" ry="2.5" style="stroke:#181818;stroke-width:0.5;" width="118.0391" x="1023.98" y="988.39"/><rect fill="#F1F1F1" height="10" style="stroke:#181818;stroke-width:0.5;" width="15" x="1122.0191" y="993.39"/><rect fill="#F1F1F1" height="2" style="stroke:#181818;stroke-width:0.5;" width="4" x="1120.0191" y="995.39"/><rect fill="#F1F1F1" height="2" style="stroke:#181818;stroke-width:0.5;" width="4" x="1120.0191" y="999.39"/><text fill="#000000" font-family="sans-serif" font-size="14" font-style="italic" lengthAdjust="spacing" textLength="72.0713" x="1041.9639" y="1021.3851">&#171;adapter&#187;</text><text fill="#000000" font-family="sans-serif" font-size="14" font-weight="bold" lengthAdjust="spacing" textLength="78.0391" x="1038.98" y="1037.682">UTxO RPC</text></g><!--entity KupoAdapter--><g class="entity" data-qualified-name="Cardano.KupoAdapter" data-source-line="124" id="ent0055"><rect fill="#F1F1F1" height="62.5938" rx="2.5" ry="2.5" style="stroke:#181818;stroke-width:0.5;" width="114.0713" x="749.96" y="988.39"/><rect fill="#F1F1F1" height="10" style="stroke:#181818;stroke-width:0.5;" width="15" x="844.0313" y="993.39"/><rect fill="#F1F1F1" height="2" style="stroke:#181818;stroke-width:0.5;" width="4" x="842.0313" y="995.39"/><rect fill="#F1F1F1" height="2" style="stroke:#181818;stroke-width:0.5;" width="4" x="842.0313" y="999.39"/><text fill="#000000" font-family="sans-serif" font-size="14" font-style="italic" lengthAdjust="spacing" textLength="72.0713" x="765.96" y="1021.3851">&#171;adapter&#187;</text><text fill="#000000" font-family="sans-serif" font-size="14" font-weight="bold" lengthAdjust="spacing" textLength="40.4551" x="781.7681" y="1037.682">Kupo</text></g><!--entity CardanoSDK--><g class="entity" data-qualified-name="Cardano.CardanoSDK" data-source-line="130" id="ent0062"><rect fill="#F1F1F1" height="62.5938" rx="2.5" ry="2.5" style="stroke:#181818;stroke-width:0.5;" width="143.1064" x="936.45" y="832.35"/><rect fill="#F1F1F1" height="10" style="stroke:#181818;stroke-width:0.5;" width="15" x="1059.5564" y="837.35"/><rect fill="#F1F1F1" height="2" style="stroke:#181818;stroke-width:0.5;" width="4" x="1057.5564" y="839.35"/><rect fill="#F1F1F1" height="2" style="stroke:#181818;stroke-width:0.5;" width="4" x="1057.5564" y="843.35"/><text fill="#000000" font-family="sans-serif" font-size="14" font-style="italic" lengthAdjust="spacing" textLength="62.3232" x="971.8416" y="865.3451">&#171;library&#187;</text><text fill="#000000" font-family="sans-serif" font-size="14" font-weight="bold" lengthAdjust="spacing" textLength="103.1064" x="951.45" y="881.642">Cardano SDK</text></g><!--entity TxSubmission--><g class="entity" data-qualified-name="Cardano.TxSubmission" data-source-line="134" id="ent0063"><rect fill="#F1F1F1" height="111.4844" rx="2.5" ry="2.5" style="stroke:#181818;stroke-width:0.5;" width="164.5645" x="1099.72" y="807.9"/><rect fill="#F1F1F1" height="10" style="stroke:#181818;stroke-width:0.5;" width="15" x="1244.2845" y="812.9"/><rect fill="#F1F1F1" height="2" style="stroke:#181818;stroke-width:0.5;" width="4" x="1242.2845" y="814.9"/><rect fill="#F1F1F1" height="2" style="stroke:#181818;stroke-width:0.5;" width="4" x="1242.2845" y="818.9"/><text fill="#000000" font-family="sans-serif" font-size="14" font-style="italic" lengthAdjust="spacing" textLength="67.4297" x="1143.2874" y="840.8951">&#171;service&#187;</text><text fill="#000000" font-family="sans-serif" font-size="14" font-weight="bold" lengthAdjust="spacing" textLength="113.9619" x="1120.0213" y="857.192">Tx Submission</text><text fill="#000000" font-family="sans-serif" font-size="14" lengthAdjust="spacing" textLength="4.4502" x="1174.7771" y="873.4889">&#160;</text><text fill="#000000" font-family="sans-serif" font-size="14" font-style="italic" lengthAdjust="spacing" textLength="81.9561" x="1136.0242" y="889.7857">With retries</text><text fill="#000000" font-family="sans-serif" font-size="14" font-style="italic" lengthAdjust="spacing" textLength="124.5645" x="1114.72" y="906.0826">&amp; status tracking.</text></g><!--link Server to DB--><g class="link" data-entity-1="ent0005" data-entity-2="ent0003" data-link-type="dependency" data-source-line="28" id="lnk6"><path d="M325.29,183.45 C326.4325,198.6725 327.9038,218.275 329.4727,239.1798 C330.2571,249.6323 331.066,260.4103 331.8704,271.1292 C332.2726,276.4886 332.6736,281.8333 333.07,287.1151 C333.1691,288.4355 332.8189,283.7689 332.9173,285.0807" fill="none" id="Server-to-DB" style="stroke:#808080;stroke-width:1;"/><polygon fill="#808080" points="333.3663,291.0639,336.6816,281.7898,332.9922,286.0779,328.7041,282.3884,333.3663,291.0639" style="stroke:#808080;stroke-width:1;"/></g><!--reverse link Client to CLI--><g class="link" data-entity-1="ent0008" data-entity-2="ent0009" data-link-type="dependency" data-source-line="40" id="lnk12"><path d="M132.0292,545.7544 C122.3892,584.7244 107.21,646.05 97.56,685.07" fill="none" id="Client-backto-CLI" style="stroke:#808080;stroke-width:1;"/><polygon fill="#808080" points="133.47,539.93,127.4259,547.7061,132.2693,544.7837,135.1918,549.6272,133.47,539.93" style="stroke:#808080;stroke-width:1;"/></g><!--reverse link Client to WASM--><g class="link" data-entity-1="ent0008" data-entity-2="ent0010" data-link-type="dependency" data-source-line="41" id="lnk14"><path d="M136.7093,546.1991 C133.9393,579.2791 133.85,626.79 152,668.31 C156.16,677.81 163.88,675.79 168,685.31 C188.77,733.29 186.86,795.48 183.2,832.02" fill="none" id="Client-backto-WASM" style="stroke:#808080;stroke-width:1;"/><polygon fill="#808080" points="137.21,540.22,132.473,548.8548,136.7928,545.2026,140.4451,549.5224,137.21,540.22" style="stroke:#808080;stroke-width:1;"/></g><!--reverse link HTTP to Client--><g class="link" data-entity-1="ent0007" data-entity-2="ent0008" data-link-type="dependency" data-source-line="42" id="lnk16"><path d="M211.7224,243.4469 C207.5824,252.3169 203.46,261.84 199,275.19 C192.6,294.37 162.45,418.52 148.33,477.06" fill="none" id="HTTP-backto-Client" style="stroke:#808080;stroke-width:1;"/><polygon fill="#808080" points="214.26,238.01,206.8289,244.4736,212.1453,242.5408,214.0782,247.8572,214.26,238.01" style="stroke:#808080;stroke-width:1;"/></g><!--link Server to HTTP--><g class="link" data-entity-1="ent0005" data-entity-2="ent0007" data-link-type="association" data-source-line="43" id="lnk17"><path d="M280.29,183.52 C260.53,197.69 238.86,213.23 227,221.74" fill="none" id="Server-HTTP" style="stroke:#808080;stroke-width:1;"/></g><!--link Kernel to PlutusBinaries--><g class="link" data-entity-1="ent0018" data-entity-2="ent0019" data-link-type="association" data-source-line="49" id="lnk21"><path d="M209.42,103.97 C200.8,118.2 191.26,133.96 185.71,143.12" fill="none" id="Kernel-PlutusBinaries" style="stroke:#808080;stroke-width:1;"/></g><!--reverse link PlutusBinaries to TxBuilder--><g class="link" data-entity-1="ent0019" data-entity-2="ent0022" data-link-type="dependency" data-source-line="55" id="lnk24"><path d="M175.1892,166.1887 C162.3092,195.6887 118.52,295.9 95.39,348.84" fill="none" id="PlutusBinaries-backto-TxBuilder" style="stroke:#808080;stroke-width:1;"/><polygon fill="#808080" points="177.59,160.69,170.323,167.3376,175.5893,165.2723,177.6546,170.5386,177.59,160.69" style="stroke:#808080;stroke-width:1;"/></g><!--link CLData to Codecs--><g class="link" data-entity-1="ent0025" data-entity-2="ent0026" data-link-type="association" data-source-line="63" id="lnk28"><path d="M67.68,103.97 C64.74,118.2 61.49,133.96 59.6,143.12" fill="none" id="CLData-Codecs" style="stroke:#808080;stroke-width:1;"/></g><!--reverse link Codecs to TxBuilder--><g class="link" data-entity-1="ent0026" data-entity-2="ent0022" data-link-type="dependency" data-source-line="65" id="lnk30"><path d="M59.4611,166.6567 C62.5811,196.1567 73.15,295.9 78.75,348.84" fill="none" id="Codecs-backto-TxBuilder" style="stroke:#808080;stroke-width:1;"/><polygon fill="#808080" points="58.83,160.69,55.7988,170.0608,59.3559,165.6623,63.7544,169.2194,58.83,160.69" style="stroke:#808080;stroke-width:1;"/></g><!--reverse link TxBuilder to Admin--><g class="link" data-entity-1="ent0022" data-entity-2="ent0031" data-link-type="dependency" data-source-line="74" id="lnk33"><path d="M135.0087,415.5445 C159.0887,432.5745 182.48,451.96 203,477.23 C222.14,500.8 237.73,530.74 249.05,556.37" fill="none" id="TxBuilder-backto-Admin" style="stroke:#808080;stroke-width:1;"/><polygon fill="#808080" points="130.11,412.08,135.1484,420.5425,134.1923,414.9671,139.7677,414.0109,130.11,412.08" style="stroke:#808080;stroke-width:1;"/></g><!--reverse link DB to Admin--><g class="link" data-entity-1="ent0003" data-entity-2="ent0031" data-link-type="dependency" data-source-line="76" id="lnk35"><path d="M333.0789,441.8991 C332.8902,442.9925 333.411,439.8088 333.2114,440.903 C332.8124,443.0913 332.3914,445.2782 331.9475,447.4514 C331.0597,451.798 330.08,456.09 329,460.23 C320.46,492.97 306.96,528.27 295.03,556.54" fill="none" id="DB-backto-Admin" style="stroke:#808080;stroke-width:1;"/><polygon fill="#808080" points="334.0728,435.982,328.6372,444.1951,333.2445,440.9129,336.5267,445.5203,334.0728,435.982" style="stroke:#808080;stroke-width:1;"/></g><!--reverse link FXAPI to Kraken--><g class="link" data-entity-1="ent0041" data-entity-2="ent0042" data-link-type="extension" data-source-line="106" id="lnk44"><path d="M470.29,380.49 C488.85,380.49 513.86,380.49 549.82,380.49" fill="none" id="FXAPI-backto-Kraken" style="stroke:#808080;stroke-width:1;stroke-dasharray:7,7;"/><polygon fill="none" points="452.29,380.49,470.29,386.49,470.29,374.49,452.29,380.49" style="stroke:#808080;stroke-width:1;"/><text fill="#000000" font-family="sans-serif" font-size="13" lengthAdjust="spacing" textLength="76.9082" x="462.98" y="373.5569">implements</text></g><!--reverse link BLNConnector to LndAdapter--><g class="link" data-entity-1="ent0047" data-entity-2="ent0048" data-link-type="extension" data-source-line="115" id="lnk50"><path d="M500,890.49 C500,911.46 500,951.65 500,987.97" fill="none" id="BLNConnector-backto-LndAdapter" style="stroke:#808080;stroke-width:1;stroke-dasharray:7,7;"/><polygon fill="none" points="500,872.49,494,890.49,506,890.49,500,872.49" style="stroke:#808080;stroke-width:1;"/><text fill="#000000" font-family="sans-serif" font-size="13" lengthAdjust="spacing" textLength="76.9082" x="501" y="958.4569">implements</text></g><!--reverse link CardanoConnector to BlockfrostAdapter--><g class="link" data-entity-1="ent0052" data-entity-2="ent0053" data-link-type="extension" data-source-line="126" id="lnk57"><path d="M852.789,885.2996 C866.009,899.1696 881.82,916.75 902,945.39 C911.46,958.81 920.68,974.52 928.06,987.95" fill="none" id="CardanoConnector-backto-BlockfrostAdapter" style="stroke:#808080;stroke-width:1;stroke-dasharray:7,7;"/><polygon fill="none" points="840.37,872.27,848.4458,889.4392,857.1321,881.1599,840.37,872.27" style="stroke:#808080;stroke-width:1;"/><text fill="#000000" font-family="sans-serif" font-size="13" lengthAdjust="spacing" textLength="76.9082" x="913.78" y="958.4569">implements</text></g><!--reverse link CardanoConnector to UTxORPCAdapter--><g class="link" data-entity-1="ent0052" data-entity-2="ent0054" data-link-type="extension" data-source-line="127" id="lnk59"><path d="M856.9793,880.5455 C873.2293,891.2555 893.85,904.1 926,919.39 C955.97,933.64 967.33,928.67 996,945.39 C1016.13,957.13 1036.19,973.62 1051.96,987.98" fill="none" id="CardanoConnector-backto-UTxORPCAdapter" style="stroke:#808080;stroke-width:1;stroke-dasharray:7,7;"/><polygon fill="none" points="841.95,870.64,853.6775,885.5553,860.2812,875.5357,841.95,870.64" style="stroke:#808080;stroke-width:1;"/><text fill="#000000" font-family="sans-serif" font-size="13" lengthAdjust="spacing" textLength="76.9082" x="1021.85" y="958.4569">implements</text></g><!--reverse link CardanoConnector to KupoAdapter--><g class="link" data-entity-1="ent0052" data-entity-2="ent0055" data-link-type="extension" data-source-line="128" id="lnk61"><path d="M828.682,890.2403 C825.152,911.2103 818.32,951.65 812.18,987.97" fill="none" id="CardanoConnector-backto-KupoAdapter" style="stroke:#808080;stroke-width:1;stroke-dasharray:7,7;"/><polygon fill="none" points="831.67,872.49,822.7652,889.2443,834.5988,891.2363,831.67,872.49" style="stroke:#808080;stroke-width:1;"/><text fill="#000000" font-family="sans-serif" font-size="13" lengthAdjust="spacing" textLength="76.9082" x="820.25" y="958.4569">implements</text></g><!--link Admin to CardanoConnector--><g class="link" data-entity-1="ent0031" data-entity-2="ent0052" data-link-type="dependency" data-source-line="145" id="lnk64"><path d="M377.97,638.14 C469.7,661.94 602.7,703.5 707,764.9 C754.72,792.99 800.3408,832.8135 819.9608,850.6535" fill="none" id="Admin-to-CardanoConnector" style="stroke:#808080;stroke-width:1;"/><polygon fill="#808080" points="824.4,854.69,820.4321,845.6758,820.7006,851.3263,815.0502,851.5948,824.4,854.69" style="stroke:#808080;stroke-width:1;"/></g><!--link Admin to TxSubmission--><g class="link" data-entity-1="ent0031" data-entity-2="ent0063" data-link-type="dependency" data-source-line="146" id="lnk65"><path d="M377.89,625.04 C571.38,646.99 968.53,698.69 1090,764.9 C1109.34,775.44 1122.9118,787.0642 1137.4218,803.1542" fill="none" id="Admin-to-TxSubmission" style="stroke:#808080;stroke-width:1;"/><polygon fill="#808080" points="1141.44,807.61,1138.3832,798.2475,1138.0915,803.8969,1132.4422,803.6052,1141.44,807.61" style="stroke:#808080;stroke-width:1;"/></g><!--link Admin to BLNConnector--><g class="link" data-entity-1="ent0031" data-entity-2="ent0047" data-link-type="dependency" data-source-line="148" id="lnk66"><path d="M320.76,668.54 C378.17,730.71 462.9691,822.5423 488.7191,850.4223" fill="none" id="Admin-to-BLNConnector" style="stroke:#808080;stroke-width:1;"/><polygon fill="#808080" points="492.79,854.83,489.6221,845.5045,489.3976,851.1569,483.7452,850.9324,492.79,854.83" style="stroke:#808080;stroke-width:1;"/></g><!--link Admin to BLNSDK--><g class="link" data-entity-1="ent0031" data-entity-2="ent0046" data-link-type="dependency" data-source-line="149" id="lnk67"><path d="M377.87,650.47 C440.63,675.72 518.45,713.9 576,764.9 C597.25,783.74 611.5835,805.9021 622.7635,826.9321" fill="none" id="Admin-to-BLNSDK" style="stroke:#808080;stroke-width:1;"/><polygon fill="#808080" points="625.58,832.23,624.8872,822.4055,623.2329,827.8151,617.8234,826.1608,625.58,832.23" style="stroke:#808080;stroke-width:1;"/></g><!--link Server to ProblemDetails--><g class="link" data-entity-1="ent0005" data-entity-2="ent0037" data-link-type="dependency" data-source-line="151" id="lnk68"><path d="M377.99,166.06 C449.57,184.48 577.26,221.78 677,275.19 C702.43,288.81 723.4243,303.283 745.6143,320.643" fill="none" id="Server-to-ProblemDetails" style="stroke:#808080;stroke-width:1;"/><polygon fill="#808080" points="750.34,324.34,745.7162,315.644,746.402,321.2591,740.7868,321.9449,750.34,324.34" style="stroke:#808080;stroke-width:1;"/></g><!--link Server to Cobbl3--><g class="link" data-entity-1="ent0005" data-entity-2="ent0038" data-link-type="dependency" data-source-line="152" id="lnk69"><path d="M377.91,155.35 C486.31,162.06 733.27,186.65 918,275.19 C944.22,287.76 965.3382,302.5699 986.9482,320.6499" fill="none" id="Server-to-Cobbl3" style="stroke:#808080;stroke-width:1;"/><polygon fill="#808080" points="991.55,324.5,987.214,315.657,987.7152,321.2916,982.0805,321.7927,991.55,324.5" style="stroke:#808080;stroke-width:1;"/></g><!--link Server to Powdos--><g class="link" data-entity-1="ent0005" data-entity-2="ent0039" data-link-type="dependency" data-source-line="153" id="lnk70"><path d="M378.04,152.28 C517.35,152.48 893.22,164.14 1180,275.19 C1212.54,287.79 1240.8387,303.1593 1269.4887,321.1493" fill="none" id="Server-to-Powdos" style="stroke:#808080;stroke-width:1;"/><polygon fill="#808080" points="1274.57,324.34,1269.0752,316.1665,1270.3356,321.6811,1264.8209,322.9415,1274.57,324.34" style="stroke:#808080;stroke-width:1;"/></g><!--link Server to FXAPI--><g class="link" data-entity-1="ent0005" data-entity-2="ent0041" data-link-type="dependency" data-source-line="154" id="lnk71"><path d="M339.18,183.45 C367.08,236.12 419.9418,335.9477 435.8518,365.9877" fill="none" id="Server-to-FXAPI" style="stroke:#808080;stroke-width:1;"/><polygon fill="#808080" points="438.66,371.29,437.9825,361.4645,436.3198,366.8715,430.9128,365.2088,438.66,371.29" style="stroke:#808080;stroke-width:1;"/></g><?plantuml-src ZLPjRzis4FwkNt78XnKefgHfDnGR30Esl2o1tSohFRJ0i0-qHDk4AL8ZfJhUsl--uuibKdA61859tWllUOx7e_I1YOeeKa8koqeAAkfLVU8KcfA_JNIhrNjIo2CJEzWIhccW4RAWcbRmzaqWL4GSZF3sJP8a8srs72Tj1FWt0Voxbuhz8qLD-8IpdIYD9iSVgb1vyngEKXqqC04b4IV8YQOQNjyatnAYb3pwJHPCq4nogM2doAaLhVSiFmYgDToYGpAwyHYIYkG7igDmzIkfwP6Su17nNm7Ha2tCr6zRa9fiC2BCfaQ7lquENPuWsnCXA7yGMmcZaQAvLCLu37zwGu3HPknjlEWlEoAUUACLLL-Gz6YaSS9osj_4wPDk1--G5cawHcnkFsOojoKvSaEV-_LwQMcPIIzUnfaPHYFEDegeKn3FGBRQ85hWk7X0Br9LdEMaPbBqF57zFzwV9giFpmLroe6psJ5j3Cj0PKsDD1PxLjQy9TrboYMY1sbE5PwEoNn9L9tcM8sAv7MCpHjX8KxOWOe0Nfpo9M_gHiEK2Q8OrJRxJdOMMQTOPF1w67rmwwTfmtXXAsEOD0jj_GJUngEoG-VeSjS3CJZK6HRxizMm0ACEjuzPPtXfSaVMJPsHcrjsBi1bQA5B1sbIb9ZjI_S10rfbSbwpyU8MIYbOZTr4x28nPtyth63roNGGlFHbLrnsS64Sa1ROK8KNx5lNE9PArZANNDlZRHUcFNG4KBxXj9pHcZ1K3dEBFAwy4NYhAnSPeN-yo-2d7tvy3wO35MUfgL-WsFeKA5f9LIFTwyIJ2OvJRZRytJCXdRABD06y7IVGhAomvzz_c6JfT36P__BkR42QUW-LPtaXsb8U2_aiGQliecNgLDKo9JiXTSroiw_SflXlEZtaUy8v5JjwVRP_qBgXtuEM_0iEY9HjJnv3S22c2Ey-Zsume3cIky_sBE8Y_Rr1ce79PEaQ6HkF8ph6Tgu8tlBMs2sDTK4gtDDwU67Aq-lhhsEtuSzWisYAJ1jyQDP2d2uUxMOu-eSaZcdagzcy3OfhN8PflNJrZ5ScyNt9iVX3trOOaEo7N3pEVCjiFHUYc3YIFReGgl1IMD9Xd8XxOf-uC_UCg888QVk3dmxFvwmPil6Q8QF1kKsvp0zRXQNbqj0kBtEAdVzOF_q67vUPTJKBdB_4RzvKqfK9JYuveCSGoJc5VN9H6g6FuuLU8P8NkSJjmrdsgg-xrEUJyjKwx0ZhfrMpAPdM-7bmeOMxHwipQPl39uQTHj6wVITHzXtecfWtrRpAXxRVcSlroZzRxXkeGvsy2fwOlivtzL3SfYHIXYIII1DMVLzXGYJHjrdy3iGwrujxzhPZnZBRN9B_0000?></g></svg>