<?plantuml 1.2026.2?><svg xmlns="http://www.w3.org/2000/svg" xmlns:xlink="http://www.w3.org/1999/xlink" contentStyleType="text/css" data-diagram-type="DESCRIPTION" height="1333px" preserveAspectRatio="none" style="width:1767px;height:1333px;background:#FFFFFF;" version="1.1" viewBox="0 0 1767 1333" width="1767px" zoomAndPan="magnify"><defs/><g><!--cluster CLNode--><g class="cluster" data-qualified-name="CLNode" data-source-line="17" id="ent0002"><path d="M8.5,6 L123.8584,6 A3.75,3.75 0 0 1 126.3584,8.5 L133.3584,28.2969 L619.5,28.2969 A2.5,2.5 0 0 1 622,30.7969 L622,1168.89 A2.5,2.5 0 0 1 619.5,1171.39 L8.5,1171.39 A2.5,2.5 0 0 1 6,1168.89 L6,8.5 A2.5,2.5 0 0 1 8.5,6" fill="none" style="stroke:#000000;stroke-width:1.5;"/><line style="stroke:#000000;stroke-width:1.5;" x1="6" x2="133.3584" y1="28.2969" y2="28.2969"/><text fill="#000000" font-family="sans-serif" font-size="14" font-weight="bold" lengthAdjust="spacing" textLength="114.3584" x="10" y="20.9951">Gateway Node</text></g><!--cluster DB--><g class="cluster" data-qualified-name="CLNode.DB" data-source-line="18" id="ent0003"><path d="M291,415.26 C291,405.26 416,405.26 416,405.26 C416,405.26 541,405.26 541,415.26 L541,588.75 C541,598.75 416,598.75 416,598.75 C416,598.75 291,598.75 291,588.75 L291,415.26" fill="none" style="stroke:#181818;stroke-width:1;"/><path d="M291,415.26 C291,425.26 416,425.26 416,425.26 C416,425.26 541,425.26 541,415.26" fill="none" style="stroke:#181818;stroke-width:1;"/><text fill="#000000" font-family="sans-serif" font-size="14" font-weight="bold" lengthAdjust="spacing" textLength="22.292" x="404.854" y="440.2551">DB</text></g><!--cluster Protocols--><g class="cluster" data-qualified-name="Protocols" data-source-line="104" id="ent0036"><path d="M934.5,428.26 L1009.6426,428.26 A3.75,3.75 0 0 1 1012.1426,430.76 L1019.1426,450.5569 L1757.5,450.5569 A2.5,2.5 0 0 1 1760,453.0569 L1760,588.25 A2.5,2.5 0 0 1 1757.5,590.75 L934.5,590.75 A2.5,2.5 0 0 1 932,588.25 L932,430.76 A2.5,2.5 0 0 1 934.5,428.26" fill="none" style="stroke:#000000;stroke-width:1.5;"/><line style="stroke:#000000;stroke-width:1.5;" x1="932" x2="1019.1426" y1="450.5569" y2="450.5569"/><text fill="#000000" font-family="sans-serif" font-size="14" font-weight="bold" lengthAdjust="spacing" textLength="74.1426" x="936" y="443.2551">Protocols</text></g><!--cluster FX--><g class="cluster" data-qualified-name="FX" data-source-line="128" id="ent0040"><path d="M648.5,452.71 L669.8574,452.71 A3.75,3.75 0 0 1 672.3574,455.21 L679.3574,475.0069 L905.5,475.0069 A2.5,2.5 0 0 1 908,477.5069 L908,563.8 A2.5,2.5 0 0 1 905.5,566.3 L648.5,566.3 A2.5,2.5 0 0 1 646,563.8 L646,455.21 A2.5,2.5 0 0 1 648.5,452.71" fill="none" style="stroke:#000000;stroke-width:1.5;"/><line style="stroke:#000000;stroke-width:1.5;" x1="646" x2="679.3574" y1="475.0069" y2="475.0069"/><text fill="#000000" font-family="sans-serif" font-size="14" font-weight="bold" lengthAdjust="spacing" textLength="20.3574" x="650" y="467.7051">FX</text></g><!--cluster BLN--><g class="cluster" data-qualified-name="BLN" data-source-line="135" id="ent0045"><path d="M648.5,1017.05 L680.8086,1017.05 A3.75,3.75 0 0 1 683.3086,1019.55 L690.3086,1039.3469 L1045.5,1039.3469 A2.5,2.5 0 0 1 1048,1041.8469 L1048,1324.48 A2.5,2.5 0 0 1 1045.5,1326.98 L648.5,1326.98 A2.5,2.5 0 0 1 646,1324.48 L646,1019.55 A2.5,2.5 0 0 1 648.5,1017.05" fill="none" style="stroke:#000000;stroke-width:1.5;"/><line style="stroke:#000000;stroke-width:1.5;" x1="646" x2="690.3086" y1="1039.3469" y2="1039.3469"/><text fill="#000000" font-family="sans-serif" font-size="14" font-weight="bold" lengthAdjust="spacing" textLength="31.3086" x="650" y="1032.0451">BLN</text></g><!--cluster Cardano--><g class="cluster" data-qualified-name="Cardano" data-source-line="148" id="ent0051"><path d="M1074.5,1008.9 L1141.1797,1008.9 A3.75,3.75 0 0 1 1143.6797,1011.4 L1150.6797,1031.1969 L1615.5,1031.1969 A2.5,2.5 0 0 1 1618,1033.6969 L1618,1324.48 A2.5,2.5 0 0 1 1615.5,1326.98 L1074.5,1326.98 A2.5,2.5 0 0 1 1072,1324.48 L1072,1011.4 A2.5,2.5 0 0 1 1074.5,1008.9" fill="none" style="stroke:#000000;stroke-width:1.5;"/><line style="stroke:#000000;stroke-width:1.5;" x1="1072" x2="1150.6797" y1="1031.1969" y2="1031.1969"/><text fill="#000000" font-family="sans-serif" font-size="14" font-weight="bold" lengthAdjust="spacing" textLength="65.6797" x="1076" y="1023.8951">Cardano</text></g><!--entity Server--><g class="entity" data-qualified-name="CLNode.Server" data-source-line="27" id="ent0005"><rect fill="#F1F1F1" height="111.4844" rx="2.5" ry="2.5" style="stroke:#181818;stroke-width:0.5;" width="330.5068" x="275.75" y="185.78"/><rect fill="#F1F1F1" height="10" style="stroke:#181818;stroke-width:0.5;" width="15" x="586.2568" y="190.78"/><rect fill="#F1F1F1" height="2" style="stroke:#181818;stroke-width:0.5;" width="4" x="584.2568" y="192.78"/><rect fill="#F1F1F1" height="2" style="stroke:#181818;stroke-width:0.5;" width="4" x="584.2568" y="196.78"/><text fill="#000000" font-family="sans-serif" font-size="14" font-style="italic" lengthAdjust="spacing" textLength="67.4297" x="402.2886" y="218.7751">&#171;service&#187;</text><text fill="#000000" font-family="sans-serif" font-size="14" font-weight="bold" lengthAdjust="spacing" textLength="52.0078" x="409.9995" y="235.072">Server</text><text fill="#000000" font-family="sans-serif" font-size="14" lengthAdjust="spacing" textLength="4.4502" x="433.7783" y="251.3689">&#160;</text><text fill="#000000" font-family="sans-serif" font-size="14" font-style="italic" lengthAdjust="spacing" textLength="243.3184" x="314.3442" y="267.6657">Exposes an API for L2 interactions:</text><text fill="#000000" font-family="sans-serif" font-size="14" font-style="italic" lengthAdjust="spacing" textLength="290.5068" x="290.75" y="283.9626">payment routing, quoting and processing</text></g><!--entity HTTP--><g class="entity" data-qualified-name="CLNode.HTTP" data-source-line="35" id="ent0007"><ellipse cx="305" cy="343.26" fill="#F1F1F1" rx="8" ry="8" style="stroke:#181818;stroke-width:0.5;"/><text fill="#000000" font-family="sans-serif" font-size="14" font-weight="bold" lengthAdjust="spacing" textLength="41.0771" x="284.4614" y="373.2551">HTTP</text></g><!--entity Client--><g class="entity" data-qualified-name="CLNode.Client" data-source-line="36" id="ent0008"><rect fill="#F1F1F1" height="95.1875" rx="2.5" ry="2.5" style="stroke:#181818;stroke-width:0.5;" width="216.7842" x="157.61" y="631.75"/><rect fill="#F1F1F1" height="10" style="stroke:#181818;stroke-width:0.5;" width="15" x="354.3942" y="636.75"/><rect fill="#F1F1F1" height="2" style="stroke:#181818;stroke-width:0.5;" width="4" x="352.3942" y="638.75"/><rect fill="#F1F1F1" height="2" style="stroke:#181818;stroke-width:0.5;" width="4" x="352.3942" y="642.75"/><text fill="#000000" font-family="sans-serif" font-size="14" font-style="italic" lengthAdjust="spacing" textLength="62.3232" x="229.8405" y="664.7451">&#171;library&#187;</text><text fill="#000000" font-family="sans-serif" font-size="14" font-weight="bold" lengthAdjust="spacing" textLength="46.0264" x="237.9889" y="681.042">Client</text><text fill="#000000" font-family="sans-serif" font-size="14" lengthAdjust="spacing" textLength="4.4502" x="258.777" y="697.3389">&#160;</text><text fill="#000000" font-family="sans-serif" font-size="14" font-style="italic" lengthAdjust="spacing" textLength="176.7842" x="172.61" y="713.6357">Gateway Node API client.</text></g><!--entity CLI--><g class="entity" data-qualified-name="CLNode.CLI" data-source-line="42" id="ent0009"><rect fill="#F1F1F1" height="111.4844" rx="2.5" ry="2.5" style="stroke:#181818;stroke-width:0.5;" width="172.6309" x="92.68" y="872.42"/><rect fill="#F1F1F1" height="10" style="stroke:#181818;stroke-width:0.5;" width="15" x="245.3109" y="877.42"/><rect fill="#F1F1F1" height="2" style="stroke:#181818;stroke-width:0.5;" width="4" x="243.3109" y="879.42"/><rect fill="#F1F1F1" height="2" style="stroke:#181818;stroke-width:0.5;" width="4" x="243.3109" y="883.42"/><text fill="#000000" font-family="sans-serif" font-size="14" font-style="italic" lengthAdjust="spacing" textLength="94.5068" x="126.742" y="905.4151">&#171;application&#187;</text><text fill="#000000" font-family="sans-serif" font-size="14" font-weight="bold" lengthAdjust="spacing" textLength="24.4043" x="161.7933" y="921.712">CLI</text><text fill="#000000" font-family="sans-serif" font-size="14" lengthAdjust="spacing" textLength="4.4502" x="171.7703" y="938.0089">&#160;</text><text fill="#000000" font-family="sans-serif" font-size="14" font-style="italic" lengthAdjust="spacing" textLength="132.6309" x="107.68" y="954.3057">Command line tool</text><text fill="#000000" font-family="sans-serif" font-size="14" font-style="italic" lengthAdjust="spacing" textLength="118.7129" x="114.639" y="970.6026">for the Node API.</text></g><!--entity WASM--><g class="entity" data-qualified-name="CLNode.WASM" data-source-line="49" id="ent0010"><rect fill="#F1F1F1" height="111.4844" rx="2.5" ry="2.5" style="stroke:#181818;stroke-width:0.5;" width="189.7686" x="191.12" y="1043.9"/><rect fill="#F1F1F1" height="10" style="stroke:#181818;stroke-width:0.5;" width="15" x="360.8886" y="1048.9"/><rect fill="#F1F1F1" height="2" style="stroke:#181818;stroke-width:0.5;" width="4" x="358.8886" y="1050.9"/><rect fill="#F1F1F1" height="2" style="stroke:#181818;stroke-width:0.5;" width="4" x="358.8886" y="1054.9"/><text fill="#000000" font-family="sans-serif" font-size="14" font-style="italic" lengthAdjust="spacing" textLength="62.3232" x="249.8427" y="1076.8951">&#171;library&#187;</text><text fill="#000000" font-family="sans-serif" font-size="14" font-weight="bold" lengthAdjust="spacing" textLength="101.1924" x="230.4081" y="1093.192">WASM Client</text><text fill="#000000" font-family="sans-serif" font-size="14" lengthAdjust="spacing" textLength="4.4502" x="278.7792" y="1109.4889">&#160;</text><text fill="#000000" font-family="sans-serif" font-size="14" font-style="italic" lengthAdjust="spacing" textLength="106.0391" x="227.9847" y="1125.7857">Node API client</text><text fill="#000000" font-family="sans-serif" font-size="14" font-style="italic" lengthAdjust="spacing" textLength="149.7686" x="206.12" y="1142.0826">for JS through WASM.</text></g><!--entity Kernel--><g class="entity" data-qualified-name="CLNode.Kernel" data-source-line="60" id="ent0018"><rect fill="#F1F1F1" height="111.4844" rx="2.5" ry="2.5" style="stroke:#181818;stroke-width:0.5;" width="297.7422" x="308.13" y="49.14"/><rect fill="#F1F1F1" height="10" style="stroke:#181818;stroke-width:0.5;" width="15" x="585.8722" y="54.14"/><rect fill="#F1F1F1" height="2" style="stroke:#181818;stroke-width:0.5;" width="4" x="583.8722" y="56.14"/><rect fill="#F1F1F1" height="2" style="stroke:#181818;stroke-width:0.5;" width="4" x="583.8722" y="60.14"/><text fill="#000000" font-family="sans-serif" font-size="14" font-style="italic" lengthAdjust="spacing" textLength="121.2354" x="391.3834" y="82.1351">&#171;smart-contract&#187;</text><text fill="#000000" font-family="sans-serif" font-size="14" font-weight="bold" lengthAdjust="spacing" textLength="120.4287" x="391.7867" y="98.432">Kernel in Aiken</text><text fill="#000000" font-family="sans-serif" font-size="14" lengthAdjust="spacing" textLength="4.4502" x="449.776" y="114.7289">&#160;</text><text fill="#000000" font-family="sans-serif" font-size="14" font-style="italic" lengthAdjust="spacing" textLength="183.2031" x="360.3995" y="131.0257">Implements CL validators.</text><text fill="#000000" font-family="sans-serif" font-size="14" font-style="italic" lengthAdjust="spacing" textLength="257.7422" x="323.13" y="147.3226">Specifies smart contract surface API.</text></g><!--entity PlutusBinaries--><g class="entity" data-qualified-name="CLNode.PlutusBinaries" data-source-line="66" id="ent0019"><ellipse cx="189" cy="241.52" fill="#F1F1F1" rx="8" ry="8" style="stroke:#181818;stroke-width:0.5;"/><text fill="#000000" font-family="sans-serif" font-size="14" font-weight="bold" lengthAdjust="spacing" textLength="119.3076" x="129.3462" y="271.5151">Plutus Binaries</text></g><!--entity TxBuilder--><g class="entity" data-qualified-name="CLNode.TxBuilder" data-source-line="69" id="ent0022"><rect fill="#F1F1F1" height="111.4844" rx="2.5" ry="2.5" style="stroke:#181818;stroke-width:0.5;" width="206.5303" x="38.73" y="463.26"/><rect fill="#F1F1F1" height="10" style="stroke:#181818;stroke-width:0.5;" width="15" x="225.2603" y="468.26"/><rect fill="#F1F1F1" height="2" style="stroke:#181818;stroke-width:0.5;" width="4" x="223.2603" y="470.26"/><rect fill="#F1F1F1" height="2" style="stroke:#181818;stroke-width:0.5;" width="4" x="223.2603" y="474.26"/><text fill="#000000" font-family="sans-serif" font-size="14" font-style="italic" lengthAdjust="spacing" textLength="62.3232" x="105.8335" y="496.2551">&#171;library&#187;</text><text fill="#000000" font-family="sans-serif" font-size="14" font-weight="bold" lengthAdjust="spacing" textLength="80.1104" x="96.94" y="512.552">Tx Builder</text><text fill="#000000" font-family="sans-serif" font-size="14" lengthAdjust="spacing" textLength="4.4502" x="134.77" y="528.8489">&#160;</text><text fill="#000000" font-family="sans-serif" font-size="14" font-style="italic" lengthAdjust="spacing" textLength="166.5303" x="53.73" y="545.1457">Provides the CL specific</text><text fill="#000000" font-family="sans-serif" font-size="14" font-style="italic" lengthAdjust="spacing" textLength="136.7803" x="68.605" y="561.4426">transaction builder.</text></g><!--entity CLData--><g class="entity" data-qualified-name="CLNode.CLData" data-source-line="78" id="ent0025"><rect fill="#F1F1F1" height="127.7813" rx="2.5" ry="2.5" style="stroke:#181818;stroke-width:0.5;" width="266.7617" x="21.62" y="41"/><rect fill="#F1F1F1" height="10" style="stroke:#181818;stroke-width:0.5;" width="15" x="268.3817" y="46"/><rect fill="#F1F1F1" height="2" style="stroke:#181818;stroke-width:0.5;" width="4" x="266.3817" y="48"/><rect fill="#F1F1F1" height="2" style="stroke:#181818;stroke-width:0.5;" width="4" x="266.3817" y="52"/><text fill="#000000" font-family="sans-serif" font-size="14" font-style="italic" lengthAdjust="spacing" textLength="62.3232" x="118.8392" y="73.9951">&#171;library&#187;</text><text fill="#000000" font-family="sans-serif" font-size="14" font-weight="bold" lengthAdjust="spacing" textLength="61.2773" x="119.3622" y="90.292">CL Data</text><text fill="#000000" font-family="sans-serif" font-size="14" lengthAdjust="spacing" textLength="4.4502" x="147.7758" y="106.5889">&#160;</text><text fill="#000000" font-family="sans-serif" font-size="14" font-style="italic" lengthAdjust="spacing" textLength="194.6328" x="52.6845" y="122.8857">Implements data structures</text><text fill="#000000" font-family="sans-serif" font-size="14" font-style="italic" lengthAdjust="spacing" textLength="226.7617" x="36.62" y="139.1826">needed for L1 cash flows and L2</text><text fill="#000000" font-family="sans-serif" font-size="14" font-style="italic" lengthAdjust="spacing" textLength="80.4521" x="109.7748" y="155.4795">settlement.</text></g><!--entity Codecs--><g class="entity" data-qualified-name="CLNode.Codecs" data-source-line="86" id="ent0026"><ellipse cx="66" cy="241.52" fill="#F1F1F1" rx="8" ry="8" style="stroke:#181818;stroke-width:0.5;"/><text fill="#000000" font-family="sans-serif" font-size="14" font-weight="bold" lengthAdjust="spacing" textLength="56.041" x="37.9795" y="271.5151">Codecs</text></g><!--entity Admin--><g class="entity" data-qualified-name="CLNode.Admin" data-source-line="92" id="ent0031"><rect fill="#F1F1F1" height="111.4844" rx="2.5" ry="2.5" style="stroke:#181818;stroke-width:0.5;" width="215.3691" x="390.32" y="743.93"/><rect fill="#F1F1F1" height="10" style="stroke:#181818;stroke-width:0.5;" width="15" x="585.6891" y="748.93"/><rect fill="#F1F1F1" height="2" style="stroke:#181818;stroke-width:0.5;" width="4" x="583.6891" y="750.93"/><rect fill="#F1F1F1" height="2" style="stroke:#181818;stroke-width:0.5;" width="4" x="583.6891" y="754.93"/><text fill="#000000" font-family="sans-serif" font-size="14" font-style="italic" lengthAdjust="spacing" textLength="67.4297" x="459.2897" y="776.9251">&#171;service&#187;</text><text fill="#000000" font-family="sans-serif" font-size="14" font-weight="bold" lengthAdjust="spacing" textLength="50.21" x="467.8996" y="793.222">Admin</text><text fill="#000000" font-family="sans-serif" font-size="14" lengthAdjust="spacing" textLength="4.4502" x="490.7795" y="809.5189">&#160;</text><text fill="#000000" font-family="sans-serif" font-size="14" font-style="italic" lengthAdjust="spacing" textLength="97.583" x="444.2131" y="825.8157">L1 monitoring</text><text fill="#000000" font-family="sans-serif" font-size="14" font-style="italic" lengthAdjust="spacing" textLength="175.3691" x="405.32" y="842.1126">L1 liquidity management</text></g><!--entity ChannelInfo--><g class="entity" data-qualified-name="CLNode.DB.ChannelInfo" data-source-line="19" id="ent0004"><rect fill="#F1F1F1" height="111.4844" rx="2.5" ry="2.5" style="stroke:#181818;stroke-width:0.5;" width="194.5059" x="314.75" y="463.26"/><rect fill="#F1F1F1" height="10" style="stroke:#181818;stroke-width:0.5;" width="15" x="489.2559" y="468.26"/><rect fill="#F1F1F1" height="2" style="stroke:#181818;stroke-width:0.5;" width="4" x="487.2559" y="470.26"/><rect fill="#F1F1F1" height="2" style="stroke:#181818;stroke-width:0.5;" width="4" x="487.2559" y="474.26"/><text fill="#000000" font-family="sans-serif" font-size="14" font-style="italic" lengthAdjust="spacing" textLength="62.5557" x="375.7251" y="496.2551">&#171;record&#187;</text><text fill="#000000" font-family="sans-serif" font-size="14" font-weight="bold" lengthAdjust="spacing" textLength="63.916" x="375.0449" y="512.552">Channel</text><text fill="#000000" font-family="sans-serif" font-size="14" lengthAdjust="spacing" textLength="4.4502" x="404.7778" y="528.8489">&#160;</text><text fill="#000000" font-family="sans-serif" font-size="14" font-style="italic" lengthAdjust="spacing" textLength="145.1338" x="334.436" y="545.1457">Stores the L1 and L2</text><text fill="#000000" font-family="sans-serif" font-size="14" font-style="italic" lengthAdjust="spacing" textLength="154.5059" x="329.75" y="561.4426">state of the Channels.</text></g><!--entity ProblemDetails--><g class="entity" data-qualified-name="Protocols.ProblemDetails" data-source-line="105" id="ent0037"><rect fill="#F1F1F1" height="111.4844" rx="2.5" ry="2.5" style="stroke:#181818;stroke-width:0.5;" width="188.5859" x="947.71" y="463.26"/><rect fill="#F1F1F1" height="10" style="stroke:#181818;stroke-width:0.5;" width="15" x="1116.2959" y="468.26"/><rect fill="#F1F1F1" height="2" style="stroke:#181818;stroke-width:0.5;" width="4" x="1114.2959" y="470.26"/><rect fill="#F1F1F1" height="2" style="stroke:#181818;stroke-width:0.5;" width="4" x="1114.2959" y="474.26"/><text fill="#000000" font-family="sans-serif" font-size="14" font-style="italic" lengthAdjust="spacing" textLength="62.3232" x="1005.8413" y="496.2551">&#171;library&#187;</text><text fill="#000000" font-family="sans-serif" font-size="14" font-weight="bold" lengthAdjust="spacing" textLength="140.335" x="966.8355" y="512.552">"Problem Details"</text><text fill="#000000" font-family="sans-serif" font-size="14" lengthAdjust="spacing" textLength="4.4502" x="1034.7779" y="528.8489">&#160;</text><text fill="#000000" font-family="sans-serif" font-size="14" font-style="italic" lengthAdjust="spacing" textLength="114.3447" x="979.8306" y="545.1457">RFC 9457 based</text><text fill="#000000" font-family="sans-serif" font-size="14" font-style="italic" lengthAdjust="spacing" textLength="148.5859" x="962.71" y="561.4426">HTTP error reporting.</text></g><!--entity Cobbl3--><g class="entity" data-qualified-name="Protocols.Cobbl3" data-source-line="112" id="ent0038"><rect fill="#F1F1F1" height="111.4844" rx="2.5" ry="2.5" style="stroke:#181818;stroke-width:0.5;" width="241.0039" x="1156.5" y="463.26"/><rect fill="#F1F1F1" height="10" style="stroke:#181818;stroke-width:0.5;" width="15" x="1377.5039" y="468.26"/><rect fill="#F1F1F1" height="2" style="stroke:#181818;stroke-width:0.5;" width="4" x="1375.5039" y="470.26"/><rect fill="#F1F1F1" height="2" style="stroke:#181818;stroke-width:0.5;" width="4" x="1375.5039" y="474.26"/><text fill="#000000" font-family="sans-serif" font-size="14" font-style="italic" lengthAdjust="spacing" textLength="62.3232" x="1240.8403" y="496.2551">&#171;library&#187;</text><text fill="#000000" font-family="sans-serif" font-size="14" font-weight="bold" lengthAdjust="spacing" textLength="69.0635" x="1237.4702" y="512.552">"Cobbl3"</text><text fill="#000000" font-family="sans-serif" font-size="14" lengthAdjust="spacing" textLength="4.4502" x="1269.7769" y="528.8489">&#160;</text><text fill="#000000" font-family="sans-serif" font-size="14" font-style="italic" lengthAdjust="spacing" textLength="201.0039" x="1171.5" y="545.1457">A very simple HMAC-BLAKE3</text><text fill="#000000" font-family="sans-serif" font-size="14" font-style="italic" lengthAdjust="spacing" textLength="98.1299" x="1222.937" y="561.4426">auth protocol.</text></g><!--entity Powdos--><g class="entity" data-qualified-name="Protocols.Powdos" data-source-line="119" id="ent0039"><rect fill="#F1F1F1" height="111.4844" rx="2.5" ry="2.5" style="stroke:#181818;stroke-width:0.5;" width="326.5283" x="1417.74" y="463.26"/><rect fill="#F1F1F1" height="10" style="stroke:#181818;stroke-width:0.5;" width="15" x="1724.2683" y="468.26"/><rect fill="#F1F1F1" height="2" style="stroke:#181818;stroke-width:0.5;" width="4" x="1722.2683" y="470.26"/><rect fill="#F1F1F1" height="2" style="stroke:#181818;stroke-width:0.5;" width="4" x="1722.2683" y="474.26"/><text fill="#000000" font-family="sans-serif" font-size="14" font-style="italic" lengthAdjust="spacing" textLength="62.3232" x="1544.8425" y="496.2551">&#171;library&#187;</text><text fill="#000000" font-family="sans-serif" font-size="14" font-weight="bold" lengthAdjust="spacing" textLength="75.373" x="1538.3176" y="512.552">"Powdos"</text><text fill="#000000" font-family="sans-serif" font-size="14" lengthAdjust="spacing" textLength="4.4502" x="1573.7791" y="528.8489">&#160;</text><text fill="#000000" font-family="sans-serif" font-size="14" font-style="italic" lengthAdjust="spacing" textLength="286.5283" x="1432.74" y="545.1457">Crypto-agnostic proof-of-work challenge.</text><text fill="#000000" font-family="sans-serif" font-size="14" font-style="italic" lengthAdjust="spacing" textLength="134.8594" x="1508.5745" y="561.4426">Issue, solve, verify.</text></g><!--entity FXAPI--><g class="entity" data-qualified-name="FX.FXAPI" data-source-line="129" id="ent0041"><ellipse cx="671" cy="519" fill="#F1F1F1" rx="8" ry="8" style="stroke:#181818;stroke-width:0.5;"/><text fill="#000000" font-family="sans-serif" font-size="14" font-weight="bold" lengthAdjust="spacing" textLength="47.3936" x="647.3032" y="548.9951">Query</text><text fill="#000000" font-family="sans-serif" font-size="14" font-style="italic" lengthAdjust="spacing" textLength="38.6367" x="651.6816" y="498.6982">&#171;api&#187;</text></g><!--entity Kraken--><g class="entity" data-qualified-name="FX.Kraken" data-source-line="130" id="ent0042"><rect fill="#F1F1F1" height="62.5938" rx="2.5" ry="2.5" style="stroke:#181818;stroke-width:0.5;" width="114.0713" x="777.96" y="487.71"/><rect fill="#F1F1F1" height="10" style="stroke:#181818;stroke-width:0.5;" width="15" x="872.0313" y="492.71"/><rect fill="#F1F1F1" height="2" style="stroke:#181818;stroke-width:0.5;" width="4" x="870.0313" y="494.71"/><rect fill="#F1F1F1" height="2" style="stroke:#181818;stroke-width:0.5;" width="4" x="870.0313" y="498.71"/><text fill="#000000" font-family="sans-serif" font-size="14" font-style="italic" lengthAdjust="spacing" textLength="72.0713" x="793.96" y="520.7051">&#171;adapter&#187;</text><text fill="#000000" font-family="sans-serif" font-size="14" font-weight="bold" lengthAdjust="spacing" textLength="55.9727" x="802.0093" y="537.002">Kraken</text></g><!--entity BLNSDK--><g class="entity" data-qualified-name="BLN.BLNSDK" data-source-line="136" id="ent0046"><rect fill="#F1F1F1" height="95.1875" rx="2.5" ry="2.5" style="stroke:#181818;stroke-width:0.5;" width="218.6846" x="813.66" y="1052.05"/><rect fill="#F1F1F1" height="10" style="stroke:#181818;stroke-width:0.5;" width="15" x="1012.3446" y="1057.05"/><rect fill="#F1F1F1" height="2" style="stroke:#181818;stroke-width:0.5;" width="4" x="1010.3446" y="1059.05"/><rect fill="#F1F1F1" height="2" style="stroke:#181818;stroke-width:0.5;" width="4" x="1010.3446" y="1063.05"/><text fill="#000000" font-family="sans-serif" font-size="14" font-style="italic" lengthAdjust="spacing" textLength="62.3232" x="886.8407" y="1085.0451">&#171;library&#187;</text><text fill="#000000" font-family="sans-serif" font-size="14" font-weight="bold" lengthAdjust="spacing" textLength="68.7354" x="883.6346" y="1101.342">BLN SDK</text><text fill="#000000" font-family="sans-serif" font-size="14" lengthAdjust="spacing" textLength="4.4502" x="915.7772" y="1117.6389">&#160;</text><text fill="#000000" font-family="sans-serif" font-size="14" font-style="italic" lengthAdjust="spacing" textLength="178.6846" x="828.66" y="1133.9357">Handling of BLN invoices.</text></g><!--entity BLNConnector--><g class="entity" data-qualified-name="BLN.BLNConnector" data-source-line="142" id="ent0047"><ellipse cx="728" cy="1099.64" fill="#F1F1F1" rx="8" ry="8" style="stroke:#181818;stroke-width:0.5;"/><text fill="#000000" font-family="sans-serif" font-size="14" font-weight="bold" lengthAdjust="spacing" textLength="117.0176" x="669.4912" y="1129.6351">BLN Connector</text><text fill="#000000" font-family="sans-serif" font-size="14" font-style="italic" lengthAdjust="spacing" textLength="38.6367" x="708.6816" y="1079.3382">&#171;api&#187;</text></g><!--entity LndAdapter--><g class="entity" data-qualified-name="BLN.LndAdapter" data-source-line="143" id="ent0048"><rect fill="#F1F1F1" height="62.5938" rx="2.5" ry="2.5" style="stroke:#181818;stroke-width:0.5;" width="123.1592" x="666.42" y="1248.39"/><rect fill="#F1F1F1" height="10" style="stroke:#181818;stroke-width:0.5;" width="15" x="769.5792" y="1253.39"/><rect fill="#F1F1F1" height="2" style="stroke:#181818;stroke-width:0.5;" width="4" x="767.5792" y="1255.39"/><rect fill="#F1F1F1" height="2" style="stroke:#181818;stroke-width:0.5;" width="4" x="767.5792" y="1259.39"/><text fill="#000000" font-family="sans-serif" font-size="14" font-style="italic" lengthAdjust="spacing" textLength="72.0713" x="686.9639" y="1281.3851">&#171;adapter&#187;</text><text fill="#000000" font-family="sans-serif" font-size="14" font-weight="bold" lengthAdjust="spacing" textLength="83.1592" x="681.42" y="1297.682">LND Client</text></g><!--entity CardanoConnector--><g class="entity" data-qualified-name="Cardano.CardanoConnector" data-source-line="149" id="ent0052"><ellipse cx="1171" cy="1099.64" fill="#F1F1F1" rx="8" ry="8" style="stroke:#181818;stroke-width:0.5;"/><text fill="#000000" font-family="sans-serif" font-size="14" font-weight="bold" lengthAdjust="spacing" textLength="151.3887" x="1095.3057" y="1129.6351">Cardano Connector</text><text fill="#000000" font-family="sans-serif" font-size="14" font-style="italic" lengthAdjust="spacing" textLength="38.6367" x="1151.6816" y="1079.3382">&#171;api&#187;</text></g><!--entity BlockfrostAdapter--><g class="entity" data-qualified-name="Cardano.BlockfrostAdapter" data-source-line="151" id="ent0053"><rect fill="#F1F1F1" height="62.5938" rx="2.5" ry="2.5" style="stroke:#181818;stroke-width:0.5;" width="120.3359" x="1221.83" y="1248.39"/><rect fill="#F1F1F1" height="10" style="stroke:#181818;stroke-width:0.5;" width="15" x="1322.1659" y="1253.39"/><rect fill="#F1F1F1" height="2" style="stroke:#181818;stroke-width:0.5;" width="4" x="1320.1659" y="1255.39"/><rect fill="#F1F1F1" height="2" style="stroke:#181818;stroke-width:0.5;" width="4" x="1320.1659" y="1259.39"/><text fill="#000000" font-family="sans-serif" font-size="14" font-style="italic" lengthAdjust="spacing" textLength="72.0713" x="1240.9623" y="1281.3851">&#171;adapter&#187;</text><text fill="#000000" font-family="sans-serif" font-size="14" font-weight="bold" lengthAdjust="spacing" textLength="80.3359" x="1236.83" y="1297.682">Blockfrost</text></g><!--entity UTxORPCAdapter--><g class="entity" data-qualified-name="Cardano.UTxORPCAdapter" data-source-line="152" id="ent0054"><rect fill="#F1F1F1" height="62.5938" rx="2.5" ry="2.5" style="stroke:#181818;stroke-width:0.5;" width="118.0391" x="1361.98" y="1248.39"/><rect fill="#F1F1F1" height="10" style="stroke:#181818;stroke-width:0.5;" width="15" x="1460.0191" y="1253.39"/><rect fill="#F1F1F1" height="2" style="stroke:#181818;stroke-width:0.5;" width="4" x="1458.0191" y="1255.39"/><rect fill="#F1F1F1" height="2" style="stroke:#181818;stroke-width:0.5;" width="4" x="1458.0191" y="1259.39"/><text fill="#000000" font-family="sans-serif" font-size="14" font-style="italic" lengthAdjust="spacing" textLength="72.0713" x="1379.9639" y="1281.3851">&#171;adapter&#187;</text><text fill="#000000" font-family="sans-serif" font-size="14" font-weight="bold" lengthAdjust="spacing" textLength="78.0391" x="1376.98" y="1297.682">UTxO RPC</text></g><!--entity KupoAdapter--><g class="entity" data-qualified-name="Cardano.KupoAdapter" data-source-line="153" id="ent0055"><rect fill="#F1F1F1" height="62.5938" rx="2.5" ry="2.5" style="stroke:#181818;stroke-width:0.5;" width="114.0713" x="1087.96" y="1248.39"/><rect fill="#F1F1F1" height="10" style="stroke:#181818;stroke-width:0.5;" width="15" x="1182.0313" y="1253.39"/><rect fill="#F1F1F1" height="2" style="stroke:#181818;stroke-width:0.5;" width="4" x="1180.0313" y="1255.39"/><rect fill="#F1F1F1" height="2" style="stroke:#181818;stroke-width:0.5;" width="4" x="1180.0313" y="1259.39"/><text fill="#000000" font-family="sans-serif" font-size="14" font-style="italic" lengthAdjust="spacing" textLength="72.0713" x="1103.96" y="1281.3851">&#171;adapter&#187;</text><text fill="#000000" font-family="sans-serif" font-size="14" font-weight="bold" lengthAdjust="spacing" textLength="40.4551" x="1119.7681" y="1297.682">Kupo</text></g><!--entity CardanoSDK--><g class="entity" data-qualified-name="Cardano.CardanoSDK" data-source-line="159" id="ent0062"><rect fill="#F1F1F1" height="62.5938" rx="2.5" ry="2.5" style="stroke:#181818;stroke-width:0.5;" width="143.1064" x="1274.45" y="1068.35"/><rect fill="#F1F1F1" height="10" style="stroke:#181818;stroke-width:0.5;" width="15" x="1397.5564" y="1073.35"/><rect fill="#F1F1F1" height="2" style="stroke:#181818;stroke-width:0.5;" width="4" x="1395.5564" y="1075.35"/><rect fill="#F1F1F1" height="2" style="stroke:#181818;stroke-width:0.5;" width="4" x="1395.5564" y="1079.35"/><text fill="#000000" font-family="sans-serif" font-size="14" font-style="italic" lengthAdjust="spacing" textLength="62.3232" x="1309.8416" y="1101.3451">&#171;library&#187;</text><text fill="#000000" font-family="sans-serif" font-size="14" font-weight="bold" lengthAdjust="spacing" textLength="103.1064" x="1289.45" y="1117.642">Cardano SDK</text></g><!--entity TxSubmission--><g class="entity" data-qualified-name="Cardano.TxSubmission" data-source-line="163" id="ent0063"><rect fill="#F1F1F1" height="111.4844" rx="2.5" ry="2.5" style="stroke:#181818;stroke-width:0.5;" width="164.5645" x="1437.72" y="1043.9"/><rect fill="#F1F1F1" height="10" style="stroke:#181818;stroke-width:0.5;" width="15" x="1582.2845" y="1048.9"/><rect fill="#F1F1F1" height="2" style="stroke:#181818;stroke-width:0.5;" width="4" x="1580.2845" y="1050.9"/><rect fill="#F1F1F1" height="2" style="stroke:#181818;stroke-width:0.5;" width="4" x="1580.2845" y="1054.9"/><text fill="#000000" font-family="sans-serif" font-size="14" font-style="italic" lengthAdjust="spacing" textLength="67.4297" x="1481.2874" y="1076.8951">&#171;service&#187;</text><text fill="#000000" font-family="sans-serif" font-size="14" font-weight="bold" lengthAdjust="spacing" textLength="113.9619" x="1458.0213" y="1093.192">Tx Submission</text><text fill="#000000" font-family="sans-serif" font-size="14" lengthAdjust="spacing" textLength="4.4502" x="1512.7771" y="1109.4889">&#160;</text><text fill="#000000" font-family="sans-serif" font-size="14" font-style="italic" lengthAdjust="spacing" textLength="81.9561" x="1474.0242" y="1125.7857">With retries</text><text fill="#000000" font-family="sans-serif" font-size="14" font-style="italic" lengthAdjust="spacing" textLength="124.5645" x="1452.72" y="1142.0826">&amp; status tracking.</text></g><!--link Server to DB--><g class="link" data-entity-1="ent0005" data-entity-2="ent0003" data-link-type="dependency" data-source-line="33" id="lnk6"><path d="M478.59,297.54 C494.79,324.09 512.23,357.1 522,389.26 C523.0263,392.6406 523.9679,396.0926 524.8313,399.5943 C525.2631,401.3451 524.3753,397.251 524.7688,399.024" fill="none" id="Server-to-DB" style="stroke:#808080;stroke-width:1;"/><polygon fill="#808080" points="526.0688,404.8815,528.0238,395.2286,524.9855,400.0002,520.2138,396.9619,526.0688,404.8815" style="stroke:#808080;stroke-width:1;"/></g><!--reverse link Client to CLI--><g class="link" data-entity-1="ent0008" data-entity-2="ent0009" data-link-type="dependency" data-source-line="55" id="lnk12"><path d="M247.4358,733.0089 C232.8958,774.2689 213.72,828.65 198.39,872.14" fill="none" id="Client-backto-CLI" style="stroke:#808080;stroke-width:1;"/><polygon fill="#808080" points="249.43,727.35,242.6661,734.5089,247.7682,732.0658,250.2113,737.1678,249.43,727.35" style="stroke:#808080;stroke-width:1;"/></g><!--reverse link Client to WASM--><g class="link" data-entity-1="ent0008" data-entity-2="ent0010" data-link-type="dependency" data-source-line="56" id="lnk14"><path d="M268.5265,733.1032 C272.2465,810.9132 279.4,960.61 283.37,1043.59" fill="none" id="Client-backto-WASM" style="stroke:#808080;stroke-width:1;"/><polygon fill="#808080" points="268.24,727.11,264.6744,736.2907,268.4788,732.1043,272.6652,735.9087,268.24,727.11" style="stroke:#808080;stroke-width:1;"/></g><!--reverse link HTTP to Client--><g class="link" data-entity-1="ent0007" data-entity-2="ent0008" data-link-type="dependency" data-source-line="57" id="lnk16"><path d="M303.3746,358.1496 C299.0046,395.5996 280.94,550.36 271.49,631.33" fill="none" id="HTTP-backto-Client" style="stroke:#808080;stroke-width:1;"/><polygon fill="#808080" points="304.07,352.19,299.0538,360.6657,303.4905,357.1563,306.9999,361.593,304.07,352.19" style="stroke:#808080;stroke-width:1;"/></g><!--link Server to HTTP--><g class="link" data-entity-1="ent0005" data-entity-2="ent0007" data-link-type="association" data-source-line="58" id="lnk17"><path d="M365.84,297.64 C344.95,312.96 324.98,327.61 313.91,335.72" fill="none" id="Server-HTTP" style="stroke:#808080;stroke-width:1;"/></g><!--link Kernel to PlutusBinaries--><g class="link" data-entity-1="ent0018" data-entity-2="ent0019" data-link-type="association" data-source-line="67" id="lnk21"><path d="M315.02,161.1 C298.23,168.85 281.55,177.14 266,185.78 C239.62,200.43 211.38,222.3 197.59,233.44" fill="none" id="Kernel-PlutusBinaries" style="stroke:#808080;stroke-width:1;"/></g><!--reverse link PlutusBinaries to TxBuilder--><g class="link" data-entity-1="ent0019" data-entity-2="ent0022" data-link-type="dependency" data-source-line="76" id="lnk24"><path d="M186.6318,256.3847 C181.3918,287.1247 163.15,394.05 151.39,462.99" fill="none" id="PlutusBinaries-backto-TxBuilder" style="stroke:#808080;stroke-width:1;"/><polygon fill="#808080" points="187.64,250.47,182.1845,258.6699,186.7998,255.3989,190.0708,260.0142,187.64,250.47" style="stroke:#808080;stroke-width:1;"/></g><!--link CLData to Codecs--><g class="link" data-entity-1="ent0025" data-entity-2="ent0026" data-link-type="association" data-source-line="88" id="lnk28"><path d="M113.11,169.26 C96.51,194.36 79.44,220.19 71.15,232.74" fill="none" id="CLData-Codecs" style="stroke:#808080;stroke-width:1;"/></g><!--reverse link Codecs to TxBuilder--><g class="link" data-entity-1="ent0026" data-entity-2="ent0022" data-link-type="dependency" data-source-line="90" id="lnk30"><path d="M69.7856,256.254 C78.2656,286.994 107.8,394.05 126.82,462.99" fill="none" id="Codecs-backto-TxBuilder" style="stroke:#808080;stroke-width:1;"/><polygon fill="#808080" points="68.19,250.47,66.7274,260.2096,69.5196,255.29,74.4393,258.0822,68.19,250.47" style="stroke:#808080;stroke-width:1;"/></g><!--reverse link TxBuilder to Admin--><g class="link" data-entity-1="ent0022" data-entity-2="ent0031" data-link-type="dependency" data-source-line="99" id="lnk33"><path d="M228.3785,578.1911 C252.8585,592.8411 275.21,604.37 302,614.75 C336.71,628.19 353.03,611.1 384,631.75 C424.88,659 455.14,706.37 474.17,743.7" fill="none" id="TxBuilder-backto-Admin" style="stroke:#808080;stroke-width:1;"/><polygon fill="#808080" points="223.23,575.11,228.8987,583.164,227.5204,577.6776,233.0068,576.2993,223.23,575.11" style="stroke:#808080;stroke-width:1;"/></g><!--reverse link DB to Admin--><g class="link" data-entity-1="ent0003" data-entity-2="ent0031" data-link-type="dependency" data-source-line="101" id="lnk35"><path d="M523.1848,605.0683 C522.55,610.3619 522.6275,609.655 522,614.75 C516.66,658.05 510.25,707.04 505.4,743.57" fill="none" id="DB-backto-Admin" style="stroke:#808080;stroke-width:1;"/><polygon fill="#808080" points="523.8991,599.111,518.8561,607.5707,523.3038,604.0754,526.7991,608.5232,523.8991,599.111" style="stroke:#808080;stroke-width:1;"/></g><!--reverse link FXAPI to Kraken--><g class="link" data-entity-1="ent0041" data-entity-2="ent0042" data-link-type="extension" data-source-line="131" id="lnk44"><path d="M698.29,519 C716.85,519 741.86,519 777.82,519" fill="none" id="FXAPI-backto-Kraken" style="stroke:#808080;stroke-width:1;stroke-dasharray:7,7;"/><polygon fill="none" points="680.29,519,698.29,525,698.29,513,680.29,519" style="stroke:#808080;stroke-width:1;"/><text fill="#000000" font-family="sans-serif" font-size="13" lengthAdjust="spacing" textLength="76.9082" x="690.98" y="512.0669">implements</text></g><!--reverse link BLNConnector to LndAdapter--><g class="link" data-entity-1="ent0047" data-entity-2="ent0048" data-link-type="extension" data-source-line="144" id="lnk50"><path d="M728,1126.29 C728,1150.12 728,1205.93 728,1248.18" fill="none" id="BLNConnector-backto-LndAdapter" style="stroke:#808080;stroke-width:1;stroke-dasharray:7,7;"/><polygon fill="none" points="728,1108.29,722,1126.29,734,1126.29,728,1108.29" style="stroke:#808080;stroke-width:1;"/><text fill="#000000" font-family="sans-serif" font-size="13" lengthAdjust="spacing" textLength="76.9082" x="729" y="1218.4569">implements</text></g><!--reverse link CardanoConnector to BlockfrostAdapter--><g class="link" data-entity-1="ent0052" data-entity-2="ent0053" data-link-type="extension" data-source-line="155" id="lnk57"><path d="M1186.2525,1123.4083 C1197.8325,1140.7083 1216.33,1168.68 1239,1205.39 C1247.6,1219.32 1256.83,1234.95 1264.52,1248.19" fill="none" id="CardanoConnector-backto-BlockfrostAdapter" style="stroke:#808080;stroke-width:1;stroke-dasharray:7,7;"/><polygon fill="none" points="1176.24,1108.45,1181.2664,1126.7458,1191.2386,1120.0707,1176.24,1108.45" style="stroke:#808080;stroke-width:1;"/><text fill="#000000" font-family="sans-serif" font-size="13" lengthAdjust="spacing" textLength="76.9082" x="1250.23" y="1218.4569">implements</text></g><!--reverse link CardanoConnector to UTxORPCAdapter--><g class="link" data-entity-1="ent0052" data-entity-2="ent0054" data-link-type="extension" data-source-line="156" id="lnk59"><path d="M1191.0313,1121.5212 C1206.0013,1136.9812 1228.67,1158.5 1264,1179.39 C1291.85,1195.85 1304.04,1189.11 1332,1205.39 C1352.41,1217.27 1372.92,1233.77 1389.09,1248.11" fill="none" id="CardanoConnector-backto-UTxORPCAdapter" style="stroke:#808080;stroke-width:1;stroke-dasharray:7,7;"/><polygon fill="none" points="1178.51,1108.59,1186.7209,1125.695,1195.3417,1117.3474,1178.51,1108.59" style="stroke:#808080;stroke-width:1;"/><text fill="#000000" font-family="sans-serif" font-size="13" lengthAdjust="spacing" textLength="76.9082" x="1358.28" y="1218.4569">implements</text></g><!--reverse link CardanoConnector to KupoAdapter--><g class="link" data-entity-1="ent0052" data-entity-2="ent0055" data-link-type="extension" data-source-line="157" id="lnk61"><path d="M1167.279,1126.1011 C1163.799,1149.9311 1155.62,1205.93 1149.45,1248.18" fill="none" id="CardanoConnector-backto-KupoAdapter" style="stroke:#808080;stroke-width:1;stroke-dasharray:7,7;"/><polygon fill="none" points="1169.88,1108.29,1161.3419,1125.2341,1173.216,1126.9681,1169.88,1108.29" style="stroke:#808080;stroke-width:1;"/><text fill="#000000" font-family="sans-serif" font-size="13" lengthAdjust="spacing" textLength="76.9082" x="1156.61" y="1218.4569">implements</text></g><!--link Admin to CardanoConnector--><g class="link" data-entity-1="ent0031" data-entity-2="ent0052" data-link-type="dependency" data-source-line="174" id="lnk64"><path d="M606.07,828.88 C719.79,861.12 901.79,920.04 1045,1000.9 C1093.46,1028.26 1139.1084,1068.8217 1158.3684,1086.7517" fill="none" id="Admin-to-CardanoConnector" style="stroke:#808080;stroke-width:1;"/><polygon fill="#808080" points="1162.76,1090.84,1158.8982,1081.7798,1159.1004,1087.4331,1153.4471,1087.6353,1162.76,1090.84" style="stroke:#808080;stroke-width:1;"/></g><!--link Admin to TxSubmission--><g class="link" data-entity-1="ent0031" data-entity-2="ent0063" data-link-type="dependency" data-source-line="175" id="lnk65"><path d="M606.06,802.67 C787.79,810.46 1160.92,845.81 1428,1000.9 C1446.74,1011.78 1459.9699,1023.224 1474.3599,1039.024" fill="none" id="Admin-to-TxSubmission" style="stroke:#808080;stroke-width:1;"/><polygon fill="#808080" points="1478.4,1043.46,1475.2972,1034.1127,1475.0333,1039.7634,1469.3826,1039.4995,1478.4,1043.46" style="stroke:#808080;stroke-width:1;"/></g><!--link Admin to BLNConnector--><g class="link" data-entity-1="ent0031" data-entity-2="ent0047" data-link-type="dependency" data-source-line="177" id="lnk66"><path d="M540.45,855.67 C598.08,930.34 693.1347,1053.4697 718.3347,1086.1297" fill="none" id="Admin-to-BLNConnector" style="stroke:#808080;stroke-width:1;"/><polygon fill="#808080" points="722,1090.88,719.669,1081.311,718.9456,1086.9214,713.3352,1086.198,722,1090.88" style="stroke:#808080;stroke-width:1;"/></g><!--link Admin to BLNSDK--><g class="link" data-entity-1="ent0031" data-entity-2="ent0046" data-link-type="dependency" data-source-line="178" id="lnk67"><path d="M586.22,855.85 C594.95,861.41 603.66,867.01 612,872.42 C698.13,928.32 721.56,939.69 804,1000.9 C825.47,1016.84 843.7042,1031.4067 863.5842,1047.9167" fill="none" id="Admin-to-BLNSDK" style="stroke:#808080;stroke-width:1;"/><polygon fill="#808080" points="868.2,1051.75,863.8319,1042.9228,864.3535,1048.5556,858.7208,1049.0772,868.2,1051.75" style="stroke:#808080;stroke-width:1;"/></g><!--link Server to ProblemDetails--><g class="link" data-entity-1="ent0005" data-entity-2="ent0037" data-link-type="dependency" data-source-line="180" id="lnk68"><path d="M606.57,275.75 C698.65,298.81 812.89,335.26 905,389.26 C938.08,408.66 965.4955,433.0507 989.9755,458.4407" fill="none" id="Server-to-ProblemDetails" style="stroke:#808080;stroke-width:1;"/><polygon fill="#808080" points="994.14,462.76,990.7728,453.5046,990.6696,459.1606,985.0136,459.0573,994.14,462.76" style="stroke:#808080;stroke-width:1;"/></g><!--link Server to Cobbl3--><g class="link" data-entity-1="ent0005" data-entity-2="ent0038" data-link-type="dependency" data-source-line="181" id="lnk69"><path d="M606.47,249.65 C755.67,262.21 976.96,296.45 1146,389.26 C1179.4,407.6 1206.1657,432.4017 1229.4657,458.4017" fill="none" id="Server-to-Cobbl3" style="stroke:#808080;stroke-width:1;"/><polygon fill="#808080" points="1233.47,462.87,1230.4424,453.498,1230.1331,459.1464,1224.4847,458.8371,1233.47,462.87" style="stroke:#808080;stroke-width:1;"/></g><!--link Server to Powdos--><g class="link" data-entity-1="ent0005" data-entity-2="ent0039" data-link-type="dependency" data-source-line="182" id="lnk70"><path d="M606.29,256.72 C843.73,278.95 1268.16,326.05 1408,389.26 C1448.77,407.69 1484.5412,433.1524 1516.0412,459.1324" fill="none" id="Server-to-Powdos" style="stroke:#808080;stroke-width:1;"/><polygon fill="#808080" points="1520.67,462.95,1516.2719,454.1377,1516.8127,459.7686,1511.1817,460.3094,1520.67,462.95" style="stroke:#808080;stroke-width:1;"/></g><!--link Server to FXAPI--><g class="link" data-entity-1="ent0005" data-entity-2="ent0041" data-link-type="dependency" data-source-line="183" id="lnk71"><path d="M493.37,297.75 C498.37,303.28 503.32,308.85 508,314.26 C571.7,387.93 639.7534,476.7901 661.0734,504.8901" fill="none" id="Server-to-FXAPI" style="stroke:#808080;stroke-width:1;"/><polygon fill="#808080" points="664.7,509.67,662.4467,500.0824,661.6778,505.6867,656.0735,504.9179,664.7,509.67" style="stroke:#808080;stroke-width:1;"/></g><?plantuml-src ZLPVRzis47_NfpZaOGMAEcdI5SCAmu2Zj4iMD_Dg3oqmx86MQ9imHQgabCJRyjrtHr8I9Jj3Yg2cxevtzxk_j3kXIcPO0PakIgsugXRLNdAe2tcHs9PhjopN3q9jOCsavH57wPnRNiB5suXecDeHyVnjaemjAPmahG7u9m7yTwsD-5khYicf51jL42V3_xX1vjbhUD1cPq4eA9ZQGyOij_3wB7bAc37w8IYP2SLJBRM1ZM7xbhJSYcodkBLmZXUIyLdm8IbPjcCR3YU_i8e_i3tSeVidm2oaCpe6jJchs0ejmjLbe40N84YtJ2akRzHQmtXiUAPDFfd0dq4GOBoQ19caeud9ej86GLHR3hDpO2g7sKNCjnKw1Nhj9882Unea_dA_JrvXvyk2ctkCs7XiyI0oFlJ3ytjkV7miDGMJAPZERs2DmPjTOA0nyYohX5RsGonUihtBZT5rXGNm1hxNcWuEG6bqXc76pwHpClWqoaUZ2KRG6tVwrop3sADRrylbt8MT3WD8gHJqCnvBiJBCx2D855Z7RG2XVt4c7Q3CIPm6XuRAPpUecPMb51aZi0Fjivj8TQgBWb1AB2cej9OTYw96QMgiFcFkwtJn-JaaZdS0Pm2ZR_7N1Hh5H6osJlDf57G2DgefucbtqPaWQfyS8kp4smHqMVD96I2vvGRBaGgjOAOQPTYvL2vzI448ctOgTbn5i6wAKdAg8-eqk6TIO8zfqvOtjKV9Cx4MM9dE13GcmDQ-SA8m7rRKNDPLRU5IA6PGXoikJsj8xbAVH248o8Pubu-NjP2vwwt3z3cqoqS8Cht-cXjzB_BGw0ZMUbnPB8F0bFNT1YklerT1dNMVqm6IWwA-me7rRCVCWDZ7aq6J3cnbwgogJOYHar6Svpptq-6SnkyMrb8_sFxSegd5gyfhwo7ePoV5givyKlpH2_cpouB7S1nzVAL3FSqBBBHZamyDEcO46J4KMWaikMPMDMGfljSY5zMU5WtkXgBfaW34c_6Ej8uTid3EFNNx1MkWqfcMrfLX-q6xf0E0z1L6xefNJ23pC7s8uoG8GP0wyPRHzI-VKlZvn_S_0IsglA5IwmB73Md0y58RcjIK5mScgXYzMibtpvZqpCxI570mxC4AAXku_ZnDHvUpwUt7Tuq0gwijhGA7yeYrkNx8zRC07REpbffzMUaHsoXjAv6HNhqUuHyz223RCYcvsl3JHlx6sfg_0QlbFVwWfsAz3pv42Q4Y_FHjV8O6AIMVlhbSz8lqznfXHY8qXMbNYCca1uTaRmt30TSA-q-Ipbc9EjsDG1p9qUdflnEly0E8jld8FnHhNRoStJbb-1jU7PrDf2skRfzhSRg1xAZUhx5D9MrfV4uGLwXxZKrY_wT7IIpL-EZ8i4jQP4XjYL4qXl6OtLs5jTBUdAbywgCnY0l4BEmU5vtOJYz8YNlrD45AcScPqcwGXEDX8XlE8Ph0EKHqaE1BgRFTsc0D-Z2qdySnzI__iNpy3RxCKtULFl3yadktTQbzFU7Xs0MySUX94y8Xk5uOOUZ72s_5dhpeId_EUCdZfHjb2WKeHuUZO_cug5U5m2UcFZRh_HRkHDefybNWI3AyQXS_qdu0Uc7Z8u6U5RjsC58NlWehrBzPEw-JLz4k6lB2-8_9RKXwp1X4qkF4LJzak8RklQNx2wFFyqDx8Ez6Qv_cfb3o7m00?></g></svg>