<?plantuml 1.2026.2?><svg xmlns="http://www.w3.org/2000/svg" xmlns:xlink="http://www.w3.org/1999/xlink" contentStyleType="text/css" data-diagram-type="DESCRIPTION" height="1235px" preserveAspectRatio="none" style="width:1653px;height:1235px;background:#FFFFFF;" version="1.1" viewBox="0 0 1653 1235" width="1653px" zoomAndPan="magnify"><defs/><g><!--cluster CLNode--><g class="cluster" data-qualified-name="CLNode" data-source-line="17" id="ent0002"><path d="M715.5,6 L872.0244,6 A3.75,3.75 0 0 1 874.5244,8.5 L881.5244,28.2969 L1101.5,28.2969 A2.5,2.5 0 0 1 1104,30.7969 L1104,1070.33 A2.5,2.5 0 0 1 1101.5,1072.83 L715.5,1072.83 A2.5,2.5 0 0 1 713,1070.33 L713,8.5 A2.5,2.5 0 0 1 715.5,6" fill="none" style="stroke:#000000;stroke-width:1.5;"/><line style="stroke:#000000;stroke-width:1.5;" x1="713" x2="881.5244" y1="28.2969" y2="28.2969"/><text fill="#000000" font-family="sans-serif" font-size="14" font-weight="bold" lengthAdjust="spacing" textLength="155.5244" x="717" y="20.9951">Gateway Node Core</text></g><!--cluster DB--><g class="cluster" data-qualified-name="CLNode.DB" data-source-line="19" id="ent0003"><path d="M784,310.64 C784,300.64 864,300.64 864,300.64 C864,300.64 944,300.64 944,310.64 L944,435.23 C944,445.23 864,445.23 864,445.23 C864,445.23 784,445.23 784,435.23 L784,310.64" fill="none" style="stroke:#181818;stroke-width:1;"/><path d="M784,310.64 C784,320.64 864,320.64 864,320.64 C864,320.64 944,320.64 944,310.64" fill="none" style="stroke:#181818;stroke-width:1;"/><text fill="#000000" font-family="sans-serif" font-size="14" font-weight="bold" lengthAdjust="spacing" textLength="34.3984" x="846.8008" y="335.6351">Sled</text></g><!--cluster Protocols--><g class="cluster" data-qualified-name="Protocols" data-source-line="80" id="ent0036"><path d="M8.5,291.19 L83.6426,291.19 A3.75,3.75 0 0 1 86.1426,293.69 L93.1426,313.4869 L495.5,313.4869 A2.5,2.5 0 0 1 498,315.9869 L498,627.21 A2.5,2.5 0 0 1 495.5,629.71 L8.5,629.71 A2.5,2.5 0 0 1 6,627.21 L6,293.69 A2.5,2.5 0 0 1 8.5,291.19" fill="none" style="stroke:#000000;stroke-width:1.5;"/><line style="stroke:#000000;stroke-width:1.5;" x1="6" x2="93.1426" y1="313.4869" y2="313.4869"/><text fill="#000000" font-family="sans-serif" font-size="14" font-weight="bold" lengthAdjust="spacing" textLength="74.1426" x="10" y="306.1851">Protocols</text></g><!--cluster FX--><g class="cluster" data-qualified-name="FX" data-source-line="104" id="ent0040"><path d="M532.5,325.93 L553.8574,325.93 A3.75,3.75 0 0 1 556.3574,328.43 L563.3574,348.2269 L673.5,348.2269 A2.5,2.5 0 0 1 676,350.7269 L676,899.29 A2.5,2.5 0 0 1 673.5,901.79 L532.5,901.79 A2.5,2.5 0 0 1 530,899.29 L530,328.43 A2.5,2.5 0 0 1 532.5,325.93" fill="none" style="stroke:#000000;stroke-width:1.5;"/><line style="stroke:#000000;stroke-width:1.5;" x1="530" x2="563.3574" y1="348.2269" y2="348.2269"/><text fill="#000000" font-family="sans-serif" font-size="14" font-weight="bold" lengthAdjust="spacing" textLength="20.3574" x="534" y="340.9251">FX</text></g><!--cluster Cardano--><g class="cluster" data-qualified-name="Cardano" data-source-line="110" id="ent0045"><path d="M1130.5,934.79 L1197.1797,934.79 A3.75,3.75 0 0 1 1199.6797,937.29 L1206.6797,957.0869 L1643.5,957.0869 A2.5,2.5 0 0 1 1646,959.5869 L1646,1226.37 A2.5,2.5 0 0 1 1643.5,1228.87 L1130.5,1228.87 A2.5,2.5 0 0 1 1128,1226.37 L1128,937.29 A2.5,2.5 0 0 1 1130.5,934.79" fill="none" style="stroke:#000000;stroke-width:1.5;"/><line style="stroke:#000000;stroke-width:1.5;" x1="1128" x2="1206.6797" y1="957.0869" y2="957.0869"/><text fill="#000000" font-family="sans-serif" font-size="14" font-weight="bold" lengthAdjust="spacing" textLength="65.6797" x="1132" y="949.7851">Cardano</text></g><!--cluster BLN--><g class="cluster" data-qualified-name="BLN" data-source-line="133" id="ent0058"><path d="M413.5,959.24 L445.8086,959.24 A3.75,3.75 0 0 1 448.3086,961.74 L455.3086,981.5369 L686.5,981.5369 A2.5,2.5 0 0 1 689,984.0369 L689,1226.37 A2.5,2.5 0 0 1 686.5,1228.87 L413.5,1228.87 A2.5,2.5 0 0 1 411,1226.37 L411,961.74 A2.5,2.5 0 0 1 413.5,959.24" fill="none" style="stroke:#000000;stroke-width:1.5;"/><line style="stroke:#000000;stroke-width:1.5;" x1="411" x2="455.3086" y1="981.5369" y2="981.5369"/><text fill="#000000" font-family="sans-serif" font-size="14" font-weight="bold" lengthAdjust="spacing" textLength="31.3086" x="415" y="974.2351">BLN</text></g><!--entity Server--><g class="entity" data-qualified-name="CLNode.Server" data-source-line="25" id="ent0005"><rect fill="#F1F1F1" height="62.5938" rx="2.5" ry="2.5" style="stroke:#181818;stroke-width:0.5;" width="109.4297" x="729.29" y="120.6"/><rect fill="#F1F1F1" height="10" style="stroke:#181818;stroke-width:0.5;" width="15" x="818.7197" y="125.6"/><rect fill="#F1F1F1" height="2" style="stroke:#181818;stroke-width:0.5;" width="4" x="816.7197" y="127.6"/><rect fill="#F1F1F1" height="2" style="stroke:#181818;stroke-width:0.5;" width="4" x="816.7197" y="131.6"/><text fill="#000000" font-family="sans-serif" font-size="14" font-style="italic" lengthAdjust="spacing" textLength="67.4297" x="745.29" y="153.5951">&#171;service&#187;</text><text fill="#000000" font-family="sans-serif" font-size="14" font-weight="bold" lengthAdjust="spacing" textLength="52.0078" x="753.0009" y="169.892">Server</text></g><!--entity HTTP--><g class="entity" data-qualified-name="CLNode.HTTP" data-source-line="30" id="ent0007"><ellipse cx="764" cy="229.19" fill="#F1F1F1" rx="8" ry="8" style="stroke:#181818;stroke-width:0.5;"/><text fill="#000000" font-family="sans-serif" font-size="14" font-weight="bold" lengthAdjust="spacing" textLength="41.0771" x="743.4614" y="259.1851">HTTP</text></g><!--entity Client--><g class="entity" data-qualified-name="CLNode.Client" data-source-line="31" id="ent0008"><rect fill="#F1F1F1" height="62.5938" rx="2.5" ry="2.5" style="stroke:#181818;stroke-width:0.5;" width="104.3232" x="744.84" y="518.67"/><rect fill="#F1F1F1" height="10" style="stroke:#181818;stroke-width:0.5;" width="15" x="829.1632" y="523.67"/><rect fill="#F1F1F1" height="2" style="stroke:#181818;stroke-width:0.5;" width="4" x="827.1632" y="525.67"/><rect fill="#F1F1F1" height="2" style="stroke:#181818;stroke-width:0.5;" width="4" x="827.1632" y="529.67"/><text fill="#000000" font-family="sans-serif" font-size="14" font-style="italic" lengthAdjust="spacing" textLength="62.3232" x="760.84" y="551.6651">&#171;library&#187;</text><text fill="#000000" font-family="sans-serif" font-size="14" font-weight="bold" lengthAdjust="spacing" textLength="46.0264" x="768.9884" y="567.962">Client</text></g><!--entity CLI--><g class="entity" data-qualified-name="CLNode.CLI" data-source-line="34" id="ent0009"><rect fill="#F1F1F1" height="62.5938" rx="2.5" ry="2.5" style="stroke:#181818;stroke-width:0.5;" width="136.5068" x="728.75" y="823.2"/><rect fill="#F1F1F1" height="10" style="stroke:#181818;stroke-width:0.5;" width="15" x="845.2568" y="828.2"/><rect fill="#F1F1F1" height="2" style="stroke:#181818;stroke-width:0.5;" width="4" x="843.2568" y="830.2"/><rect fill="#F1F1F1" height="2" style="stroke:#181818;stroke-width:0.5;" width="4" x="843.2568" y="834.2"/><text fill="#000000" font-family="sans-serif" font-size="14" font-style="italic" lengthAdjust="spacing" textLength="94.5068" x="744.75" y="856.1951">&#171;application&#187;</text><text fill="#000000" font-family="sans-serif" font-size="14" font-weight="bold" lengthAdjust="spacing" textLength="75.3047" x="754.3511" y="872.492">CLI Client</text></g><!--entity WASM--><g class="entity" data-qualified-name="CLNode.WASM" data-source-line="37" id="ent0010"><rect fill="#F1F1F1" height="62.5938" rx="2.5" ry="2.5" style="stroke:#181818;stroke-width:0.5;" width="146.0664" x="798.97" y="994.24"/><rect fill="#F1F1F1" height="10" style="stroke:#181818;stroke-width:0.5;" width="15" x="925.0364" y="999.24"/><rect fill="#F1F1F1" height="2" style="stroke:#181818;stroke-width:0.5;" width="4" x="923.0364" y="1001.24"/><rect fill="#F1F1F1" height="2" style="stroke:#181818;stroke-width:0.5;" width="4" x="923.0364" y="1005.24"/><text fill="#000000" font-family="sans-serif" font-size="14" font-style="italic" lengthAdjust="spacing" textLength="62.3232" x="835.8416" y="1027.2351">&#171;library&#187;</text><text fill="#000000" font-family="sans-serif" font-size="14" font-weight="bold" lengthAdjust="spacing" textLength="101.1924" x="818.844" y="1043.532">WASM Client</text></g><!--entity Kernel--><g class="entity" data-qualified-name="CLNode.Kernel" data-source-line="45" id="ent0018"><rect fill="#F1F1F1" height="62.5938" rx="2.5" ry="2.5" style="stroke:#181818;stroke-width:0.5;" width="163.2354" x="814.38" y="41"/><rect fill="#F1F1F1" height="10" style="stroke:#181818;stroke-width:0.5;" width="15" x="957.6154" y="46"/><rect fill="#F1F1F1" height="2" style="stroke:#181818;stroke-width:0.5;" width="4" x="955.6154" y="48"/><rect fill="#F1F1F1" height="2" style="stroke:#181818;stroke-width:0.5;" width="4" x="955.6154" y="52"/><text fill="#000000" font-family="sans-serif" font-size="14" font-style="italic" lengthAdjust="spacing" textLength="121.2354" x="830.38" y="73.9951">&#171;smart-contract&#187;</text><text fill="#000000" font-family="sans-serif" font-size="14" font-weight="bold" lengthAdjust="spacing" textLength="120.4287" x="830.7833" y="90.292">Kernel in Aiken</text></g><!--entity PlutusBinaries--><g class="entity" data-qualified-name="CLNode.PlutusBinaries" data-source-line="48" id="ent0019"><ellipse cx="922" cy="151.89" fill="#F1F1F1" rx="8" ry="8" style="stroke:#181818;stroke-width:0.5;"/><text fill="#000000" font-family="sans-serif" font-size="14" font-weight="bold" lengthAdjust="spacing" textLength="119.3076" x="862.3462" y="181.8851">Plutus Binaries</text></g><!--entity TxBuilder--><g class="entity" data-qualified-name="CLNode.TxBuilder" data-source-line="51" id="ent0022"><rect fill="#F1F1F1" height="62.5938" rx="2.5" ry="2.5" style="stroke:#181818;stroke-width:0.5;" width="120.1104" x="967.94" y="358.64"/><rect fill="#F1F1F1" height="10" style="stroke:#181818;stroke-width:0.5;" width="15" x="1068.0504" y="363.64"/><rect fill="#F1F1F1" height="2" style="stroke:#181818;stroke-width:0.5;" width="4" x="1066.0504" y="365.64"/><rect fill="#F1F1F1" height="2" style="stroke:#181818;stroke-width:0.5;" width="4" x="1066.0504" y="369.64"/><text fill="#000000" font-family="sans-serif" font-size="14" font-style="italic" lengthAdjust="spacing" textLength="62.3232" x="991.8336" y="391.6351">&#171;library&#187;</text><text fill="#000000" font-family="sans-serif" font-size="14" font-weight="bold" lengthAdjust="spacing" textLength="80.1104" x="982.94" y="407.932">Tx Builder</text></g><!--entity CLData--><g class="entity" data-qualified-name="CLNode.CLData" data-source-line="57" id="ent0025"><rect fill="#F1F1F1" height="62.5938" rx="2.5" ry="2.5" style="stroke:#181818;stroke-width:0.5;" width="104.3232" x="983.84" y="41"/><rect fill="#F1F1F1" height="10" style="stroke:#181818;stroke-width:0.5;" width="15" x="1068.1632" y="46"/><rect fill="#F1F1F1" height="2" style="stroke:#181818;stroke-width:0.5;" width="4" x="1066.1632" y="48"/><rect fill="#F1F1F1" height="2" style="stroke:#181818;stroke-width:0.5;" width="4" x="1066.1632" y="52"/><text fill="#000000" font-family="sans-serif" font-size="14" font-style="italic" lengthAdjust="spacing" textLength="62.3232" x="999.84" y="73.9951">&#171;library&#187;</text><text fill="#000000" font-family="sans-serif" font-size="14" font-weight="bold" lengthAdjust="spacing" textLength="61.2773" x="1000.3629" y="90.292">CL Data</text></g><!--entity Codecs--><g class="entity" data-qualified-name="CLNode.Codecs" data-source-line="61" id="ent0026"><ellipse cx="1034" cy="151.89" fill="#F1F1F1" rx="8" ry="8" style="stroke:#181818;stroke-width:0.5;"/><text fill="#000000" font-family="sans-serif" font-size="14" font-weight="bold" lengthAdjust="spacing" textLength="56.041" x="1005.9795" y="181.8851">Codecs</text></g><!--entity Admin--><g class="entity" data-qualified-name="CLNode.Admin" data-source-line="67" id="ent0031"><rect fill="#F1F1F1" height="111.4844" rx="2.5" ry="2.5" style="stroke:#181818;stroke-width:0.5;" width="215.3691" x="872.32" y="678.71"/><rect fill="#F1F1F1" height="10" style="stroke:#181818;stroke-width:0.5;" width="15" x="1067.6891" y="683.71"/><rect fill="#F1F1F1" height="2" style="stroke:#181818;stroke-width:0.5;" width="4" x="1065.6891" y="685.71"/><rect fill="#F1F1F1" height="2" style="stroke:#181818;stroke-width:0.5;" width="4" x="1065.6891" y="689.71"/><text fill="#000000" font-family="sans-serif" font-size="14" font-style="italic" lengthAdjust="spacing" textLength="67.4297" x="941.2897" y="711.7051">&#171;service&#187;</text><text fill="#000000" font-family="sans-serif" font-size="14" font-weight="bold" lengthAdjust="spacing" textLength="50.21" x="949.8996" y="728.002">Admin</text><text fill="#000000" font-family="sans-serif" font-size="14" lengthAdjust="spacing" textLength="4.4502" x="972.7795" y="744.2989">&#160;</text><text fill="#000000" font-family="sans-serif" font-size="14" font-style="italic" lengthAdjust="spacing" textLength="97.583" x="926.2131" y="760.5957">L1 monitoring</text><text fill="#000000" font-family="sans-serif" font-size="14" font-style="italic" lengthAdjust="spacing" textLength="175.3691" x="887.32" y="776.8926">L1 liquidity management</text></g><!--entity ChannelInfo--><g class="entity" data-qualified-name="CLNode.DB.ChannelInfo" data-source-line="20" id="ent0004"><rect fill="#F1F1F1" height="62.5938" rx="2.5" ry="2.5" style="stroke:#181818;stroke-width:0.5;" width="104.5557" x="807.72" y="358.64"/><rect fill="#F1F1F1" height="10" style="stroke:#181818;stroke-width:0.5;" width="15" x="892.2757" y="363.64"/><rect fill="#F1F1F1" height="2" style="stroke:#181818;stroke-width:0.5;" width="4" x="890.2757" y="365.64"/><rect fill="#F1F1F1" height="2" style="stroke:#181818;stroke-width:0.5;" width="4" x="890.2757" y="369.64"/><text fill="#000000" font-family="sans-serif" font-size="14" font-style="italic" lengthAdjust="spacing" textLength="62.5557" x="823.72" y="391.6351">&#171;record&#187;</text><text fill="#000000" font-family="sans-serif" font-size="14" font-weight="bold" lengthAdjust="spacing" textLength="63.916" x="823.0398" y="407.932">Channel</text></g><!--entity ProblemDetails--><g class="entity" data-qualified-name="Protocols.ProblemDetails" data-source-line="81" id="ent0037"><rect fill="#F1F1F1" height="111.4844" rx="2.5" ry="2.5" style="stroke:#181818;stroke-width:0.5;" width="188.5859" x="29.71" y="334.19"/><rect fill="#F1F1F1" height="10" style="stroke:#181818;stroke-width:0.5;" width="15" x="198.2959" y="339.19"/><rect fill="#F1F1F1" height="2" style="stroke:#181818;stroke-width:0.5;" width="4" x="196.2959" y="341.19"/><rect fill="#F1F1F1" height="2" style="stroke:#181818;stroke-width:0.5;" width="4" x="196.2959" y="345.19"/><text fill="#000000" font-family="sans-serif" font-size="14" font-style="italic" lengthAdjust="spacing" textLength="62.3232" x="87.8413" y="367.1851">&#171;library&#187;</text><text fill="#000000" font-family="sans-serif" font-size="14" font-weight="bold" lengthAdjust="spacing" textLength="140.335" x="48.8355" y="383.482">"Problem Details"</text><text fill="#000000" font-family="sans-serif" font-size="14" lengthAdjust="spacing" textLength="4.4502" x="116.7779" y="399.7789">&#160;</text><text fill="#000000" font-family="sans-serif" font-size="14" font-style="italic" lengthAdjust="spacing" textLength="114.3447" x="61.8306" y="416.0757">RFC 9457 based</text><text fill="#000000" font-family="sans-serif" font-size="14" font-style="italic" lengthAdjust="spacing" textLength="148.5859" x="44.71" y="432.3726">HTTP error reporting.</text></g><!--entity Cobbl3--><g class="entity" data-qualified-name="Protocols.Cobbl3" data-source-line="88" id="ent0038"><rect fill="#F1F1F1" height="111.4844" rx="2.5" ry="2.5" style="stroke:#181818;stroke-width:0.5;" width="241.0039" x="224.5" y="334.19"/><rect fill="#F1F1F1" height="10" style="stroke:#181818;stroke-width:0.5;" width="15" x="445.5039" y="339.19"/><rect fill="#F1F1F1" height="2" style="stroke:#181818;stroke-width:0.5;" width="4" x="443.5039" y="341.19"/><rect fill="#F1F1F1" height="2" style="stroke:#181818;stroke-width:0.5;" width="4" x="443.5039" y="345.19"/><text fill="#000000" font-family="sans-serif" font-size="14" font-style="italic" lengthAdjust="spacing" textLength="62.3232" x="308.8403" y="367.1851">&#171;library&#187;</text><text fill="#000000" font-family="sans-serif" font-size="14" font-weight="bold" lengthAdjust="spacing" textLength="69.0635" x="305.4702" y="383.482">"Cobbl3"</text><text fill="#000000" font-family="sans-serif" font-size="14" lengthAdjust="spacing" textLength="4.4502" x="337.7769" y="399.7789">&#160;</text><text fill="#000000" font-family="sans-serif" font-size="14" font-style="italic" lengthAdjust="spacing" textLength="201.0039" x="239.5" y="416.0757">A very simple HMAC-BLAKE3</text><text fill="#000000" font-family="sans-serif" font-size="14" font-style="italic" lengthAdjust="spacing" textLength="98.1299" x="290.937" y="432.3726">auth protocol.</text></g><!--entity Powdos--><g class="entity" data-qualified-name="Protocols.Powdos" data-source-line="95" id="ent0039"><rect fill="#F1F1F1" height="111.4844" rx="2.5" ry="2.5" style="stroke:#181818;stroke-width:0.5;" width="326.5283" x="29.74" y="494.23"/><rect fill="#F1F1F1" height="10" style="stroke:#181818;stroke-width:0.5;" width="15" x="336.2683" y="499.23"/><rect fill="#F1F1F1" height="2" style="stroke:#181818;stroke-width:0.5;" width="4" x="334.2683" y="501.23"/><rect fill="#F1F1F1" height="2" style="stroke:#181818;stroke-width:0.5;" width="4" x="334.2683" y="505.23"/><text fill="#000000" font-family="sans-serif" font-size="14" font-style="italic" lengthAdjust="spacing" textLength="62.3232" x="156.8425" y="527.2251">&#171;library&#187;</text><text fill="#000000" font-family="sans-serif" font-size="14" font-weight="bold" lengthAdjust="spacing" textLength="75.373" x="150.3176" y="543.522">"Powdos"</text><text fill="#000000" font-family="sans-serif" font-size="14" lengthAdjust="spacing" textLength="4.4502" x="185.7791" y="559.8189">&#160;</text><text fill="#000000" font-family="sans-serif" font-size="14" font-style="italic" lengthAdjust="spacing" textLength="286.5283" x="44.74" y="576.1157">Crypto-agnostic proof-of-work challenge.</text><text fill="#000000" font-family="sans-serif" font-size="14" font-style="italic" lengthAdjust="spacing" textLength="134.8594" x="120.5745" y="592.4126">Issue, solve, verify.</text></g><!--entity FXAPI--><g class="entity" data-qualified-name="FX.FXAPI" data-source-line="105" id="ent0041"><ellipse cx="605" cy="389.93" fill="#F1F1F1" rx="8" ry="8" style="stroke:#181818;stroke-width:0.5;"/><text fill="#000000" font-family="sans-serif" font-size="14" font-weight="bold" lengthAdjust="spacing" textLength="47.3936" x="581.3032" y="419.9251">Query</text><text fill="#000000" font-family="sans-serif" font-size="14" font-style="italic" lengthAdjust="spacing" textLength="38.6367" x="585.6816" y="369.6282">&#171;api&#187;</text></g><!--entity Kraken--><g class="entity" data-qualified-name="FX.Kraken" data-source-line="106" id="ent0042"><rect fill="#F1F1F1" height="62.5938" rx="2.5" ry="2.5" style="stroke:#181818;stroke-width:0.5;" width="114.0713" x="545.96" y="823.2"/><rect fill="#F1F1F1" height="10" style="stroke:#181818;stroke-width:0.5;" width="15" x="640.0313" y="828.2"/><rect fill="#F1F1F1" height="2" style="stroke:#181818;stroke-width:0.5;" width="4" x="638.0313" y="830.2"/><rect fill="#F1F1F1" height="2" style="stroke:#181818;stroke-width:0.5;" width="4" x="638.0313" y="834.2"/><text fill="#000000" font-family="sans-serif" font-size="14" font-style="italic" lengthAdjust="spacing" textLength="72.0713" x="561.96" y="856.1951">&#171;adapter&#187;</text><text fill="#000000" font-family="sans-serif" font-size="14" font-weight="bold" lengthAdjust="spacing" textLength="55.9727" x="570.0093" y="872.492">Kraken</text></g><!--entity CardanoConnector--><g class="entity" data-qualified-name="Cardano.CardanoConnector" data-source-line="111" id="ent0046"><ellipse cx="1397" cy="1025.53" fill="#F1F1F1" rx="8" ry="8" style="stroke:#181818;stroke-width:0.5;"/><text fill="#000000" font-family="sans-serif" font-size="14" font-weight="bold" lengthAdjust="spacing" textLength="151.3887" x="1321.3057" y="1055.5251">Cardano Connector</text><text fill="#000000" font-family="sans-serif" font-size="14" font-style="italic" lengthAdjust="spacing" textLength="38.6367" x="1377.6816" y="1005.2282">&#171;api&#187;</text></g><!--entity BlockfrostAdapter--><g class="entity" data-qualified-name="Cardano.BlockfrostAdapter" data-source-line="113" id="ent0047"><rect fill="#F1F1F1" height="62.5938" rx="2.5" ry="2.5" style="stroke:#181818;stroke-width:0.5;" width="120.3359" x="1336.83" y="1150.28"/><rect fill="#F1F1F1" height="10" style="stroke:#181818;stroke-width:0.5;" width="15" x="1437.1659" y="1155.28"/><rect fill="#F1F1F1" height="2" style="stroke:#181818;stroke-width:0.5;" width="4" x="1435.1659" y="1157.28"/><rect fill="#F1F1F1" height="2" style="stroke:#181818;stroke-width:0.5;" width="4" x="1435.1659" y="1161.28"/><text fill="#000000" font-family="sans-serif" font-size="14" font-style="italic" lengthAdjust="spacing" textLength="72.0713" x="1355.9623" y="1183.2751">&#171;adapter&#187;</text><text fill="#000000" font-family="sans-serif" font-size="14" font-weight="bold" lengthAdjust="spacing" textLength="80.3359" x="1351.83" y="1199.572">Blockfrost</text></g><!--entity UTxORPCAdapter--><g class="entity" data-qualified-name="Cardano.UTxORPCAdapter" data-source-line="114" id="ent0048"><rect fill="#F1F1F1" height="62.5938" rx="2.5" ry="2.5" style="stroke:#181818;stroke-width:0.5;" width="118.0391" x="1462.98" y="1150.28"/><rect fill="#F1F1F1" height="10" style="stroke:#181818;stroke-width:0.5;" width="15" x="1561.0191" y="1155.28"/><rect fill="#F1F1F1" height="2" style="stroke:#181818;stroke-width:0.5;" width="4" x="1559.0191" y="1157.28"/><rect fill="#F1F1F1" height="2" style="stroke:#181818;stroke-width:0.5;" width="4" x="1559.0191" y="1161.28"/><text fill="#000000" font-family="sans-serif" font-size="14" font-style="italic" lengthAdjust="spacing" textLength="72.0713" x="1480.9639" y="1183.2751">&#171;adapter&#187;</text><text fill="#000000" font-family="sans-serif" font-size="14" font-weight="bold" lengthAdjust="spacing" textLength="78.0391" x="1477.98" y="1199.572">UTxO RPC</text></g><!--entity KupoAdapter--><g class="entity" data-qualified-name="Cardano.KupoAdapter" data-source-line="115" id="ent0049"><rect fill="#F1F1F1" height="62.5938" rx="2.5" ry="2.5" style="stroke:#181818;stroke-width:0.5;" width="114.0713" x="1216.96" y="1150.28"/><rect fill="#F1F1F1" height="10" style="stroke:#181818;stroke-width:0.5;" width="15" x="1311.0313" y="1155.28"/><rect fill="#F1F1F1" height="2" style="stroke:#181818;stroke-width:0.5;" width="4" x="1309.0313" y="1157.28"/><rect fill="#F1F1F1" height="2" style="stroke:#181818;stroke-width:0.5;" width="4" x="1309.0313" y="1161.28"/><text fill="#000000" font-family="sans-serif" font-size="14" font-style="italic" lengthAdjust="spacing" textLength="72.0713" x="1232.96" y="1183.2751">&#171;adapter&#187;</text><text fill="#000000" font-family="sans-serif" font-size="14" font-weight="bold" lengthAdjust="spacing" textLength="40.4551" x="1248.7681" y="1199.572">Kupo</text></g><!--entity CardanoSDK--><g class="entity" data-qualified-name="Cardano.CardanoSDK" data-source-line="121" id="ent0056"><rect fill="#F1F1F1" height="62.5938" rx="2.5" ry="2.5" style="stroke:#181818;stroke-width:0.5;" width="143.1064" x="1486.45" y="994.24"/><rect fill="#F1F1F1" height="10" style="stroke:#181818;stroke-width:0.5;" width="15" x="1609.5564" y="999.24"/><rect fill="#F1F1F1" height="2" style="stroke:#181818;stroke-width:0.5;" width="4" x="1607.5564" y="1001.24"/><rect fill="#F1F1F1" height="2" style="stroke:#181818;stroke-width:0.5;" width="4" x="1607.5564" y="1005.24"/><text fill="#000000" font-family="sans-serif" font-size="14" font-style="italic" lengthAdjust="spacing" textLength="62.3232" x="1521.8416" y="1027.2351">&#171;library&#187;</text><text fill="#000000" font-family="sans-serif" font-size="14" font-weight="bold" lengthAdjust="spacing" textLength="103.1064" x="1501.45" y="1043.532">Cardano SDK</text></g><!--entity TxSubmission--><g class="entity" data-qualified-name="Cardano.TxSubmission" data-source-line="125" id="ent0057"><rect fill="#F1F1F1" height="111.4844" rx="2.5" ry="2.5" style="stroke:#181818;stroke-width:0.5;" width="164.5645" x="1143.72" y="969.79"/><rect fill="#F1F1F1" height="10" style="stroke:#181818;stroke-width:0.5;" width="15" x="1288.2845" y="974.79"/><rect fill="#F1F1F1" height="2" style="stroke:#181818;stroke-width:0.5;" width="4" x="1286.2845" y="976.79"/><rect fill="#F1F1F1" height="2" style="stroke:#181818;stroke-width:0.5;" width="4" x="1286.2845" y="980.79"/><text fill="#000000" font-family="sans-serif" font-size="14" font-style="italic" lengthAdjust="spacing" textLength="67.4297" x="1187.2874" y="1002.7851">&#171;service&#187;</text><text fill="#000000" font-family="sans-serif" font-size="14" font-weight="bold" lengthAdjust="spacing" textLength="113.9619" x="1164.0213" y="1019.082">Tx Submission</text><text fill="#000000" font-family="sans-serif" font-size="14" lengthAdjust="spacing" textLength="4.4502" x="1218.7771" y="1035.3789">&#160;</text><text fill="#000000" font-family="sans-serif" font-size="14" font-style="italic" lengthAdjust="spacing" textLength="81.9561" x="1180.0242" y="1051.6757">With retries</text><text fill="#000000" font-family="sans-serif" font-size="14" font-style="italic" lengthAdjust="spacing" textLength="124.5645" x="1158.72" y="1067.9726">&amp; status tracking.</text></g><!--entity BLNConnector--><g class="entity" data-qualified-name="BLN.BLNConnector" data-source-line="134" id="ent0059"><ellipse cx="493" cy="1025.53" fill="#F1F1F1" rx="8" ry="8" style="stroke:#181818;stroke-width:0.5;"/><text fill="#000000" font-family="sans-serif" font-size="14" font-weight="bold" lengthAdjust="spacing" textLength="117.0176" x="434.4912" y="1055.5251">BLN Connector</text><text fill="#000000" font-family="sans-serif" font-size="14" font-style="italic" lengthAdjust="spacing" textLength="38.6367" x="473.6816" y="1005.2282">&#171;api&#187;</text></g><!--entity LndAdapter--><g class="entity" data-qualified-name="BLN.LndAdapter" data-source-line="135" id="ent0060"><rect fill="#F1F1F1" height="62.5938" rx="2.5" ry="2.5" style="stroke:#181818;stroke-width:0.5;" width="123.1592" x="431.42" y="1150.28"/><rect fill="#F1F1F1" height="10" style="stroke:#181818;stroke-width:0.5;" width="15" x="534.5792" y="1155.28"/><rect fill="#F1F1F1" height="2" style="stroke:#181818;stroke-width:0.5;" width="4" x="532.5792" y="1157.28"/><rect fill="#F1F1F1" height="2" style="stroke:#181818;stroke-width:0.5;" width="4" x="532.5792" y="1161.28"/><text fill="#000000" font-family="sans-serif" font-size="14" font-style="italic" lengthAdjust="spacing" textLength="72.0713" x="451.9639" y="1183.2751">&#171;adapter&#187;</text><text fill="#000000" font-family="sans-serif" font-size="14" font-weight="bold" lengthAdjust="spacing" textLength="83.1592" x="446.42" y="1199.572">LND Client</text></g><!--entity <b>BLN SDK</b>--><g class="entity" data-qualified-name="BLN..b.BLN SDK..b." data-source-line="138" id="ent0063"><rect fill="#F1F1F1" height="62.5938" rx="2.5" ry="2.5" style="stroke:#181818;stroke-width:0.5;" width="108.7354" x="564.63" y="994.24"/><rect fill="#F1F1F1" height="10" style="stroke:#181818;stroke-width:0.5;" width="15" x="653.3654" y="999.24"/><rect fill="#F1F1F1" height="2" style="stroke:#181818;stroke-width:0.5;" width="4" x="651.3654" y="1001.24"/><rect fill="#F1F1F1" height="2" style="stroke:#181818;stroke-width:0.5;" width="4" x="651.3654" y="1005.24"/><text fill="#000000" font-family="sans-serif" font-size="14" font-style="italic" lengthAdjust="spacing" textLength="62.3232" x="582.8361" y="1027.2351">&#171;library&#187;</text><text fill="#000000" font-family="sans-serif" font-size="14" font-weight="bold" lengthAdjust="spacing" textLength="68.7354" x="579.63" y="1043.532">BLN SDK</text></g><!--link Server to DB--><g class="link" data-entity-1="ent0005" data-entity-2="ent0003" data-link-type="dependency" data-source-line="28" id="lnk6"><path d="M833.4,183.53 C863.88,205.21 900.87,237.14 921,275.19 C923.9338,280.7362 926.3727,286.6397 928.3941,292.7284 C928.8994,294.2506 929.3787,295.7844 929.8331,297.3271 C930.0603,298.0984 930.2812,298.872 930.4961,299.6474 C930.5499,299.8413 929.0236,294.2469 929.0765,294.441" fill="none" id="Server-to-DB" style="stroke:#808080;stroke-width:1;"/><polygon fill="#808080" points="930.6562,300.2293,932.1456,290.4937,929.3398,295.4057,924.4278,292.5999,930.6562,300.2293" style="stroke:#808080;stroke-width:1;"/><text fill="#000000" font-family="sans-serif" font-size="13" lengthAdjust="spacing" textLength="23.0103" x="911.29" y="233.7569">use</text></g><!--reverse link Client to CLI--><g class="link" data-entity-1="ent0008" data-entity-2="ent0009" data-link-type="dependency" data-source-line="40" id="lnk12"><path d="M797,587.64 C797,645.63 797,764.7 797,822.74" fill="none" id="Client-backto-CLI" style="stroke:#808080;stroke-width:1;"/><polygon fill="#808080" points="797,581.64,793,590.64,797,586.64,801,590.64,797,581.64" style="stroke:#808080;stroke-width:1;"/><text fill="#000000" font-family="sans-serif" font-size="13" lengthAdjust="spacing" textLength="23.0103" x="798" y="739.0269">use</text></g><!--reverse link Client to WASM--><g class="link" data-entity-1="ent0008" data-entity-2="ent0010" data-link-type="dependency" data-source-line="41" id="lnk14"><path d="M809.1572,587.2453 C825.3972,637.1353 854.56,733.78 867,823.2 C875.36,883.28 874.69,954.4 873.38,994" fill="none" id="Client-backto-WASM" style="stroke:#808080;stroke-width:1;"/><polygon fill="#808080" points="807.3,581.54,806.2822,591.3361,808.8476,586.2944,813.8893,588.8599,807.3,581.54" style="stroke:#808080;stroke-width:1;"/><text fill="#000000" font-family="sans-serif" font-size="13" lengthAdjust="spacing" textLength="23.0103" x="866.75" y="811.2669">use</text></g><!--reverse link HTTP to Client--><g class="link" data-entity-1="ent0007" data-entity-2="ent0008" data-link-type="dependency" data-source-line="42" id="lnk16"><path d="M763.5654,243.8275 C762.7154,273.0175 760.88,374.29 774,461.23 C776.91,480.54 782.4,501.73 787.29,518.45" fill="none" id="HTTP-backto-Client" style="stroke:#808080;stroke-width:1;"/><polygon fill="#808080" points="763.74,237.83,759.4797,246.7098,763.5945,242.8279,767.4763,246.9426,763.74,237.83" style="stroke:#808080;stroke-width:1;"/><text fill="#000000" font-family="sans-serif" font-size="13" lengthAdjust="spacing" textLength="23.0103" x="775" y="394.4969">use</text></g><!--link Server to HTTP--><g class="link" data-entity-1="ent0005" data-entity-2="ent0007" data-link-type="association" data-source-line="43" id="lnk17"><path d="M775.87,183.52 C772.32,196.87 768.45,211.45 766.12,220.2" fill="none" id="Server-HTTP" style="stroke:#808080;stroke-width:1;"/></g><!--link Kernel to PlutusBinaries--><g class="link" data-entity-1="ent0018" data-entity-2="ent0019" data-link-type="association" data-source-line="49" id="lnk21"><path d="M906.28,103.97 C911.05,118.2 916.33,133.96 919.39,143.12" fill="none" id="Kernel-PlutusBinaries" style="stroke:#808080;stroke-width:1;"/></g><!--reverse link PlutusBinaries to TxBuilder--><g class="link" data-entity-1="ent0019" data-entity-2="ent0022" data-link-type="dependency" data-source-line="55" id="lnk24"><path d="M927.9881,166.2234 C941.7081,196.7734 989.54,303.29 1014.19,358.18" fill="none" id="PlutusBinaries-backto-TxBuilder" style="stroke:#808080;stroke-width:1;"/><polygon fill="#808080" points="925.53,160.75,925.5682,170.5988,927.5784,165.3111,932.866,167.3213,925.53,160.75" style="stroke:#808080;stroke-width:1;"/><text fill="#000000" font-family="sans-serif" font-size="13" lengthAdjust="spacing" textLength="23.0103" x="968.95" y="233.7569">use</text></g><!--link CLData to Codecs--><g class="link" data-entity-1="ent0025" data-entity-2="ent0026" data-link-type="association" data-source-line="63" id="lnk28"><path d="M1035.21,103.97 C1034.84,118.2 1034.44,133.96 1034.2,143.12" fill="none" id="CLData-Codecs" style="stroke:#808080;stroke-width:1;"/></g><!--reverse link Codecs to TxBuilder--><g class="link" data-entity-1="ent0026" data-entity-2="ent0022" data-link-type="dependency" data-source-line="65" id="lnk30"><path d="M1033.6469,166.748 C1032.8669,197.298 1030.18,303.29 1028.78,358.18" fill="none" id="Codecs-backto-TxBuilder" style="stroke:#808080;stroke-width:1;"/><polygon fill="#808080" points="1033.8,160.75,1029.5716,169.645,1033.6724,165.7484,1037.569,169.8492,1033.8,160.75" style="stroke:#808080;stroke-width:1;"/><text fill="#000000" font-family="sans-serif" font-size="13" lengthAdjust="spacing" textLength="23.0103" x="1033.79" y="233.7569">use</text></g><!--reverse link TxBuilder to Admin--><g class="link" data-entity-1="ent0022" data-entity-2="ent0031" data-link-type="dependency" data-source-line="74" id="lnk33"><path d="M1022.8674,427.572 C1014.7574,485.452 997.93,605.5 987.72,678.38" fill="none" id="TxBuilder-backto-Admin" style="stroke:#808080;stroke-width:1;"/><polygon fill="#808080" points="1023.7,421.63,1018.4898,429.9879,1023.0062,426.5816,1026.4124,431.098,1023.7,421.63" style="stroke:#808080;stroke-width:1;"/><text fill="#000000" font-family="sans-serif" font-size="13" lengthAdjust="spacing" textLength="23.0103" x="1014.37" y="554.5369">use</text></g><!--reverse link DB to Admin--><g class="link" data-entity-1="ent0003" data-entity-2="ent0031" data-link-type="dependency" data-source-line="76" id="lnk35"><path d="M939.0828,451.5804 C939.1015,451.8264 938.6973,446.4581 938.7161,446.704 C938.7917,447.6874 938.8693,448.6699 938.9488,449.6504 C939.2667,453.5722 939.6163,457.46 940,461.23 C947.69,536.79 961.25,623.51 970.43,678.37" fill="none" id="DB-backto-Admin" style="stroke:#808080;stroke-width:1;"/><polygon fill="#808080" points="938.6319,445.5974,935.3196,454.8726,939.0077,450.5833,943.297,454.2713,938.6319,445.5974" style="stroke:#808080;stroke-width:1;"/><text fill="#000000" font-family="sans-serif" font-size="13" lengthAdjust="spacing" textLength="23.0103" x="965.64" y="554.5369">use</text></g><!--reverse link FXAPI to Kraken--><g class="link" data-entity-1="ent0041" data-entity-2="ent0042" data-link-type="extension" data-source-line="107" id="lnk44"><path d="M604.8907,416.5798 C604.6707,466.4998 603.54,728.99 603.13,822.88" fill="none" id="FXAPI-backto-Kraken" style="stroke:#808080;stroke-width:1;stroke-dasharray:7,7;"/><polygon fill="none" points="604.97,398.58,598.8907,416.5534,610.8906,416.6063,604.97,398.58" style="stroke:#808080;stroke-width:1;"/><text fill="#000000" font-family="sans-serif" font-size="13" lengthAdjust="spacing" textLength="76.9082" x="604.86" y="666.7769">implements</text></g><!--reverse link CardanoConnector to BlockfrostAdapter--><g class="link" data-entity-1="ent0046" data-entity-2="ent0047" data-link-type="extension" data-source-line="117" id="lnk51"><path d="M1397,1052.38 C1397,1073.35 1397,1113.54 1397,1149.86" fill="none" id="CardanoConnector-backto-BlockfrostAdapter" style="stroke:#808080;stroke-width:1;stroke-dasharray:7,7;"/><polygon fill="none" points="1397,1034.38,1391,1052.38,1403,1052.38,1397,1034.38" style="stroke:#808080;stroke-width:1;"/><text fill="#000000" font-family="sans-serif" font-size="13" lengthAdjust="spacing" textLength="76.9082" x="1398" y="1120.3469">implements</text></g><!--reverse link CardanoConnector to UTxORPCAdapter--><g class="link" data-entity-1="ent0046" data-entity-2="ent0048" data-link-type="extension" data-source-line="118" id="lnk53"><path d="M1419.2772,1046.5469 C1434.6172,1060.4269 1453.18,1078.32 1476,1107.28 C1486.51,1120.61 1496.7,1136.45 1504.81,1149.99" fill="none" id="CardanoConnector-backto-UTxORPCAdapter" style="stroke:#808080;stroke-width:1;stroke-dasharray:7,7;"/><polygon fill="none" points="1405.93,1034.47,1415.2516,1050.996,1423.3029,1042.0978,1405.93,1034.47" style="stroke:#808080;stroke-width:1;"/><text fill="#000000" font-family="sans-serif" font-size="13" lengthAdjust="spacing" textLength="76.9082" x="1489.37" y="1120.3469">implements</text></g><!--reverse link CardanoConnector to KupoAdapter--><g class="link" data-entity-1="ent0046" data-entity-2="ent0049" data-link-type="extension" data-source-line="119" id="lnk55"><path d="M1374.5975,1046.4243 C1359.1675,1060.2343 1340.53,1078.09 1318,1107.28 C1307.75,1120.55 1297.98,1136.39 1290.25,1149.94" fill="none" id="CardanoConnector-backto-KupoAdapter" style="stroke:#808080;stroke-width:1;stroke-dasharray:7,7;"/><polygon fill="none" points="1388.01,1034.42,1370.596,1041.9535,1378.5989,1050.8952,1388.01,1034.42" style="stroke:#808080;stroke-width:1;"/><text fill="#000000" font-family="sans-serif" font-size="13" lengthAdjust="spacing" textLength="76.9082" x="1319" y="1120.3469">implements</text></g><!--reverse link BLNConnector to LndAdapter--><g class="link" data-entity-1="ent0059" data-entity-2="ent0060" data-link-type="extension" data-source-line="136" id="lnk62"><path d="M493,1052.38 C493,1073.35 493,1113.54 493,1149.86" fill="none" id="BLNConnector-backto-LndAdapter" style="stroke:#808080;stroke-width:1;stroke-dasharray:7,7;"/><polygon fill="none" points="493,1034.38,487,1052.38,499,1052.38,493,1034.38" style="stroke:#808080;stroke-width:1;"/><text fill="#000000" font-family="sans-serif" font-size="13" lengthAdjust="spacing" textLength="76.9082" x="494" y="1120.3469">implements</text></g><!--link CLData to CardanoSDK--><g class="link" data-entity-1="ent0025" data-entity-2="ent0056" data-link-type="dependency" data-source-line="142" id="lnk64"><path d="M1088.37,79.54 C1158.99,89.44 1276,111.76 1276,150.89 C1276,150.89 1276,150.89 1276,855.49 C1276,952.38 1403.24,870.38 1482,926.79 C1506.64,944.44 1523.9962,967.2207 1537.4962,988.6907" fill="none" id="CLData-to-CardanoSDK" style="stroke:#808080;stroke-width:1;"/><polygon fill="#808080" points="1540.69,993.77,1539.2855,984.0218,1538.0285,989.5372,1532.5131,988.2802,1540.69,993.77" style="stroke:#808080;stroke-width:1;"/><text fill="#000000" font-family="sans-serif" font-size="13" lengthAdjust="spacing" textLength="23.0103" x="1277" y="482.2969">use</text></g><!--link Admin to CardanoConnector--><g class="link" data-entity-1="ent0031" data-entity-2="ent0046" data-link-type="dependency" data-source-line="144" id="lnk65"><path d="M1087.92,784.29 C1110.12,795.94 1132.84,809.12 1153,823.2 C1199.31,855.53 1197.78,880.39 1246,909.79 C1256.08,915.94 1259.63,915.6 1271,918.79 C1288.03,923.58 1294.67,917.96 1310,926.79 C1349.95,949.82 1378.1795,992.6352 1389.4195,1011.5052" fill="none" id="Admin-to-CardanoConnector" style="stroke:#808080;stroke-width:1;"/><polygon fill="#808080" points="1392.49,1016.66,1391.3208,1006.8808,1389.9313,1012.3643,1384.4477,1010.9748,1392.49,1016.66" style="stroke:#808080;stroke-width:1;"/><text fill="#000000" font-family="sans-serif" font-size="13" lengthAdjust="spacing" textLength="23.0103" x="1247" y="859.0569">use</text></g><!--link Admin to TxSubmission--><g class="link" data-entity-1="ent0031" data-entity-2="ent0057" data-link-type="dependency" data-source-line="145" id="lnk66"><path d="M1026.85,790.51 C1070.62,841.95 1131.7222,913.74 1175.4322,965.12" fill="none" id="Admin-to-TxSubmission" style="stroke:#808080;stroke-width:1;"/><polygon fill="#808080" points="1179.32,969.69,1176.535,960.2431,1176.0802,965.8817,1170.4416,965.4268,1179.32,969.69" style="stroke:#808080;stroke-width:1;"/><text fill="#000000" font-family="sans-serif" font-size="13" lengthAdjust="spacing" textLength="23.0103" x="1128.45" y="859.0569">use</text></g><!--link Admin to BLNConnector--><g class="link" data-entity-1="ent0031" data-entity-2="ent0059" data-link-type="dependency" data-source-line="146" id="lnk67"><path d="M872.23,774.17 C855.8,779.74 839,785.25 823,790.2 C769.34,806.79 742.46,785.3 701,823.2 C670.71,850.88 700.7,883.74 669,909.79 C632.14,940.09 603.57,901.68 563,926.79 C526.97,949.09 506.3742,991.9401 498.4342,1011.0301" fill="none" id="Admin-to-BLNConnector" style="stroke:#808080;stroke-width:1;"/><polygon fill="#808080" points="496.13,1016.57,503.2796,1009.7962,498.0502,1011.9534,495.893,1006.724,496.13,1016.57" style="stroke:#808080;stroke-width:1;"/><text fill="#000000" font-family="sans-serif" font-size="13" lengthAdjust="spacing" textLength="23.0103" x="702" y="859.0569">use</text></g><!--link Server to Protocols--><g class="link" data-entity-1="ent0005" data-entity-2="ent0036" data-link-type="dependency" data-source-line="148" id="lnk68"><path d="M728.93,165.27 C672.07,180.99 585.09,213.78 537,275.19 C520.4,296.385 508.755,324.27 501.2088,347.125 C500.2655,349.9819 499.3862,352.7602 498.5694,355.437 C498.4673,355.7716 498.3661,356.1046 498.266,356.436 C498.2159,356.6016 499.8944,351.0213 499.8448,351.1861" fill="none" id="Server-to-Protocols" style="stroke:#808080;stroke-width:1;"/><polygon fill="#808080" points="498.1164,356.9318,504.5395,349.4656,499.5568,352.1437,496.8786,347.161,498.1164,356.9318" style="stroke:#808080;stroke-width:1;"/><text fill="#000000" font-family="sans-serif" font-size="13" lengthAdjust="spacing" textLength="23.0103" x="635.6" y="233.7569">use</text></g><!--link Server to FXAPI--><g class="link" data-entity-1="ent0005" data-entity-2="ent0041" data-link-type="dependency" data-source-line="149" id="lnk69"><path d="M729.04,182.25 C721.47,187.63 714.19,193.64 708,200.19 C652.38,259.08 619.0067,348.078 609.5267,375.558" fill="none" id="Server-to-FXAPI" style="stroke:#808080;stroke-width:1;"/><polygon fill="#808080" points="607.57,381.23,614.2864,374.0265,609.2006,376.5034,606.7237,371.4176,607.57,381.23" style="stroke:#808080;stroke-width:1;"/><text fill="#000000" font-family="sans-serif" font-size="13" lengthAdjust="spacing" textLength="23.0103" x="709" y="233.7569">use</text></g><?plantuml-src ZLPjRzis4FwkNt7mXmqevWHTrmuh10Esl2n1rCohFRJ0i0-qHDk4AL8ZfJfUbl--uuibIfQ31454tdF7U-w5lEWz4oLHf81C5gKKL5JBwiWfr0N_CT8DgdSabmScjh0XNDC04JAdcfRm8P0f8lP6zZwAOcsEcqJDyV0K0VxSIiN-bQ8YVChPLXG6oV0FLGXUlu63L7iDJ411n14oegc6DzVHSqIKaWT_ICe4JIIN2hQA71lHQiUolQ1QmriqYE9hpo4gIROdMmgZtqX53-G83qWU4gde28Y69BNxfyYUb9EAhD4lB3dD3JoVURVG9WkI7H62yZknaH37YcPIvPC9_EKL0UBrnEjuqT_s--oSj0SjgVg6mSUnnWNBQFyGXqVj2TvWd8_74-Js4MgiYqMOIUE6P1We6jwkLWiRdbdqd2QScKySSxPMH1q3fuQtHGENWM5wXrQaB3dBICMaw5aY_8Brb-doqoMd3ZmpDYUEQnEgWrou1h7w1Xh0V7pMq8JV8ctsN5vw3E-fmegPQXH4LUCCErMHhEfIzKhOf5Esfo9Wswt0WjTLhM76156CQbiC9pk9h55NP4Xx6drogyTPpNXkk-KyXvRQwX6yZcTbFwsXIsNNOz11OQ7dU0ykTaWA1WvzT4DFy49bBcAtT4fkRKDq3eRvERL1NjEymBmFtHRqQi7ej6UJz2qKKh0AtnonxOWv-wTcEQkEvft1fw5ekyv-d1l7fc4N40hnqnt4gutOwQrPA5d9J79jgzviddhn8BBcj9ZJYZ24B-HxvDN0wus283_V9F3BJ-z_1lDevQtSj3TGV3KLA5fALM4Ehi8OWsBBzPg_k-ZSmQ7FAU0bEe9cHOapu_RJD1dFqkdzh-zQ5L9NEoXzt1VyBkGXboy4RU7GRwAEPIN7P2kahbXcpfURCVwQiG7PZd1EnPPUjHPtMjVq1z2IVyCFicQROy3cEIoPQToRh_4rkZP5k_dggzLjxJzg33rGcYxSayWcarvuHljU4NmY6dMtDVevAV5KR-F5s4zNL_zDtA4VmMRNTARkCqs8oecGzdhvvH3L4vP8d4CPNeE6XqSQe8bW88GPbzb-ep3ZrhJTJbqCPz5qpVzSFVuEdnU9DJORNB_EyhukfSiQBePChCqvdrCQ-q7sCWfzDg-s2_cyogX_tvpkSdv_yO7rbKCLKxFXwxDwNDRhWccDS_ZIauW3eLKARj8NXjTJqQgPGbRw7UYAc9bbfju-U33wDsMMFhXcI1y6Ey_8pxiEfUSTTrxtz67k9tXZcOhyKiy4qAaMeP-Nwd1YwhCy2glXGexy77J_RRLrSo_-zy7W6bJmOoB40c9zZR2UvsWtA3k9ElyADZF6WHtCFoX6_Zy0?></g></svg>